<svg width="20" height="20" viewBox="0 0 20 20" fill="none" xmlns="http://www.w3.org/2000/svg">
<path d="M15.3918 14.0251L15.7168 16.6584C15.8002 17.3501 15.0585 17.8334 14.4668 17.4751L11.5835 15.7584C11.3835 15.6417 11.3335 15.3917 11.4418 15.1917C11.8585 14.4251 12.0835 13.5584 12.0835 12.6917C12.0835 9.64175 9.46682 7.15841 6.25016 7.15841C5.59182 7.15841 4.95016 7.25841 4.35016 7.45841C4.04182 7.55841 3.74182 7.27508 3.81682 6.95842C4.57516 3.92508 7.49182 1.66675 10.9752 1.66675C15.0418 1.66675 18.3335 4.74175 18.3335 8.53341C18.3335 10.7834 17.1752 12.7751 15.3918 14.0251Z" fill="#292D32"/>
<path d="M10.8332 12.6918C10.8332 13.6834 10.4665 14.6001 9.84984 15.3251C9.02484 16.3251 7.7165 16.9668 6.24984 16.9668L4.07484 18.2584C3.70817 18.4834 3.2415 18.1751 3.2915 17.7501L3.49984 16.1084C2.38317 15.3334 1.6665 14.0918 1.6665 12.6918C1.6665 11.2251 2.44984 9.93345 3.64984 9.16678C4.3915 8.68345 5.28317 8.40845 6.24984 8.40845C8.78317 8.40845 10.8332 10.3251 10.8332 12.6918Z" fill="#292D32"/>
</svg>
