<svg width="44" height="19" viewBox="0 0 44 19" fill="none" xmlns="http://www.w3.org/2000/svg">
<g filter="url(#filter0_f_1359_5416)">
<ellipse cx="22" cy="16.5402" rx="20.5324" ry="0.793096" fill="url(#paint0_radial_1359_5416)" fill-opacity="0.27"/>
</g>
<path d="M29.7519 14.1381H37.9367C37.9367 14.1381 38.4678 9.32795 34.8051 9.11292C34.8051 9.11292 30.0364 8.03549 29.7519 14.1381Z" fill="black"/>
<path d="M4.06829 13.5322H9.29372L10.9271 14.2821H12.5285C12.5285 14.2821 12.1371 10.4774 10.1085 9.90352C10.1085 9.90352 6.90632 8.14351 5.34051 10.1545C5.34051 10.1537 3.83159 12.2084 4.06829 13.5322Z" fill="black"/>
<path d="M40.5823 12.6388C40.5432 12.9229 40.4584 13.1987 40.3312 13.4553C40.2769 13.5707 40.2012 13.6746 40.1082 13.7614C39.7971 14.0751 38.8693 14.1333 38.2526 14.1356C37.915 14.1356 37.6707 14.121 37.6707 14.121C37.8482 13.241 37.7595 12.0748 36.9583 10.6928C36.1572 9.31085 33.6674 8.73617 31.8877 9.92073C30.1079 11.1053 30.2688 13.9052 30.2688 13.9052C30.2513 14.2458 29.8773 14.3536 29.8773 14.3536H29.6497L12.2893 14.3361H12.177C11.6072 14.3131 11.6915 13.8876 11.6915 13.8876C11.7446 13.0987 11.8515 11.2675 10.09 10.083C8.32845 8.89839 6.47815 9.796 6.47815 9.796C4.1484 10.9079 4.36309 13.492 4.36309 13.492C4.26622 13.512 4.16814 13.5256 4.0695 13.5326L4.00047 13.5372H3.95647H3.90109C3.60494 13.5381 3.31051 13.4919 3.02866 13.4002C2.76163 13.2747 2.47638 12.7 2.47638 12.7C2.22755 12.2156 2.38838 12.0542 2.38838 12.0542C2.53025 11.7481 2.31252 11.4619 2.31252 11.4619C2.1881 11.0846 2.20631 10.9775 2.20631 10.9775L2.22376 10.3133C2.31252 9.18229 2.72218 9.11112 2.72218 9.11112L3.34501 8.71551C3.46943 8.57241 3.50508 8.17985 3.50508 8.17985C3.52733 7.73701 3.57801 7.29608 3.65681 6.85985C3.86695 5.71202 4.20302 5.21845 4.20302 5.21845C4.20833 5.20621 4.21364 5.19473 4.21971 5.18249C4.6142 4.37441 6.55477 2.23868 6.77933 1.99305L6.80057 1.97009L6.19367 1.59284C6.0972 1.50388 6.02465 1.39173 5.98277 1.26685C5.96716 1.22696 5.95423 1.18606 5.94408 1.14442C6.37118 0.83833 9.94736 0.695234 9.94736 0.695234C10.8198 0.695234 13.2034 0.588101 13.2034 0.588101C18.7088 0.116725 21.9276 0.733493 22.901 0.970711C23.1149 1.02198 23.2211 1.05565 23.2211 1.05565C23.2916 1.07632 23.3637 1.09927 23.4365 1.12376L23.4578 1.13064C23.6717 1.20257 23.8963 1.28369 24.1299 1.38317C26.946 2.54247 30.9576 5.29115 30.9576 5.29115H30.972C31.8892 5.54137 34.2675 5.86124 34.2675 5.86124C35.419 5.97436 36.5456 6.27032 37.6055 6.73818C38.0045 6.9146 38.3877 7.1253 38.751 7.36796C38.883 7.45672 38.9498 7.51182 38.9498 7.51182C39.964 8.21199 39.7842 8.76831 39.7842 8.76831C39.766 9.1096 40.0877 9.36059 40.0877 9.36059C40.6749 9.82737 40.6187 11.3884 40.6187 11.3884C40.6538 11.8053 40.6416 12.2248 40.5823 12.6388Z" fill="url(#paint1_linear_1359_5416)"/>
<path style="mix-blend-mode:screen" opacity="0.3" d="M38.7732 9.02275C38.3596 8.58737 38.0439 8.0672 37.8476 7.49766L35.659 6.40033L31.834 5.80806C31.834 5.80806 30.0542 5.68256 28.3997 3.86975C28.3997 3.86975 25.3219 1.30321 21.443 1.08818C21.443 1.08818 16.3716 0.118646 9.9483 1.66209L8.54256 2.02328C8.54256 2.02328 8.29373 2.2031 8.16931 1.82585C8.16931 1.82585 7.95538 1.53889 7.58213 1.78988L5.39349 4.84158C5.39349 4.84158 5.23342 5.02064 5.50046 5.14767L6.47909 5.48896C6.47909 5.48896 6.9062 5.66802 6.44343 5.65042H5.01949C5.01949 5.65042 5.00204 5.65042 4.80631 5.48896C4.80631 5.48896 4.62879 7.66065 3.86334 8.36006C3.86334 8.36006 5.71363 7.24744 7.92048 7.01404C10.1273 6.78065 7.75965 6.02767 12.3327 6.31463L24.6452 7.05001L28.8662 7.38976C28.8662 7.38976 32.5668 7.55122 34.6493 8.62789C34.6493 8.62789 35.8585 9.38163 36.2856 9.36403C36.2856 9.36403 37.2999 8.68222 38.3142 9.23854C38.3142 9.23854 39.2928 9.68695 39.7912 10.4591C39.7912 10.4591 40.3071 11.4822 40.3071 10.6741C40.3071 9.86601 39.5735 9.25614 38.7732 9.02275ZM30.2682 6.73474L25.9174 6.46538L7.76876 5.36193C6.5413 5.3076 7.34165 5.09257 7.34165 5.09257C7.76876 5.09257 8.06235 4.66176 8.06235 4.66176C9.07663 1.86182 13.2134 1.6774 13.2134 1.6774L15.5902 2.48088L28.9087 5.73842C34.5119 7.19234 30.2682 6.73474 30.2682 6.73474Z" fill="url(#paint2_linear_1359_5416)"/>
<path style="mix-blend-mode:screen" opacity="0.3" d="M8.50658 8.77254C7.74795 9.39696 4.08453 8.76183 4.07619 13.533C4.01626 13.533 3.95708 13.5399 3.89943 13.5399C3.60328 13.5408 3.30885 13.4946 3.02701 13.4029C2.75997 13.2774 2.47472 12.7027 2.47472 12.7027C2.22589 12.2183 2.38672 12.0569 2.38672 12.0569C2.52859 11.7508 2.31086 11.4646 2.31086 11.4646C2.18645 11.0873 2.20465 10.9802 2.20465 10.9802L2.2221 10.316C2.31086 9.18499 2.72052 9.11383 2.72052 9.11383L3.34335 8.71821C3.46777 8.57511 3.50342 8.18255 3.50342 8.18255C3.52567 7.73971 3.57635 7.29878 3.65515 6.86255C3.79322 7.04161 3.86681 7.48927 3.69156 8.51466C3.69156 8.51466 3.93433 8.57741 3.43591 8.89727C2.93749 9.21713 2.35031 9.29212 2.33286 10.6022C2.33286 10.6022 2.47472 12.0921 2.49293 11.3559L2.61735 10.0099C2.61735 10.0099 2.653 9.59745 3.0088 9.43598C3.0088 9.43598 5.00172 8.68224 4.23626 8.68224C4.23626 8.68224 3.82736 8.34095 6.51215 7.69511C9.19694 7.04926 9.27204 8.14353 8.50658 8.77254Z" fill="url(#paint3_linear_1359_5416)"/>
<path style="mix-blend-mode:screen" opacity="0.3" d="M40.5817 12.6385C40.5425 12.9226 40.4577 13.1984 40.3306 13.4549C40.3157 13.4566 40.3007 13.4566 40.2858 13.4549C39.6986 13.4909 39.7161 12.666 39.663 11.9658C39.6099 11.2656 39.0932 11.2297 38.4347 10.9427C37.7763 10.6558 38.3103 10.0627 39.2692 10.4583C40.2281 10.854 39.8564 12.2352 40.1235 12.917C40.2623 13.2667 40.4406 12.9912 40.5817 12.6385Z" fill="url(#paint4_linear_1359_5416)"/>
<path style="mix-blend-mode:screen" opacity="0.3" d="M10.0714 7.30033C10.0714 7.30033 12.3329 7.62325 13.1059 7.83598C13.879 8.04872 14.4942 8.29512 13.7204 8.40148C12.9466 8.50785 11.3178 8.91341 10.277 8.88586C9.23615 8.85832 9.84988 9.37102 10.8907 9.2899C11.9316 9.20879 19.0316 9.15522 21.3803 9.34423C23.729 9.53324 26.8515 9.64037 27.1459 9.07488C27.4402 8.50938 22.4219 7.62096 17.8041 7.51306C13.1863 7.40516 10.0524 6.60015 10.0714 7.30033Z" fill="url(#paint5_linear_1359_5416)"/>
<path style="mix-blend-mode:screen" opacity="0.3" d="M22.9017 0.967404L23.1589 1.05311C20.289 0.401905 16.2964 0.554183 16.2964 0.554183C14.0144 0.554183 8.95663 1.45561 8.95663 1.45561C8.70249 1.48316 8.90277 1.02556 8.90277 1.02556C8.86332 1.17325 8.98318 1.3217 8.98318 1.3217L9.8374 1.2138C10.945 1.07912 10.5444 0.958221 10.5444 0.958221C9.78581 0.721768 6.90302 1.1258 5.98356 1.26431C5.96795 1.22442 5.95503 1.18352 5.94487 1.14188C6.37198 0.835788 9.94816 0.692687 9.94816 0.692687C10.8206 0.692687 13.2042 0.585559 13.2042 0.585559C18.7096 0.116479 21.9262 0.733246 22.9017 0.967404Z" fill="url(#paint6_linear_1359_5416)"/>
<path d="M18.0794 1.10803C18.0794 1.10803 21.3529 0.928196 24.0574 2.18469C24.0574 2.18469 26.4774 3.35165 28.0432 4.66171C28.0432 4.66171 29.0575 5.52335 29.0749 6.11563C29.0749 6.11563 29.1463 6.43855 28.4347 6.38498L17.1721 5.63048L9.16473 5.16446C9.16473 5.16446 8.6132 5.25399 8.88024 4.48188C9.14728 3.70977 10.2329 1.30545 16.1039 1.12639L18.0794 1.10803Z" fill="#1A1A1A"/>
<path opacity="0.6" d="M18.5416 1.52128L19.1826 5.54098L19.2091 5.76519L17.2428 5.63969L17.2253 5.41548L17.0122 1.35982C17.0122 1.35982 17.1199 1.21443 16.5668 1.22208V1.1203L18.0796 1.10653C18.5958 1.08801 19.1128 1.09848 19.6279 1.1379V1.26416C19.3412 1.24733 19.0498 1.24121 18.7555 1.25039C18.7555 1.25192 18.4839 1.25651 18.5416 1.52128Z" fill="url(#paint7_linear_1359_5416)"/>
<path style="mix-blend-mode:screen" opacity="0.6" d="M9.14762 4.62573C9.14762 4.62573 9.43211 2.84889 11.9234 2.00562L11.994 5.14302L9.30769 4.99992C9.30769 4.99992 8.95189 5.00298 9.14762 4.62573Z" fill="url(#paint8_linear_1359_5416)"/>
<path style="mix-blend-mode:screen" opacity="0.6" d="M12.1554 1.88018L12.2085 5.12854L17.2261 5.4155L17.0129 1.35984C17.0129 1.35984 17.173 1.14481 16.1025 1.2527C16.1048 1.25194 13.7917 1.37743 12.1554 1.88018Z" fill="url(#paint9_linear_1359_5416)"/>
<path style="mix-blend-mode:screen" opacity="0.6" d="M18.5425 1.52127L19.1828 5.54097L27.4207 6.07662L27.2963 4.31662C27.2963 4.31662 25.5704 2.93463 23.3461 2.05539C23.3461 2.05539 21.1218 1.17615 18.7557 1.24808C18.7557 1.25191 18.4841 1.2565 18.5425 1.52127Z" fill="url(#paint10_linear_1359_5416)"/>
<path d="M27.8478 6.07062C27.8478 6.07062 26.8957 6.44787 26.7622 5.60384C26.7622 5.60384 26.6734 4.58992 27.1362 4.50038C27.2046 4.48267 27.2744 4.47064 27.3448 4.46442C27.6202 4.4384 28.0981 4.46442 28.3371 4.9312C28.4288 5.12752 28.4745 5.34248 28.4706 5.55945H28.6572C28.6572 5.55945 28.6754 6.2053 27.8478 6.07062Z" fill="url(#paint11_linear_1359_5416)"/>
<path style="mix-blend-mode:screen" opacity="0.1" d="M27.8477 6.07063C27.8477 6.07063 26.8956 6.44788 26.7621 5.60384C26.7621 5.60384 26.7166 5.08273 26.8615 4.75445C26.8826 4.69235 26.9188 4.63657 26.9668 4.59219C27.0148 4.54782 27.073 4.51626 27.1361 4.50039C27.2046 4.48268 27.2744 4.47065 27.3448 4.46443C27.5541 4.44453 27.8819 4.45754 28.1315 4.66874C28.2156 4.74198 28.2847 4.83115 28.3348 4.93121C28.4264 5.12753 28.4721 5.34249 28.4683 5.55946H28.6549C28.6549 5.55946 28.6754 6.20531 27.8477 6.07063Z" fill="url(#paint12_linear_1359_5416)"/>
<path d="M7.16986 2.1718L6.11537 3.59817L5.55474 4.36339C5.55474 4.36339 5.20805 4.75366 4.88791 4.87456L4.21955 5.18065C4.61404 4.37258 6.55461 2.23685 6.77917 1.99121L7.16986 2.1718Z" fill="#1A1A1A"/>
<path style="mix-blend-mode:screen" opacity="0.6" d="M7.16986 2.1718L6.11537 3.59817L5.55474 4.36339C5.55474 4.36339 5.20805 4.75366 4.88791 4.87456L4.21955 5.18065C4.61404 4.37258 6.55461 2.23685 6.77917 1.99121L7.16986 2.1718Z" fill="url(#paint13_linear_1359_5416)"/>
<path d="M39.5299 8.47555C39.5428 9.14894 38.8221 8.74491 38.8221 8.74491C38.0217 8.36765 37.4877 8.36765 37.4877 8.36765C36.921 8.40362 37.0606 8.21461 37.0606 8.21461C37.4482 7.79756 36.5606 7.28563 35.9735 6.82803C35.3863 6.37043 35.9135 6.4018 35.9135 6.4018C36.2807 6.37808 37.0697 6.61377 37.6584 6.81196C38.0572 6.98874 38.4404 7.19942 38.8039 7.44173C39.5906 8.19012 39.5299 8.47555 39.5299 8.47555Z" fill="#262A2C"/>
<path d="M40.1 12.144C40.1645 12.6528 40.1152 13.0783 39.99 13.0944C39.8648 13.1104 39.7101 12.7118 39.6456 12.2029C39.5811 11.694 39.6296 11.2686 39.7548 11.2517C39.88 11.2349 40.0347 11.6351 40.1 12.144Z" fill="#1A1A1A"/>
<path d="M40.1701 12.2115C40.2194 12.6018 40.1602 12.9308 40.0366 12.9469C39.9129 12.963 39.7725 12.6599 39.7232 12.2697C39.6739 11.8794 39.7331 11.5504 39.8568 11.5343C39.9804 11.5182 40.1215 11.822 40.1701 12.2115Z" fill="url(#paint14_linear_1359_5416)"/>
<path d="M30.9759 5.29379C30.5571 5.56927 28.948 4.34186 27.562 3.40523C26.1047 2.42115 23.4533 1.1968 23.4533 1.1968L23.4586 1.12793C26.2557 2.06685 30.9614 5.28843 30.9614 5.28843L30.9759 5.29379Z" fill="#1A1A1A"/>
<path style="mix-blend-mode:screen" opacity="0.6" d="M30.9759 5.29379C30.5571 5.56927 28.948 4.34186 27.562 3.40523C26.1047 2.42115 23.4533 1.1968 23.4533 1.1968L23.4586 1.12793C26.2557 2.06685 30.9614 5.28843 30.9614 5.28843L30.9759 5.29379Z" fill="url(#paint15_linear_1359_5416)"/>
<path d="M12.176 14.3348C11.6063 14.3119 11.6905 13.8864 11.6905 13.8864C11.7436 13.0975 11.8506 11.2663 10.089 10.0818C8.32749 8.89719 6.4772 9.7948 6.4772 9.7948C4.14745 10.9074 4.36214 13.4916 4.36214 13.4916C4.26526 13.5116 4.16719 13.5251 4.06855 13.5321L3.99951 13.5367H3.95551H3.90013C3.81896 12.8082 3.76358 10.5937 5.83843 9.36168C5.83843 9.36168 7.1281 8.38297 9.05957 9.0028C10.9622 9.61421 11.7967 10.9074 12.0835 12.5052L12.176 14.3348Z" fill="url(#paint16_linear_1359_5416)"/>
<path d="M38.2526 14.135C37.915 14.135 37.6707 14.1205 37.6707 14.1205C37.8483 13.2405 37.7595 12.0743 36.9584 10.6923C36.1573 9.31033 33.6675 8.73565 31.8877 9.92021C30.108 11.1048 30.2688 13.9047 30.2688 13.9047C30.2513 14.2452 29.8773 14.3531 29.8773 14.3531H29.6498C29.5739 13.4991 29.5519 10.814 31.8338 9.27437C31.8338 9.27437 33.6485 7.99951 35.7658 9.00501C37.8832 10.0105 38.2921 12.4692 38.2572 13.3484C38.2579 13.3484 38.2738 13.695 38.2526 14.135Z" fill="url(#paint17_linear_1359_5416)"/>
<path d="M29.5747 12.4778C29.5643 12.5651 29.5458 12.6511 29.5194 12.7349C29.5125 12.7563 29.5065 12.777 29.4989 12.7976C29.4913 12.8183 29.4845 12.839 29.4746 12.8589C29.4581 12.8996 29.4391 12.9392 29.4177 12.9775C29.4071 12.9974 29.3942 13.015 29.3828 13.0341C29.3711 13.0528 29.3582 13.0707 29.3441 13.0877C29.3314 13.1055 29.3172 13.1221 29.3016 13.1374L29.2554 13.1841L29.203 13.2246C29.1852 13.2376 29.1664 13.2491 29.1469 13.2591C29.128 13.2707 29.1079 13.2802 29.0869 13.2874L29.0247 13.3096L26.9984 13.3165H24.9721H20.9203L16.8677 13.3035L14.8414 13.2966L12.8136 13.2874C12.7817 13.2811 12.7503 13.2726 12.7195 13.2621C12.6884 13.2522 12.658 13.2402 12.6285 13.2262C12.5986 13.214 12.5697 13.1994 12.542 13.1826L12.5003 13.1581C12.4864 13.1493 12.473 13.1399 12.4601 13.1298L12.4214 13.1007C12.4081 13.0916 12.3954 13.0816 12.3835 13.0708L12.3144 13.002C12.3026 12.9909 12.2917 12.9789 12.2818 12.966L12.253 12.927L12.1961 12.8504L12.2537 12.927L12.2826 12.966C12.2929 12.9785 12.304 12.9902 12.3159 13.0012L12.3857 13.0685C12.3979 13.0791 12.4105 13.0891 12.4237 13.0984L12.4631 13.1267C12.4755 13.137 12.4887 13.1462 12.5026 13.1542L12.545 13.178C12.5727 13.1945 12.6016 13.2089 12.6315 13.2208C12.6609 13.2342 12.691 13.2457 12.7218 13.2552C12.7521 13.265 12.7831 13.273 12.8144 13.279L14.8407 13.2706H16.867H20.9195L24.9714 13.2828L26.9977 13.2889L29.024 13.3004L29.0854 13.2797C29.1256 13.2641 29.1637 13.2438 29.1992 13.2193L29.2516 13.1803L29.2978 13.1351C29.3271 13.1028 29.3545 13.0688 29.3798 13.0333C29.3912 13.0142 29.4041 12.9974 29.4147 12.9775C29.4363 12.9396 29.4558 12.9005 29.4731 12.8604C29.4822 12.8405 29.489 12.8198 29.4974 12.7992C29.5057 12.7785 29.5118 12.7579 29.5186 12.7372C29.5451 12.6526 29.5639 12.5658 29.5747 12.4778Z" fill="#36A8C1"/>
<path d="M17.777 0.874726C17.777 0.874726 21.6027 0.645162 24.7692 2.22075C24.7692 2.22075 27.5807 3.56677 29.2004 5.5594C29.2004 5.5594 29.4492 6.04379 29.5919 6.88706L29.7876 9.95636C29.7876 9.95636 29.7876 11.6613 29.5736 12.4334C29.5736 12.4334 29.5023 13.1328 29.0221 13.2583L13.578 13.2407H12.8125C12.8125 13.2407 12.0835 13.1328 12.0296 12.236C12.0296 12.236 11.9234 10.7461 10.2506 9.61507C9.49871 8.90244 8.93073 8.01535 8.59604 7.03092C8.59604 7.03092 8.04452 5.5594 8.41777 4.44677C8.41777 4.44677 8.88053 2.15111 13.0621 1.23285C13.0621 1.23361 15.4639 0.802795 17.777 0.874726Z" stroke="#1A1A1A" stroke-width="0.222222" stroke-miterlimit="10"/>
<path d="M17.7767 0.874512L18.2395 5.70229C18.5532 6.44442 18.6991 7.2477 18.6666 8.05381L18.6309 11.482L18.5771 12.0743C18.5771 12.0743 18.4929 13.0094 18.2918 13.2573" stroke="#1A1A1A" stroke-width="0.222222" stroke-miterlimit="10"/>
<path d="M4.152 8.18848L4.68304 8.60552C4.68304 8.60552 6.15098 9.69596 6.42788 9.80385" stroke="#1A1A1A" stroke-width="0.222222" stroke-miterlimit="10"/>
<path style="mix-blend-mode:screen" opacity="0.3" d="M13.2933 11.4186C13.2933 11.4186 15.1079 11.9037 16.2019 11.9841C17.2958 12.0644 26.5306 12.496 28.5061 12.1731C28.5061 12.1731 28.8444 12.1731 28.7815 11.9933C28.7185 11.8134 28.2573 11.7331 27.9364 11.7423L14.5026 11.3199C14.5026 11.3199 13.0976 11.2127 13.2933 11.4186Z" fill="url(#paint18_linear_1359_5416)"/>
<path d="M31.0222 8.67323C31.0222 8.76582 30.8409 8.84158 30.6186 8.84158C30.3963 8.84158 30.215 8.76506 30.215 8.67323C30.215 8.58141 30.3956 8.50488 30.6186 8.50488C30.8417 8.50488 31.0222 8.57988 31.0222 8.67323Z" fill="url(#paint19_linear_1359_5416)"/>
<path d="M7.16965 2.17156L7.54896 1.64662C7.54896 1.64662 7.65593 1.17983 7.37068 0.874512" stroke="#1A1A1A" stroke-width="0.222222" stroke-miterlimit="10"/>
<path d="M8.9696 0.749023C8.87237 0.962737 8.8239 1.19572 8.82774 1.43083" stroke="#1A1A1A" stroke-width="0.222222" stroke-miterlimit="10"/>
<path d="M4.24847 5.55032L4.72261 5.50977C4.72261 5.50977 5.02227 5.71178 4.93578 6.48619C4.93578 6.48619 4.56254 7.84522 3.99508 8.49107L3.78191 8.51173C3.78191 8.51173 3.69467 7.46184 3.9086 6.71499C3.96429 6.49822 4.03789 6.28654 4.1286 6.08215C4.19873 5.9132 4.23928 5.73326 4.24847 5.55032Z" fill="#36CACD"/>
<path d="M10.0833 6.81133L9.71007 6.79066C9.71007 6.79066 9.33076 6.74399 9.29586 7.04625C9.29586 7.04625 9.2291 7.32938 9.71614 7.32938L10.0704 7.33627C10.0704 7.33627 10.1364 7.67909 10.7577 7.64235C10.7577 7.64235 11.2175 7.60869 11.2888 7.36688H11.6628C11.6903 7.36491 11.7171 7.35731 11.7415 7.34455C11.766 7.33178 11.7876 7.31411 11.8051 7.29263C11.8226 7.27114 11.8355 7.24628 11.8431 7.21957C11.8507 7.19287 11.8529 7.16488 11.8494 7.13731C11.8494 7.13731 11.9162 6.86872 11.3085 6.8955C11.3085 6.8955 11.1689 6.52513 10.6417 6.5588C10.6439 6.56187 10.2237 6.56186 10.0833 6.81133Z" fill="#36A8C1"/>
<path d="M10.0833 6.77523L9.71007 6.75456C9.71007 6.75456 9.33076 6.70788 9.29586 7.01091C9.29586 7.01091 9.2291 7.29328 9.71614 7.29328L10.0704 7.30017C10.0704 7.30017 10.1364 7.64299 10.7577 7.60626C10.7577 7.60626 11.2175 7.57258 11.2888 7.33077H11.6628C11.6903 7.32881 11.7171 7.32121 11.7415 7.30845C11.766 7.29568 11.7876 7.27801 11.8051 7.25653C11.8226 7.23504 11.8355 7.21018 11.8431 7.18347C11.8507 7.15677 11.8529 7.12877 11.8494 7.10121C11.8494 7.10121 11.9162 6.83185 11.3085 6.85863C11.3085 6.85863 11.1689 6.48827 10.6417 6.52194C10.6439 6.52577 10.2237 6.52577 10.0833 6.77523Z" fill="url(#paint20_linear_1359_5416)"/>
<path d="M9.36402 7.03793C9.36402 7.03793 9.33064 6.79535 9.72437 6.82213L11.146 6.91013C11.146 6.91013 11.7666 6.89636 11.7666 7.13205C11.7666 7.13205 11.7863 7.26672 11.4791 7.27361L9.59085 7.21928C9.53806 7.22029 9.48656 7.20275 9.44517 7.16966C9.40379 7.13658 9.3751 7.09 9.36402 7.03793Z" fill="url(#paint21_linear_1359_5416)"/>
<path d="M19.8886 7.22372L19.5154 7.20382C19.5154 7.20382 19.1361 7.15638 19.1012 7.45941C19.1012 7.45941 19.0352 7.74177 19.5222 7.74177L19.8758 7.74866C19.8758 7.74866 19.9425 8.09224 20.5631 8.05475C20.5631 8.05475 21.0236 8.02108 21.0941 7.7785H21.4681C21.4956 7.77665 21.5225 7.76912 21.547 7.75639C21.5715 7.74365 21.5932 7.72599 21.6107 7.70447C21.6282 7.68296 21.6411 7.65806 21.6487 7.63131C21.6563 7.60455 21.6583 7.57652 21.6547 7.54894C21.6547 7.54894 21.7215 7.27958 21.1146 7.30636C21.1146 7.30636 20.9742 6.93676 20.447 6.97043C20.4462 6.97502 20.029 6.97502 19.8886 7.22372Z" fill="#36A8C1"/>
<path d="M19.8886 7.18766L19.5154 7.16777C19.5154 7.16777 19.1361 7.12032 19.1012 7.42335C19.1012 7.42335 19.0352 7.70572 19.5222 7.70572L19.8758 7.71261C19.8758 7.71261 19.9425 8.05619 20.5631 8.02252C20.5631 8.02252 21.0236 7.98885 21.0941 7.74628H21.4681C21.4957 7.74453 21.5226 7.73707 21.5472 7.72438C21.5717 7.71168 21.5935 7.69401 21.611 7.67247C21.6285 7.65093 21.6414 7.62599 21.6489 7.59919C21.6565 7.57239 21.6584 7.54431 21.6547 7.51671C21.6547 7.51671 21.7215 7.24735 21.1146 7.27413C21.1146 7.27413 20.9742 6.90453 20.447 6.9382C20.4462 6.93591 20.029 6.9359 19.8886 7.18766Z" fill="url(#paint22_linear_1359_5416)"/>
<path d="M19.1666 7.45012C19.1666 7.45012 19.1332 7.20754 19.527 7.23509L20.9486 7.32233C20.9486 7.32233 21.5692 7.30855 21.5692 7.54424C21.5692 7.54424 21.5889 7.67892 21.2824 7.68581L19.3942 7.63224C19.3414 7.63253 19.2901 7.61464 19.2487 7.58153C19.2073 7.54842 19.1784 7.50206 19.1666 7.45012Z" fill="url(#paint23_linear_1359_5416)"/>
<path d="M28.4869 5.55869C28.0537 5.82422 27.2609 5.60307 27.2609 5.60307C27.2178 5.22134 27.2477 4.8348 27.3489 4.46442C27.6243 4.4384 28.1023 4.46442 28.3412 4.9312C28.4329 5.12752 28.4786 5.34248 28.4748 5.55945L28.4869 5.55869Z" fill="url(#paint24_linear_1359_5416)"/>
<g style="mix-blend-mode:screen" opacity="0.3">
<path d="M28.1325 4.66874C27.7888 4.77434 27.2221 4.77052 26.8625 4.75445C26.8836 4.69235 26.9198 4.63657 26.9678 4.59219C27.0158 4.54782 27.074 4.51626 27.1371 4.50039C27.2056 4.48268 27.2754 4.47065 27.3458 4.46443C27.5551 4.44453 27.8806 4.45754 28.1325 4.66874Z" fill="white"/>
</g>
<path d="M8.01173 10.1606C7.38332 10.1608 6.76907 10.3489 6.24666 10.7012C5.72425 11.0535 5.31714 11.5542 5.07683 12.1399C4.83653 12.7256 4.7738 13.37 4.8966 13.9916C5.0194 14.6133 5.32221 15.1842 5.76672 15.6323C6.21123 16.0803 6.77749 16.3854 7.39387 16.5088C8.01025 16.6322 8.64908 16.5685 9.22955 16.3257C9.81003 16.0829 10.3061 15.6719 10.655 15.1446C11.0039 14.6174 11.1899 13.9977 11.1896 13.3639C11.189 12.5141 10.8539 11.6994 10.258 11.0987C9.66213 10.498 8.85417 10.1606 8.01173 10.1606Z" fill="url(#paint25_radial_1359_5416)"/>
<path d="M8.01247 10.8997C7.52879 10.8997 7.05597 11.0444 6.65383 11.3155C6.2517 11.5866 5.93831 11.9719 5.75332 12.4227C5.56832 12.8735 5.52003 13.3695 5.61456 13.848C5.70909 14.3264 5.94219 14.7659 6.28436 15.1107C6.62654 15.4555 7.06242 15.6903 7.53686 15.7852C8.01131 15.8801 8.503 15.8309 8.94974 15.6439C9.39647 15.4569 9.77818 15.1404 10.0466 14.7345C10.315 14.3286 10.458 13.8516 10.4575 13.3637C10.4571 12.7099 10.1993 12.0831 9.74081 11.621C9.2823 11.1589 8.66061 10.8995 8.01247 10.8997ZM9.78918 12.124L9.87036 12.0965C10.079 12.4106 10.2022 12.7745 10.2277 13.1517C9.94622 13.2558 9.5449 13.1433 9.36435 13.0966C9.3151 13.0841 9.27209 13.0539 9.24344 13.0116C9.21479 12.9693 9.20248 12.9179 9.20883 12.867C9.28545 12.5219 9.78918 12.124 9.78918 12.124ZM7.36157 11.166C7.72363 11.0681 8.10483 11.0681 8.46689 11.166C8.47448 11.472 8.23931 11.8133 8.13613 11.9717C8.10876 12.0158 8.06611 12.0481 8.01648 12.0622C7.96685 12.0764 7.91377 12.0714 7.86758 12.0483C7.56792 11.8631 7.36157 11.2555 7.36157 11.2555V11.166ZM5.74342 13.3323C5.75431 12.9535 5.86338 12.5841 6.05976 12.261C6.3488 12.3375 6.60977 12.6673 6.73115 12.8119C6.76451 12.8513 6.78221 12.9017 6.7808 12.9535C6.7794 13.0052 6.759 13.0546 6.72356 13.092C6.46184 13.3292 5.82535 13.3553 5.82535 13.3553L5.74342 13.3323ZM6.13032 14.4526C6.04763 14.3761 5.88224 13.9866 5.83824 13.8243C5.79424 13.6621 6.00969 13.6338 6.00969 13.6338L6.83736 13.4042C6.8744 13.387 6.91452 13.3774 6.95531 13.3761C6.9961 13.3748 7.03673 13.3819 7.07477 13.3968C7.1128 13.4117 7.14745 13.4343 7.17666 13.463C7.20587 13.4918 7.22902 13.5262 7.24474 13.5642C7.38509 13.8588 7.03384 14.0799 7.03384 14.0799C6.80626 14.1564 6.42315 14.438 6.32908 14.5084C6.23501 14.5788 6.13032 14.4526 6.13032 14.4526ZM7.29633 15.4665L7.24474 15.5354C6.89725 15.3934 6.59277 15.162 6.3617 14.8643C6.53618 14.6186 6.92991 14.4817 7.10591 14.4212C7.15416 14.4032 7.20731 14.4039 7.25509 14.4231C7.30288 14.4423 7.3419 14.4787 7.36461 14.5253C7.49357 14.8551 7.29633 15.4665 7.29633 15.4665ZM7.55426 12.7201C7.3115 12.9359 7.00426 12.6551 7.00426 12.6551C6.86922 12.4538 6.49825 12.1584 6.40494 12.0865C6.31163 12.0146 6.40494 11.8784 6.40494 11.8784C6.45501 11.7774 6.78425 11.5111 6.92612 11.4246C7.06798 11.3381 7.15371 11.5401 7.15371 11.5401L7.59599 12.2809C7.62259 12.3121 7.64267 12.3485 7.65501 12.3878C7.66735 12.4271 7.67171 12.4684 7.66781 12.5095C7.66392 12.5505 7.65185 12.5903 7.63234 12.6265C7.61283 12.6627 7.58627 12.6945 7.55426 12.7201ZM8.4722 15.5652C8.37055 15.6119 7.94951 15.6119 7.78413 15.5889C7.61875 15.566 7.67792 15.3555 7.67792 15.3555L7.79399 14.4977C7.79277 14.4568 7.79972 14.416 7.81442 14.3778C7.82912 14.3396 7.85128 14.3047 7.87959 14.2753C7.90789 14.2459 7.94175 14.2226 7.97917 14.2066C8.0166 14.1906 8.05681 14.1824 8.09744 14.1825C8.42062 14.1679 8.4851 14.5804 8.4851 14.5804C8.46613 14.8229 8.57158 15.2874 8.59965 15.4022C8.62772 15.517 8.4722 15.5652 8.4722 15.5652ZM8.50179 12.7056C8.22261 12.5403 8.39103 12.1584 8.39103 12.1584C8.53821 11.9656 8.69979 11.518 8.73924 11.407C8.77869 11.296 8.93573 11.342 8.93573 11.342C9.04573 11.358 9.39925 11.5891 9.52518 11.6985C9.65111 11.808 9.48801 11.9534 9.48801 11.9534L8.92814 12.6092C8.9074 12.6448 8.87962 12.6758 8.84652 12.7001C8.81342 12.7245 8.77571 12.7417 8.73573 12.7508C8.69574 12.7598 8.65435 12.7605 8.6141 12.7527C8.57386 12.7449 8.53563 12.7289 8.50179 12.7056ZM8.94559 15.478C8.75745 15.243 8.73545 14.8237 8.718 14.6362C8.71372 14.5846 8.72857 14.5331 8.75967 14.4919C8.79077 14.4506 8.83593 14.4224 8.88642 14.4128C9.23614 14.3761 9.76794 14.7311 9.76794 14.7311L9.81953 14.7992C9.59204 15.0986 9.29071 15.3327 8.94559 15.478ZM10.0001 14.3416C9.92877 14.4947 9.7467 14.373 9.7467 14.373L8.97214 14.0019C8.93262 13.991 8.89573 13.9721 8.86376 13.9463C8.83179 13.9205 8.80542 13.8883 8.78628 13.8518C8.76715 13.8153 8.75566 13.7752 8.75252 13.734C8.74939 13.6928 8.75468 13.6514 8.76807 13.6124C8.85152 13.2971 9.26118 13.3598 9.26118 13.3598C9.48422 13.4524 9.95532 13.4915 10.0722 13.4999C10.189 13.5083 10.1859 13.6736 10.1859 13.6736C10.1996 13.7853 10.0722 14.1901 10.0001 14.3416ZM8.37131 13.4234C8.37131 13.4949 8.35026 13.5649 8.31083 13.6244C8.2714 13.684 8.21536 13.7304 8.14979 13.7578C8.08423 13.7851 8.01208 13.7923 7.94247 13.7784C7.87286 13.7644 7.80893 13.7299 7.75874 13.6793C7.70856 13.6287 7.67438 13.5642 7.66054 13.494C7.64669 13.4238 7.6538 13.351 7.68096 13.2848C7.70812 13.2187 7.75411 13.1622 7.81312 13.1224C7.87213 13.0826 7.9415 13.0614 8.01247 13.0614C8.10751 13.0614 8.19867 13.0994 8.26594 13.1671C8.33321 13.2349 8.37111 13.3267 8.37131 13.4226V13.4234Z" fill="url(#paint26_linear_1359_5416)" stroke="url(#paint27_radial_1359_5416)" stroke-width="0.833333" stroke-miterlimit="10"/>
<path d="M8.72589 13.204C8.72589 13.2361 8.71646 13.2674 8.69879 13.2941C8.68111 13.3208 8.656 13.3416 8.62661 13.3539C8.59722 13.3661 8.56488 13.3693 8.53368 13.3631C8.50249 13.3568 8.47383 13.3414 8.45134 13.3187C8.42885 13.296 8.41353 13.2671 8.40732 13.2356C8.40112 13.2042 8.4043 13.1715 8.41647 13.1419C8.42865 13.1123 8.44926 13.0869 8.47571 13.0691C8.50216 13.0513 8.53325 13.0417 8.56506 13.0417C8.60772 13.0417 8.64862 13.0588 8.67878 13.0893C8.70895 13.1197 8.72589 13.1609 8.72589 13.204Z" fill="#1B1A1C"/>
<path d="M8.67748 13.2039C8.67748 13.2343 8.66549 13.2635 8.64415 13.2851C8.62281 13.3066 8.59386 13.3187 8.56368 13.3187C8.5335 13.3187 8.50456 13.3066 8.48322 13.2851C8.46188 13.2635 8.44989 13.2343 8.44989 13.2039C8.44989 13.1735 8.46188 13.1443 8.48322 13.1227C8.50456 13.1012 8.5335 13.0891 8.56368 13.0891C8.59386 13.0891 8.62281 13.1012 8.64415 13.1227C8.66549 13.1443 8.67748 13.1735 8.67748 13.2039Z" fill="url(#paint28_linear_1359_5416)"/>
<path d="M8.15485 12.8168C8.15485 12.8489 8.14542 12.8802 8.12775 12.9069C8.11008 12.9336 8.08496 12.9544 8.05557 12.9666C8.02618 12.9789 7.99385 12.9821 7.96265 12.9759C7.93145 12.9696 7.90279 12.9542 7.8803 12.9315C7.85781 12.9088 7.84249 12.8799 7.83629 12.8484C7.83008 12.817 7.83326 12.7843 7.84544 12.7547C7.85761 12.725 7.87822 12.6997 7.90467 12.6819C7.93112 12.6641 7.96222 12.6545 7.99402 12.6545C8.03668 12.6545 8.07759 12.6716 8.10775 12.7021C8.13791 12.7325 8.15485 12.7737 8.15485 12.8168Z" fill="#1B1A1C"/>
<path d="M8.10995 12.8167C8.10995 12.8392 8.10332 12.8613 8.0909 12.88C8.07848 12.8988 8.06082 12.9134 8.04017 12.922C8.01952 12.9306 7.99679 12.9329 7.97486 12.9285C7.95293 12.9241 7.93279 12.9132 7.91698 12.8973C7.90118 12.8813 7.89041 12.861 7.88605 12.8389C7.88169 12.8168 7.88393 12.7939 7.89248 12.773C7.90104 12.7522 7.91552 12.7344 7.93411 12.7219C7.9527 12.7093 7.97456 12.7026 7.99691 12.7026C8.01176 12.7026 8.02646 12.7056 8.04017 12.7113C8.05388 12.717 8.06635 12.7254 8.07684 12.736C8.08734 12.7466 8.09566 12.7592 8.10134 12.773C8.10702 12.7869 8.10995 12.8017 8.10995 12.8167Z" fill="url(#paint29_linear_1359_5416)"/>
<path d="M7.61966 13.2523C7.61966 13.2844 7.61021 13.3158 7.5925 13.3425C7.57479 13.3692 7.54963 13.39 7.5202 13.4023C7.49077 13.4145 7.45839 13.4177 7.42717 13.4114C7.39595 13.405 7.3673 13.3895 7.34484 13.3668C7.32238 13.344 7.30712 13.315 7.301 13.2835C7.29488 13.252 7.29817 13.2193 7.31046 13.1897C7.32275 13.1601 7.34348 13.1348 7.37003 13.1171C7.39658 13.0993 7.42775 13.0899 7.45959 13.0901C7.50211 13.0903 7.54282 13.1075 7.57282 13.1379C7.60282 13.1683 7.61966 13.2094 7.61966 13.2523Z" fill="#1B1A1C"/>
<path d="M7.57232 13.2522C7.57232 13.2827 7.56033 13.3119 7.53899 13.3334C7.51765 13.3549 7.48871 13.367 7.45853 13.367C7.42835 13.367 7.3994 13.3549 7.37806 13.3334C7.35672 13.3119 7.34473 13.2827 7.34473 13.2522C7.34473 13.2218 7.35672 13.1926 7.37806 13.1711C7.3994 13.1495 7.42835 13.1375 7.45853 13.1375C7.48871 13.1375 7.51765 13.1495 7.53899 13.1711C7.56033 13.1926 7.57232 13.2218 7.57232 13.2522Z" fill="url(#paint30_linear_1359_5416)"/>
<path d="M7.88343 13.9147C7.88343 13.9468 7.87397 13.9782 7.85627 14.0049C7.83856 14.0316 7.8134 14.0524 7.78397 14.0646C7.75454 14.0769 7.72216 14.08 7.69094 14.0737C7.65972 14.0674 7.63107 14.0519 7.6086 14.0291C7.58614 14.0063 7.57089 13.9774 7.56477 13.9458C7.55865 13.9143 7.56194 13.8817 7.57423 13.8521C7.58652 13.8224 7.60725 13.7971 7.6338 13.7794C7.66035 13.7617 7.69151 13.7523 7.72336 13.7524C7.74444 13.7524 7.76532 13.7566 7.78479 13.7648C7.80426 13.773 7.82194 13.7849 7.83681 13.8C7.85169 13.8151 7.86346 13.833 7.87146 13.8526C7.87946 13.8723 7.88353 13.8934 7.88343 13.9147Z" fill="#1B1A1C"/>
<path d="M7.83633 13.9148C7.83633 13.9453 7.82434 13.9745 7.803 13.996C7.78166 14.0175 7.75271 14.0296 7.72253 14.0296C7.69235 14.0296 7.66341 14.0175 7.64207 13.996C7.62073 13.9745 7.60874 13.9453 7.60874 13.9148C7.60874 13.8844 7.62073 13.8552 7.64207 13.8337C7.66341 13.8121 7.69235 13.8 7.72253 13.8C7.75271 13.8 7.78166 13.8121 7.803 13.8337C7.82434 13.8552 7.83633 13.8844 7.83633 13.9148Z" fill="url(#paint31_linear_1359_5416)"/>
<path d="M8.5654 13.9147C8.5654 13.9468 8.55595 13.9782 8.53825 14.0049C8.52054 14.0316 8.49538 14.0524 8.46595 14.0646C8.43651 14.0769 8.40414 14.08 8.37292 14.0737C8.3417 14.0674 8.31304 14.0519 8.29058 14.0291C8.26812 14.0063 8.25286 13.9774 8.24674 13.9458C8.24062 13.9143 8.24392 13.8817 8.25621 13.8521C8.2685 13.8224 8.28923 13.7971 8.31578 13.7794C8.34232 13.7617 8.37349 13.7523 8.40533 13.7524C8.42642 13.7524 8.4473 13.7566 8.46677 13.7648C8.48624 13.773 8.50392 13.7849 8.51879 13.8C8.53366 13.8151 8.54544 13.833 8.55344 13.8526C8.56144 13.8723 8.5655 13.8934 8.5654 13.9147Z" fill="#1B1A1C"/>
<path d="M8.51609 13.9148C8.51609 13.9453 8.5041 13.9745 8.48276 13.996C8.46142 14.0175 8.43248 14.0296 8.4023 14.0296C8.37212 14.0296 8.34317 14.0175 8.32183 13.996C8.30049 13.9745 8.2885 13.9453 8.2885 13.9148C8.2885 13.8844 8.30049 13.8552 8.32183 13.8337C8.34317 13.8121 8.37212 13.8 8.4023 13.8C8.43248 13.8 8.46142 13.8121 8.48276 13.8337C8.5041 13.8552 8.51609 13.8844 8.51609 13.9148Z" fill="url(#paint32_linear_1359_5416)"/>
<path d="M8.27978 13.4229C8.27993 13.4762 8.2644 13.5283 8.23515 13.5727C8.2059 13.6171 8.16425 13.6518 8.11546 13.6723C8.06668 13.6928 8.01297 13.6982 7.96112 13.6879C7.90927 13.6776 7.86161 13.652 7.82419 13.6144C7.78677 13.5768 7.76126 13.5288 7.7509 13.4765C7.74053 13.4242 7.74578 13.37 7.76596 13.3208C7.78615 13.2715 7.82038 13.2294 7.86431 13.1997C7.90824 13.1701 7.9599 13.1543 8.01275 13.1543C8.08344 13.1543 8.15125 13.1826 8.2013 13.2329C8.25136 13.2833 8.27958 13.3516 8.27978 13.4229Z" fill="url(#paint33_linear_1359_5416)"/>
<path d="M33.9899 10.1606C33.3615 10.1606 32.7472 10.3486 32.2247 10.7008C31.7022 11.0531 31.2949 11.5537 31.0545 12.1393C30.8141 12.725 30.7513 13.3695 30.874 13.9912C30.9967 14.6129 31.2994 15.1839 31.7439 15.632C32.1884 16.0802 32.7546 16.3853 33.3711 16.5087C33.9875 16.6322 34.6263 16.5685 35.2068 16.3257C35.7874 16.083 36.2835 15.6719 36.6324 15.1447C36.9813 14.6175 37.1674 13.9978 37.1671 13.3639C37.1667 12.5142 36.8318 11.6994 36.236 11.0987C35.6402 10.4981 34.8323 10.1606 33.9899 10.1606Z" fill="url(#paint34_radial_1359_5416)"/>
<path d="M33.9893 10.8997C33.5056 10.8997 33.0328 11.0444 32.6306 11.3155C32.2285 11.5866 31.9151 11.9719 31.7301 12.4227C31.5451 12.8735 31.4968 13.3695 31.5914 13.848C31.6859 14.3264 31.919 14.7659 32.2612 15.1107C32.6033 15.4555 33.0392 15.6903 33.5137 15.7852C33.9881 15.8801 34.4798 15.8309 34.9265 15.6439C35.3733 15.4569 35.755 15.1404 36.0234 14.7345C36.2918 14.3286 36.4348 13.8516 36.4343 13.3637C36.4339 12.7099 36.1761 12.0831 35.7176 11.621C35.2591 11.1589 34.6374 10.8995 33.9893 10.8997ZM35.766 12.124L35.8472 12.0965C36.0558 12.4106 36.179 12.7745 36.2045 13.1517C35.923 13.2558 35.5217 13.1433 35.3412 13.0966C35.2919 13.0841 35.2489 13.0539 35.2202 13.0116C35.1916 12.9693 35.1793 12.9179 35.1856 12.867C35.2623 12.5219 35.769 12.124 35.769 12.124H35.766ZM33.3384 11.166C33.7004 11.0681 34.0816 11.0681 34.4437 11.166C34.4513 11.472 34.2161 11.8133 34.1129 11.9717C34.0856 12.0158 34.0429 12.0481 33.9933 12.0622C33.9436 12.0764 33.8906 12.0714 33.8444 12.0483C33.5409 11.8631 33.3384 11.2555 33.3384 11.2555V11.166ZM31.7202 13.3323C31.7311 12.9535 31.8402 12.5841 32.0366 12.261C32.3256 12.3375 32.5866 12.6673 32.7072 12.8119C32.7407 12.8512 32.7585 12.9016 32.7572 12.9533C32.756 13.0051 32.7357 13.0545 32.7004 13.092C32.4386 13.3292 31.8022 13.3553 31.8022 13.3553L31.7202 13.3323ZM32.1071 14.4526C32.0244 14.3761 31.859 13.9866 31.815 13.8243C31.771 13.6621 31.9865 13.6338 31.9865 13.6338L32.8134 13.4042C32.8505 13.3868 32.8907 13.3772 32.9315 13.3758C32.9724 13.3745 33.0131 13.3815 33.0513 13.3964C33.0894 13.4114 33.1241 13.4339 33.1534 13.4628C33.1826 13.4916 33.2058 13.5261 33.2215 13.5642C33.3619 13.8588 33.0106 14.0799 33.0106 14.0799C32.7831 14.1564 32.4037 14.438 32.3059 14.5084C32.208 14.5788 32.1071 14.4526 32.1071 14.4526ZM33.2731 15.4665L33.2215 15.5354C32.8741 15.3934 32.5696 15.162 32.3385 14.8643C32.513 14.6186 32.9067 14.4817 33.0827 14.4212C33.131 14.4032 33.1841 14.4039 33.2319 14.4231C33.2797 14.4423 33.3187 14.4787 33.3414 14.5253C33.4704 14.8551 33.2731 15.4665 33.2731 15.4665ZM33.5303 12.7201C33.2883 12.9359 32.9811 12.6551 32.9811 12.6551C32.846 12.4538 32.4751 12.1584 32.3817 12.0865C32.2884 12.0146 32.3817 11.8784 32.3817 11.8784C32.4318 11.7774 32.7611 11.5111 32.9029 11.4246C33.0448 11.3381 33.1305 11.5401 33.1305 11.5401L33.5728 12.2809C33.5994 12.3122 33.6194 12.3486 33.6317 12.3879C33.6439 12.4272 33.6482 12.4686 33.6443 12.5096C33.6403 12.5506 33.6282 12.5904 33.6086 12.6266C33.589 12.6628 33.5624 12.6946 33.5303 12.7201ZM34.449 15.5652C34.3473 15.6119 33.9263 15.6119 33.7609 15.5889C33.5956 15.566 33.6547 15.3555 33.6547 15.3555L33.7708 14.4977C33.7696 14.4568 33.7765 14.416 33.7912 14.3778C33.8059 14.3396 33.8281 14.3047 33.8564 14.2753C33.8847 14.2459 33.9186 14.2226 33.956 14.2066C33.9934 14.1906 34.0336 14.1824 34.0742 14.1825C34.3974 14.1679 34.4619 14.5804 34.4619 14.5804C34.4429 14.8229 34.5484 15.2874 34.5757 15.4022C34.603 15.517 34.449 15.5652 34.449 15.5652ZM34.4794 12.7056C34.2002 12.5403 34.3686 12.1584 34.3686 12.1584C34.5158 11.9656 34.6774 11.518 34.7168 11.407C34.7563 11.296 34.9133 11.342 34.9133 11.342C35.0233 11.358 35.3768 11.5891 35.5027 11.6985C35.6287 11.808 35.4656 11.9534 35.4656 11.9534L34.9057 12.6092C34.885 12.6448 34.8572 12.6758 34.8241 12.7001C34.791 12.7245 34.7533 12.7417 34.7133 12.7508C34.6733 12.7598 34.6319 12.7605 34.5917 12.7527C34.5514 12.7449 34.5132 12.7289 34.4794 12.7056ZM34.9231 15.478C34.735 15.243 34.713 14.8237 34.6956 14.6362C34.6913 14.5846 34.7061 14.5331 34.7372 14.4919C34.7683 14.4506 34.8135 14.4224 34.864 14.4128C35.2137 14.3761 35.7447 14.7311 35.7447 14.7311L35.7971 14.7992C35.5694 15.0987 35.2678 15.3328 34.9224 15.478H34.9231ZM35.9784 14.3416C35.9025 14.4947 35.7243 14.373 35.7243 14.373L34.9497 14.0019C34.9105 13.9905 34.8739 13.9713 34.8422 13.9454C34.8105 13.9195 34.7843 13.8874 34.7652 13.851C34.7461 13.8147 34.7344 13.7748 34.7309 13.7338C34.7274 13.6928 34.7322 13.6515 34.7449 13.6124C34.8291 13.2971 35.2387 13.3598 35.2387 13.3598C35.4618 13.4524 35.9329 13.4915 36.0497 13.4999C36.1665 13.5083 36.1635 13.6736 36.1635 13.6736C36.1764 13.7853 36.049 14.1901 35.9776 14.3416H35.9784ZM34.3489 13.4234C34.3489 13.4949 34.3278 13.5649 34.2884 13.6244C34.249 13.684 34.1929 13.7304 34.1274 13.7578C34.0618 13.7851 33.9896 13.7923 33.92 13.7784C33.8504 13.7644 33.7865 13.7299 33.7363 13.6793C33.6861 13.6287 33.6519 13.5642 33.6381 13.494C33.6243 13.4238 33.6314 13.351 33.6585 13.2848C33.6857 13.2187 33.7317 13.1622 33.7907 13.1224C33.8497 13.0826 33.9191 13.0614 33.99 13.0614C34.0849 13.0616 34.1759 13.0997 34.243 13.1674C34.3101 13.2351 34.3479 13.3269 34.3481 13.4226L34.3489 13.4234Z" fill="url(#paint35_linear_1359_5416)" stroke="url(#paint36_radial_1359_5416)" stroke-width="0.833333" stroke-miterlimit="10"/>
<path d="M34.7081 13.204C34.7081 13.2361 34.6986 13.2674 34.681 13.2941C34.6633 13.3208 34.6382 13.3416 34.6088 13.3539C34.5794 13.3661 34.5471 13.3693 34.5159 13.3631C34.4847 13.3568 34.456 13.3414 34.4335 13.3187C34.411 13.296 34.3957 13.2671 34.3895 13.2356C34.3833 13.2042 34.3865 13.1715 34.3987 13.1419C34.4108 13.1123 34.4314 13.0869 34.4579 13.0691C34.4843 13.0513 34.5154 13.0417 34.5472 13.0417C34.5899 13.0417 34.6308 13.0588 34.661 13.0893C34.6911 13.1197 34.7081 13.1609 34.7081 13.204Z" fill="#1B1A1C"/>
<path d="M34.6558 13.2039C34.6558 13.2343 34.6438 13.2635 34.6225 13.2851C34.6012 13.3066 34.5722 13.3187 34.542 13.3187C34.5119 13.3187 34.4829 13.3066 34.4616 13.2851C34.4402 13.2635 34.4282 13.2343 34.4282 13.2039C34.4282 13.1735 34.4402 13.1443 34.4616 13.1227C34.4829 13.1012 34.5119 13.0891 34.542 13.0891C34.5722 13.0891 34.6012 13.1012 34.6225 13.1227C34.6438 13.1443 34.6558 13.1735 34.6558 13.2039Z" fill="url(#paint37_linear_1359_5416)"/>
<path d="M34.1364 12.8168C34.1364 12.8489 34.127 12.8802 34.1093 12.9069C34.0916 12.9336 34.0665 12.9544 34.0371 12.9666C34.0077 12.9789 33.9754 12.9821 33.9442 12.9759C33.913 12.9696 33.8843 12.9542 33.8618 12.9315C33.8393 12.9088 33.824 12.8799 33.8178 12.8484C33.8116 12.817 33.8148 12.7843 33.827 12.7547C33.8391 12.725 33.8598 12.6997 33.8862 12.6819C33.9126 12.6641 33.9437 12.6545 33.9756 12.6545C34.0182 12.6545 34.0591 12.6716 34.0893 12.7021C34.1194 12.7325 34.1364 12.7737 34.1364 12.8168Z" fill="#1B1A1C"/>
<path d="M34.0873 12.8167C34.0873 12.8392 34.0807 12.8613 34.0683 12.88C34.0559 12.8988 34.0382 12.9134 34.0176 12.922C33.9969 12.9306 33.9742 12.9329 33.9523 12.9285C33.9303 12.9241 33.9102 12.9132 33.8944 12.8973C33.8786 12.8813 33.8678 12.861 33.8634 12.8389C33.8591 12.8168 33.8613 12.7939 33.8699 12.773C33.8784 12.7522 33.8929 12.7344 33.9115 12.7219C33.9301 12.7093 33.952 12.7026 33.9743 12.7026C33.9892 12.7026 34.0039 12.7056 34.0176 12.7113C34.0313 12.717 34.0437 12.7254 34.0542 12.736C34.0647 12.7466 34.0731 12.7592 34.0787 12.773C34.0844 12.7869 34.0873 12.8017 34.0873 12.8167Z" fill="url(#paint38_linear_1359_5416)"/>
<path d="M33.5981 13.2523C33.5981 13.2844 33.5886 13.3158 33.5709 13.3425C33.5532 13.3692 33.5281 13.39 33.4986 13.4023C33.4692 13.4145 33.4368 13.4177 33.4056 13.4114C33.3744 13.405 33.3457 13.3895 33.3233 13.3668C33.3008 13.344 33.2855 13.315 33.2794 13.2835C33.2733 13.252 33.2766 13.2193 33.2889 13.1897C33.3012 13.1601 33.3219 13.1348 33.3484 13.1171C33.375 13.0993 33.4062 13.0899 33.438 13.0901C33.4805 13.0903 33.5212 13.1075 33.5512 13.1379C33.5812 13.1683 33.5981 13.2094 33.5981 13.2523Z" fill="#1B1A1C"/>
<path d="M33.5499 13.2522C33.5499 13.2827 33.5379 13.3119 33.5166 13.3334C33.4952 13.3549 33.4663 13.367 33.4361 13.367C33.4059 13.367 33.377 13.3549 33.3556 13.3334C33.3343 13.3119 33.3223 13.2827 33.3223 13.2522C33.3223 13.2218 33.3343 13.1926 33.3556 13.1711C33.377 13.1495 33.4059 13.1375 33.4361 13.1375C33.4663 13.1375 33.4952 13.1495 33.5166 13.1711C33.5379 13.1926 33.5499 13.2218 33.5499 13.2522Z" fill="url(#paint39_linear_1359_5416)"/>
<path d="M33.8614 13.9147C33.8614 13.9468 33.852 13.9782 33.8343 14.0049C33.8166 14.0316 33.7914 14.0524 33.762 14.0646C33.7325 14.0769 33.7002 14.08 33.6689 14.0737C33.6377 14.0674 33.6091 14.0519 33.5866 14.0291C33.5641 14.0063 33.5489 13.9774 33.5428 13.9458C33.5366 13.9143 33.5399 13.8817 33.5522 13.8521C33.5645 13.8224 33.5852 13.7971 33.6118 13.7794C33.6383 13.7617 33.6695 13.7523 33.7014 13.7524C33.7224 13.7524 33.7433 13.7566 33.7628 13.7648C33.7823 13.773 33.7999 13.7849 33.8148 13.8C33.8297 13.8151 33.8415 13.833 33.8495 13.8526C33.8575 13.8723 33.8615 13.8934 33.8614 13.9147Z" fill="#1B1A1C"/>
<path d="M33.8137 13.9148C33.8137 13.9453 33.8017 13.9745 33.7804 13.996C33.7591 14.0175 33.7301 14.0296 33.6999 14.0296C33.6698 14.0296 33.6408 14.0175 33.6195 13.996C33.5981 13.9745 33.5861 13.9453 33.5861 13.9148C33.5861 13.8844 33.5981 13.8552 33.6195 13.8337C33.6408 13.8121 33.6698 13.8 33.6999 13.8C33.7301 13.8 33.7591 13.8121 33.7804 13.8337C33.8017 13.8552 33.8137 13.8844 33.8137 13.9148Z" fill="url(#paint40_linear_1359_5416)"/>
<path d="M34.5429 13.9147C34.5429 13.9468 34.5335 13.9782 34.5158 14.0049C34.4981 14.0316 34.4729 14.0524 34.4435 14.0646C34.414 14.0769 34.3817 14.08 34.3504 14.0737C34.3192 14.0674 34.2906 14.0519 34.2681 14.0291C34.2456 14.0063 34.2304 13.9774 34.2243 13.9458C34.2181 13.9143 34.2214 13.8817 34.2337 13.8521C34.246 13.8224 34.2667 13.7971 34.2933 13.7794C34.3198 13.7617 34.351 13.7523 34.3828 13.7524C34.4039 13.7524 34.4248 13.7566 34.4443 13.7648C34.4638 13.773 34.4814 13.7849 34.4963 13.8C34.5112 13.8151 34.523 13.833 34.531 13.8526C34.539 13.8723 34.543 13.8934 34.5429 13.9147Z" fill="#1B1A1C"/>
<path d="M34.495 13.9148C34.495 13.9453 34.483 13.9745 34.4617 13.996C34.4403 14.0175 34.4114 14.0296 34.3812 14.0296C34.351 14.0296 34.3221 14.0175 34.3007 13.996C34.2794 13.9745 34.2674 13.9453 34.2674 13.9148C34.2674 13.8844 34.2794 13.8552 34.3007 13.8337C34.3221 13.8121 34.351 13.8 34.3812 13.8C34.4114 13.8 34.4403 13.8121 34.4617 13.8337C34.483 13.8552 34.495 13.8844 34.495 13.9148Z" fill="url(#paint41_linear_1359_5416)"/>
<path d="M34.2558 13.4229C34.2558 13.476 34.2402 13.5279 34.2109 13.5721C34.1816 13.6163 34.1401 13.6507 34.0914 13.671C34.0428 13.6914 33.9892 13.6967 33.9376 13.6863C33.8859 13.676 33.8385 13.6504 33.8012 13.6128C33.764 13.5752 33.7386 13.5274 33.7283 13.4753C33.7181 13.4232 33.7233 13.3692 33.7435 13.3201C33.7637 13.271 33.7978 13.2291 33.8416 13.1996C33.8854 13.1701 33.9368 13.1543 33.9895 13.1543C34.0601 13.1543 34.1279 13.1826 34.1778 13.233C34.2277 13.2833 34.2558 13.3517 34.2558 13.4229Z" fill="url(#paint42_linear_1359_5416)"/>
<path d="M4.21119 5.55032L4.68533 5.50977C4.68533 5.50977 4.98878 5.71178 4.8985 6.48619C4.8985 6.48619 4.52526 7.84522 3.9578 8.49107L3.74463 8.51173C3.74463 8.51173 3.65739 7.46184 3.87132 6.71499C3.92701 6.49822 4.0006 6.28654 4.09132 6.08215C4.16145 5.9132 4.202 5.73326 4.21119 5.55032Z" fill="#FF0000"/>
<defs>
<filter id="filter0_f_1359_5416" x="0.356545" y="14.636" width="43.287" height="3.8084" filterUnits="userSpaceOnUse" color-interpolation-filters="sRGB">
<feFlood flood-opacity="0" result="BackgroundImageFix"/>
<feBlend mode="normal" in="SourceGraphic" in2="BackgroundImageFix" result="shape"/>
<feGaussianBlur stdDeviation="0.555556" result="effect1_foregroundBlur_1359_5416"/>
</filter>
<radialGradient id="paint0_radial_1359_5416" cx="0" cy="0" r="1" gradientUnits="userSpaceOnUse" gradientTransform="translate(22 16.5402) rotate(90) scale(0.793096 20.5324)">
<stop stop-color="#171C26"/>
<stop offset="1" stop-color="#171C26" stop-opacity="0"/>
</radialGradient>
<linearGradient id="paint1_linear_1359_5416" x1="24.4683" y1="-5.00872" x2="20.3436" y2="16.7305" gradientUnits="userSpaceOnUse">
<stop offset="0.07" stop-color="#36A8C1"/>
<stop offset="0.1" stop-color="#2B9DB9"/>
<stop offset="0.22" stop-color="#0C7DA1"/>
<stop offset="0.29" stop-color="#007198"/>
<stop offset="0.41" stop-color="#007198"/>
<stop offset="0.59" stop-color="#005E7E"/>
<stop offset="0.99" stop-color="#0D2932"/>
</linearGradient>
<linearGradient id="paint2_linear_1359_5416" x1="18.0133" y1="5.93202" x2="36.7471" y2="18.8638" gradientUnits="userSpaceOnUse">
<stop offset="0.22" stop-color="#FFFEFF"/>
<stop offset="0.98" stop-color="#222225"/>
</linearGradient>
<linearGradient id="paint3_linear_1359_5416" x1="2.20693" y1="10.1989" x2="8.92762" y2="10.1989" gradientUnits="userSpaceOnUse">
<stop offset="0.22" stop-color="#FFFEFF"/>
<stop offset="0.98" stop-color="#222225"/>
</linearGradient>
<linearGradient id="paint4_linear_1359_5416" x1="40.678" y1="8.52846" x2="38.8364" y2="12.9325" gradientUnits="userSpaceOnUse">
<stop offset="0.22" stop-color="#FFFEFF"/>
<stop offset="0.98" stop-color="#222225"/>
</linearGradient>
<linearGradient id="paint5_linear_1359_5416" x1="9.73988" y1="8.25762" x2="27.158" y2="8.25762" gradientUnits="userSpaceOnUse">
<stop offset="0.22" stop-color="#FFFEFF"/>
<stop offset="0.98" stop-color="#222225"/>
</linearGradient>
<linearGradient id="paint6_linear_1359_5416" x1="5.94487" y1="0.936795" x2="23.1589" y2="0.936795" gradientUnits="userSpaceOnUse">
<stop offset="0.22" stop-color="#FFFEFF"/>
<stop offset="0.98" stop-color="#222225"/>
</linearGradient>
<linearGradient id="paint7_linear_1359_5416" x1="18.713" y1="6.74314" x2="18.3032" y2="3.103" gradientUnits="userSpaceOnUse">
<stop stop-color="#FCFCFA"/>
<stop offset="0.16" stop-color="#FCFCFA" stop-opacity="0.79"/>
<stop offset="0.39" stop-color="#FCFCFA" stop-opacity="0.51"/>
<stop offset="0.6" stop-color="#FCFCFA" stop-opacity="0.29"/>
<stop offset="0.77" stop-color="#FCFCFA" stop-opacity="0.13"/>
<stop offset="0.91" stop-color="#FCFCFA" stop-opacity="0.04"/>
<stop offset="1" stop-color="#FCFCFA" stop-opacity="0"/>
</linearGradient>
<linearGradient id="paint8_linear_1359_5416" x1="10.5412" y1="5.39401" x2="10.5412" y2="3.05167" gradientUnits="userSpaceOnUse">
<stop offset="0.06" stop-color="#3E3D3F"/>
<stop offset="0.1" stop-color="#3A393B"/>
<stop offset="0.47" stop-color="#1A1A1B"/>
<stop offset="0.77" stop-color="#070707"/>
<stop offset="0.98"/>
</linearGradient>
<linearGradient id="paint9_linear_1359_5416" x1="14.7476" y1="7.01252" x2="14.6658" y2="2.40898" gradientUnits="userSpaceOnUse">
<stop offset="0.06" stop-color="#3E3D3F"/>
<stop offset="0.1" stop-color="#3A393B"/>
<stop offset="0.47" stop-color="#1A1A1B"/>
<stop offset="0.77" stop-color="#070707"/>
<stop offset="0.98"/>
</linearGradient>
<linearGradient id="paint10_linear_1359_5416" x1="23.1307" y1="6.02" x2="22.7502" y2="0.528458" gradientUnits="userSpaceOnUse">
<stop offset="0.06" stop-color="#3E3D3F"/>
<stop offset="0.1" stop-color="#3A393B"/>
<stop offset="0.47" stop-color="#1A1A1B"/>
<stop offset="0.77" stop-color="#070707"/>
<stop offset="0.98"/>
</linearGradient>
<linearGradient id="paint11_linear_1359_5416" x1="26.7553" y1="5.30616" x2="28.6572" y2="5.30616" gradientUnits="userSpaceOnUse">
<stop offset="0.22" stop-color="#232224"/>
<stop offset="0.98"/>
</linearGradient>
<linearGradient id="paint12_linear_1359_5416" x1="27.677" y1="6.31244" x2="27.7496" y2="4.23032" gradientUnits="userSpaceOnUse">
<stop offset="0.22" stop-color="#FFFEFF"/>
<stop offset="0.98" stop-color="#222225"/>
</linearGradient>
<linearGradient id="paint13_linear_1359_5416" x1="6.57282" y1="2.65389" x2="5.24248" y2="4.2212" gradientUnits="userSpaceOnUse">
<stop offset="0.06" stop-color="#3E3D3F"/>
<stop offset="0.1" stop-color="#3A393B"/>
<stop offset="0.47" stop-color="#1A1A1B"/>
<stop offset="0.77" stop-color="#070707"/>
<stop offset="0.98"/>
</linearGradient>
<linearGradient id="paint14_linear_1359_5416" x1="39.5897" y1="12.4732" x2="40.645" y2="11.7997" gradientUnits="userSpaceOnUse">
<stop stop-color="#DED9D6"/>
<stop offset="0.04" stop-color="#CFCCC9"/>
<stop offset="0.11" stop-color="#A8A8A8"/>
<stop offset="0.21" stop-color="#6A7072"/>
<stop offset="0.26" stop-color="#465053"/>
<stop offset="0.37" stop-color="#878D8F"/>
<stop offset="0.46" stop-color="#B7BABB"/>
<stop offset="0.53" stop-color="#D5D6D6"/>
<stop offset="0.57" stop-color="#E0E0E0"/>
<stop offset="0.63" stop-color="#D6D7D8"/>
<stop offset="0.73" stop-color="#BCBFC2"/>
<stop offset="0.86" stop-color="#92989E"/>
<stop offset="0.88" stop-color="#8B9298"/>
<stop offset="1" stop-color="#A7A9AC"/>
</linearGradient>
<linearGradient id="paint15_linear_1359_5416" x1="28.5164" y1="4.06638" x2="29.8307" y2="4.89096" gradientUnits="userSpaceOnUse">
<stop offset="0.06" stop-color="#3E3D3F"/>
<stop offset="0.1" stop-color="#3A393B"/>
<stop offset="0.47" stop-color="#1A1A1B"/>
<stop offset="0.77" stop-color="#070707"/>
<stop offset="0.98"/>
</linearGradient>
<linearGradient id="paint16_linear_1359_5416" x1="9.95551" y1="18.4502" x2="6.69848" y2="9.41014" gradientUnits="userSpaceOnUse">
<stop offset="0.22" stop-color="#005E7E"/>
<stop offset="0.99" stop-color="#0D2932"/>
</linearGradient>
<linearGradient id="paint17_linear_1359_5416" x1="36.6602" y1="17.3995" x2="31.7425" y2="9.68469" gradientUnits="userSpaceOnUse">
<stop offset="0.07" stop-color="#36A8C1"/>
<stop offset="0.1" stop-color="#2B9DB9"/>
<stop offset="0.22" stop-color="#0C7DA1"/>
<stop offset="0.29" stop-color="#007198"/>
<stop offset="0.41" stop-color="#007198"/>
<stop offset="0.59" stop-color="#005E7E"/>
<stop offset="0.99" stop-color="#0D2932"/>
</linearGradient>
<linearGradient id="paint18_linear_1359_5416" x1="13.2743" y1="11.792" x2="28.7898" y2="11.792" gradientUnits="userSpaceOnUse">
<stop offset="0.22" stop-color="#FFFEFF"/>
<stop offset="0.98" stop-color="#222225"/>
</linearGradient>
<linearGradient id="paint19_linear_1359_5416" x1="30.215" y1="8.67323" x2="31.0222" y2="8.67323" gradientUnits="userSpaceOnUse">
<stop stop-color="#DED9D6"/>
<stop offset="0.04" stop-color="#CFCCC9"/>
<stop offset="0.11" stop-color="#A8A8A8"/>
<stop offset="0.21" stop-color="#6A7072"/>
<stop offset="0.26" stop-color="#465053"/>
<stop offset="0.37" stop-color="#878D8F"/>
<stop offset="0.46" stop-color="#B7BABB"/>
<stop offset="0.53" stop-color="#D5D6D6"/>
<stop offset="0.57" stop-color="#E0E0E0"/>
<stop offset="0.63" stop-color="#D6D7D8"/>
<stop offset="0.73" stop-color="#BCBFC2"/>
<stop offset="0.86" stop-color="#92989E"/>
<stop offset="0.88" stop-color="#8B9298"/>
<stop offset="1" stop-color="#A7A9AC"/>
</linearGradient>
<linearGradient id="paint20_linear_1359_5416" x1="10.5734" y1="6.58239" x2="10.5734" y2="7.54274" gradientUnits="userSpaceOnUse">
<stop offset="0.41"/>
<stop offset="0.51" stop-color="#010303"/>
<stop offset="0.58" stop-color="#030B0C"/>
<stop offset="0.65" stop-color="#08191D"/>
<stop offset="0.71" stop-color="#0E2D33"/>
<stop offset="0.76" stop-color="#174651"/>
<stop offset="0.82" stop-color="#216675"/>
<stop offset="0.87" stop-color="#2C8A9F"/>
<stop offset="0.9" stop-color="#36A8C1"/>
<stop offset="1" stop-color="#74C1D5"/>
</linearGradient>
<linearGradient id="paint21_linear_1359_5416" x1="10.5649" y1="6.83361" x2="10.5649" y2="7.70443" gradientUnits="userSpaceOnUse">
<stop offset="0.02" stop-color="#FCFCFA"/>
<stop offset="0.03" stop-color="#F6F8F7"/>
<stop offset="0.05" stop-color="#C8DBE0"/>
<stop offset="0.08" stop-color="#9DC0CB"/>
<stop offset="0.1" stop-color="#77A9B9"/>
<stop offset="0.13" stop-color="#5794A9"/>
<stop offset="0.17" stop-color="#3B839B"/>
<stop offset="0.21" stop-color="#257590"/>
<stop offset="0.25" stop-color="#146B88"/>
<stop offset="0.3" stop-color="#096382"/>
<stop offset="0.38" stop-color="#025F7F"/>
<stop offset="0.59" stop-color="#005E7E"/>
<stop offset="0.99" stop-color="#0D2932"/>
</linearGradient>
<linearGradient id="paint22_linear_1359_5416" x1="20.3787" y1="6.99483" x2="20.3787" y2="7.95518" gradientUnits="userSpaceOnUse">
<stop offset="0.41"/>
<stop offset="0.51" stop-color="#010303"/>
<stop offset="0.58" stop-color="#030B0C"/>
<stop offset="0.65" stop-color="#08191D"/>
<stop offset="0.71" stop-color="#0E2D33"/>
<stop offset="0.76" stop-color="#174651"/>
<stop offset="0.82" stop-color="#216675"/>
<stop offset="0.87" stop-color="#2C8A9F"/>
<stop offset="0.9" stop-color="#36A8C1"/>
<stop offset="1" stop-color="#74C1D5"/>
</linearGradient>
<linearGradient id="paint23_linear_1359_5416" x1="20.3675" y1="7.2458" x2="20.3675" y2="8.11663" gradientUnits="userSpaceOnUse">
<stop offset="0.02" stop-color="#FCFCFA"/>
<stop offset="0.03" stop-color="#F6F8F7"/>
<stop offset="0.05" stop-color="#C8DBE0"/>
<stop offset="0.08" stop-color="#9DC0CB"/>
<stop offset="0.1" stop-color="#77A9B9"/>
<stop offset="0.13" stop-color="#5794A9"/>
<stop offset="0.17" stop-color="#3B839B"/>
<stop offset="0.21" stop-color="#257590"/>
<stop offset="0.25" stop-color="#146B88"/>
<stop offset="0.3" stop-color="#096382"/>
<stop offset="0.38" stop-color="#025F7F"/>
<stop offset="0.59" stop-color="#005E7E"/>
<stop offset="0.99" stop-color="#0D2932"/>
</linearGradient>
<linearGradient id="paint24_linear_1359_5416" x1="26.8611" y1="5.10261" x2="28.169" y2="5.05824" gradientUnits="userSpaceOnUse">
<stop offset="0.07" stop-color="#36A8C1"/>
<stop offset="0.1" stop-color="#2B9DB9"/>
<stop offset="0.22" stop-color="#0C7DA1"/>
<stop offset="0.29" stop-color="#007198"/>
<stop offset="0.41" stop-color="#007198"/>
<stop offset="0.59" stop-color="#005E7E"/>
<stop offset="0.99" stop-color="#0D2932"/>
</linearGradient>
<radialGradient id="paint25_radial_1359_5416" cx="0" cy="0" r="1" gradientUnits="userSpaceOnUse" gradientTransform="translate(8.01173 13.3654) scale(3.17714 3.20474)">
<stop offset="0.01" stop-color="#1A1A1A"/>
<stop offset="0.38" stop-color="#1C1C1C"/>
<stop offset="0.56" stop-color="#242424"/>
<stop offset="0.7" stop-color="#313030"/>
<stop offset="0.82" stop-color="#434343"/>
<stop offset="0.84" stop-color="#464545"/>
<stop offset="0.89" stop-color="#434242"/>
<stop offset="0.93" stop-color="#3B3A3A"/>
<stop offset="0.95" stop-color="#2C2B2B"/>
<stop offset="0.97" stop-color="#1D1D1D"/>
</radialGradient>
<linearGradient id="paint26_linear_1359_5416" x1="7.52392" y1="12.2373" x2="8.43602" y2="14.3045" gradientUnits="userSpaceOnUse">
<stop stop-color="#DED9D6"/>
<stop offset="0.06" stop-color="#CFCAC9"/>
<stop offset="0.18" stop-color="#A8A4A7"/>
<stop offset="0.26" stop-color="#8B878D"/>
<stop offset="0.52" stop-color="#F3F4F4"/>
<stop offset="0.58" stop-color="#E5E5E6"/>
<stop offset="0.7" stop-color="#C0BEC0"/>
<stop offset="0.86" stop-color="#858085"/>
<stop offset="0.88" stop-color="#807B80"/>
<stop offset="1" stop-color="#A7A9AC"/>
</linearGradient>
<radialGradient id="paint27_radial_1359_5416" cx="0" cy="0" r="1" gradientUnits="userSpaceOnUse" gradientTransform="translate(8.01323 13.3652) scale(2.47313 2.49462)">
<stop stop-color="#DED9D6"/>
<stop offset="0.06" stop-color="#CFCAC9"/>
<stop offset="0.18" stop-color="#A8A4A7"/>
<stop offset="0.26" stop-color="#8B878D"/>
<stop offset="0.52" stop-color="#F3F4F4"/>
<stop offset="0.58" stop-color="#E5E5E6"/>
<stop offset="0.7" stop-color="#C0BEC0"/>
<stop offset="0.86" stop-color="#858085"/>
<stop offset="0.88" stop-color="#807B80"/>
<stop offset="1" stop-color="#A7A9AC"/>
</radialGradient>
<linearGradient id="paint28_linear_1359_5416" x1="8.48934" y1="13.119" x2="8.66933" y2="13.3187" gradientUnits="userSpaceOnUse">
<stop stop-color="#DED9D6"/>
<stop offset="0.06" stop-color="#CFCAC9"/>
<stop offset="0.18" stop-color="#A8A4A7"/>
<stop offset="0.26" stop-color="#8B878D"/>
<stop offset="0.52" stop-color="#F3F4F4"/>
<stop offset="0.58" stop-color="#E5E5E6"/>
<stop offset="0.7" stop-color="#C0BEC0"/>
<stop offset="0.86" stop-color="#858085"/>
<stop offset="0.88" stop-color="#807B80"/>
<stop offset="1" stop-color="#A7A9AC"/>
</linearGradient>
<linearGradient id="paint29_linear_1359_5416" x1="7.92105" y1="12.7309" x2="8.10181" y2="12.9314" gradientUnits="userSpaceOnUse">
<stop stop-color="#DED9D6"/>
<stop offset="0.06" stop-color="#CFCAC9"/>
<stop offset="0.18" stop-color="#A8A4A7"/>
<stop offset="0.26" stop-color="#8B878D"/>
<stop offset="0.52" stop-color="#F3F4F4"/>
<stop offset="0.58" stop-color="#E5E5E6"/>
<stop offset="0.7" stop-color="#C0BEC0"/>
<stop offset="0.86" stop-color="#858085"/>
<stop offset="0.88" stop-color="#807B80"/>
<stop offset="1" stop-color="#A7A9AC"/>
</linearGradient>
<linearGradient id="paint30_linear_1359_5416" x1="7.38418" y1="13.1665" x2="7.56418" y2="13.367" gradientUnits="userSpaceOnUse">
<stop stop-color="#DED9D6"/>
<stop offset="0.06" stop-color="#CFCAC9"/>
<stop offset="0.18" stop-color="#A8A4A7"/>
<stop offset="0.26" stop-color="#8B878D"/>
<stop offset="0.52" stop-color="#F3F4F4"/>
<stop offset="0.58" stop-color="#E5E5E6"/>
<stop offset="0.7" stop-color="#C0BEC0"/>
<stop offset="0.86" stop-color="#858085"/>
<stop offset="0.88" stop-color="#807B80"/>
<stop offset="1" stop-color="#A7A9AC"/>
</linearGradient>
<linearGradient id="paint31_linear_1359_5416" x1="7.64819" y1="13.8291" x2="7.82818" y2="14.0288" gradientUnits="userSpaceOnUse">
<stop stop-color="#DED9D6"/>
<stop offset="0.06" stop-color="#CFCAC9"/>
<stop offset="0.18" stop-color="#A8A4A7"/>
<stop offset="0.26" stop-color="#8B878D"/>
<stop offset="0.52" stop-color="#F3F4F4"/>
<stop offset="0.58" stop-color="#E5E5E6"/>
<stop offset="0.7" stop-color="#C0BEC0"/>
<stop offset="0.86" stop-color="#858085"/>
<stop offset="0.88" stop-color="#807B80"/>
<stop offset="1" stop-color="#A7A9AC"/>
</linearGradient>
<linearGradient id="paint32_linear_1359_5416" x1="8.32795" y1="13.8291" x2="8.50795" y2="14.0288" gradientUnits="userSpaceOnUse">
<stop stop-color="#DED9D6"/>
<stop offset="0.06" stop-color="#CFCAC9"/>
<stop offset="0.18" stop-color="#A8A4A7"/>
<stop offset="0.26" stop-color="#8B878D"/>
<stop offset="0.52" stop-color="#F3F4F4"/>
<stop offset="0.58" stop-color="#E5E5E6"/>
<stop offset="0.7" stop-color="#C0BEC0"/>
<stop offset="0.86" stop-color="#858085"/>
<stop offset="0.88" stop-color="#807B80"/>
<stop offset="1" stop-color="#A7A9AC"/>
</linearGradient>
<linearGradient id="paint33_linear_1359_5416" x1="8.07571" y1="13.2576" x2="7.94556" y2="13.5951" gradientUnits="userSpaceOnUse">
<stop stop-color="#DED9D6"/>
<stop offset="0.06" stop-color="#CFCAC9"/>
<stop offset="0.18" stop-color="#A8A4A7"/>
<stop offset="0.26" stop-color="#8B878D"/>
<stop offset="0.52" stop-color="#F3F4F4"/>
<stop offset="0.58" stop-color="#E5E5E6"/>
<stop offset="0.7" stop-color="#C0BEC0"/>
<stop offset="0.86" stop-color="#858085"/>
<stop offset="0.88" stop-color="#807B80"/>
<stop offset="1" stop-color="#A7A9AC"/>
</linearGradient>
<radialGradient id="paint34_radial_1359_5416" cx="0" cy="0" r="1" gradientUnits="userSpaceOnUse" gradientTransform="translate(33.99 13.3654) scale(3.17714 3.20474)">
<stop offset="0.01" stop-color="#1A1A1A"/>
<stop offset="0.38" stop-color="#1C1C1C"/>
<stop offset="0.56" stop-color="#242424"/>
<stop offset="0.7" stop-color="#313030"/>
<stop offset="0.82" stop-color="#434343"/>
<stop offset="0.84" stop-color="#464545"/>
<stop offset="0.89" stop-color="#434242"/>
<stop offset="0.93" stop-color="#3B3A3A"/>
<stop offset="0.95" stop-color="#2C2B2B"/>
<stop offset="0.97" stop-color="#1D1D1D"/>
</radialGradient>
<linearGradient id="paint35_linear_1359_5416" x1="33.5007" y1="12.238" x2="34.4128" y2="14.3044" gradientUnits="userSpaceOnUse">
<stop stop-color="#DED9D6"/>
<stop offset="0.06" stop-color="#CFCAC9"/>
<stop offset="0.18" stop-color="#A8A4A7"/>
<stop offset="0.26" stop-color="#8B878D"/>
<stop offset="0.52" stop-color="#F3F4F4"/>
<stop offset="0.58" stop-color="#E5E5E6"/>
<stop offset="0.7" stop-color="#C0BEC0"/>
<stop offset="0.86" stop-color="#858085"/>
<stop offset="0.88" stop-color="#807B80"/>
<stop offset="1" stop-color="#A7A9AC"/>
</linearGradient>
<radialGradient id="paint36_radial_1359_5416" cx="0" cy="0" r="1" gradientUnits="userSpaceOnUse" gradientTransform="translate(33.9893 13.3652) scale(2.47313 2.49462)">
<stop stop-color="#DED9D6"/>
<stop offset="0.06" stop-color="#CFCAC9"/>
<stop offset="0.18" stop-color="#A8A4A7"/>
<stop offset="0.26" stop-color="#8B878D"/>
<stop offset="0.52" stop-color="#F3F4F4"/>
<stop offset="0.58" stop-color="#E5E5E6"/>
<stop offset="0.7" stop-color="#C0BEC0"/>
<stop offset="0.86" stop-color="#858085"/>
<stop offset="0.88" stop-color="#807B80"/>
<stop offset="1" stop-color="#A7A9AC"/>
</radialGradient>
<linearGradient id="paint37_linear_1359_5416" x1="34.4677" y1="13.119" x2="34.6477" y2="13.3187" gradientUnits="userSpaceOnUse">
<stop stop-color="#DED9D6"/>
<stop offset="0.06" stop-color="#CFCAC9"/>
<stop offset="0.18" stop-color="#A8A4A7"/>
<stop offset="0.26" stop-color="#8B878D"/>
<stop offset="0.52" stop-color="#F3F4F4"/>
<stop offset="0.58" stop-color="#E5E5E6"/>
<stop offset="0.7" stop-color="#C0BEC0"/>
<stop offset="0.86" stop-color="#858085"/>
<stop offset="0.88" stop-color="#807B80"/>
<stop offset="1" stop-color="#A7A9AC"/>
</linearGradient>
<linearGradient id="paint38_linear_1359_5416" x1="33.8984" y1="12.7309" x2="34.0784" y2="12.9314" gradientUnits="userSpaceOnUse">
<stop stop-color="#DED9D6"/>
<stop offset="0.06" stop-color="#CFCAC9"/>
<stop offset="0.18" stop-color="#A8A4A7"/>
<stop offset="0.26" stop-color="#8B878D"/>
<stop offset="0.52" stop-color="#F3F4F4"/>
<stop offset="0.58" stop-color="#E5E5E6"/>
<stop offset="0.7" stop-color="#C0BEC0"/>
<stop offset="0.86" stop-color="#858085"/>
<stop offset="0.88" stop-color="#807B80"/>
<stop offset="1" stop-color="#A7A9AC"/>
</linearGradient>
<linearGradient id="paint39_linear_1359_5416" x1="33.3618" y1="13.1665" x2="33.5418" y2="13.367" gradientUnits="userSpaceOnUse">
<stop stop-color="#DED9D6"/>
<stop offset="0.06" stop-color="#CFCAC9"/>
<stop offset="0.18" stop-color="#A8A4A7"/>
<stop offset="0.26" stop-color="#8B878D"/>
<stop offset="0.52" stop-color="#F3F4F4"/>
<stop offset="0.58" stop-color="#E5E5E6"/>
<stop offset="0.7" stop-color="#C0BEC0"/>
<stop offset="0.86" stop-color="#858085"/>
<stop offset="0.88" stop-color="#807B80"/>
<stop offset="1" stop-color="#A7A9AC"/>
</linearGradient>
<linearGradient id="paint40_linear_1359_5416" x1="33.6256" y1="13.8291" x2="33.8056" y2="14.0288" gradientUnits="userSpaceOnUse">
<stop stop-color="#DED9D6"/>
<stop offset="0.06" stop-color="#CFCAC9"/>
<stop offset="0.18" stop-color="#A8A4A7"/>
<stop offset="0.26" stop-color="#8B878D"/>
<stop offset="0.52" stop-color="#F3F4F4"/>
<stop offset="0.58" stop-color="#E5E5E6"/>
<stop offset="0.7" stop-color="#C0BEC0"/>
<stop offset="0.86" stop-color="#858085"/>
<stop offset="0.88" stop-color="#807B80"/>
<stop offset="1" stop-color="#A7A9AC"/>
</linearGradient>
<linearGradient id="paint41_linear_1359_5416" x1="34.3068" y1="13.8291" x2="34.4868" y2="14.0288" gradientUnits="userSpaceOnUse">
<stop stop-color="#DED9D6"/>
<stop offset="0.06" stop-color="#CFCAC9"/>
<stop offset="0.18" stop-color="#A8A4A7"/>
<stop offset="0.26" stop-color="#8B878D"/>
<stop offset="0.52" stop-color="#F3F4F4"/>
<stop offset="0.58" stop-color="#E5E5E6"/>
<stop offset="0.7" stop-color="#C0BEC0"/>
<stop offset="0.86" stop-color="#858085"/>
<stop offset="0.88" stop-color="#807B80"/>
<stop offset="1" stop-color="#A7A9AC"/>
</linearGradient>
<linearGradient id="paint42_linear_1359_5416" x1="34.0525" y1="13.2576" x2="33.9223" y2="13.5951" gradientUnits="userSpaceOnUse">
<stop stop-color="#DED9D6"/>
<stop offset="0.06" stop-color="#CFCAC9"/>
<stop offset="0.18" stop-color="#A8A4A7"/>
<stop offset="0.26" stop-color="#8B878D"/>
<stop offset="0.52" stop-color="#F3F4F4"/>
<stop offset="0.58" stop-color="#E5E5E6"/>
<stop offset="0.7" stop-color="#C0BEC0"/>
<stop offset="0.86" stop-color="#858085"/>
<stop offset="0.88" stop-color="#807B80"/>
<stop offset="1" stop-color="#A7A9AC"/>
</linearGradient>
</defs>
</svg>
