<svg width="20" height="20" viewBox="0 0 20 20" fill="none" xmlns="http://www.w3.org/2000/svg">
<path d="M10.0182 1.66748C6.984 1.66748 4.51817 4.13331 4.51817 7.16748V9.81665C4.51817 10.3758 4.27984 11.2283 3.99567 11.705L2.9415 13.4558C2.29067 14.5375 2.73984 15.7383 3.9315 16.1416C7.88234 17.4616 12.1448 17.4616 16.0957 16.1416C17.2048 15.775 17.6907 14.4641 17.0857 13.4558L16.0315 11.705C15.7565 11.2283 15.5182 10.3758 15.5182 9.81665V7.16748C15.5182 4.14248 13.0432 1.66748 10.0182 1.66748Z" stroke="#171C26" stroke-width="1.2" stroke-miterlimit="10" stroke-linecap="round"/>
<path d="M11.7137 1.93283C11.4296 1.85033 11.1362 1.78617 10.8337 1.7495C9.95375 1.6395 9.11042 1.70367 8.32208 1.93283C8.58792 1.2545 9.24792 0.777832 10.0179 0.777832C10.7879 0.777832 11.4479 1.2545 11.7137 1.93283Z" stroke="#171C26" stroke-width="1.2" stroke-miterlimit="10" stroke-linecap="round" stroke-linejoin="round"/>
<path d="M12.7686 16.4722C12.7686 17.9847 11.5311 19.2222 10.0186 19.2222C9.26689 19.2222 8.57022 18.9105 8.07522 18.4155C7.58022 17.9205 7.26855 17.2238 7.26855 16.4722" stroke="#171C26" stroke-width="1.2" stroke-miterlimit="10"/>
<circle cx="16.05" cy="3.94995" r="2.75" fill="#FF4B4B"/>
</svg>
