<svg width="18" height="18" viewBox="0 0 18 18" fill="none" xmlns="http://www.w3.org/2000/svg">
<path d="M10.9125 1.5H7.08746C5.73746 1.5 5.43747 2.17501 5.26497 3.00751L4.64996 5.94749H13.35L12.735 3.00751C12.5625 2.17501 12.2625 1.5 10.9125 1.5Z" stroke="#171C26" stroke-width="1.2" stroke-linecap="round" stroke-linejoin="round"/>
<path d="M14.43 10.74C14.49 11.3775 13.98 11.925 13.3275 11.925H12.3075C11.7225 11.925 11.64 11.6775 11.535 11.3625L11.4225 11.0399C11.2725 10.5974 11.175 10.2974 10.3875 10.2974H7.60498C6.82498 10.2974 6.70498 10.6349 6.56998 11.0399L6.45748 11.3625C6.35248 11.67 6.26998 11.925 5.68498 11.925H4.66498C4.01248 11.925 3.50248 11.3775 3.56248 10.74L3.86998 7.42497C3.94498 6.60747 4.10248 5.93994 5.52748 5.93994H12.465C13.89 5.93994 14.0475 6.60747 14.1225 7.42497L14.43 10.74Z" stroke="#171C26" stroke-width="1.2" stroke-linecap="round" stroke-linejoin="round"/>
<path d="M4.64997 4.3125H4.10248" stroke="#171C26" stroke-width="1.2" stroke-linecap="round" stroke-linejoin="round"/>
<path d="M13.8975 4.3125H13.35" stroke="#171C26" stroke-width="1.2" stroke-linecap="round" stroke-linejoin="round"/>
<path d="M5.73749 8.12256H7.365" stroke="#171C26" stroke-width="1.2" stroke-linecap="round" stroke-linejoin="round"/>
<path d="M10.635 8.12256H12.2625" stroke="#171C26" stroke-width="1.2" stroke-linecap="round" stroke-linejoin="round"/>
<path d="M9 12.75V13.5" stroke="#171C26" stroke-width="1.2" stroke-linecap="round" stroke-linejoin="round"/>
<path d="M9 15.75V16.5" stroke="#171C26" stroke-width="1.2" stroke-linecap="round" stroke-linejoin="round"/>
<path d="M2.25 13.5L1.5 16.5" stroke="#171C26" stroke-width="1.2" stroke-linecap="round" stroke-linejoin="round"/>
<path d="M15.75 13.5L16.5 16.5" stroke="#171C26" stroke-width="1.2" stroke-linecap="round" stroke-linejoin="round"/>
</svg>
