<svg width="24" height="24" viewBox="0 0 24 24" fill="none" xmlns="http://www.w3.org/2000/svg">
<g clip-path="url(#clip0_6001_15453)">
<path d="M21.8388 5.74216C19.4671 4.37309 16.4344 5.18662 15.0638 7.55833L11.6089 13.5432C10.6092 15.2715 11.8961 15.8754 13.3312 16.7358L16.6557 18.6545C17.7814 19.3039 19.2194 18.9184 19.8688 17.7941L23.4204 11.6435C24.6136 9.57675 23.9056 6.93537 21.8388 5.74216Z" fill="#EA4335"/>
<path d="M17.9296 8.21938L14.6052 6.30064C12.77 5.2819 11.7307 5.21447 10.9773 6.41205L6.07413 14.9036C4.70504 17.2738 5.52004 20.3051 7.89026 21.6712C9.95706 22.8644 12.5985 22.1564 13.7917 20.0896L18.7886 11.4339C19.4409 10.3082 19.0554 8.86875 17.9296 8.21938Z" fill="#FBBC04"/>
<path d="M18.5691 3.85413L16.2341 2.50558C13.6513 1.01484 10.3488 1.89873 8.8581 4.4815L4.41226 12.1814C3.75557 13.3174 4.14548 14.7715 5.28151 15.4268L7.89653 16.9366C9.18788 17.6827 10.8384 17.24 11.5845 15.9486L16.6636 7.15224C17.716 5.33021 20.0452 4.70577 21.8672 5.75823L18.5691 3.85413Z" fill="#34A853"/>
<path d="M9.48991 6.68468L6.96578 5.23059C5.84001 4.5827 4.40206 4.96674 3.75271 6.08956L0.724329 11.3225C-0.766412 13.898 0.117477 17.1931 2.70025 18.6795L4.62194 19.7861L6.95258 21.1288L7.964 21.7108C6.16837 20.5088 5.59816 18.1005 6.69605 16.2037L7.48026 14.8493L10.3518 9.88749C10.9997 8.76763 10.6142 7.33257 9.48991 6.68468Z" fill="#4285F4"/>
</g>
<defs>
<clipPath id="clip0_6001_15453">
<rect width="24" height="24" fill="white"/>
</clipPath>
</defs>
</svg>
