<svg width="22" height="22" viewBox="0 0 22 22" fill="none" xmlns="http://www.w3.org/2000/svg">
<path d="M18.3701 6.25171L13.0901 2.55754C11.6509 1.54921 9.44172 1.60421 8.05755 2.67671L3.46505 6.26088C2.54839 6.97588 1.82422 8.44254 1.82422 9.59754V15.9225C1.82422 18.26 3.72172 20.1667 6.05922 20.1667H15.9409C18.2784 20.1667 20.1759 18.2692 20.1759 15.9317V9.71671C20.1759 8.47921 19.3784 6.95754 18.3701 6.25171ZM11.6876 16.5C11.6876 16.8759 11.3759 17.1875 11.0001 17.1875C10.6242 17.1875 10.3126 16.8759 10.3126 16.5V13.75C10.3126 13.3742 10.6242 13.0625 11.0001 13.0625C11.3759 13.0625 11.6876 13.3742 11.6876 13.75V16.5Z" fill="#171C26"/>
</svg>
