<svg width="22" height="22" viewBox="0 0 22 22" fill="none" xmlns="http://www.w3.org/2000/svg">
<path d="M16.9308 15.4274L17.2883 18.3241C17.38 19.0849 16.5642 19.6166 15.9133 19.2224L12.0725 16.9399C11.6508 16.9399 11.2383 16.9124 10.835 16.8574C11.5133 16.0599 11.9167 15.0516 11.9167 13.9607C11.9167 11.3574 9.66167 9.24911 6.875 9.24911C5.81167 9.24911 4.83084 9.55159 4.01501 10.0833C3.98751 9.85409 3.97833 9.62491 3.97833 9.38658C3.97833 5.21574 7.59917 1.83325 12.0725 1.83325C16.5458 1.83325 20.1667 5.21574 20.1667 9.38658C20.1667 11.8616 18.8925 14.0524 16.9308 15.4274Z" stroke="#171C26" stroke-width="1.2" stroke-linecap="round" stroke-linejoin="round"/>
<path d="M11.9166 13.9609C11.9166 15.0517 11.5133 16.0601 10.835 16.8576C9.92749 17.9576 8.48831 18.6634 6.87498 18.6634L4.48248 20.0842C4.07915 20.3317 3.56581 19.9926 3.62081 19.5251L3.84998 17.7193C2.62164 16.8668 1.83331 15.5009 1.83331 13.9609C1.83331 12.3476 2.69498 10.9267 4.01498 10.0834C4.83082 9.55174 5.81165 9.24927 6.87498 9.24927C9.66165 9.24927 11.9166 11.3576 11.9166 13.9609Z" stroke="#171C26" stroke-width="1.2" stroke-linecap="round" stroke-linejoin="round"/>
</svg>
