<svg width="19" height="19" viewBox="0 0 19 19" fill="none" xmlns="http://www.w3.org/2000/svg">
<path d="M6.48962 5.34367C6.48962 3.68372 7.84009 2.33325 9.50004 2.33325C11.1595 2.33325 12.5097 3.68293 12.5105 5.34222C12.5034 6.97034 11.2377 8.28145 9.62339 8.34606C9.5402 8.3381 9.45844 8.33894 9.38412 8.34468C7.73184 8.26446 6.48962 6.95367 6.48962 5.34367Z" stroke="#171C26" stroke-width="1.5"/>
<path d="M5.89638 15.6777L5.89433 15.6763C5.0484 15.1124 4.67664 14.4205 4.67664 13.7591C4.67664 13.0971 5.04901 12.3977 5.90179 11.8264C6.86644 11.1884 8.17041 10.8477 9.50986 10.8477C10.8503 10.8477 12.1498 11.1889 13.1056 11.8261C13.946 12.3863 14.3168 13.0777 14.3233 13.7463C14.3222 14.4154 13.9495 15.1068 13.1028 15.6782C12.1432 16.3222 10.8407 16.6666 9.49997 16.6666C8.15888 16.6666 6.85604 16.322 5.89638 15.6777Z" stroke="#171C26" stroke-width="1.5"/>
</svg>
