<svg width="10" height="11" viewBox="0 0 10 11" fill="none" xmlns="http://www.w3.org/2000/svg">
<path d="M4.15861 1.30996C4.55219 0.697195 5.44781 0.697195 5.84139 1.30996L6.83493 2.85679C6.97035 3.06763 7.17998 3.21994 7.42234 3.28358L9.20049 3.75049C9.90489 3.93545 10.1816 4.78724 9.7205 5.35091L8.55639 6.77382C8.39772 6.96776 8.31765 7.2142 8.33202 7.46437L8.43744 9.29977C8.4792 10.0268 7.75462 10.5533 7.07604 10.2889L5.36304 9.62145C5.12956 9.53048 4.87044 9.53048 4.63696 9.62145L2.92396 10.2889C2.24538 10.5533 1.5208 10.0268 1.56256 9.29977L1.66798 7.46437C1.68235 7.2142 1.60228 6.96776 1.44361 6.77382L0.279501 5.35091C-0.181648 4.78724 0.095114 3.93545 0.799509 3.75049L2.57766 3.28358C2.82002 3.21994 3.02965 3.06763 3.16507 2.85679L4.15861 1.30996Z" fill="#FFB400"/>
</svg>
