<svg width="18" height="18" viewBox="0 0 18 18" fill="none" xmlns="http://www.w3.org/2000/svg">
<path d="M14.6255 9.375C14.6255 8.34 15.4655 7.5 16.5005 7.5V6.75C16.5005 3.75 15.7505 3 12.7505 3H5.25049C2.25049 3 1.50049 3.75 1.50049 6.75V7.125C2.53549 7.125 3.37549 7.965 3.37549 9C3.37549 10.035 2.53549 10.875 1.50049 10.875V11.25C1.50049 14.25 2.25049 15 5.25049 15H12.7505C15.7505 15 16.5005 14.25 16.5005 11.25C15.4655 11.25 14.6255 10.41 14.6255 9.375Z" stroke="#171C26" stroke-width="1.2" stroke-linecap="round" stroke-linejoin="round"/>
<path d="M6.75049 11.0625L11.2505 6.5625" stroke="#171C26" stroke-width="1.2" stroke-linecap="round" stroke-linejoin="round"/>
<path d="M11.2464 11.0625H11.2531" stroke="#171C26" stroke-width="1.5" stroke-linecap="round" stroke-linejoin="round"/>
<path d="M6.74637 6.9375H6.75311" stroke="#171C26" stroke-width="1.5" stroke-linecap="round" stroke-linejoin="round"/>
</svg>
