<svg width="20" height="20" viewBox="0 0 20 20" fill="none" xmlns="http://www.w3.org/2000/svg">
<path d="M18.3338 9.99992V14.1666C18.3338 16.6666 16.6672 18.3333 14.1672 18.3333H5.83384C3.33384 18.3333 1.66718 16.6666 1.66718 14.1666V9.99992C1.66718 7.73325 3.03384 6.14992 5.15884 5.88325C5.37551 5.84992 5.60051 5.83325 5.83384 5.83325H14.1672C14.3838 5.83325 14.5922 5.84158 14.7922 5.87491C16.9422 6.12491 18.3338 7.71659 18.3338 9.99992Z" stroke="#292D32" stroke-width="1.2" stroke-linecap="round" stroke-linejoin="round"/>
<path d="M14.7933 5.87508C14.5933 5.84175 14.385 5.83342 14.1683 5.83342H5.83497C5.60164 5.83342 5.37664 5.85009 5.15997 5.88342C5.27664 5.65009 5.44331 5.43342 5.64331 5.23342L8.35164 2.51675C9.49331 1.38341 11.3433 1.38341 12.485 2.51675L13.9433 3.99176C14.4766 4.51676 14.76 5.18341 14.7933 5.87508Z" stroke="#292D32" stroke-width="1.2" stroke-linecap="round" stroke-linejoin="round"/>
<path d="M18.3338 10.4167H15.8338C14.9172 10.4167 14.1672 11.1667 14.1672 12.0834C14.1672 13.0001 14.9172 13.7501 15.8338 13.7501H18.3338" stroke="#292D32" stroke-width="1.2" stroke-linecap="round" stroke-linejoin="round"/>
</svg>
