<svg width="14" height="14" viewBox="0 0 14 14" fill="none" xmlns="http://www.w3.org/2000/svg">
<path d="M6.99996 1.16663C3.78579 1.16663 1.16663 3.78579 1.16663 6.99996C1.16663 10.2141 3.78579 12.8333 6.99996 12.8333C10.2141 12.8333 12.8333 10.2141 12.8333 6.99996C12.8333 3.78579 10.2141 1.16663 6.99996 1.16663ZM9.53746 9.08246C9.45579 9.22246 9.30996 9.29829 9.15829 9.29829C9.08246 9.29829 9.00663 9.28079 8.93663 9.23413L7.12829 8.15496C6.67913 7.88663 6.34663 7.29746 6.34663 6.77829V4.38663C6.34663 4.14746 6.54496 3.94913 6.78413 3.94913C7.02329 3.94913 7.22163 4.14746 7.22163 4.38663V6.77829C7.22163 6.98829 7.39663 7.29746 7.57746 7.40246L9.38579 8.48163C9.59579 8.60413 9.66579 8.87246 9.53746 9.08246Z" fill="#797D83"/>
</svg>
