<svg width="17" height="17" viewBox="0 0 17 17" fill="none" xmlns="http://www.w3.org/2000/svg">
<path d="M10.3063 1.41663H6.69375C5.41875 1.41663 5.13542 2.05413 4.9725 2.84038L4.39166 5.61704H12.6083L12.0275 2.84038C11.8646 2.05413 11.5813 1.41663 10.3063 1.41663Z" stroke="#F33737" stroke-width="1.2" stroke-linecap="round" stroke-linejoin="round"/>
<path d="M13.6283 10.1433C13.685 10.7454 13.2033 11.2625 12.5871 11.2625H11.6238C11.0713 11.2625 10.9933 11.0288 10.8942 10.7313L10.7879 10.4266C10.6462 10.0087 10.5542 9.7254 9.81042 9.7254H7.1825C6.44583 9.7254 6.33249 10.0441 6.20499 10.4266L6.09875 10.7313C5.99958 11.0217 5.92167 11.2625 5.36917 11.2625H4.40583C3.78958 11.2625 3.30791 10.7454 3.36458 10.1433L3.655 7.01251C3.72583 6.24043 3.87458 5.60999 5.22041 5.60999H11.7725C13.1183 5.60999 13.2671 6.24043 13.3379 7.01251L13.6283 10.1433Z" stroke="#F33737" stroke-width="1.2" stroke-linecap="round" stroke-linejoin="round"/>
<path d="M4.39165 4.07288H3.87457" stroke="#F33737" stroke-width="1.2" stroke-linecap="round" stroke-linejoin="round"/>
<path d="M13.1254 4.07288H12.6083" stroke="#F33737" stroke-width="1.2" stroke-linecap="round" stroke-linejoin="round"/>
<path d="M5.41876 7.67126H6.95586" stroke="#F33737" stroke-width="1.2" stroke-linecap="round" stroke-linejoin="round"/>
<path d="M10.0442 7.67126H11.5813" stroke="#F33737" stroke-width="1.2" stroke-linecap="round" stroke-linejoin="round"/>
<path d="M8.5 12.0416V12.75" stroke="#F33737" stroke-width="1.2" stroke-linecap="round" stroke-linejoin="round"/>
<path d="M8.5 14.875V15.5833" stroke="#F33737" stroke-width="1.2" stroke-linecap="round" stroke-linejoin="round"/>
<path d="M2.12502 12.75L1.41669 15.5833" stroke="#F33737" stroke-width="1.2" stroke-linecap="round" stroke-linejoin="round"/>
<path d="M14.875 12.75L15.5833 15.5833" stroke="#F33737" stroke-width="1.2" stroke-linecap="round" stroke-linejoin="round"/>
</svg>
