<svg width="40" height="40" viewBox="0 0 40 40" fill="none" xmlns="http://www.w3.org/2000/svg">
<path d="M0 16C0 8.45753 0 4.68629 2.34315 2.34315C4.68629 0 8.45753 0 16 0H24C31.5425 0 35.3137 0 37.6569 2.34315C40 4.68629 40 8.45753 40 16V24C40 31.5425 40 35.3137 37.6569 37.6569C35.3137 40 31.5425 40 24 40H16C8.45753 40 4.68629 40 2.34315 37.6569C0 35.3137 0 31.5425 0 24V16Z" fill="#007A3D"/>
<path fill-rule="evenodd" clip-rule="evenodd" d="M16.1046 21.0204C15.4328 21.9386 15.9178 22.5358 16.6104 22.5783C17.067 22.6089 18.0164 21.9905 18.0138 21.2636L17.7544 21.1314C17.8997 21.5043 17.7492 21.6223 17.4405 21.8772C16.8309 22.38 15.5858 22.4154 16.1046 21.0204Z" fill="white" stroke="white" stroke-width="0.00991745"/>
<path fill-rule="evenodd" clip-rule="evenodd" d="M21.4305 23.4292C25.2126 23.5259 26.4162 20.1955 24.0816 17.3442L23.8507 17.6582C24.0012 18.987 24.2191 20.297 24.2398 21.6589C23.7833 22.1475 23.1192 21.9658 22.9869 21.4229C22.9947 20.6865 22.7301 20.0633 22.3955 19.4685L22.2087 19.7825C22.4266 20.271 22.6627 20.821 22.7119 21.4229C21.6328 22.6007 20.4396 22.8391 20.8832 21.2907C20.0297 22.6479 21.3215 23.6038 22.7846 21.5149C23.0985 22.9406 24.3124 22.0554 24.3851 21.7486C24.5174 20.8139 24.4499 19.308 24.1828 18.1184C25.2359 19.7777 25.2722 20.9744 24.7119 21.7746C24.0894 22.6644 22.7353 23.0798 21.4305 23.4292Z" fill="white" stroke="white" stroke-width="0.0247441"/>
<path fill-rule="evenodd" clip-rule="evenodd" d="M23.5757 19.6637C22.7663 19.718 22.3513 19.5669 22.7897 19.0217C23.2229 18.4882 23.6275 18.9131 23.7365 19.6259C23.8376 20.2939 22.315 21.146 21.7884 21.146C20.992 21.146 20.6237 20.2136 21.3578 19.3757C20.4135 21.821 23.3967 20.4024 23.5757 19.6637ZM23.0153 19.0972C22.9168 19.0925 22.8441 19.2506 22.8934 19.2813C23.0361 19.371 23.2618 19.3167 23.2851 19.2719C23.3344 19.1727 23.1528 19.1019 23.0153 19.0972Z" fill="white" stroke="white" stroke-width="0.0247441"/>
<path fill-rule="evenodd" clip-rule="evenodd" d="M19.1808 20.8186C18.4026 22.2112 19.1782 22.7871 20.1769 22.6266C20.758 22.5298 21.4947 22.1545 21.9201 21.6423C21.9279 20.5141 21.9097 19.3953 21.8008 18.3025C22.1899 17.88 21.7671 17.8823 21.6192 17.4291C21.5518 17.6935 21.3883 17.9791 21.5466 18.1844C21.6581 19.2867 21.7204 20.4031 21.7178 21.5408C20.9344 22.1144 20.3455 22.3268 19.9253 22.3221C19.0563 22.315 18.8695 21.6494 19.1808 20.8186Z" fill="white" stroke="white" stroke-width="0.0247441"/>
<path fill-rule="evenodd" clip-rule="evenodd" d="M20.7711 21.1857C20.7581 20.1353 20.74 18.9434 20.6362 18.2093C21.0409 17.801 20.6154 17.7915 20.4831 17.3336C20.4053 17.5933 20.2341 17.8765 20.3846 18.0866C20.452 19.2101 20.5169 20.3336 20.5298 21.4571C20.6232 21.4028 20.7296 21.3816 20.7711 21.1857Z" fill="white" stroke="white" stroke-width="0.0247441"/>
<path fill-rule="evenodd" clip-rule="evenodd" d="M17.7516 21.136C17.6531 21.0227 17.583 20.8953 17.5026 20.7843C17.4896 20.6262 17.6064 20.4799 17.6219 20.3996C17.7542 20.5861 17.832 20.7277 17.9384 20.8197M18.0785 20.8929C18.273 20.9637 18.5117 20.9637 18.7322 20.9684C19.583 20.9826 20.4779 20.8552 20.382 21.9031C20.299 22.8331 19.4507 23.3713 18.6907 23.3642C17.609 23.3547 16.6855 22.269 18.3534 20.2698C18.5143 20.2462 18.7244 20.2863 18.8982 20.3005C19.1965 20.3217 19.5026 20.2958 19.8528 20.0408C19.8113 19.3823 19.8113 18.7592 19.7231 18.1644C19.5726 17.9543 19.7438 17.6734 19.8217 17.4114C19.954 17.8693 20.3768 17.8788 19.9747 18.2895C20.0707 18.9504 20.0811 19.6231 20.0811 20.0243C19.8787 20.3052 19.7205 20.6026 19.1291 20.7159C18.5246 20.6356 18.2523 19.8662 17.6219 20.1211C17.7957 19.4272 19.3962 19.269 19.5571 19.8166C19.4507 20.3878 17.9566 20.1589 17.5597 22.0046C17.4378 22.5735 18.0966 23.0975 18.7737 23.055C19.4352 23.0148 20.1407 22.5971 20.2108 21.8937C20.2652 21.306 19.3547 21.3744 18.9734 21.3815C18.4183 21.3933 18.0681 21.3154 17.858 21.2045M18.4261 19.9323C18.5246 19.8473 18.8697 19.7883 18.9942 19.9252C18.9008 19.9818 18.81 20.0432 18.7348 20.1164C18.6051 20.055 18.5195 19.9936 18.4261 19.9323Z" fill="white"/>
<path d="M17.7516 21.136C17.6531 21.0227 17.583 20.8953 17.5026 20.7843C17.4896 20.6262 17.6064 20.4799 17.6219 20.3996C17.7542 20.5861 17.832 20.7277 17.9384 20.8197M18.0785 20.8929C18.273 20.9637 18.5117 20.9637 18.7322 20.9684C19.583 20.9826 20.4779 20.8552 20.382 21.9031C20.299 22.8331 19.4507 23.3713 18.6907 23.3642C17.609 23.3547 16.6855 22.269 18.3534 20.2698C18.5143 20.2462 18.7244 20.2863 18.8982 20.3005C19.1965 20.3217 19.5026 20.2958 19.8528 20.0408C19.8113 19.3823 19.8113 18.7592 19.7231 18.1644C19.5726 17.9543 19.7438 17.6734 19.8217 17.4114C19.954 17.8693 20.3768 17.8788 19.9747 18.2895C20.0707 18.9504 20.0811 19.6231 20.0811 20.0243C19.8787 20.3052 19.7205 20.6026 19.1291 20.7159C18.5246 20.6356 18.2523 19.8662 17.6219 20.1211C17.7957 19.4272 19.3962 19.269 19.5571 19.8166C19.4507 20.3878 17.9566 20.1589 17.5597 22.0046C17.4378 22.5735 18.0966 23.0975 18.7737 23.055C19.4352 23.0148 20.1407 22.5971 20.2108 21.8937C20.2652 21.306 19.3547 21.3744 18.9734 21.3815C18.4183 21.3933 18.0681 21.3154 17.858 21.2045M18.4261 19.9323C18.5246 19.8473 18.8697 19.7883 18.9942 19.9252C18.9008 19.9818 18.81 20.0432 18.7348 20.1164C18.6051 20.055 18.5195 19.9936 18.4261 19.9323Z" stroke="white" stroke-width="0.00991745"/>
<path fill-rule="evenodd" clip-rule="evenodd" d="M19.2719 17.9808C19.3653 18.1697 19.4042 18.2948 19.4094 18.4765C19.3523 18.722 19.1214 18.9509 18.8828 18.958C18.7349 18.9627 18.5689 18.925 18.4522 18.7149C18.4392 18.6889 18.377 18.6276 18.3173 18.6559C18.0553 19.0477 17.8608 19.2129 17.6247 19.2106C17.1526 19.2035 17.2927 18.8211 16.8569 18.7031C16.6753 18.6984 16.377 18.866 16.2239 19.194C15.6429 20.6928 15.1137 19.1893 15.3394 18.4907C15.3731 19.1586 15.5495 19.5552 15.7311 19.5434C15.8634 19.5316 15.9801 19.253 16.1487 18.9604C16.2784 18.7361 16.5897 18.3325 16.9191 18.3325C17.22 18.3396 17.0307 18.8424 17.6325 18.8353C17.923 18.8306 18.1902 18.6276 18.46 18.2216C18.5196 18.2122 18.5352 18.3089 18.5482 18.342C18.5897 18.4812 18.8543 18.8636 19.2122 18.5143C19.1941 18.4387 19.2019 18.3136 19.1111 18.2877L19.2719 17.9808Z" fill="white" stroke="white" stroke-width="0.0247441"/>
<path fill-rule="evenodd" clip-rule="evenodd" d="M21.1627 16.7397C20.8437 16.8837 20.6102 16.7515 20.4779 16.624C20.7088 16.5815 20.8878 16.506 20.9397 16.3408C20.8359 16.1283 20.5895 16.0363 20.2419 16.0339C19.7775 16.0457 19.5389 16.2157 19.5103 16.4494C19.7256 16.4564 19.9202 16.4021 20.0032 16.591C19.6219 16.7609 19.1731 16.8223 18.6854 16.8199C17.8865 16.8577 17.7698 16.5296 17.5596 16.2416C17.5441 16.2228 17.474 16.1921 17.4377 16.1968C17.1913 16.1968 17.0097 16.9804 16.7322 16.9781C16.4546 16.945 16.5168 16.473 16.4364 16.2039C16.369 16.6264 16.522 18.1984 17.3807 16.4918C17.4066 16.4352 17.4429 16.4517 17.4663 16.4989C17.6971 16.9757 18.1666 17.1409 18.6725 17.1645C19.0953 17.1858 19.6349 17.0182 20.2133 16.7208C20.3664 16.8742 20.4883 17.0489 20.8099 17.0819C21.1861 17.0984 21.5882 16.8506 21.6789 16.5438C21.7256 16.3856 21.7334 16.0741 21.5492 16.0693C21.2924 16.0623 21.1057 16.6287 21.1653 17.1386C21.1705 17.1315 21.1991 17.0111 21.1991 17.0111M20.0629 16.3313C20.2315 16.2605 20.3949 16.2275 20.5246 16.3833C20.4234 16.4163 20.3612 16.4376 20.3067 16.4777C20.2341 16.4258 20.1355 16.3998 20.0629 16.3313ZM21.3028 16.683C21.3443 16.5154 21.3677 16.3809 21.5181 16.2936C21.5492 16.4706 21.5544 16.5697 21.3028 16.683Z" fill="white"/>
<path d="M21.1627 16.7397C20.8437 16.8837 20.6102 16.7515 20.4779 16.624C20.7088 16.5815 20.8878 16.506 20.9397 16.3408C20.8359 16.1283 20.5895 16.0363 20.2419 16.0339C19.7775 16.0457 19.5389 16.2157 19.5103 16.4494C19.7256 16.4564 19.9202 16.4021 20.0032 16.591C19.6219 16.7609 19.1731 16.8223 18.6854 16.8199C17.8865 16.8577 17.7698 16.5296 17.5596 16.2416C17.5441 16.2228 17.474 16.1921 17.4377 16.1968C17.1913 16.1968 17.0097 16.9804 16.7322 16.9781C16.4546 16.945 16.5168 16.473 16.4364 16.2039C16.369 16.6264 16.522 18.1984 17.3807 16.4918C17.4066 16.4352 17.4429 16.4517 17.4663 16.4989C17.6971 16.9757 18.1666 17.1409 18.6725 17.1645C19.0953 17.1858 19.6349 17.0182 20.2133 16.7208C20.3664 16.8742 20.4883 17.0489 20.8099 17.0819C21.1861 17.0984 21.5882 16.8506 21.6789 16.5438C21.7256 16.3856 21.7334 16.0741 21.5492 16.0693C21.2924 16.0623 21.1057 16.6287 21.1653 17.1386C21.1705 17.1315 21.1991 17.0111 21.1991 17.0111M20.0629 16.3313C20.2315 16.2605 20.3949 16.2275 20.5246 16.3833C20.4234 16.4163 20.3612 16.4376 20.3067 16.4777C20.2341 16.4258 20.1355 16.3998 20.0629 16.3313ZM21.3028 16.683C21.3443 16.5154 21.3677 16.3809 21.5181 16.2936C21.5492 16.4706 21.5544 16.5697 21.3028 16.683Z" stroke="white" stroke-width="0.00991745"/>
<path fill-rule="evenodd" clip-rule="evenodd" d="M22.3143 16.9422C22.265 16.7982 22.2157 16.6731 22.2002 16.5173C22.1639 16.201 22.4622 16.0217 22.7319 16.0476C23.0095 16.0736 23.1937 16.168 23.4583 16.2506C23.6658 16.3143 23.9459 16.3639 24.2131 16.4324C24.3636 16.4937 24.2131 16.6542 24.1742 16.6755C23.505 16.9139 23.0303 17.2915 22.6048 17.308C22.3506 17.3198 22.1249 17.1688 21.92 16.8596C21.907 16.2601 21.8837 15.5567 21.8188 15.1153C21.9174 15.0256 21.9382 14.9595 21.9849 14.8864C22.0367 15.4694 22.0575 16.083 22.0705 16.7014C22.1249 16.8077 22.1924 16.8973 22.3143 16.9422ZM22.7423 16.9894C22.3843 17.0814 22.4284 16.8053 22.3947 16.6353C22.3558 16.4371 22.3818 16.2129 22.6593 16.2695C23.0199 16.3568 23.3493 16.4725 23.6684 16.5952L22.7423 16.9894Z" fill="white" stroke="white" stroke-width="0.00991745"/>
<path fill-rule="evenodd" clip-rule="evenodd" d="M22.3926 17.2823L22.4419 17.5019H22.4808L22.4652 17.2965" fill="white"/>
<path d="M22.3926 17.2823L22.4419 17.5019H22.4808L22.4652 17.2965" stroke="white" stroke-width="0.00991745"/>
<path fill-rule="evenodd" clip-rule="evenodd" d="M16.6831 19.5759L16.8647 19.406L17.0748 19.5689L16.8803 19.727L16.6831 19.5759Z" fill="white" stroke="white" stroke-width="0.0991745" stroke-linecap="round" stroke-linejoin="round"/>
<path fill-rule="evenodd" clip-rule="evenodd" d="M17.1445 19.5194L17.3287 19.3494L17.5388 19.5123L17.3443 19.6704L17.1445 19.5194Z" fill="white" stroke="white" stroke-width="0.0991745" stroke-linecap="round" stroke-linejoin="round"/>
<path fill-rule="evenodd" clip-rule="evenodd" d="M15.8608 17.7582L16.045 17.5883L16.2551 17.7511L16.0606 17.9093L15.8608 17.7582Z" fill="white" stroke="white" stroke-width="0.0991745" stroke-linecap="round" stroke-linejoin="round"/>
<path fill-rule="evenodd" clip-rule="evenodd" d="M15.9438 18.2586L16.128 18.0887L16.3355 18.2515L16.141 18.4097L15.9438 18.2586Z" fill="white" stroke="white" stroke-width="0.0991745" stroke-linecap="round" stroke-linejoin="round"/>
<path fill-rule="evenodd" clip-rule="evenodd" d="M19.2773 19.0979L19.446 18.9728L19.6016 19.1262L19.4252 19.2395L19.2773 19.0979Z" fill="white" stroke="white" stroke-width="0.0991745" stroke-linecap="round" stroke-linejoin="round"/>
<path fill-rule="evenodd" clip-rule="evenodd" d="M17.0518 15.8938L17.1711 15.7828L17.3086 15.8891L17.1815 15.9929L17.0518 15.8938Z" fill="white" stroke="white" stroke-width="0.0991745" stroke-linecap="round" stroke-linejoin="round"/>
<path fill-rule="evenodd" clip-rule="evenodd" d="M17.355 15.859L17.4743 15.7457L17.6118 15.8543L17.4847 15.9558L17.355 15.859Z" fill="white" stroke="white" stroke-width="0.0991745" stroke-linecap="round" stroke-linejoin="round"/>
<path fill-rule="evenodd" clip-rule="evenodd" d="M23.7255 17.1257L23.6114 17.213L23.5024 17.1115L23.6218 17.0312L23.7255 17.1257Z" fill="white" stroke="white" stroke-width="0.0991745" stroke-linecap="round" stroke-linejoin="round"/>
<path fill-rule="evenodd" clip-rule="evenodd" d="M18.3562 20.2584L18.3433 20.4448L18.6701 20.4732L18.9321 20.2938L18.3562 20.2584Z" fill="white" stroke="white" stroke-width="0.00991745"/>
<path fill-rule="evenodd" clip-rule="evenodd" d="M21.1187 16.7743L21.2146 16.7554L21.2043 16.9985L21.1446 17.0198L21.1187 16.7743Z" fill="white" stroke="white" stroke-width="0.0247441"/>
<path d="M20.4029 26.5613C24.0853 26.5613 27.0814 23.8351 27.0814 20.4849C27.0814 18.6415 26.1776 16.9967 24.7548 15.8848C25.6084 16.7987 26.1273 18.0019 26.1273 19.3117C26.1273 22.2213 23.5663 24.5816 20.4029 24.5816C17.2393 24.5816 14.6783 22.2213 14.6783 19.3117C14.6783 18.0019 15.1971 16.7987 16.0507 15.8848C14.628 16.9967 13.7241 18.6415 13.7241 20.4849C13.7241 23.8351 16.7204 26.5613 20.4029 26.5613Z" fill="white"/>
<path d="M19.4989 29.9417C18.0259 30.6118 16.1848 30.429 14.6282 29.5152C14.5612 29.4848 14.5278 29.5304 14.5947 29.698C14.7621 30.1396 14.896 30.4899 14.3939 31.1448C14.1763 31.4342 14.4273 31.4799 14.7956 31.4494C16.6702 31.2819 18.5113 30.9011 19.3984 30.5813L19.4989 29.9417Z" fill="white" stroke="black" stroke-width="0.12792"/>
<path d="M19.4654 30.7336C18.8796 30.9468 17.8753 31.2057 16.7539 31.3885C16.302 31.4494 16.3187 31.7083 17.1221 31.7997C17.9423 31.8758 18.9968 31.3428 19.6328 30.8707L19.4654 30.7336Z" fill="white" stroke="black" stroke-width="0.12792"/>
<path d="M20.4028 29.2714C20.6037 29.2714 20.9719 29.1952 21.3402 29.1495C22.0264 29.0429 21.5243 30.0024 20.4028 30.0024V30.3222C21.541 30.3222 22.7294 29.1952 22.4783 28.6926C22.1268 27.9616 21.156 28.586 20.4028 28.586C19.6496 28.586 18.6789 27.9616 18.3274 28.6926C18.0763 29.1952 19.2647 30.3222 20.4028 30.3222V30.0024C19.2814 30.0024 18.7793 29.0429 19.4655 29.1495C19.8338 29.1952 20.202 29.2714 20.4028 29.2714Z" fill="white"/>
<path d="M20.4028 30.0024C21.5243 30.0024 22.0264 29.0429 21.3402 29.1495C20.9719 29.1952 20.6037 29.2714 20.4028 29.2714C20.202 29.2714 19.8338 29.1952 19.4655 29.1495C18.7793 29.0429 19.2814 30.0024 20.4028 30.0024ZM20.4028 30.0024V30.3222M20.4028 30.3222C21.541 30.3222 22.7294 29.1952 22.4783 28.6926C22.1268 27.9616 21.156 28.586 20.4028 28.586C19.6496 28.586 18.6789 27.9616 18.3274 28.6926C18.0763 29.1952 19.2647 30.3222 20.4028 30.3222Z" stroke="black" stroke-width="0.12792"/>
<path d="M21.3066 29.9417C22.7796 30.6118 24.6207 30.429 26.1773 29.5152C26.2443 29.4848 26.2778 29.5304 26.2108 29.698C26.0434 30.1396 25.9095 30.4899 26.4117 31.1448C26.6292 31.4342 26.3782 31.4799 26.0099 31.4494C24.1353 31.2819 22.2942 30.9011 21.4071 30.5813L21.3066 29.9417Z" fill="white" stroke="black" stroke-width="0.12792"/>
<path d="M21.3402 30.7336C21.9261 30.9468 22.9136 31.2057 24.0517 31.3885C24.5037 31.4494 24.4869 31.7083 23.6835 31.7997C22.8634 31.8758 21.8089 31.3428 21.1729 30.8707L21.3402 30.7336Z" fill="white" stroke="black" stroke-width="0.12792"/>
<path d="M20.4532 30.5808C20.4866 30.8397 20.5369 31.4032 20.9218 31.1595C21.4407 30.8397 21.5579 30.596 21.5579 30.1391C21.5579 29.8497 21.1729 29.4233 20.403 29.4233C19.633 29.4233 19.248 29.8497 19.248 30.1391C19.248 30.596 19.3652 30.8397 19.8841 31.1595C20.269 31.4032 20.3025 30.8397 20.3527 30.5808C20.3695 30.4894 20.4532 30.5198 20.4532 30.5808Z" fill="white" stroke="black" stroke-width="0.12792"/>
<path d="M19.9181 11.072C19.7005 9.94495 17.8761 9.8688 17.5915 9.68604C17.2568 9.48805 17.307 9.68604 17.4242 9.99064C17.7589 10.7826 18.8971 11.1024 19.416 11.1938C19.8344 11.2547 19.9683 11.2852 19.9181 11.072Z" fill="white" stroke="black" stroke-width="0.12792"/>
<path d="M20.4699 11.1026C20.654 9.94513 18.8463 9.39685 18.6287 9.13794C18.3776 8.8638 18.3442 9.03133 18.4613 9.35116C18.6789 10.0365 19.4656 10.8437 19.9343 11.0569C20.3192 11.2397 20.4364 11.3158 20.4699 11.1026Z" fill="white" stroke="black" stroke-width="0.12792"/>
<path d="M21.9599 11.772C22.1273 10.386 20.6544 10.1728 20.2694 9.73116C20.0184 9.45702 20.0016 9.60932 20.0853 9.92915C20.2527 10.6297 20.9891 11.4521 21.4411 11.7111C21.7926 11.909 21.9432 11.9852 21.9599 11.772Z" fill="white" stroke="black" stroke-width="0.12792"/>
<path d="M21.5075 11.4685C19.9844 10.5699 18.9132 11.0725 18.478 11.0268C18.0595 10.9811 17.9256 11.2248 18.6454 11.5903C19.5325 12.032 20.7711 11.9711 21.2564 11.8036C21.7586 11.6208 21.6079 11.5294 21.5075 11.4685Z" fill="white" stroke="black" stroke-width="0.12792"/>
<path d="M23.8006 12.0778C23.332 10.5853 22.244 10.829 21.926 10.6462C21.608 10.4634 21.5745 10.5091 21.6414 10.8442C21.7753 11.4382 22.8968 12.093 23.4491 12.291C23.65 12.352 23.901 12.4433 23.8006 12.0778Z" fill="white" stroke="black" stroke-width="0.12792"/>
<path d="M23.5832 12.3367C22.2776 11.3772 21.2566 12.093 20.8549 11.9864C20.5536 11.9103 20.6875 12.093 20.8047 12.1692C21.6416 12.7022 22.6793 12.9916 23.4828 12.6566C23.8008 12.5347 23.8175 12.5043 23.5832 12.3367Z" fill="white" stroke="black" stroke-width="0.12792"/>
<path d="M26.4119 13.3113C26.4287 12.3671 24.2862 11.9711 23.8343 11.3923C23.5665 11.042 23.3322 11.2248 23.4661 11.7883C23.6669 12.5194 25.1399 13.3265 25.9433 13.4788C26.4287 13.5702 26.4119 13.4179 26.4119 13.3113Z" fill="white" stroke="black" stroke-width="0.12792"/>
<path d="M26.3454 13.4782C24.9897 12.3664 23.8515 12.7319 23.4331 12.6253C23.0146 12.5339 22.8472 12.7624 23.5 13.2193C24.3034 13.7676 25.542 13.8742 26.0609 13.7676C26.5798 13.661 26.4459 13.5544 26.3454 13.4782Z" fill="white" stroke="black" stroke-width="0.12792"/>
<path d="M28.7717 15.1083C28.3868 13.4939 27.1649 13.1588 26.8636 12.8542C26.5791 12.5496 26.2778 12.641 26.5289 13.3721C26.8302 14.2402 27.8177 15.0017 28.3366 15.1844C28.8387 15.3824 28.8052 15.2301 28.7717 15.1083Z" fill="white" stroke="black" stroke-width="0.12792"/>
<path d="M28.7551 15.3208C27.7676 13.8739 26.4788 13.9196 26.0771 13.7217C25.6921 13.5084 25.4243 13.6912 25.9432 14.3156C26.5457 15.0771 27.7843 15.5036 28.3534 15.534C28.9225 15.5645 28.8221 15.4274 28.7551 15.3208Z" fill="white" stroke="black" stroke-width="0.12792"/>
<path d="M30.0278 17.042C30.5969 15.3972 29.2914 14.788 29.1575 14.5139C29.0068 14.2397 28.8562 14.2397 28.7725 14.5291C28.4043 15.7018 29.5926 16.844 29.7768 17.0725C29.9609 17.2857 29.9943 17.1791 30.0278 17.042Z" fill="white" stroke="black" stroke-width="0.12792"/>
<path d="M29.7593 17.4992C29.3073 15.6564 28.119 15.763 27.8511 15.5041C27.5666 15.2452 27.5331 15.4279 27.5833 15.763C27.7172 16.6616 28.9056 17.2708 29.4412 17.5754C29.6086 17.6667 29.8095 17.7733 29.7593 17.4992Z" fill="white" stroke="black" stroke-width="0.12792"/>
<path d="M30.8979 19.6617C31.718 17.9255 30.7472 16.7528 30.4459 16.4939C30.1447 16.2502 29.9605 16.1436 30.061 16.4939C30.1949 17.0269 29.7262 18.3976 30.4459 19.4028C30.6803 19.7378 30.7137 20.0577 30.8979 19.6617Z" fill="white" stroke="black" stroke-width="0.12792"/>
<path d="M30.4626 20.0128C30.6467 18.9467 29.9772 17.972 29.2574 17.5912C28.839 17.3628 28.8223 17.4237 28.8223 17.7435C28.8557 18.7335 29.8767 19.5559 30.178 20.0128C30.4626 20.4392 30.4458 20.1194 30.4626 20.0128Z" fill="white" stroke="black" stroke-width="0.12792"/>
<path d="M30.2787 22.7842C29.6761 20.7739 30.9314 19.6164 31.3164 19.388C31.6846 19.1443 31.919 19.0529 31.7516 19.4336C31.5005 19.9972 31.7683 21.5658 30.8143 22.5558C30.513 22.8909 30.3958 23.2411 30.2787 22.7842Z" fill="white" stroke="black" stroke-width="0.12792"/>
<path d="M30.4121 22.3421C30.9142 20.5906 29.8263 19.6007 29.4915 19.4027C29.1735 19.2047 28.9726 19.1286 29.1233 19.4484C29.3241 19.9358 29.1065 21.3065 29.9434 22.1593C30.2112 22.4487 30.3117 22.7381 30.4121 22.3421Z" fill="white" stroke="black" stroke-width="0.12792"/>
<path d="M29.7931 21.5192C28.8893 22.4026 28.8725 23.6971 29.2742 24.4586C29.5253 24.9003 29.5588 24.8698 29.7931 24.55C30.4291 23.621 30.0442 22.2807 30.0776 21.6868C30.0944 21.1232 29.8935 21.4278 29.7931 21.5192Z" fill="white" stroke="black" stroke-width="0.12792"/>
<path d="M31.2832 22.9216C31.2832 24.14 30.463 25.13 29.5927 25.4346C29.0905 25.6021 29.0905 25.5564 29.1575 25.1909C29.3918 23.8202 30.5467 23.3176 30.9652 22.8759C31.3669 22.4495 31.2832 22.7998 31.2832 22.9216Z" fill="white" stroke="black" stroke-width="0.12792"/>
<path d="M28.1696 26.5459C29.6425 25.3275 28.8558 24.4746 28.9228 23.6827C28.9562 23.2562 28.7721 23.3629 28.6047 23.5152C27.6674 24.3528 27.6172 25.8453 27.8181 26.4241C27.9017 26.683 28.0356 26.6525 28.1696 26.5459Z" fill="white" stroke="black" stroke-width="0.12792"/>
<path d="M30.1447 25.7534C29.6593 27.0936 28.3705 27.916 27.2826 27.9617C26.6465 27.9922 26.6633 27.9465 26.8809 27.5505C27.701 26.1189 29.1572 25.9514 29.81 25.5859C30.4125 25.2508 30.1949 25.6163 30.1447 25.7534Z" fill="white" stroke="black" stroke-width="0.12792"/>
<path d="M26.1446 28.2665C28.0527 27.3983 27.6677 25.9515 28.0192 25.586C28.2703 25.3271 27.969 25.3575 27.8184 25.4489C26.6969 26.0429 25.7931 26.9871 25.7764 27.9923C25.7764 28.3731 25.8098 28.4188 26.1446 28.2665Z" fill="white" stroke="black" stroke-width="0.12792"/>
<path d="M23.5327 29.8804C25.9429 30.2307 27.0643 28.5706 27.7673 28.4183C28.1355 28.3422 27.8677 28.2051 27.6836 28.1899C26.0768 28.0224 24.0348 28.7077 23.4155 29.4692C23.1644 29.7738 23.1644 29.8347 23.5327 29.8804Z" fill="white" stroke="black" stroke-width="0.12792"/>
<path d="M25.9768 27.277C25.4914 28.7239 23.6838 29.9118 22.328 30.0032C21.692 30.0489 21.692 29.9879 21.9263 29.6072C23.0143 27.8101 24.9056 27.5055 25.5751 27.0486C26.1442 26.6526 26.027 27.1399 25.9768 27.277Z" fill="white" stroke="black" stroke-width="0.12792"/>
<path d="M20.8884 11.072C21.106 9.94495 22.9305 9.8688 23.215 9.68604C23.5497 9.48805 23.4995 9.68604 23.3824 9.99064C23.0476 10.7826 21.9094 11.1024 21.3906 11.1938C20.9721 11.2547 20.8382 11.2852 20.8884 11.072Z" fill="white" stroke="black" stroke-width="0.12792"/>
<path d="M20.3364 11.1026C20.1523 9.94513 21.9599 9.39685 22.1775 9.13794C22.4286 8.8638 22.4621 9.03133 22.3449 9.35116C22.1273 10.0365 21.3406 10.8437 20.872 11.0569C20.487 11.2397 20.3699 11.3158 20.3364 11.1026Z" fill="white" stroke="black" stroke-width="0.12792"/>
<path d="M18.8467 11.772C18.6793 10.386 20.1522 10.1728 20.5372 9.73116C20.7883 9.45702 20.805 9.60932 20.7213 9.92915C20.5539 10.6297 19.8175 11.4521 19.3656 11.7111C19.0141 11.909 18.8634 11.9852 18.8467 11.772Z" fill="white" stroke="black" stroke-width="0.12792"/>
<path d="M19.2988 11.4685C20.822 10.5699 21.8932 11.0725 22.3284 11.0268C22.7468 10.9811 22.8807 11.2248 22.161 11.5903C21.2739 12.032 20.0353 11.9711 19.5499 11.8036C19.0478 11.6208 19.1984 11.5294 19.2988 11.4685Z" fill="white" stroke="black" stroke-width="0.12792"/>
<path d="M17.0058 12.0778C17.4744 10.5853 18.5624 10.829 18.8804 10.6462C19.1984 10.4634 19.2319 10.5091 19.1649 10.8442C19.031 11.4382 17.9096 12.093 17.3573 12.291C17.1564 12.352 16.9053 12.4433 17.0058 12.0778Z" fill="white" stroke="black" stroke-width="0.12792"/>
<path d="M17.2232 12.3367C18.5288 11.3772 19.5498 12.093 19.9515 11.9864C20.2528 11.9103 20.1188 12.093 20.0017 12.1692C19.1648 12.7022 18.1271 12.9916 17.3236 12.6566C17.0056 12.5347 16.9889 12.5043 17.2232 12.3367Z" fill="white" stroke="black" stroke-width="0.12792"/>
<path d="M14.3941 13.3113C14.3774 12.3671 16.5198 11.9711 16.9718 11.3923C17.2396 11.042 17.4739 11.2248 17.34 11.7883C17.1391 12.5194 15.6662 13.3265 14.8628 13.4788C14.3774 13.5702 14.3941 13.4179 14.3941 13.3113Z" fill="white" stroke="black" stroke-width="0.12792"/>
<path d="M14.4612 13.4782C15.817 12.3664 16.9552 12.7319 17.3736 12.6253C17.7921 12.5339 17.9594 12.7624 17.3067 13.2193C16.5033 13.7676 15.2647 13.8742 14.7458 13.7676C14.2269 13.661 14.3608 13.5544 14.4612 13.4782Z" fill="white" stroke="black" stroke-width="0.12792"/>
<path d="M12.0343 15.1083C12.4193 13.4939 13.6411 13.1588 13.9424 12.8542C14.227 12.5496 14.5282 12.641 14.2772 13.3721C13.9759 14.2402 12.9884 15.0017 12.4695 15.1844C11.9674 15.3824 12.0008 15.2301 12.0343 15.1083Z" fill="white" stroke="black" stroke-width="0.12792"/>
<path d="M12.0515 15.3208C13.0391 13.8739 14.3279 13.9196 14.7296 13.7217C15.1146 13.5084 15.3824 13.6912 14.8635 14.3156C14.2609 15.0771 13.0223 15.5036 12.4533 15.534C11.8842 15.5645 11.9846 15.4274 12.0515 15.3208Z" fill="white" stroke="black" stroke-width="0.12792"/>
<path d="M10.7796 17.042C10.2105 15.3972 11.5161 14.788 11.65 14.5139C11.8006 14.2397 11.9512 14.2397 12.0349 14.5291C12.4032 15.7018 11.2148 16.844 11.0307 17.0725C10.8466 17.2857 10.8131 17.1791 10.7796 17.042Z" fill="white" stroke="black" stroke-width="0.12792"/>
<path d="M11.0464 17.4992C11.4983 15.6564 12.6867 15.763 12.9545 15.5041C13.2391 15.2452 13.2725 15.4279 13.2223 15.763C13.0884 16.6616 11.9 17.2708 11.3644 17.5754C11.1971 17.6667 10.9962 17.7733 11.0464 17.4992Z" fill="white" stroke="black" stroke-width="0.12792"/>
<path d="M9.90869 19.6617C9.08854 17.9255 10.0593 16.7528 10.3606 16.4939C10.6619 16.2502 10.846 16.1436 10.7456 16.4939C10.6117 17.0269 11.0803 18.3976 10.3606 19.4028C10.1263 19.7378 10.0928 20.0577 9.90869 19.6617Z" fill="white" stroke="black" stroke-width="0.12792"/>
<path d="M10.3439 20.0128C10.1597 18.9467 10.8293 17.972 11.549 17.5912C11.9674 17.3628 11.9842 17.4237 11.9842 17.7435C11.9507 18.7335 10.9297 19.5559 10.6284 20.0128C10.3439 20.4392 10.3606 20.1194 10.3439 20.0128Z" fill="white" stroke="black" stroke-width="0.12792"/>
<path d="M10.5279 22.7842C11.1305 20.7739 9.87517 19.6164 9.4902 19.388C9.12197 19.1443 8.88764 19.0529 9.05502 19.4336C9.30609 19.9972 9.03828 21.5658 9.99233 22.5558C10.2936 22.8909 10.394 23.2411 10.5279 22.7842Z" fill="white" stroke="black" stroke-width="0.12792"/>
<path d="M10.3935 22.3421C9.89133 20.5906 10.9793 19.6007 11.314 19.4027C11.6321 19.2047 11.8329 19.1286 11.6823 19.4484C11.4814 19.9358 11.699 21.3065 10.8621 22.1593C10.5943 22.4487 10.4939 22.7381 10.3935 22.3421Z" fill="white" stroke="black" stroke-width="0.12792"/>
<path d="M11.0133 21.5192C11.9171 22.4026 11.9338 23.6971 11.5321 24.4586C11.2811 24.9003 11.2476 24.8698 11.0133 24.55C10.3772 23.621 10.7622 22.2807 10.7287 21.6868C10.712 21.1232 10.9128 21.4278 11.0133 21.5192Z" fill="white" stroke="black" stroke-width="0.12792"/>
<path d="M9.52335 22.9216C9.52335 24.14 10.3435 25.13 11.2139 25.4346C11.716 25.6021 11.716 25.5564 11.649 25.1909C11.4147 23.8202 10.2598 23.3176 9.84137 22.8759C9.43966 22.4495 9.52335 22.7998 9.52335 22.9216Z" fill="white" stroke="black" stroke-width="0.12792"/>
<path d="M12.6368 26.5459C11.1639 25.3275 11.9506 24.4746 11.8836 23.6827C11.8501 23.2562 12.0343 23.3629 12.2016 23.5152C13.139 24.3528 13.1892 25.8453 12.9883 26.4241C12.9046 26.683 12.7707 26.6525 12.6368 26.5459Z" fill="white" stroke="black" stroke-width="0.12792"/>
<path d="M10.662 25.7534C11.1474 27.0936 12.4362 27.916 13.5242 27.9617C14.1602 27.9922 14.1435 27.9465 13.9259 27.5505C13.1057 26.1189 11.6495 25.9514 10.9968 25.5859C10.3942 25.2508 10.6118 25.6163 10.662 25.7534Z" fill="white" stroke="black" stroke-width="0.12792"/>
<path d="M14.6625 28.2665C12.7544 27.3983 13.1393 25.9515 12.7878 25.586C12.5368 25.3271 12.8381 25.3575 12.9887 25.4489C14.1101 26.0429 15.014 26.9871 15.0307 27.9923C15.0307 28.3731 14.9972 28.4188 14.6625 28.2665Z" fill="white" stroke="black" stroke-width="0.12792"/>
<path d="M17.2736 29.8804C14.8634 30.2307 13.742 28.5706 13.039 28.4183C12.6708 28.3422 12.9386 28.2051 13.1227 28.1899C14.7295 28.0224 16.7715 28.7077 17.3908 29.4692C17.6419 29.7738 17.6419 29.8347 17.2736 29.8804Z" fill="white" stroke="black" stroke-width="0.12792"/>
<path d="M14.8293 27.277C15.3147 28.7239 17.1224 29.9118 18.4781 30.0032C19.1142 30.0489 19.1142 29.9879 18.8798 29.6072C17.7919 27.8101 15.9005 27.5055 15.231 27.0486C14.6619 26.6526 14.7791 27.1399 14.8293 27.277Z" fill="white" stroke="black" stroke-width="0.12792"/>
<path d="M23.2312 12.4734C22.9132 12.2602 21.7415 12.382 21.5239 12.2449C21.9424 12.5648 22.8797 12.3363 23.2312 12.4734Z" fill="#006233"/>
<path d="M26.0594 13.0217C25.8083 12.6105 24.3187 12.3363 24.1011 11.9708C24.486 12.6714 25.6409 12.58 26.0594 13.0217Z" fill="#006233"/>
<path d="M25.8418 13.4938C25.2895 13.0065 24.0007 13.2045 23.6157 12.9151C24.5196 13.6614 25.0217 13.0826 25.8418 13.4938Z" fill="#006233"/>
<path d="M22.6119 11.3307C22.9634 11.4983 23.3985 11.6658 23.6161 12.0618C23.3651 11.7572 22.9132 11.6353 22.5449 11.3764C22.5617 11.3764 22.5951 11.346 22.6119 11.3307Z" fill="#006233"/>
<path d="M28.1018 14.4683C27.8843 14.0114 27.1143 13.5088 27.0474 13.3412C27.265 13.9352 27.901 14.0723 28.1018 14.4683Z" fill="#006233"/>
<path d="M28.3026 15.2758C27.6331 14.3163 26.5786 14.4229 26.1602 14.0574C26.4782 14.4077 27.6833 14.6361 28.3026 15.2758Z" fill="#006233"/>
<path d="M29.8595 16.7517C29.9097 15.7313 29.0728 15.3505 29.0393 14.7718C29.0226 15.4571 29.8929 16.3862 29.8595 16.7517Z" fill="#006233"/>
<path d="M29.441 17.3001C29.2736 16.4168 28.1354 16.3558 27.9346 15.838C27.9346 16.3254 29.2736 16.828 29.441 17.3001Z" fill="#006233"/>
<path d="M30.3774 16.7982C30.98 17.4683 30.5616 18.4887 30.8126 19.235C30.5113 18.6867 30.662 17.316 30.3774 16.7982Z" fill="#006233"/>
<path d="M29.3901 19.661C30.294 20.5443 29.9257 21.5343 30.294 21.9607C29.8421 21.3668 29.909 20.2093 29.3901 19.661Z" fill="#006233"/>
<path d="M31.2655 19.783C30.4955 20.5597 30.9642 21.7325 30.5625 22.2807C31.0144 21.8086 30.9475 20.3618 31.2655 19.783Z" fill="#006233"/>
<path d="M30.294 19.7826C30.1935 18.884 29.273 18.4119 29.1893 17.9246C29.0888 18.4119 30.0764 19.1734 30.294 19.7826Z" fill="#006233"/>
<path d="M29.8257 21.9315C29.9763 22.5559 29.424 23.8961 29.5913 24.3073C29.2231 23.5915 29.9094 22.2361 29.8257 21.9315Z" fill="#006233"/>
<path d="M31.0138 23.362C30.6456 24.4738 29.9091 24.3976 29.6748 25.0678C29.8422 24.4281 30.813 23.8494 31.0138 23.362Z" fill="#006233"/>
<path d="M28.6206 23.8801C28.1353 24.6263 28.537 25.4792 28.1353 26.0123C28.7043 25.4792 28.4031 24.4893 28.6206 23.8801Z" fill="#006233"/>
<path d="M29.792 25.9207C29.2061 26.9106 28.001 26.8192 27.5156 27.535C28.001 26.6365 29.4907 26.4842 29.792 25.9207Z" fill="#006233"/>
<path d="M27.6666 25.7986C26.6288 26.4535 26.9468 27.1389 26.1602 27.8699C27.1477 27.1389 27.064 26.3317 27.6666 25.7986Z" fill="#006233"/>
<path d="M27.1808 28.4499C26.1765 28.4194 24.7371 29.6073 23.8667 29.516C24.7371 29.6835 26.3439 28.6174 27.1808 28.4499Z" fill="#006233"/>
<path d="M25.5573 27.383C25.4904 28.312 22.8793 28.906 22.5947 29.5304C22.9127 28.708 25.2058 28.0988 25.5573 27.383Z" fill="#006233"/>
<path d="M19.649 10.2493C19.3143 9.99038 18.9126 9.77716 18.7954 9.51825C18.8791 9.85331 19.2139 10.097 19.5486 10.3254C19.5821 10.3102 19.6156 10.2645 19.649 10.2493Z" fill="#006233"/>
<path d="M19.0806 10.5234C18.5618 10.295 17.9592 10.3102 17.6914 9.99036C17.8588 10.3102 18.4279 10.432 18.9133 10.5996C18.9635 10.5691 19.0304 10.5386 19.0806 10.5234Z" fill="#006233"/>
<path d="M17.5737 12.4734C17.8917 12.2602 19.0634 12.382 19.281 12.2449C18.8625 12.5648 17.9252 12.3363 17.5737 12.4734Z" fill="#006233"/>
<path d="M14.7451 13.0217C14.9962 12.6105 16.4858 12.3363 16.7034 11.9708C16.3185 12.6714 15.1636 12.58 14.7451 13.0217Z" fill="#006233"/>
<path d="M14.9629 13.4938C15.5152 13.0065 16.804 13.2045 17.189 12.9151C16.2852 13.6614 15.783 13.0826 14.9629 13.4938Z" fill="#006233"/>
<path d="M17.189 12.0615C17.507 11.4524 18.4108 11.3762 18.6451 11.0107C18.2937 11.559 17.5237 11.6503 17.189 12.0615Z" fill="#006233"/>
<path d="M19.7661 11.5284C20.6867 11.1324 21.5905 11.4675 22.0257 11.2847C21.4901 11.5436 20.218 11.4218 19.7661 11.5284Z" fill="#006233"/>
<path d="M12.7031 14.4683C12.9207 14.0114 13.6907 13.5088 13.7576 13.3412C13.54 13.9352 12.904 14.0723 12.7031 14.4683Z" fill="#006233"/>
<path d="M12.5024 15.2758C13.172 14.3163 14.2264 14.4229 14.6449 14.0574C14.3269 14.4077 13.1217 14.6361 12.5024 15.2758Z" fill="#006233"/>
<path d="M10.9455 16.7517C10.8953 15.7313 11.7322 15.3505 11.7657 14.7718C11.7824 15.4571 10.9121 16.3862 10.9455 16.7517Z" fill="#006233"/>
<path d="M11.3643 17.3001C11.5316 16.4168 12.6698 16.3558 12.8707 15.838C12.8707 16.3254 11.5316 16.828 11.3643 17.3001Z" fill="#006233"/>
<path d="M10.4264 16.7982C9.82383 17.4683 10.2423 18.4887 9.99121 19.235C10.2925 18.6867 10.1419 17.316 10.4264 16.7982Z" fill="#006233"/>
<path d="M11.4141 19.661C10.5103 20.5443 10.8785 21.5343 10.5103 21.9607C10.9622 21.3668 10.8952 20.2093 11.4141 19.661Z" fill="#006233"/>
<path d="M9.53955 19.783C10.3095 20.5597 9.84083 21.7325 10.2425 22.2807C9.79062 21.8086 9.85757 20.3618 9.53955 19.783Z" fill="#006233"/>
<path d="M10.5103 19.7826C10.6107 18.884 11.5313 18.4119 11.6149 17.9246C11.7154 18.4119 10.7278 19.1734 10.5103 19.7826Z" fill="#006233"/>
<path d="M10.979 21.9315C10.8283 22.5559 11.3807 23.8961 11.2133 24.3073C11.5815 23.5915 10.8953 22.2361 10.979 21.9315Z" fill="#006233"/>
<path d="M9.79053 23.362C10.1588 24.4738 10.8952 24.3976 11.1295 25.0678C10.9622 24.4281 9.99138 23.8494 9.79053 23.362Z" fill="#006233"/>
<path d="M12.1841 23.8801C12.6695 24.6263 12.2678 25.4792 12.6695 26.0123C12.1004 25.4792 12.4017 24.4893 12.1841 23.8801Z" fill="#006233"/>
<path d="M11.0127 25.9207C11.5985 26.9106 12.8036 26.8192 13.289 27.535C12.8036 26.6365 11.314 26.4842 11.0127 25.9207Z" fill="#006233"/>
<path d="M13.1382 25.7986C14.1759 26.4535 13.8579 27.1389 14.6446 27.8699C13.6571 27.1389 13.7407 26.3317 13.1382 25.7986Z" fill="#006233"/>
<path d="M13.6235 28.4499C14.6278 28.4194 16.0672 29.6073 16.9376 29.516C16.0672 29.6835 14.4604 28.6174 13.6235 28.4499Z" fill="#006233"/>
<path d="M15.2476 27.383C15.3145 28.312 17.9256 28.906 18.2101 29.5304C17.8921 28.708 15.5991 28.0988 15.2476 27.383Z" fill="#006233"/>
<path d="M19.0464 11.5586C19.2472 10.7362 20.2515 10.5839 20.3854 10.0965C20.3352 10.6143 19.1468 11.1931 19.0464 11.5586Z" fill="#006233"/>
<path d="M22.0098 9.51825C21.8592 10.1427 20.7712 10.493 20.6206 10.9651C20.6708 10.3254 21.7922 9.95992 22.0098 9.51825Z" fill="#006233"/>
<path d="M21.1553 10.9955C21.6741 10.234 22.7454 10.432 23.1136 9.99036C22.8458 10.5082 21.5235 10.5234 21.1553 10.9955Z" fill="#006233"/>
<path d="M28.2404 20.4082C28.2404 24.3634 24.7167 27.5698 20.3699 27.5698C16.0232 27.5698 12.4995 24.3634 12.4995 20.4082C12.4995 16.4529 16.0232 13.2466 20.3699 13.2466C24.7167 13.2466 28.2404 16.4529 28.2404 20.4082Z" stroke="#F7C608" stroke-width="0.127923" stroke-linecap="round" stroke-linejoin="round"/>
<path d="M18.826 27.5736L18.7977 27.6612C18.7789 27.7197 18.7165 27.7506 18.6476 27.7481C18.487 27.7052 18.2735 27.664 18.0808 27.6125L18.2598 27.0575C18.4686 27.1132 18.6821 27.1544 18.8314 27.1784C18.8956 27.1956 18.9297 27.2523 18.9108 27.3107L18.8873 27.3837M17.5335 27.038L17.5617 26.9503C17.5806 26.8919 17.6429 26.861 17.7071 26.8781C17.863 26.9356 18.051 27.0017 18.2598 27.0575L18.0808 27.6125C17.8881 27.561 17.6953 27.5096 17.5234 27.4478C17.4638 27.416 17.4486 27.3009 17.4675 27.2425" fill="#F7C608"/>
<path d="M18.7164 27.526L18.6961 27.5888C18.6825 27.6311 18.6325 27.6511 18.5758 27.647C18.4422 27.6114 18.2652 27.5752 18.105 27.5324L18.2331 27.1351C18.4068 27.1815 18.5837 27.2176 18.7072 27.2395C18.7607 27.2538 18.7908 27.2952 18.7772 27.3375L18.7602 27.3901M17.6349 27.1006L17.6552 27.0378C17.6688 26.9955 17.7188 26.9755 17.7722 26.9898C17.9025 27.0357 18.0595 27.0887 18.2331 27.1351L18.105 27.5324C17.9447 27.4896 17.7844 27.4468 17.6407 27.3973C17.5906 27.3728 17.5741 27.289 17.5878 27.2467" fill="#006233"/>
<path d="M16.6727 26.8811L16.6184 26.9579C16.5822 27.0091 16.5129 27.0229 16.4475 27.0027C16.3067 26.9204 16.1145 26.8262 15.9456 26.7274L16.2892 26.2407C16.4723 26.3477 16.6644 26.442 16.8002 26.5032C16.8565 26.5362 16.8716 26.5993 16.8354 26.6505L16.7902 26.7146M15.5983 26.0358L15.6525 25.959C15.6887 25.9077 15.7581 25.894 15.8144 25.927C15.9462 26.0221 16.1061 26.1337 16.2892 26.2407L15.9456 26.7274C15.7766 26.6286 15.6076 26.5298 15.4617 26.4264C15.4144 26.3807 15.4355 26.2664 15.4717 26.2151" fill="#F7C608"/>
<path d="M16.5822 26.8064L16.5433 26.8614C16.5171 26.8986 16.463 26.9049 16.4098 26.8865C16.2927 26.818 16.1341 26.738 15.9935 26.6558L16.2395 26.3075C16.3918 26.3965 16.5504 26.4765 16.6621 26.5292C16.709 26.5566 16.7251 26.604 16.6989 26.6412L16.6663 26.6873M15.6762 26.1211L15.715 26.066C15.7413 26.0289 15.7954 26.0225 15.8422 26.0499C15.953 26.1273 16.0873 26.2184 16.2395 26.3075L15.9935 26.6558C15.853 26.5737 15.7124 26.4915 15.5899 26.4072C15.5494 26.3709 15.5595 26.2863 15.5857 26.2491" fill="#006233"/>
<path d="M14.8227 25.6603L14.7468 25.7201C14.6963 25.76 14.6255 25.7554 14.569 25.7193C14.4593 25.6042 14.3042 25.4646 14.1726 25.3265L14.653 24.9476C14.7955 25.0972 14.9507 25.2368 15.062 25.3304C15.1058 25.3765 15.1008 25.4409 15.0502 25.4808L14.987 25.5306M14.0534 24.5739L14.1293 24.5141C14.1799 24.4742 14.2507 24.4788 14.2945 24.5248C14.3915 24.6499 14.5104 24.798 14.653 24.9476L14.1726 25.3265C14.041 25.1884 13.9095 25.0503 13.8015 24.9137C13.7703 24.8577 13.8259 24.7534 13.8764 24.7135" fill="#F7C608"/>
<path d="M14.7594 25.5647L14.7051 25.6076C14.6684 25.6365 14.6145 25.6287 14.5692 25.5974C14.478 25.5017 14.3506 25.3843 14.2412 25.2694L14.585 24.9982C14.7036 25.1226 14.8309 25.2401 14.9219 25.3192C14.9583 25.3575 14.9591 25.4072 14.9225 25.4361L14.877 25.472M14.1022 24.675L14.1565 24.6321C14.1932 24.6032 14.2471 24.6109 14.2836 24.6492C14.3659 24.7519 14.4665 24.8738 14.585 24.9982L14.2412 25.2694C14.1317 25.1545 14.0223 25.0397 13.9309 24.9274C13.9032 24.8821 13.9391 24.8036 13.9757 24.7747" fill="#006233"/>
<path d="M13.4232 24.0185L13.3319 24.0564C13.2711 24.0817 13.2045 24.0592 13.1615 24.0101C13.0919 23.8715 12.9863 23.6978 12.9028 23.5316L13.481 23.2911C13.5715 23.4712 13.6771 23.645 13.7549 23.7633C13.7828 23.8187 13.758 23.8793 13.6971 23.9046L13.6211 23.9362M13.0214 22.7789L13.1127 22.741C13.1736 22.7156 13.2401 22.7382 13.2679 22.7936C13.3223 22.9385 13.3906 23.111 13.481 23.2911L12.9028 23.5316C12.8193 23.3653 12.7358 23.1991 12.6745 23.0404C12.6619 22.9786 12.7475 22.8928 12.8084 22.8675" fill="#F7C608"/>
<path d="M13.3914 23.9121L13.326 23.9393C13.2819 23.9577 13.2325 23.9364 13.1987 23.8947C13.1409 23.7795 13.055 23.6342 12.9856 23.4959L13.3995 23.3238C13.4747 23.4736 13.5606 23.6189 13.6233 23.7182C13.6464 23.7643 13.6318 23.8121 13.5877 23.8305L13.5329 23.8533M13.0362 22.8899L13.1017 22.8627C13.1458 22.8443 13.1951 22.8656 13.2182 22.9117C13.2655 23.0313 13.3242 23.174 13.3995 23.3238L12.9856 23.4959C12.9161 23.3577 12.8467 23.2194 12.7937 23.0882C12.7812 23.0377 12.8399 22.9715 12.8841 22.9532" fill="#006233"/>
<path d="M12.5893 22.0819L12.4899 22.0949C12.4237 22.1036 12.3669 22.0649 12.3407 22.0068C12.3169 21.856 12.2693 21.6622 12.2406 21.4813L12.8699 21.3988C12.9009 21.5948 12.9485 21.7886 12.9866 21.9221C12.9961 21.9824 12.9536 22.0341 12.8874 22.0428L12.8046 22.0537M12.5875 20.7895L12.6868 20.7765C12.7531 20.7678 12.8099 20.8065 12.8194 20.8668C12.8268 21.0197 12.8388 21.2028 12.8699 21.3988L12.2406 21.4813C12.212 21.3004 12.1833 21.1195 12.1736 20.9515C12.1806 20.889 12.2894 20.8286 12.3556 20.8199" fill="#F7C608"/>
<path d="M12.5916 21.9701L12.5204 21.9794C12.4723 21.9857 12.4316 21.9526 12.4121 21.904C12.3922 21.7786 12.3548 21.6172 12.331 21.4667L12.7814 21.4076C12.8072 21.5706 12.8446 21.7321 12.8741 21.8434C12.882 21.8936 12.8532 21.9358 12.8052 21.9421L12.7456 21.9499M12.5672 20.8982L12.6384 20.8889C12.6864 20.8826 12.7271 20.9156 12.7351 20.9658C12.7434 21.0927 12.7556 21.2446 12.7814 21.4076L12.331 21.4667C12.3072 21.3162 12.2833 21.1658 12.2731 21.0263C12.2767 20.9747 12.3536 20.9262 12.4016 20.9199" fill="#006233"/>
<path d="M12.3893 20.0127L12.29 19.9997C12.2237 19.9911 12.1812 19.9393 12.1741 19.8769C12.1979 19.7261 12.2122 19.528 12.2407 19.347L12.87 19.4291C12.8391 19.6251 12.8248 19.8233 12.82 19.9611C12.8105 20.0214 12.7537 20.0602 12.6874 20.0516L12.6046 20.0408M12.7876 18.7721L12.887 18.7851C12.9532 18.7938 12.9958 18.8455 12.9863 18.9058C12.946 19.0544 12.9009 19.2331 12.87 19.4291L12.2407 19.347C12.2692 19.1661 12.2977 18.9852 12.3404 18.8215C12.3665 18.7633 12.4895 18.7332 12.5558 18.7419" fill="#F7C608"/>
<path d="M12.4262 19.9069L12.355 19.8976C12.307 19.8913 12.2782 19.8491 12.2745 19.7975C12.2942 19.6721 12.3083 19.5075 12.332 19.3571L12.7825 19.4158C12.7568 19.5788 12.7427 19.7434 12.7365 19.8577C12.7286 19.9079 12.6879 19.941 12.6399 19.9347L12.5803 19.9269M12.7347 18.8721L12.8059 18.8814C12.8539 18.8877 12.8827 18.9298 12.8748 18.98C12.8435 19.1039 12.8082 19.2528 12.7825 19.4158L12.332 19.3571C12.3557 19.2066 12.3795 19.0561 12.4128 18.9197C12.4323 18.8711 12.521 18.8442 12.569 18.8505" fill="#006233"/>
<path d="M12.8377 17.9761L12.7464 17.9382C12.6855 17.9129 12.6607 17.8524 12.6732 17.7906C12.7427 17.6521 12.8178 17.4656 12.9012 17.2993L13.4796 17.5394C13.3893 17.7195 13.3142 17.906 13.2669 18.037C13.2391 18.0924 13.1726 18.1151 13.1117 18.0898L13.0356 18.0582M13.6039 16.8879L13.6952 16.9258C13.7561 16.9511 13.7809 17.0116 13.7531 17.067C13.6684 17.1993 13.5699 17.3592 13.4796 17.5394L12.9012 17.2993C12.9845 17.133 13.0679 16.9667 13.1595 16.8206C13.2025 16.7715 13.3299 16.7742 13.3908 16.7995" fill="#F7C608"/>
<path d="M12.9063 17.8834L12.8408 17.8562C12.7967 17.8379 12.7821 17.7901 12.7945 17.7395C12.8523 17.6243 12.9168 17.47 12.9861 17.3318L13.4001 17.5036C13.325 17.6534 13.2605 17.8077 13.2192 17.9158C13.1961 17.9619 13.1468 17.9832 13.1026 17.9649L13.0478 17.9421M13.5225 16.9696L13.588 16.9968C13.6321 17.0151 13.6467 17.063 13.6236 17.1091C13.5552 17.2199 13.4752 17.3538 13.4001 17.5036L12.9861 17.3318C13.0554 17.1935 13.1247 17.0551 13.199 16.9328C13.2327 16.8911 13.3262 16.8881 13.3703 16.9064" fill="#006233"/>
<path d="M13.8978 16.1344L13.8219 16.0746C13.7713 16.0348 13.7663 15.9704 13.7974 15.9143C13.907 15.7992 14.0367 15.6395 14.1682 15.5013L14.6489 15.8799C14.5065 16.0296 14.3767 16.1893 14.2907 16.3029C14.2469 16.3489 14.1761 16.3536 14.1255 16.3138L14.0623 16.2639M14.9698 15.2867L15.0457 15.3465C15.0963 15.3863 15.1014 15.4507 15.0576 15.4968C14.9354 15.602 14.7913 15.7302 14.6489 15.8799L14.1682 15.5013C14.2996 15.3631 14.4311 15.225 14.5643 15.1082C14.6207 15.0721 14.7421 15.1073 14.7927 15.1472" fill="#F7C608"/>
<path d="M13.9921 16.0634L13.9377 16.0206C13.901 15.9917 13.9018 15.942 13.9294 15.8968C14.0205 15.801 14.1301 15.6695 14.2394 15.5546L14.5835 15.8256C14.4651 15.9501 14.3555 16.0815 14.2823 16.1747C14.2459 16.213 14.192 16.2208 14.1553 16.1919L14.1098 16.1561M14.8662 15.3446L14.9206 15.3874C14.9573 15.4163 14.9566 15.466 14.9201 15.5043C14.8201 15.5931 14.702 15.7011 14.5835 15.8256L14.2394 15.5546C14.3488 15.4396 14.4581 15.3247 14.5672 15.2263C14.6125 15.195 14.7031 15.2161 14.7398 15.245" fill="#006233"/>
<path d="M15.4848 14.6415L15.4305 14.5647C15.3943 14.5135 15.4094 14.4504 15.4566 14.4046C15.5974 14.3222 15.7713 14.2023 15.9402 14.1034L16.2842 14.5898C16.1013 14.697 15.9273 14.8169 15.8097 14.9039C15.7534 14.9368 15.684 14.9232 15.6478 14.872L15.6025 14.808M16.7759 14.1029L16.8302 14.1797C16.8664 14.2309 16.8513 14.294 16.795 14.327C16.6452 14.3966 16.4672 14.4827 16.2842 14.5898L15.9402 14.1034C16.1091 14.0045 16.2781 13.9056 16.442 13.8277C16.5073 13.8075 16.6129 13.8724 16.6491 13.9236" fill="#F7C608"/>
<path d="M15.5967 14.5982L15.5578 14.5432C15.5315 14.506 15.5477 14.4586 15.5881 14.4222C15.7052 14.3537 15.8511 14.2556 15.9916 14.1734L16.2378 14.5216C16.0856 14.6107 15.9398 14.7087 15.8407 14.7794C15.7939 14.8068 15.7398 14.8005 15.7135 14.7634L15.6809 14.7173M16.658 14.1325L16.6969 14.1876C16.7232 14.2247 16.7071 14.2722 16.6602 14.2996C16.5368 14.3592 16.39 14.4324 16.2378 14.5216L15.9916 14.1734C16.132 14.0911 16.2725 14.0088 16.4077 13.9424C16.4608 13.9239 16.5412 13.9674 16.5675 14.0045" fill="#006233"/>
<path d="M17.4716 13.6144L17.4432 13.5268C17.4243 13.4684 17.4583 13.4117 17.5178 13.3799C17.6784 13.3369 17.8824 13.2664 18.0751 13.2148L18.2546 13.7697C18.0459 13.8256 17.8418 13.8961 17.7021 13.9494C17.6378 13.9666 17.5755 13.9357 17.5566 13.8773L17.533 13.8043M18.8771 13.4284L18.9054 13.5161C18.9243 13.5745 18.8903 13.6312 18.8261 13.6484C18.6608 13.6768 18.4634 13.7138 18.2546 13.7697L18.0751 13.2148C18.2678 13.1632 18.4605 13.1116 18.6419 13.0788C18.7108 13.0763 18.792 13.1656 18.8109 13.224" fill="#F7C608"/>
<path d="M17.5934 13.6007L17.5731 13.5379C17.5594 13.4956 17.5896 13.4542 17.6397 13.4297C17.7732 13.3939 17.9435 13.3372 18.1038 13.2943L18.2323 13.6915C18.0587 13.738 17.8884 13.7947 17.7715 13.8371C17.7181 13.8514 17.6681 13.8315 17.6544 13.7891L17.6374 13.7365M18.7559 13.4259L18.7762 13.4887C18.7899 13.531 18.7597 13.5724 18.7063 13.5867C18.5695 13.6123 18.4059 13.645 18.2323 13.6915L18.1038 13.2943C18.264 13.2513 18.4243 13.2084 18.5745 13.1793C18.6313 13.1752 18.6949 13.2375 18.7086 13.2799" fill="#006233"/>
<path d="M19.6952 13.1418L19.6951 13.0504C19.6951 12.9895 19.7453 12.9438 19.8122 12.9286C19.9796 12.9285 20.1972 12.9131 20.3981 12.913L20.3985 13.4914C20.1809 13.4916 19.9633 13.5069 19.8127 13.5222C19.7457 13.5223 19.6955 13.4766 19.6954 13.4158L19.6954 13.3396M21.1014 13.3235L21.1015 13.4149C21.1015 13.4758 21.0513 13.5215 20.9844 13.5215C20.817 13.5064 20.6161 13.4913 20.3985 13.4914L20.3981 12.913C20.5989 12.9128 20.7998 12.9127 20.9839 12.9278C21.0509 12.943 21.1012 13.0495 21.1012 13.1104" fill="#F7C608"/>
<path d="M19.8152 13.1595L19.8152 13.094C19.8151 13.0499 19.8569 13.0179 19.9126 13.0072C20.0518 13.0071 20.2328 12.9963 20.3998 12.9962L20.4001 13.4103C20.2192 13.4104 20.0382 13.4212 19.9129 13.4319C19.8572 13.4319 19.8154 13.4 19.8154 13.3558L19.8153 13.301M20.9847 13.2896L20.9848 13.3551C20.9848 13.3992 20.9431 13.4312 20.8874 13.4313C20.7482 13.4207 20.5811 13.4102 20.4001 13.4103L20.3998 12.9962C20.5669 12.9961 20.7339 12.996 20.8871 13.0066C20.9428 13.0172 20.9846 13.0933 20.9846 13.1374" fill="#006233"/>
<path d="M21.8243 13.2417L21.8517 13.1538C21.87 13.0952 21.932 13.0638 22.001 13.0658C22.162 13.1074 22.3759 13.1469 22.5692 13.1969L22.3954 13.7533C22.1861 13.6992 21.9722 13.6597 21.8227 13.6369C21.7583 13.6202 21.7237 13.5638 21.742 13.5052L21.7648 13.432M23.1219 13.7671L23.0945 13.855C23.0762 13.9135 23.0142 13.945 22.9498 13.9283C22.7933 13.872 22.6047 13.8074 22.3954 13.7533L22.5692 13.1969C22.7624 13.2468 22.9556 13.2968 23.1282 13.3572C23.188 13.3885 23.2043 13.5035 23.186 13.5621" fill="#F7C608"/>
<path d="M21.9345 13.2896L21.9541 13.2266C21.9674 13.1841 22.0172 13.1638 22.074 13.1674C22.2079 13.202 22.3852 13.2368 22.5459 13.2783L22.4215 13.6766C22.2474 13.6316 22.0701 13.5968 21.9464 13.5759C21.8928 13.5621 21.8622 13.5209 21.8755 13.4784L21.892 13.4257M23.0201 13.7063L23.0004 13.7693C22.9871 13.8118 22.9374 13.8321 22.8838 13.8183C22.7531 13.7734 22.5956 13.7216 22.4215 13.6766L22.5459 13.2783C22.7066 13.3199 22.8673 13.3614 23.0114 13.4097C23.0618 13.4338 23.0791 13.5175 23.0658 13.5599" fill="#006233"/>
<path d="M23.9838 13.9194L24.0373 13.8421C24.073 13.7906 24.1422 13.7763 24.2078 13.7959C24.3494 13.8771 24.5424 13.9698 24.7123 14.0673L24.3733 14.5567C24.1892 14.4511 23.9962 14.3584 23.8599 14.2982C23.8032 14.2657 23.7875 14.2027 23.8232 14.1512L23.8678 14.0868M25.0662 14.7561L25.0126 14.8334C24.977 14.8849 24.9077 14.8992 24.8511 14.8667C24.7184 14.7726 24.5574 14.6622 24.3733 14.5567L24.7123 14.0673C24.8822 14.1648 25.0522 14.2622 25.199 14.3644C25.2467 14.4098 25.2267 14.5243 25.1911 14.5758" fill="#F7C608"/>
<path d="M24.0747 13.993L24.1131 13.9376C24.1389 13.9003 24.193 13.8935 24.2463 13.9115C24.3641 13.979 24.5235 14.0578 24.6648 14.1389L24.4221 14.4892C24.269 14.4014 24.1097 14.3226 23.9975 14.2708C23.9504 14.2438 23.9337 14.1965 23.9596 14.1591L23.9917 14.1128M24.9873 14.6711L24.9489 14.7265C24.923 14.7638 24.869 14.7706 24.8218 14.7436C24.7103 14.667 24.5753 14.577 24.4221 14.4892L24.6648 14.1389C24.8061 14.2199 24.9475 14.301 25.0708 14.3843C25.1116 14.4203 25.1023 14.505 25.0765 14.5423" fill="#006233"/>
<path d="M25.8464 15.1224L25.9217 15.0619C25.9719 15.0217 26.0428 15.0257 26.0996 15.0613C26.2103 15.1756 26.3668 15.314 26.4997 15.451L26.0229 15.8337C25.879 15.6852 25.7225 15.5468 25.6103 15.4541C25.566 15.4084 25.5704 15.3439 25.6206 15.3036L25.6833 15.2533M26.626 16.2026L26.5507 16.2631C26.5005 16.3033 26.4297 16.2993 26.3854 16.2536C26.2872 16.1293 26.1669 15.9822 26.0229 15.8337L26.4997 15.451C26.6326 15.5881 26.7654 15.7252 26.8747 15.8609C26.9064 15.9166 26.8518 16.0214 26.8016 16.0617" fill="#F7C608"/>
<path d="M25.9114 15.2174L25.9654 15.1741C26.0018 15.1449 26.0558 15.1522 26.1014 15.1832C26.1935 15.2782 26.322 15.3946 26.4325 15.5086L26.0912 15.7825C25.9715 15.659 25.843 15.5426 25.7513 15.4642C25.7145 15.4262 25.7132 15.3765 25.7496 15.3473L25.7948 15.3111M26.5771 16.102L26.5232 16.1453C26.4868 16.1745 26.4328 16.1671 26.396 16.1291C26.3127 16.0271 26.2109 15.906 26.0912 15.7825L26.4325 15.5086C26.543 15.6226 26.6535 15.7366 26.746 15.8482C26.7741 15.8932 26.739 15.9721 26.7026 16.0013" fill="#006233"/>
<path d="M27.26 16.7532L27.3509 16.7145C27.4116 16.6887 27.4783 16.7107 27.5218 16.7595C27.5927 16.8975 27.7 17.0704 27.7851 17.2359L27.2091 17.4809C27.117 17.3016 27.0097 17.1286 26.9307 17.0109C26.9024 16.9557 26.9266 16.895 26.9872 16.8692L27.063 16.837M27.6736 17.9895L27.5827 18.0282C27.522 18.054 27.4553 18.0319 27.4269 17.9767C27.3712 17.8323 27.3013 17.6603 27.2091 17.4809L27.7851 17.2359C27.8701 17.4015 27.9552 17.5671 28.018 17.7253C28.0312 17.7869 27.9464 17.8734 27.8858 17.8992" fill="#F7C608"/>
<path d="M27.2922 16.8596L27.3573 16.8319C27.4013 16.8132 27.4508 16.8341 27.485 16.8754C27.5439 16.9902 27.6312 17.1349 27.7019 17.2726L27.2897 17.4479C27.2131 17.2987 27.1258 17.1541 27.0621 17.0553C27.0386 17.0094 27.0527 16.9614 27.0966 16.9427L27.1512 16.9195M27.6571 17.8789L27.5919 17.9067C27.5479 17.9254 27.4984 17.9045 27.4748 17.8586C27.4265 17.7393 27.3664 17.5971 27.2897 17.4479L27.7019 17.2726C27.7727 17.4103 27.8435 17.548 27.8977 17.6787C27.9107 17.7291 27.8526 17.7958 27.8086 17.8145" fill="#006233"/>
<path d="M28.112 18.6832L28.2112 18.6694C28.2774 18.6602 28.3346 18.6985 28.3612 18.7564C28.3865 18.907 28.436 19.1004 28.4663 19.2811L27.8379 19.3685C27.805 19.1728 27.7556 18.9794 27.7163 18.8462C27.7061 18.786 27.7482 18.7339 27.8143 18.7247L27.897 18.7132M28.1261 19.9756L28.0269 19.9894C27.9607 19.9986 27.9035 19.9603 27.8934 19.9001C27.8846 19.7472 27.8708 19.5643 27.8379 19.3685L28.4663 19.2811C28.4967 19.4617 28.5271 19.6424 28.5384 19.8103C28.532 19.8729 28.4238 19.9341 28.3576 19.9433" fill="#F7C608"/>
<path d="M28.1109 18.794L28.182 18.7841C28.23 18.7774 28.271 18.8101 28.291 18.8586C28.3121 18.9838 28.351 19.145 28.3763 19.2953L27.9264 19.3579C27.8991 19.1951 27.8601 19.0339 27.8296 18.9228C27.8212 18.8727 27.8496 18.8303 27.8976 18.8236L27.9571 18.8154M28.1455 19.8656L28.0744 19.8755C28.0264 19.8822 27.9854 19.8495 27.977 19.7994C27.9675 19.6725 27.9538 19.5207 27.9264 19.3579L28.3763 19.2953C28.4015 19.4455 28.4268 19.5958 28.4384 19.7352C28.4352 19.7869 28.3588 19.8359 28.3109 19.8426" fill="#006233"/>
<path d="M28.332 20.751L28.4315 20.7631C28.4978 20.7713 28.5408 20.8226 28.5485 20.885C28.5262 21.036 28.5137 21.2342 28.4869 21.4154L27.8569 21.3382C27.8859 21.142 27.8984 20.9437 27.9019 20.8059C27.9108 20.7455 27.9672 20.7063 28.0335 20.7144L28.1164 20.7246M27.9455 21.9945L27.846 21.9823C27.7797 21.9742 27.7367 21.9229 27.7456 21.8625C27.7845 21.7136 27.8279 21.5345 27.8569 21.3382L28.4869 21.4154C28.4601 21.5965 28.4334 21.7776 28.3922 21.9417C28.3667 22 28.244 22.0311 28.1776 22.023" fill="#F7C608"/>
<path d="M28.296 20.8562L28.3673 20.865C28.4154 20.8709 28.4446 20.9128 28.4488 20.9644C28.4302 21.09 28.4177 21.2546 28.3954 21.4052L27.9445 21.35C27.9686 21.1868 27.9811 21.0222 27.9862 20.9078C27.9936 20.8576 28.034 20.8242 28.0821 20.8301L28.1418 20.8374M27.9975 21.8933L27.9262 21.8846C27.8781 21.8787 27.8488 21.8368 27.8563 21.7866C27.8864 21.6624 27.9203 21.5132 27.9445 21.35L28.3954 21.4052C28.3731 21.5559 28.3509 21.7065 28.3188 21.8432C28.2998 21.892 28.2113 21.9195 28.1633 21.9136" fill="#006233"/>
<path d="M27.9042 22.7913L27.9959 22.8284C28.057 22.8532 28.0824 22.9136 28.0704 22.9754C28.0023 23.1145 27.929 23.3016 27.8472 23.4685L27.2665 23.233C27.3551 23.0522 27.4284 22.8651 27.4744 22.7337C27.5017 22.6781 27.568 22.6549 27.6291 22.6797L27.7055 22.7107M27.1484 23.8854L27.0567 23.8482C26.9956 23.8235 26.9701 23.7631 26.9974 23.7075C27.0808 23.5746 27.1779 23.4138 27.2665 23.233L27.8472 23.4685C27.7654 23.6354 27.6836 23.8024 27.5934 23.9492C27.5508 23.9986 27.4234 23.997 27.3623 23.9722" fill="#F7C608"/>
<path d="M27.8375 22.8836L27.9032 22.9103C27.9475 22.9282 27.9626 22.976 27.9507 23.0266C27.894 23.1423 27.831 23.297 27.763 23.4359L27.3473 23.2673C27.421 23.1169 27.484 22.9621 27.5243 22.8537C27.547 22.8074 27.5961 22.7857 27.6404 22.8037L27.6954 22.826M27.23 23.8022L27.1643 23.7755C27.12 23.7576 27.1049 23.7099 27.1276 23.6636C27.1949 23.5522 27.2736 23.4177 27.3473 23.2673L27.763 23.4359C27.695 23.5747 27.627 23.7136 27.5539 23.8365C27.5205 23.8784 27.4271 23.8822 27.3828 23.8642" fill="#006233"/>
<path d="M26.8609 24.6405L26.9374 24.6997C26.9884 24.7392 26.994 24.8036 26.9634 24.8598C26.855 24.9758 26.7267 25.1365 26.5966 25.2757L26.1123 24.9009C26.2533 24.7501 26.3816 24.5894 26.4664 24.4752C26.5098 24.4288 26.5806 24.4235 26.6315 24.463L26.6952 24.5123M25.797 25.4967L25.7206 25.4375C25.6696 25.3981 25.6639 25.3337 25.7073 25.2873C25.8285 25.1811 25.9713 25.0518 26.1123 24.9009L26.5966 25.2757C26.4664 25.4149 26.3363 25.5542 26.2043 25.6719C26.1481 25.7085 26.0264 25.6742 25.9754 25.6348" fill="#F7C608"/>
<path d="M26.7675 24.7115L26.8223 24.7539C26.8593 24.7825 26.859 24.8322 26.8318 24.8777C26.7416 24.9742 26.6333 25.1065 26.525 25.2223L26.1784 24.954C26.2957 24.8286 26.404 24.6962 26.4763 24.6025C26.5123 24.5639 26.5662 24.5557 26.6031 24.5843L26.649 24.6198M25.9003 25.4372L25.8455 25.3948C25.8085 25.3662 25.8088 25.3165 25.8449 25.2779C25.944 25.1883 26.0612 25.0795 26.1784 24.954L26.525 25.2223C26.4168 25.3381 26.3086 25.4539 26.2004 25.5531C26.1554 25.5848 26.0646 25.5644 26.0277 25.5358" fill="#006233"/>
<path d="M25.2865 26.1466L25.3415 26.223C25.3782 26.2739 25.3637 26.3371 25.3169 26.3833C25.177 26.4668 25.0042 26.5881 24.8362 26.6883L24.4876 26.2046C24.6695 26.096 24.8423 25.9747 24.9591 25.8868C25.0151 25.8534 25.0846 25.8665 25.1213 25.9174L25.1672 25.9811M24.0006 26.6954L23.9456 26.619C23.9089 26.5681 23.9233 26.5049 23.9793 26.4714C24.1285 26.4007 24.3056 26.3132 24.4876 26.2046L24.8362 26.6883C24.6682 26.7885 24.5003 26.8888 24.3371 26.9679C24.272 26.9886 24.1658 26.9245 24.1291 26.8736" fill="#F7C608"/>
<path d="M25.1748 26.192L25.2143 26.2467C25.2409 26.2836 25.2252 26.3312 25.1851 26.3679C25.0687 26.4374 24.9237 26.5366 24.7841 26.6199L24.5345 26.2737C24.6858 26.1834 24.8308 26.0842 24.9291 26.0127C24.9757 25.9849 25.0299 25.9908 25.0565 26.0278L25.0895 26.0736M24.118 26.666L24.0786 26.6113C24.052 26.5743 24.0676 26.5268 24.1142 26.499C24.237 26.4384 24.3832 26.364 24.5345 26.2737L24.7841 26.6199C24.6444 26.7033 24.5046 26.7866 24.3702 26.8541C24.3172 26.873 24.2364 26.8302 24.2098 26.7933" fill="#006233"/>
<path d="M23.3107 27.1895L23.3398 27.2769C23.3593 27.3351 23.3258 27.3921 23.2666 27.4244C23.1065 27.4686 22.9031 27.5407 22.7109 27.5939L22.5262 27.0404C22.7344 26.9828 22.9377 26.9107 23.077 26.8563C23.1411 26.8386 23.2037 26.869 23.2231 26.9273L23.2475 27.0001M21.907 27.3865L21.8778 27.2991C21.8583 27.2408 21.8918 27.1839 21.9559 27.1662C22.1209 27.1365 22.3179 27.0979 22.5262 27.0404L22.7109 27.5939C22.5187 27.647 22.3265 27.7001 22.1455 27.7342C22.0766 27.7374 21.9945 27.6487 21.975 27.5904" fill="#F7C608"/>
<path d="M23.1894 27.2034L23.2103 27.2661C23.2244 27.3083 23.1946 27.3499 23.1448 27.3749C23.0116 27.4117 22.8418 27.4697 22.6819 27.5139L22.5497 27.1177C22.7228 27.0699 22.8926 27.0118 23.0091 26.9685C23.0624 26.9538 23.1125 26.9733 23.1267 27.0155L23.1442 27.068M22.0286 27.3874L22.0077 27.3248C21.9936 27.2825 22.0234 27.2409 22.0767 27.2262C22.2133 27.1996 22.3765 27.1656 22.5497 27.1177L22.6819 27.5139C22.5221 27.5581 22.3622 27.6023 22.2123 27.6326C22.1556 27.6371 22.0913 27.5753 22.0772 27.5331" fill="#006233"/>
<path d="M21.093 27.682L21.0939 27.7733C21.0945 27.8342 21.0448 27.8803 20.978 27.8961C20.8106 27.8975 20.5932 27.9146 20.3923 27.9163L20.3864 27.3378C20.604 27.336 20.8214 27.3189 20.9719 27.3024C21.0388 27.3018 21.0895 27.3471 21.0901 27.4079L21.0909 27.4841M19.6851 27.5112L19.6842 27.4199C19.6836 27.359 19.7333 27.3129 19.8003 27.3124C19.9678 27.3262 20.1688 27.3397 20.3864 27.3378L20.3923 27.9163C20.1915 27.918 19.9906 27.9197 19.8064 27.906C19.7393 27.8914 19.688 27.7853 19.6873 27.7244" fill="#F7C608"/>
<path d="M20.9729 27.6643L20.9736 27.7298C20.974 27.7739 20.9326 27.8063 20.877 27.8174C20.7378 27.8186 20.557 27.8308 20.3899 27.8322L20.3857 27.4181C20.5666 27.4166 20.7475 27.4044 20.8727 27.3927C20.9283 27.3922 20.9704 27.4238 20.9709 27.468L20.9715 27.5228M19.8022 27.5434L19.8016 27.4779C19.8011 27.4338 19.8425 27.4014 19.8982 27.401C20.0375 27.4104 20.2047 27.4197 20.3857 27.4181L20.3899 27.8322C20.2229 27.8336 20.0558 27.835 19.9026 27.8257C19.8468 27.8155 19.8043 27.7397 19.8038 27.6956" fill="#006233"/>
</svg>
