<svg width="25" height="20" viewBox="0 0 25 20" fill="none" xmlns="http://www.w3.org/2000/svg">
<path d="M12.25 14C14.183 14 15.75 12.433 15.75 10.5C15.75 8.567 14.183 7 12.25 7C10.317 7 8.75 8.567 8.75 10.5C8.75 12.433 10.317 14 12.25 14Z" fill="#171C26"/>
<path d="M23.1875 3.5H18.6484C18.4844 3.5 18.2809 3.39391 18.1223 3.22656L16.6305 0.885937C16.0234 -2.08616e-07 15.75 0 14.7656 0H9.73438C8.75 0 8.42188 0 7.87117 0.886484L6.37766 3.22656C6.25625 3.35891 6.08563 3.5 5.90625 3.5V2.625C5.90625 2.50897 5.86016 2.39769 5.77811 2.31564C5.69606 2.23359 5.58478 2.1875 5.46875 2.1875H3.28125C3.16522 2.1875 3.05394 2.23359 2.97189 2.31564C2.88984 2.39769 2.84375 2.50897 2.84375 2.625V3.5H1.3125C0.964403 3.5 0.630564 3.63828 0.384422 3.88442C0.138281 4.13056 0 4.4644 0 4.8125V17.9375C0 18.2856 0.138281 18.6194 0.384422 18.8656C0.630564 19.1117 0.964403 19.25 1.3125 19.25H23.1875C23.5356 19.25 23.8694 19.1117 24.1156 18.8656C24.3617 18.6194 24.5 18.2856 24.5 17.9375V4.8125C24.5 4.4644 24.3617 4.13056 24.1156 3.88442C23.8694 3.63828 23.5356 3.5 23.1875 3.5ZM12.4966 15.7445C11.4385 15.7942 10.39 15.5227 9.48901 14.9655C8.58803 14.4083 7.87668 13.5916 7.44843 12.6227C7.02018 11.6537 6.89506 10.5779 7.08953 9.53658C7.28399 8.49523 7.78893 7.53707 8.538 6.788C9.28707 6.03893 10.2452 5.53399 11.2866 5.33953C12.3279 5.14506 13.4037 5.27018 14.3727 5.69843C15.3416 6.12668 16.1583 6.83803 16.7155 7.73901C17.2727 8.63999 17.5442 9.68846 17.4945 10.7466C17.4319 12.0519 16.8852 13.2871 15.9611 14.2111C15.0371 15.1352 13.8019 15.6819 12.4966 15.7445Z" fill="#171C26"/>
</svg>
