<svg width="18" height="18" viewBox="0 0 18 18" fill="none" xmlns="http://www.w3.org/2000/svg">
<path d="M13.4026 16.4023C13.1701 16.4023 12.9376 16.3423 12.7276 16.2148L9.72006 14.4298C9.40506 14.4223 9.09006 14.3998 8.79006 14.3548C8.58756 14.3248 8.41505 14.1898 8.34005 13.9948C8.26505 13.7998 8.30256 13.5898 8.43756 13.4323C8.93256 12.8548 9.18756 12.1648 9.18756 11.4298C9.18756 9.61481 7.59006 8.1373 5.62506 8.1373C4.89006 8.1373 4.18505 8.33983 3.59255 8.72983C3.42755 8.83483 3.22506 8.84982 3.04506 8.76732C2.87256 8.68482 2.74506 8.5198 2.72256 8.3248C2.70006 8.1148 2.68506 7.90482 2.68506 7.68732C2.68506 3.96732 5.91006 0.944824 9.87006 0.944824C13.8301 0.944824 17.0551 3.96732 17.0551 7.68732C17.0551 9.72732 16.1101 11.6023 14.4451 12.8848L14.7001 14.9248C14.7601 15.4348 14.5351 15.9148 14.1076 16.1923C13.8976 16.3273 13.6501 16.4023 13.4026 16.4023ZM9.86255 13.2973C9.96755 13.2898 10.0726 13.3198 10.1626 13.3798L13.3051 15.2473C13.3876 15.2998 13.4551 15.2773 13.5001 15.2473C13.5376 15.2248 13.5976 15.1648 13.5826 15.0598L13.2901 12.6898C13.2676 12.4798 13.3576 12.2773 13.5226 12.1573C15.0526 11.0848 15.9301 9.4498 15.9301 7.6723C15.9301 4.5748 13.2151 2.05481 9.87006 2.05481C6.65256 2.05481 4.01255 4.39484 3.81755 7.33484C4.38005 7.11734 4.98756 6.99733 5.61756 6.99733C8.20506 6.99733 10.3051 8.97729 10.3051 11.4148C10.3126 12.0748 10.1551 12.7123 9.86255 13.2973Z" fill="#171C26"/>
<path d="M3.43483 17.0624C3.23983 17.0624 3.05233 17.0099 2.87983 16.8974C2.54233 16.6799 2.36233 16.3049 2.40733 15.9074L2.55733 14.7523C1.54483 13.9274 0.944824 12.7048 0.944824 11.4223C0.944824 9.95985 1.70983 8.59486 2.99233 7.77736C3.76483 7.27486 4.67982 7.00488 5.63232 7.00488C8.21982 7.00488 10.3198 8.98485 10.3198 11.4223C10.3198 12.4123 9.95982 13.3874 9.29982 14.1599C8.45232 15.1874 7.18483 15.7874 5.78983 15.8324L3.95983 16.9199C3.79483 17.0174 3.61483 17.0624 3.43483 17.0624ZM5.62483 8.12988C4.88983 8.12988 4.18482 8.33237 3.59232 8.72237C2.63232 9.33737 2.06233 10.3423 2.06233 11.4223C2.06233 12.4648 2.57233 13.4174 3.47233 14.0324C3.64483 14.1524 3.73483 14.3548 3.71233 14.5648L3.54733 15.8474L5.33982 14.7824C5.42982 14.7299 5.52733 14.6998 5.62483 14.6998C6.72733 14.6998 7.76983 14.2274 8.42983 13.4249C8.92483 12.8399 9.18733 12.1498 9.18733 11.4148C9.18733 9.60734 7.58983 8.12988 5.62483 8.12988Z" fill="#171C26"/>
</svg>
