<svg width="28" height="26" viewBox="0 0 28 26" fill="none" xmlns="http://www.w3.org/2000/svg">
<g clip-path="url(#clip0_1_10375)">
<path d="M5.1179 8.7075C4.7889 9.09577 4.26477 9.40343 3.74152 9.35837C3.6724 8.8349 3.93315 8.27417 4.23415 7.92663C4.56227 7.53057 5.13627 7.2463 5.60177 7.2229C5.6569 7.76977 5.44165 8.3071 5.11877 8.7075H5.1179ZM5.59652 9.4615C4.83615 9.41557 4.1834 9.89397 3.8229 9.89397C3.45452 9.89397 2.9024 9.48403 2.30127 9.4979C1.52165 9.50743 0.792771 9.94857 0.396396 10.6584C-0.428729 12.0702 0.182021 14.1606 0.974771 15.3115C1.3624 15.88 1.82615 16.5032 2.43777 16.4858C3.01615 16.4624 3.2489 16.1071 3.94627 16.1071C4.6524 16.1071 4.85277 16.4858 5.46877 16.472C6.1014 16.4624 6.50215 15.9034 6.88977 15.3349C7.33165 14.6892 7.51365 14.0566 7.52327 14.0254C7.51365 14.0115 6.2974 13.547 6.28865 12.1473C6.27902 10.973 7.24502 10.414 7.28615 10.3819C6.74365 9.56983 5.88702 9.48403 5.59565 9.46237L5.59652 9.4615ZM9.98552 7.87203V16.413H11.3111V13.4932H13.1443C14.8164 13.4932 15.9924 12.3423 15.9924 10.6809C15.9924 9.01603 14.84 7.8729 13.1898 7.8729L9.98552 7.87203ZM11.3111 8.99177H12.838C13.986 8.99177 14.6431 9.60537 14.6431 10.6844C14.6431 11.7634 13.986 12.3822 12.8293 12.3822H11.3111V8.99177ZM18.4065 16.4763C19.2404 16.4763 20.0104 16.0568 20.3621 15.3878H20.3901V16.413H21.6151V12.1603C21.6151 10.9331 20.6316 10.1349 19.1135 10.1349C17.71 10.1349 16.6705 10.9426 16.6346 12.0485H17.8238C17.9244 11.5207 18.4074 11.1775 19.0776 11.1775C19.8888 11.1775 20.3403 11.5562 20.3403 12.2522V12.721L18.6909 12.8207C17.15 12.9152 16.3205 13.5426 16.3205 14.6398C16.3205 15.7457 17.178 16.4772 18.4074 16.4772L18.4065 16.4763ZM18.767 15.4649C18.06 15.4649 17.6094 15.126 17.6094 14.6078C17.6094 14.0704 18.0425 13.7541 18.8668 13.7038L20.3394 13.6137V14.0964C20.3394 14.8964 19.6604 15.4649 18.7618 15.4649H18.767ZM23.2514 18.7374C24.5403 18.7374 25.1475 18.2408 25.676 16.7467L28 10.2198H26.656L25.0976 15.2612H25.0696L23.5113 10.2198H22.1261L24.3688 16.4356L24.2498 16.8143C24.0441 17.4513 23.7169 17.6983 23.1333 17.6983C23.0283 17.6983 22.8279 17.6853 22.7456 17.6766V18.7019C22.8226 18.7236 23.1516 18.7331 23.247 18.7331L23.2514 18.7374Z" fill="black"/>
</g>
<defs>
<clipPath id="clip0_1_10375">
<rect width="28" height="26" fill="white"/>
</clipPath>
</defs>
</svg>
