<svg width="31" height="31" viewBox="0 0 31 31" fill="none" xmlns="http://www.w3.org/2000/svg">
<circle cx="15.5" cy="15.5" r="8.71875" fill="white"/>
<circle cx="15" cy="15" r="10" fill="#8F8F8F"/>
<path d="M15.5 2.58301C8.3829 2.58301 2.58331 8.38259 2.58331 15.4997C2.58331 22.6168 8.3829 28.4163 15.5 28.4163C22.6171 28.4163 28.4166 22.6168 28.4166 15.4997C28.4166 8.38259 22.6171 2.58301 15.5 2.58301ZM19.84 18.4705C20.2146 18.8451 20.2146 19.4651 19.84 19.8397C19.6462 20.0334 19.4008 20.1238 19.1554 20.1238C18.91 20.1238 18.6646 20.0334 18.4708 19.8397L15.5 16.8688L12.5291 19.8397C12.3354 20.0334 12.09 20.1238 11.8446 20.1238C11.5991 20.1238 11.3537 20.0334 11.16 19.8397C10.7854 19.4651 10.7854 18.8451 11.16 18.4705L14.1308 15.4997L11.16 12.5288C10.7854 12.1543 10.7854 11.5343 11.16 11.1597C11.5346 10.7851 12.1546 10.7851 12.5291 11.1597L15.5 14.1305L18.4708 11.1597C18.8454 10.7851 19.4654 10.7851 19.84 11.1597C20.2146 11.5343 20.2146 12.1543 19.84 12.5288L16.8691 15.4997L19.84 18.4705Z" fill="#E9E9E9"/>
</svg>
