<svg width="18" height="18" viewBox="0 0 18 18" fill="none" xmlns="http://www.w3.org/2000/svg">
<path d="M14.475 5.94011V9.80262C14.475 12.1126 13.155 13.1026 11.175 13.1026H4.5825C4.245 13.1026 3.9225 13.0726 3.6225 13.0051C3.435 12.9751 3.255 12.9226 3.09 12.8626C1.965 12.4426 1.2825 11.4676 1.2825 9.80262V5.94011C1.2825 3.63011 2.6025 2.64014 4.5825 2.64014H11.175C12.855 2.64014 14.0625 3.35263 14.385 4.98013C14.4375 5.28013 14.475 5.58761 14.475 5.94011Z" stroke="#171C26" stroke-width="1.2" stroke-miterlimit="10" stroke-linecap="round" stroke-linejoin="round"/>
<path d="M16.7258 8.19044V12.053C16.7258 14.363 15.4058 15.3529 13.4258 15.3529H6.83332C6.27832 15.3529 5.77583 15.278 5.34083 15.113C4.44833 14.783 3.84082 14.1005 3.62332 13.0055C3.92332 13.073 4.24582 13.1029 4.58332 13.1029H11.1758C13.1558 13.1029 14.4758 12.113 14.4758 9.80296V5.94044C14.4758 5.58794 14.4458 5.27297 14.3858 4.98047C15.8108 5.28047 16.7258 6.28544 16.7258 8.19044Z" stroke="#171C26" stroke-width="1.2" stroke-miterlimit="10" stroke-linecap="round" stroke-linejoin="round"/>
<path d="M7.87384 9.85504C8.96736 9.85504 9.85385 8.96855 9.85385 7.87503C9.85385 6.78151 8.96736 5.89502 7.87384 5.89502C6.78032 5.89502 5.89383 6.78151 5.89383 7.87503C5.89383 8.96855 6.78032 9.85504 7.87384 9.85504Z" stroke="#171C26" stroke-width="1.2" stroke-miterlimit="10" stroke-linecap="round" stroke-linejoin="round"/>
<path d="M3.58499 6.2251V9.52512" stroke="#171C26" stroke-width="1.2" stroke-miterlimit="10" stroke-linecap="round" stroke-linejoin="round"/>
<path d="M12.1663 6.2251V9.52512" stroke="#171C26" stroke-width="1.2" stroke-miterlimit="10" stroke-linecap="round" stroke-linejoin="round"/>
</svg>
