<svg width="22" height="19" viewBox="0 0 22 19" fill="none" xmlns="http://www.w3.org/2000/svg">
<path d="M15.2308 6.47727C15.2308 6.82085 15.097 7.15035 14.859 7.3933C14.621 7.63624 14.2982 7.77273 13.9615 7.77273C13.6253 7.77011 13.3031 7.63469 13.0625 7.39489C12.9443 7.27463 12.8506 7.13157 12.7871 6.97404C12.7235 6.8165 12.6913 6.64764 12.6923 6.47727C12.6923 6.1337 12.826 5.80419 13.0641 5.56125C13.3021 5.3183 13.6249 5.18182 13.9615 5.18182C14.2982 5.18182 14.621 5.3183 14.859 5.56125C15.097 5.80419 15.2308 6.1337 15.2308 6.47727ZM22 1.72727V17.2727C22 17.7308 21.8217 18.1702 21.5043 18.4941C21.187 18.818 20.7565 19 20.3077 19H1.69231C1.24348 19 0.813035 18.818 0.495665 18.4941C0.178296 18.1702 0 17.7308 0 17.2727V1.72727C0 1.26917 0.178296 0.829833 0.495665 0.505906C0.813035 0.18198 1.24348 0 1.69231 0H20.3077C20.7565 0 21.187 0.18198 21.5043 0.505906C21.8217 0.829833 22 1.26917 22 1.72727ZM20.3077 13.4619V1.72727H1.69231V11.7347L5.57404 7.77273C5.89264 7.45232 6.32196 7.27271 6.76923 7.27271C7.21651 7.27271 7.64582 7.45232 7.96442 7.77273L12.6923 12.5983L14.8817 10.3636C15.2003 10.0432 15.6296 9.86361 16.0769 9.86361C16.5242 9.86361 16.9535 10.0432 17.2721 10.3636L20.3077 13.4619Z" fill="#171C26"/>
</svg>
