<svg width="27" height="20" viewBox="0 0 27 20" fill="none" xmlns="http://www.w3.org/2000/svg">
<g clip-path="url(#clip0_1343_3270)">
<path d="M0 0H26.6667V6.66667H0V0Z" fill="#FF9933"/>
<path d="M0 6.6665H26.6667V13.3332H0V6.6665Z" fill="white"/>
<path d="M0 13.3335H26.6667V20.0002H0V13.3335Z" fill="#128807"/>
<path d="M13.3333 12.6668C14.8061 12.6668 16 11.4729 16 10.0002C16 8.5274 14.8061 7.3335 13.3333 7.3335C11.8606 7.3335 10.6667 8.5274 10.6667 10.0002C10.6667 11.4729 11.8606 12.6668 13.3333 12.6668Z" fill="#000088"/>
<path d="M13.3333 12.3337C14.622 12.3337 15.6667 11.289 15.6667 10.0003C15.6667 8.71166 14.622 7.66699 13.3333 7.66699C12.0447 7.66699 11 8.71166 11 10.0003C11 11.289 12.0447 12.3337 13.3333 12.3337Z" fill="white"/>
<path d="M13.3333 10.4665C13.5911 10.4665 13.8 10.2576 13.8 9.99987C13.8 9.74214 13.5911 9.5332 13.3333 9.5332C13.0756 9.5332 12.8667 9.74214 12.8667 9.99987C12.8667 10.2576 13.0756 10.4665 13.3333 10.4665Z" fill="#000088"/>
<path d="M15.631 10.424C15.6967 10.4327 15.757 10.3864 15.7656 10.3207C15.7743 10.255 15.728 10.1947 15.6623 10.1861C15.5966 10.1774 15.5363 10.2237 15.5277 10.2894C15.519 10.3551 15.5653 10.4154 15.631 10.424Z" fill="#000088"/>
<path d="M13.3333 12.3328L13.4133 10.9328L13.3333 10.2661L13.2533 10.9328L13.3333 12.3328Z" fill="#000088"/>
<path d="M15.4429 11.0045C15.5041 11.0298 15.5743 11.0008 15.5997 10.9395C15.625 10.8783 15.5959 10.8081 15.5347 10.7827C15.4735 10.7574 15.4033 10.7865 15.3779 10.8477C15.3526 10.9089 15.3816 10.9791 15.4429 11.0045Z" fill="#000088"/>
<path d="M12.7294 12.2538L13.169 10.9222L13.2643 10.2575L13.0145 10.8808L12.7294 12.2538Z" fill="#000088"/>
<path d="M15.111 11.5164C15.1635 11.5567 15.2389 11.5468 15.2792 11.4942C15.3196 11.4417 15.3096 11.3663 15.2571 11.326C15.2045 11.2856 15.1292 11.2956 15.0888 11.3481C15.0485 11.4007 15.0584 11.476 15.111 11.5164Z" fill="#000088"/>
<path d="M12.1667 12.0207L12.9359 10.8483L13.2 10.2309L12.7974 10.7683L12.1667 12.0207Z" fill="#000088"/>
<path d="M14.6579 11.9244C14.6983 11.977 14.7736 11.9869 14.8262 11.9466C14.8788 11.9062 14.8887 11.8309 14.8483 11.7783C14.808 11.7257 14.7327 11.7158 14.6801 11.7562C14.6275 11.7965 14.6176 11.8718 14.6579 11.9244Z" fill="#000088"/>
<path d="M11.6834 11.6498L12.7299 10.7164L13.1448 10.1884L12.6168 10.6032L11.6834 11.6498Z" fill="#000088"/>
<path d="M14.1146 12.2017C14.14 12.263 14.2102 12.292 14.2714 12.2667C14.3326 12.2413 14.3617 12.1711 14.3364 12.1099C14.311 12.0487 14.2408 12.0196 14.1796 12.0449C14.1183 12.0703 14.0893 12.1405 14.1146 12.2017Z" fill="#000088"/>
<path d="M11.3126 11.1661L12.565 10.5354L13.1024 10.1328L12.485 10.3968L11.3126 11.1661Z" fill="#000088"/>
<path d="M13.5181 12.329C13.5267 12.3947 13.587 12.441 13.6527 12.4323C13.7184 12.4237 13.7647 12.3634 13.756 12.2977C13.7474 12.232 13.6871 12.1857 13.6214 12.1944C13.5557 12.203 13.5094 12.2633 13.5181 12.329Z" fill="#000088"/>
<path d="M11.0795 10.6039L12.4525 10.3188L13.0758 10.069L12.4111 10.1642L11.0795 10.6039Z" fill="#000088"/>
<path d="M12.9089 12.2976C12.9003 12.3633 12.9465 12.4236 13.0122 12.4322C13.0779 12.4409 13.1382 12.3946 13.1469 12.3289C13.1555 12.2632 13.1093 12.2029 13.0436 12.1943C12.9779 12.1856 12.9176 12.2319 12.9089 12.2976Z" fill="#000088"/>
<path d="M11 9.99992L12.4 10.0799L13.0667 9.99992L12.4 9.91992L11 9.99992Z" fill="#000088"/>
<path d="M12.3287 12.1094C12.3034 12.1706 12.3324 12.2408 12.3937 12.2661C12.4549 12.2915 12.5251 12.2624 12.5504 12.2012C12.5758 12.14 12.5467 12.0698 12.4855 12.0444C12.4243 12.019 12.3541 12.0481 12.3287 12.1094Z" fill="#000088"/>
<path d="M11.0795 9.3959L12.4111 9.83552L13.0758 9.93079L12.4525 9.68097L11.0795 9.3959Z" fill="#000088"/>
<path d="M11.817 11.7777C11.7766 11.8303 11.7865 11.9056 11.8391 11.946C11.8917 11.9863 11.967 11.9764 12.0074 11.9238C12.0477 11.8712 12.0378 11.7959 11.9852 11.7556C11.9326 11.7152 11.8573 11.7251 11.817 11.7777Z" fill="#000088"/>
<path d="M11.3126 8.83331L12.485 9.60259L13.1024 9.86665L12.565 9.46403L11.3126 8.83331Z" fill="#000088"/>
<path d="M11.4085 11.3245C11.356 11.3649 11.346 11.4402 11.3864 11.4928C11.4267 11.5454 11.5021 11.5553 11.5546 11.5149C11.6072 11.4746 11.6171 11.3993 11.5768 11.3467C11.5364 11.2941 11.4611 11.2842 11.4085 11.3245Z" fill="#000088"/>
<path d="M11.6834 8.3501L12.6168 9.39662L13.1448 9.81145L12.7299 9.28348L11.6834 8.3501Z" fill="#000088"/>
<path d="M11.1313 10.7817C11.0701 10.8071 11.041 10.8773 11.0663 10.9385C11.0917 10.9997 11.1619 11.0288 11.2231 11.0034C11.2844 10.9781 11.3134 10.9079 11.2881 10.8467C11.2627 10.7854 11.1925 10.7563 11.1313 10.7817Z" fill="#000088"/>
<path d="M12.1667 7.97971L12.7974 9.23214L13.2 9.76949L12.9359 9.15214L12.1667 7.97971Z" fill="#000088"/>
<path d="M11.0041 10.1849C10.9384 10.1936 10.8922 10.2539 10.9008 10.3196C10.9095 10.3853 10.9697 10.4315 11.0354 10.4229C11.1011 10.4142 11.1474 10.354 11.1387 10.2883C11.1301 10.2225 11.0698 10.1763 11.0041 10.1849Z" fill="#000088"/>
<path d="M12.7294 7.74614L13.0145 9.11914L13.2643 9.74239L13.169 9.07773L12.7294 7.74614Z" fill="#000088"/>
<path d="M11.0357 9.57598C10.97 9.56733 10.9097 9.61358 10.901 9.67929C10.8924 9.745 10.9386 9.80528 11.0043 9.81393C11.07 9.82258 11.1303 9.77632 11.139 9.71062C11.1476 9.64491 11.1014 9.58463 11.0357 9.57598Z" fill="#000088"/>
<path d="M13.3333 7.66722L13.2533 9.06722L13.3333 9.73389L13.4133 9.06722L13.3333 7.66722Z" fill="#000088"/>
<path d="M11.2238 8.99553C11.1626 8.97017 11.0924 8.99924 11.067 9.06047C11.0416 9.1217 11.0707 9.1919 11.132 9.21726C11.1932 9.24262 11.2634 9.21355 11.2887 9.15232C11.3141 9.09109 11.285 9.02089 11.2238 8.99553Z" fill="#000088"/>
<path d="M13.9372 7.74623L13.4976 9.07782L13.4023 9.74248L13.6522 9.11923L13.9372 7.74623Z" fill="#000088"/>
<path d="M11.5557 8.48361C11.5031 8.44327 11.4278 8.45319 11.3874 8.50577C11.3471 8.55834 11.357 8.63367 11.4096 8.67402C11.4622 8.71436 11.5375 8.70445 11.5779 8.65187C11.6182 8.59929 11.6083 8.52396 11.5557 8.48361Z" fill="#000088"/>
<path d="M14.5 7.9793L13.7307 9.15173L13.4667 9.76908L13.8693 9.23173L14.5 7.9793Z" fill="#000088"/>
<path d="M12.0087 8.07559C11.9684 8.02301 11.8931 8.01309 11.8405 8.05344C11.7879 8.09378 11.778 8.16911 11.8183 8.22169C11.8587 8.27427 11.934 8.28419 11.9866 8.24384C12.0392 8.2035 12.0491 8.12817 12.0087 8.07559Z" fill="#000088"/>
<path d="M14.9833 8.35024L13.9367 9.28362L13.5219 9.8116L14.0499 9.39676L14.9833 8.35024Z" fill="#000088"/>
<path d="M12.552 7.79827C12.5267 7.73704 12.4565 7.70796 12.3953 7.73332C12.334 7.75869 12.305 7.82888 12.3303 7.89011C12.3557 7.95134 12.4259 7.98042 12.4871 7.95505C12.5483 7.92969 12.5774 7.8595 12.552 7.79827Z" fill="#000088"/>
<path d="M15.3541 8.83391L14.1016 9.46463L13.5643 9.86724L14.1816 9.60319L15.3541 8.83391Z" fill="#000088"/>
<path d="M13.1486 7.67099C13.1399 7.60528 13.0797 7.55903 13.014 7.56768C12.9483 7.57633 12.902 7.63661 12.9107 7.70232C12.9193 7.76802 12.9796 7.81428 13.0453 7.80563C13.111 7.79698 13.1572 7.7367 13.1486 7.67099Z" fill="#000088"/>
<path d="M15.5872 9.39613L14.2142 9.68121L13.5909 9.93103L14.2556 9.83575L15.5872 9.39613Z" fill="#000088"/>
<path d="M13.7577 7.70239C13.7664 7.63668 13.7201 7.57641 13.6544 7.56776C13.5887 7.5591 13.5284 7.60536 13.5198 7.67107C13.5111 7.73677 13.5574 7.79705 13.6231 7.8057C13.6888 7.81435 13.7491 7.7681 13.7577 7.70239Z" fill="#000088"/>
<path d="M15.6667 10.0001L14.2667 9.92008L13.6 10.0001L14.2667 10.0801L15.6667 10.0001Z" fill="#000088"/>
<path d="M14.338 7.89065C14.3633 7.82942 14.3342 7.75922 14.273 7.73386C14.2118 7.7085 14.1416 7.73757 14.1162 7.7988C14.0909 7.86003 14.1199 7.93023 14.1812 7.95559C14.2424 7.98095 14.3126 7.95188 14.338 7.89065Z" fill="#000088"/>
<path d="M15.5872 10.6041L14.2556 10.1645L13.5909 10.0692L14.2142 10.319L15.5872 10.6041Z" fill="#000088"/>
<path d="M14.8497 8.22229C14.8901 8.16971 14.8801 8.09438 14.8276 8.05403C14.775 8.01369 14.6997 8.02361 14.6593 8.07618C14.619 8.12876 14.6289 8.20409 14.6815 8.24444C14.734 8.28478 14.8094 8.27487 14.8497 8.22229Z" fill="#000088"/>
<path d="M15.3541 11.1667L14.1816 10.3974L13.5643 10.1334L14.1016 10.536L15.3541 11.1667Z" fill="#000088"/>
<path d="M15.2581 8.67546C15.3107 8.63511 15.3206 8.55978 15.2803 8.50721C15.2399 8.45463 15.1646 8.44471 15.112 8.48505C15.0594 8.5254 15.0495 8.60073 15.0899 8.65331C15.1302 8.70589 15.2055 8.7158 15.2581 8.67546Z" fill="#000088"/>
<path d="M14.9833 11.6499L14.0499 10.6034L13.5219 10.1885L13.9367 10.7165L14.9833 11.6499Z" fill="#000088"/>
<path d="M15.5354 9.21829C15.5966 9.19293 15.6257 9.12273 15.6003 9.0615C15.575 9.00027 15.5048 8.9712 15.4435 8.99656C15.3823 9.02192 15.3532 9.09212 15.3786 9.15335C15.4039 9.21458 15.4741 9.24365 15.5354 9.21829Z" fill="#000088"/>
<path d="M14.5 12.0203L13.8693 10.7679L13.4667 10.2305L13.7307 10.8479L14.5 12.0203Z" fill="#000088"/>
<path d="M15.6626 9.81506C15.7283 9.80641 15.7745 9.74613 15.7659 9.68042C15.7572 9.61471 15.6969 9.56846 15.6312 9.57711C15.5655 9.58576 15.5193 9.64604 15.5279 9.71175C15.5366 9.77745 15.5968 9.82371 15.6626 9.81506Z" fill="#000088"/>
<path d="M13.9372 12.2539L13.6522 10.8809L13.4023 10.2576L13.4976 10.9223L13.9372 12.2539Z" fill="#000088"/>
</g>
<defs>
<clipPath id="clip0_1343_3270">
<rect width="26.6667" height="20" rx="4" fill="white"/>
</clipPath>
</defs>
</svg>
