<svg width="29" height="24" viewBox="0 0 29 24" fill="none" xmlns="http://www.w3.org/2000/svg">
<g clip-path="url(#clip0_1_10383)">
<path d="M26.3379 4.64247C23.4776 3.03777 19.82 3.99128 18.167 6.7712L14.0003 13.7859C12.7946 15.8116 14.3468 16.5194 16.0775 17.5279L20.0869 19.7768C21.4446 20.538 23.1789 20.0861 23.962 18.7683L28.2455 11.5593C29.6844 9.13686 28.8306 6.04097 26.3379 4.64247Z" fill="#EA4335"/>
<path d="M21.623 7.54585L17.6136 5.2969C15.4003 4.10284 14.1469 4.0238 13.2382 5.42747L7.32483 15.3802C5.67365 18.1583 6.65647 21.7112 9.51513 23.3124C12.0078 24.7109 15.1935 23.8812 16.6325 21.4587L22.659 11.3135C23.4457 9.99407 22.9808 8.30692 21.623 7.54585Z" fill="#FBBC04"/>
<path d="M22.3959 2.42971L19.5798 0.848901C16.4649 -0.898255 12.4819 0.137708 10.684 3.1649L5.3222 12.1898C4.53025 13.5213 5.00048 15.2257 6.37061 15.9936L9.52436 17.7632C11.0818 18.6377 13.0723 18.1188 13.9722 16.6052L20.0977 6.29514C21.367 4.15969 24.1762 3.4278 26.3735 4.66138L22.3959 2.4296V2.42971Z" fill="#34A853"/>
<path d="M11.4452 5.74719L8.40104 4.04285C7.04336 3.28344 5.30914 3.7335 4.52602 5.04964L0.873495 11.1831C-0.924279 14.2017 0.141698 18.0638 3.25659 19.806L5.57421 21.1031L8.38517 22.6768L9.60499 23.3588C7.43939 21.95 6.75166 19.1273 8.07569 16.9041L9.02159 15.3166L12.4847 9.50098C13.2661 8.18836 12.8012 6.50649 11.4452 5.74708V5.74719Z" fill="#4285F4"/>
</g>
<defs>
<clipPath id="clip0_1_10383">
<rect width="29" height="24" fill="white"/>
</clipPath>
</defs>
</svg>
