<svg width="22" height="26" viewBox="0 0 22 26" fill="none" xmlns="http://www.w3.org/2000/svg">
<g clip-path="url(#clip0_1_10365)">
<path d="M18.6633 2.0236C17.4658 0.656274 15.3012 0.0700684 12.5321 0.0700684H4.4952C4.22122 0.0700785 3.95623 0.168002 3.74787 0.346234C3.53951 0.524466 3.40145 0.771314 3.35851 1.0424L0.0121019 22.3045C-0.0544137 22.7237 0.269657 23.1034 0.693844 23.1034H5.65553L6.90163 15.1854L6.86295 15.4333C6.95173 14.8736 7.42954 14.4608 7.99535 14.4608H10.3531C14.985 14.4608 18.6118 12.5761 19.6713 7.1239C19.7027 6.96265 19.7299 6.8057 19.7535 6.65237C19.6198 6.58143 19.6198 6.58143 19.7535 6.65237C20.069 4.6372 19.7513 3.26549 18.6633 2.0236Z" fill="#27346A"/>
<path d="M8.80016 5.92644C8.9358 5.86173 9.08416 5.8282 9.2344 5.82829H15.5352C16.2813 5.82829 16.9772 5.87694 17.6131 5.97947C17.7911 6.0079 17.9681 6.04183 18.144 6.08123C18.3932 6.13633 18.6396 6.20377 18.8822 6.28329C19.1948 6.3879 19.486 6.50972 19.7536 6.65237C20.069 4.63643 19.7513 3.26549 18.6633 2.0236C17.4652 0.656274 15.3012 0.0700684 12.5321 0.0700684H4.49452C3.92862 0.0700684 3.4472 0.482797 3.35851 1.0424L0.0121024 22.3037C-0.0544132 22.7236 0.269657 23.1028 0.693157 23.1028H5.65553L8.24079 6.67889C8.26621 6.51746 8.3304 6.36463 8.42784 6.23355C8.52528 6.10248 8.65305 5.99708 8.80016 5.92644Z" fill="#27346A"/>
<path d="M19.6699 7.12387C18.6105 12.5753 14.9838 14.4608 10.3518 14.4608H7.99335C7.42753 14.4608 6.94963 14.8736 6.86172 15.4333L5.31149 25.2784C5.25357 25.6453 5.53682 25.9778 5.90738 25.9778H10.09C10.3296 25.9778 10.5613 25.8921 10.7434 25.7361C10.9256 25.5802 11.0462 25.3643 11.0837 25.1272L11.1244 24.9137L11.9127 19.9086L11.9635 19.632C12.0009 19.395 12.1216 19.1791 12.3037 19.0231C12.4858 18.8672 12.7175 18.7815 12.9571 18.7814H13.5831C17.6348 18.7814 20.8073 17.1324 21.7344 12.3632C22.1214 10.3702 21.9212 8.70617 20.8975 7.53738C20.587 7.18336 20.2014 6.89099 19.7522 6.65234C19.7279 6.80645 19.7015 6.96262 19.6699 7.12387Z" fill="#2790C3"/>
<path d="M18.6441 6.20968C18.4789 6.16135 18.3122 6.11857 18.1441 6.0814C17.9682 6.04264 17.7912 6.00894 17.6133 5.98033C16.9767 5.8771 16.2813 5.82837 15.5345 5.82837H9.23448C9.08413 5.82803 8.93566 5.86185 8.80024 5.92729C8.65297 5.99772 8.52505 6.10305 8.42757 6.23416C8.33009 6.36528 8.26598 6.51822 8.24079 6.67974L6.90171 15.1855L6.86304 15.4335C6.95112 14.8738 7.42894 14.461 7.99483 14.461H10.3533C14.9852 14.461 18.6119 12.5762 19.6713 7.12407C19.7029 6.96282 19.7293 6.80656 19.7537 6.65254C19.4854 6.51066 19.195 6.38806 18.8823 6.28415C18.8033 6.25794 18.724 6.23311 18.6442 6.20968" fill="#1F264F"/>
</g>
<defs>
<clipPath id="clip0_1_10365">
<rect width="22" height="26" fill="white"/>
</clipPath>
</defs>
</svg>
