<svg width="6" height="16" viewBox="0 0 6 16" fill="none" xmlns="http://www.w3.org/2000/svg">
<path d="M2.99999 0.5C2.08333 0.5 1.33333 1.25 1.33333 2.16667C1.33333 3.08333 2.08333 3.83333 2.99999 3.83333C3.91666 3.83333 4.66666 3.08333 4.66666 2.16667C4.66666 1.25 3.91666 0.5 2.99999 0.5ZM2.99999 12.1667C2.08333 12.1667 1.33333 12.9167 1.33333 13.8333C1.33333 14.75 2.08333 15.5 2.99999 15.5C3.91666 15.5 4.66666 14.75 4.66666 13.8333C4.66666 12.9167 3.91666 12.1667 2.99999 12.1667ZM2.99999 6.33333C2.08333 6.33333 1.33333 7.08333 1.33333 8C1.33333 8.91667 2.08333 9.66667 2.99999 9.66667C3.91666 9.66667 4.66666 8.91667 4.66666 8C4.66666 7.08333 3.91666 6.33333 2.99999 6.33333Z" stroke="#171C26"/>
</svg>
