<svg width="18" height="18" viewBox="0 0 18 18" fill="none" xmlns="http://www.w3.org/2000/svg">
<path d="M9.01485 2.18262C6.53235 2.18262 4.51485 4.20012 4.51485 6.68262V8.85012C4.51485 9.30762 4.31985 10.0051 4.08735 10.3951L3.22485 11.8276C2.69235 12.7126 3.05985 13.6951 4.03485 14.0251C7.26735 15.1051 10.7549 15.1051 13.9874 14.0251C14.8949 13.7251 15.2924 12.6526 14.7974 11.8276L13.9349 10.3951C13.7099 10.0051 13.5149 9.30762 13.5149 8.85012V6.68262C13.5149 4.20762 11.4899 2.18262 9.01485 2.18262Z" stroke="#171C26" stroke-width="1.2" stroke-miterlimit="10" stroke-linecap="round"/>
<path d="M10.4022 2.39959C10.1697 2.33209 9.92967 2.27959 9.68217 2.24959C8.96217 2.15959 8.27217 2.21209 7.62717 2.39959C7.84467 1.84459 8.38467 1.45459 9.01467 1.45459C9.64467 1.45459 10.1847 1.84459 10.4022 2.39959Z" stroke="#171C26" stroke-width="1.2" stroke-miterlimit="10" stroke-linecap="round" stroke-linejoin="round"/>
<path d="M11.2652 14.2954C11.2652 15.5329 10.2527 16.5454 9.01517 16.5454C8.40017 16.5454 7.83017 16.2904 7.42517 15.8854C7.02017 15.4804 6.76517 14.9104 6.76517 14.2954" stroke="#171C26" stroke-width="1.2" stroke-miterlimit="10"/>
</svg>
