<svg width="28" height="21" viewBox="0 0 28 21" fill="none" xmlns="http://www.w3.org/2000/svg">
<g clip-path="url(#clip0_1343_3371)">
<path d="M0 0H28V21H0V0Z" fill="#00008B"/>
<path d="M1.64062 0L6.97813 3.95937L12.2937 0H14V1.35625L8.75 5.27187L14 9.16562V10.5H12.25L7 6.58437L1.77188 10.5H0V9.1875L5.22813 5.29375L0 1.4V0H1.64062Z" fill="white"/>
<path d="M9.275 6.14687L14 9.625V10.5L8.07187 6.14687H9.275ZM5.25 6.58437L5.38125 7.35L1.18125 10.5H0L5.25 6.58437ZM14 0V0.065625L8.55312 4.17812L8.59688 3.21563L12.9062 0H14ZM0 0L5.22813 3.85H3.91562L0 0.91875V0Z" fill="#FF0000"/>
<path d="M5.27187 0V10.5H8.77187V0H5.27187ZM0 3.5V7H14V3.5H0Z" fill="white"/>
<path d="M0 4.22187V6.32188H14V4.22187H0ZM5.97187 0V10.5H8.07187V0H5.97187Z" fill="#FF0000"/>
<path d="M23.0563 17.3558L22.1594 17.4696L22.2556 18.3664L21.6081 17.7364L20.965 18.3708L21.0525 17.4739L20.1556 17.3689L20.9125 16.8789L20.4356 16.1133L21.2931 16.3977L21.595 15.5446L21.9056 16.3933L22.7588 16.1002L22.2906 16.8702L23.0519 17.3558H23.0563ZM22.8944 12.2283L23.0125 11.6596L22.5838 11.2658L23.1613 11.2002L23.4019 10.6708L23.6425 11.2002L24.22 11.2658L23.7913 11.6596L23.9094 12.2283L23.4019 11.9396L22.8944 12.2283ZM18.34 9.6033L17.4519 9.69955L17.5306 10.5877L16.9006 9.9533L16.2531 10.5702L16.3581 9.68205L15.4744 9.56393L16.2313 9.09143L15.7719 8.3258L16.6163 8.6233L16.9313 7.78768L17.2244 8.63205L18.0731 8.35643L17.5963 9.1133L18.3444 9.6033H18.34ZM27.2563 8.1683L26.3419 8.28643L26.4425 9.2008L25.7819 8.55768L25.1256 9.20518L25.2175 8.28643L24.3031 8.18143L25.0775 7.6783L24.5919 6.89518L25.4669 7.1883L25.7731 6.32205L26.0881 7.1883L26.9588 6.88643L26.4775 7.67393L27.2563 8.1683ZM23.0519 4.51518L22.1463 4.6158L22.2294 5.5258L21.5863 4.8783L20.9256 5.5083L21.0306 4.60268L20.125 4.48018L20.8994 3.99893L20.4313 3.2158L21.2931 3.51768L21.6125 2.66455L21.91 3.52643L22.7763 3.24205L22.2906 4.01205L23.0519 4.51518ZM10.2375 16.8746L8.23375 17.1108L8.435 19.1189L7 17.7014L5.55625 19.1102L5.77063 17.1021L3.76688 16.8483L5.46875 15.7633L4.41875 14.0396L6.32625 14.6958L7.0175 12.7971L7.69563 14.7002L9.6075 14.0571L8.54438 15.7721L10.2419 16.8702L10.2375 16.8746Z" fill="white"/>
</g>
<defs>
<clipPath id="clip0_1343_3371">
<rect width="28" height="21" rx="4" fill="white"/>
</clipPath>
</defs>
</svg>
