<svg width="18" height="18" viewBox="0 0 18 18" fill="none" xmlns="http://www.w3.org/2000/svg">
<path d="M12.75 15.5625H5.25C1.9425 15.5625 0.9375 14.5575 0.9375 11.25V10.875C0.9375 10.5675 1.1925 10.3125 1.5 10.3125C2.22 10.3125 2.8125 9.72 2.8125 9C2.8125 8.28 2.22 7.6875 1.5 7.6875C1.1925 7.6875 0.9375 7.4325 0.9375 7.125V6.75C0.9375 3.4425 1.9425 2.4375 5.25 2.4375H12.75C16.0575 2.4375 17.0625 3.4425 17.0625 6.75V7.5C17.0625 7.8075 16.8075 8.0625 16.5 8.0625C15.78 8.0625 15.1875 8.655 15.1875 9.375C15.1875 10.095 15.78 10.6875 16.5 10.6875C16.8075 10.6875 17.0625 10.9425 17.0625 11.25C17.0625 14.5575 16.0575 15.5625 12.75 15.5625ZM2.0625 11.37C2.0775 13.95 2.61 14.4375 5.25 14.4375H12.75C15.255 14.4375 15.8625 13.995 15.93 11.745C14.8575 11.49 14.0625 10.5225 14.0625 9.375C14.0625 8.2275 14.865 7.26 15.9375 7.005V6.75C15.9375 4.0725 15.4275 3.5625 12.75 3.5625H5.25C2.61 3.5625 2.0775 4.05 2.0625 6.63C3.135 6.885 3.9375 7.8525 3.9375 9C3.9375 10.1475 3.135 11.115 2.0625 11.37Z" fill="#171C26"/>
<path d="M11.25 11.9102C10.83 11.9102 10.4925 11.5727 10.4925 11.1602C10.4925 10.7477 10.83 10.4102 11.2425 10.4102C11.655 10.4102 11.9925 10.7477 11.9925 11.1602C11.9925 11.5727 11.67 11.9102 11.25 11.9102Z" fill="#171C26"/>
<path d="M6.74999 8.16016C6.32999 8.16016 5.99249 7.82266 5.99249 7.41016C5.99249 6.99766 6.32999 6.66016 6.74249 6.66016C7.15499 6.66016 7.49249 6.99766 7.49249 7.41016C7.49249 7.82266 7.16999 8.16016 6.74999 8.16016Z" fill="#171C26"/>
<path d="M6.47249 12.3225C6.32999 12.3225 6.18749 12.27 6.07499 12.1575C5.85749 11.94 5.85749 11.58 6.07499 11.3625L11.1225 6.31498C11.34 6.09748 11.7 6.09748 11.9175 6.31498C12.135 6.53248 12.135 6.89248 11.9175 7.10998L6.86999 12.1575C6.76499 12.27 6.61499 12.3225 6.47249 12.3225Z" fill="#171C26"/>
</svg>
