<svg width="22" height="22" viewBox="0 0 22 22" fill="none" xmlns="http://www.w3.org/2000/svg">
<path d="M20.1665 5.49992V7.71825C20.1665 9.16659 19.2498 10.0833 17.8015 10.0833H14.6665V3.67575C14.6665 2.65825 15.5007 1.83325 16.5182 1.83325C17.5174 1.84242 18.434 2.24575 19.094 2.90575C19.754 3.57492 20.1665 4.49159 20.1665 5.49992Z" stroke="#171C26" stroke-width="1.5" stroke-miterlimit="10" stroke-linecap="round" stroke-linejoin="round"/>
<path d="M1.8335 6.41659V19.2499C1.8335 20.0108 2.69514 20.4416 3.30014 19.9833L4.86766 18.8099C5.23433 18.5349 5.74767 18.5716 6.07767 18.9016L7.59931 20.4324C7.95681 20.7899 8.54352 20.7899 8.90102 20.4324L10.441 18.8924C10.7618 18.5716 11.2752 18.5349 11.6327 18.8099L13.2002 19.9833C13.8052 20.4324 14.6668 20.0016 14.6668 19.2499V3.66659C14.6668 2.65825 15.4918 1.83325 16.5002 1.83325H6.41683H5.50016C2.75016 1.83325 1.8335 3.47409 1.8335 5.49992V6.41659Z" stroke="#171C26" stroke-width="1.5" stroke-miterlimit="10" stroke-linecap="round" stroke-linejoin="round"/>
<path d="M5.5 8.25H11" stroke="#171C26" stroke-width="1.5" stroke-linecap="round" stroke-linejoin="round"/>
<path d="M6.1875 11.9167H10.3125" stroke="#171C26" stroke-width="1.5" stroke-linecap="round" stroke-linejoin="round"/>
</svg>
