<svg width="18" height="18" viewBox="0 0 18 18" fill="none" xmlns="http://www.w3.org/2000/svg">
<path d="M14.295 14.0028L12.69 10.8003L11.085 14.0028" stroke="#171C26" stroke-width="1.2" stroke-linecap="round" stroke-linejoin="round"/>
<path d="M11.3777 13.4336H14.0177" stroke="#171C26" stroke-width="1.2" stroke-linecap="round" stroke-linejoin="round"/>
<path d="M12.69 16.5008C10.59 16.5008 8.88 14.7983 8.88 12.6908C8.88 10.5908 10.5825 8.88086 12.69 8.88086C14.79 8.88086 16.5 10.5833 16.5 12.6908C16.5 14.7983 14.7975 16.5008 12.69 16.5008Z" stroke="#171C26" stroke-width="1.2" stroke-linecap="round" stroke-linejoin="round"/>
<path d="M3.76488 1.49951H6.70488C8.25738 1.49951 9.00738 2.24953 8.96988 3.76453V6.70451C9.00738 8.25701 8.25738 9.00703 6.70488 8.96953H3.76488C2.24988 8.99953 1.49988 8.24951 1.49988 6.69701V3.75702C1.49988 2.24952 2.24988 1.49951 3.76488 1.49951Z" stroke="#171C26" stroke-width="1.2" stroke-linecap="round" stroke-linejoin="round"/>
<path d="M6.75752 4.38867H3.71252" stroke="#171C26" stroke-width="1.2" stroke-linecap="round" stroke-linejoin="round"/>
<path d="M5.22775 3.87891V4.3889" stroke="#171C26" stroke-width="1.2" stroke-linecap="round" stroke-linejoin="round"/>
<path d="M5.99295 4.38086C5.99295 5.69336 4.96544 6.75835 3.70544 6.75835" stroke="#171C26" stroke-width="1.2" stroke-linecap="round" stroke-linejoin="round"/>
<path d="M6.75782 6.758C6.21032 6.758 5.71533 6.46549 5.37033 6.00049" stroke="#171C26" stroke-width="1.2" stroke-linecap="round" stroke-linejoin="round"/>
<path d="M1.50043 11.2495C1.50043 14.152 3.84793 16.4995 6.75043 16.4995L5.96293 15.187" stroke="#171C26" stroke-width="1.2" stroke-linecap="round" stroke-linejoin="round"/>
<path d="M16.5005 6.74903C16.5005 3.84652 14.153 1.49902 11.2505 1.49902L12.038 2.81152" stroke="#171C26" stroke-width="1.2" stroke-linecap="round" stroke-linejoin="round"/>
</svg>
