<svg width="22" height="22" viewBox="0 0 22 22" fill="none" xmlns="http://www.w3.org/2000/svg">
<path d="M19.25 5.48177C16.1975 5.17927 13.1267 5.02344 10.065 5.02344C8.25 5.02344 6.435 5.1151 4.62 5.29844L2.75 5.48177" stroke="#FF4B4B" stroke-width="1.2" stroke-linecap="round" stroke-linejoin="round"/>
<path d="M7.79166 4.556L7.99332 3.35516C8.13999 2.48433 8.24999 1.8335 9.79916 1.8335H12.2008C13.75 1.8335 13.8692 2.521 14.0067 3.36433L14.2083 4.556" stroke="#FF4B4B" stroke-width="1.2" stroke-linecap="round" stroke-linejoin="round"/>
<path d="M17.2792 8.37842L16.6834 17.6093C16.5825 19.0484 16.5 20.1668 13.9425 20.1668H8.05752C5.50002 20.1668 5.41752 19.0484 5.31669 17.6093L4.72086 8.37842" stroke="#FF4B4B" stroke-width="1.2" stroke-linecap="round" stroke-linejoin="round"/>
<path d="M9.46918 15.125H12.5217" stroke="#FF4B4B" stroke-width="1.2" stroke-linecap="round" stroke-linejoin="round"/>
<path d="M8.70834 11.4585H13.2917" stroke="#FF4B4B" stroke-width="1.2" stroke-linecap="round" stroke-linejoin="round"/>
</svg>
