<svg width="92" height="92" viewBox="0 0 92 92" fill="none" xmlns="http://www.w3.org/2000/svg">
<circle cx="43" cy="46" r="4" fill="#F5CE00" stroke="white" stroke-width="2"/>
<circle cx="46" cy="46" r="10" fill="white"/>
<circle cx="46" cy="46" r="9.5" stroke="#8F8F8F" stroke-opacity="0.5"/>
<g opacity="0.5">
<circle cx="46" cy="46" r="22" fill="white"/>
<circle cx="46" cy="46" r="21.5" stroke="#8F8F8F" stroke-opacity="0.5"/>
</g>
<g opacity="0.25">
<circle cx="46" cy="46" r="34" fill="white"/>
<circle cx="46" cy="46" r="33.5" stroke="#8F8F8F" stroke-opacity="0.5"/>
</g>
<g opacity="0.15">
<circle cx="46" cy="46" r="46" fill="white"/>
<circle cx="46" cy="46" r="45.5" stroke="#8F8F8F" stroke-opacity="0.5"/>
</g>
<g filter="url(#filter0_d_40_1339)">
<g style="mix-blend-mode:multiply">
<path opacity="0.95" d="M68.7549 50.7676L68.7549 43.09C68.7549 39.5927 65.9137 36.7576 62.4089 36.7576L24.1026 36.7576C20.5978 36.7576 17.7566 39.5927 17.7566 43.09L17.7566 50.7676C17.7566 54.2649 20.5978 57.1 24.1026 57.1L62.4089 57.1C65.9137 57.1 68.7549 54.2649 68.7549 50.7676Z" fill="#827D85"/>
<path d="M68.459 50.5051L68.459 43.1555C68.459 39.6764 65.6325 36.856 62.1458 36.856L24.2999 36.856C20.8133 36.856 17.9868 39.6764 17.9868 43.1555L17.9868 50.5051C17.9868 53.9842 20.8133 56.8047 24.2999 56.8047L62.1458 56.8047C65.6325 56.8047 68.459 53.9842 68.459 50.5051Z" fill="#7C777F"/>
</g>
<path d="M18.5786 37.3809C18.5786 37.3809 17.1647 37.6433 16.8359 38.7589C16.5116 39.8208 16.378 40.9316 16.4414 42.0399C16.7702 42.0399 18.5786 37.3809 18.5786 37.3809Z" fill="url(#paint0_linear_40_1339)"/>
<path d="M18.5789 55.1641C18.5789 55.1641 17.165 54.9016 16.8362 53.7861C16.5158 52.7233 16.3823 51.6133 16.4416 50.5051C16.7704 50.4722 18.5789 55.1641 18.5789 55.1641Z" fill="url(#paint1_linear_40_1339)"/>
<path d="M55.2737 55.2626L54.09 55.722C54.09 57.0016 56.3588 58.0515 57.674 58.0515L63.0007 58.0515C63.623 58.0516 64.2202 57.8072 64.6632 57.3712C65.1063 56.9353 65.3595 56.3428 65.3682 55.722L65.3682 55.2626C65.3595 54.6418 65.1063 54.0493 64.6632 53.6134C64.2202 53.1774 63.623 52.933 63.0007 52.9331L57.674 52.9331C57.3631 52.9288 57.0544 52.9856 56.7655 53.1003C56.4766 53.215 56.2132 53.3854 55.9903 53.6017C55.7674 53.8181 55.5894 54.0761 55.4664 54.3611C55.3435 54.646 55.278 54.9524 55.2737 55.2626Z" fill="url(#paint2_linear_40_1339)"/>
<path style="mix-blend-mode:multiply" d="M57.674 58.0187C56.3588 58.0187 54.09 56.9688 54.09 55.6891L55.2737 55.2298C55.2903 54.6172 55.5416 54.0343 55.9759 53.6009C56.4101 53.1676 56.9943 52.9168 57.6083 52.9003L60.6333 52.9003L60.6333 58.0187L57.674 58.0187Z" fill="url(#paint3_linear_40_1339)"/>
<path style="mix-blend-mode:hard-light" d="M59.7786 58.0186C57.5427 58.0186 55.7013 57.6249 55.7342 57.2968C55.7671 56.9687 57.5755 56.7062 59.8114 56.7718C62.0473 56.8375 63.8887 57.1656 63.8887 57.4937C63.8887 57.8218 62.0473 58.0186 59.7786 58.0186Z" fill="url(#paint4_radial_40_1339)"/>
<path style="mix-blend-mode:multiply" d="M64.6449 57.3954C65.006 57.0533 65.2479 56.6049 65.3354 56.1158L54.5176 56.1158L54.5176 56.6736C54.7811 56.9648 55.0925 57.2089 55.4383 57.3954L64.6449 57.3954Z" fill="url(#paint5_linear_40_1339)"/>
<path d="M55.2737 37.217L54.09 36.7576C54.09 35.478 56.3588 34.4281 57.674 34.4281L63.0007 34.4281C63.623 34.428 64.2202 34.6724 64.6632 35.1084C65.1063 35.5443 65.3595 36.1368 65.3682 36.7576L65.3682 37.217C65.3595 37.8378 65.1063 38.4303 64.6632 38.8662C64.2202 39.3022 63.623 39.5466 63.0007 39.5465L57.674 39.5465C57.3631 39.5509 57.0544 39.494 56.7655 39.3793C56.4766 39.2646 56.2132 39.0942 55.9903 38.8779C55.7674 38.6615 55.5894 38.4035 55.4664 38.1186C55.3435 37.8336 55.278 37.5272 55.2737 37.217Z" fill="url(#paint6_linear_40_1339)"/>
<path style="mix-blend-mode:multiply" d="M57.674 34.4281C56.3588 34.4281 54.09 35.478 54.09 36.7576L55.2737 37.217C55.2903 37.8296 55.5416 38.4125 55.9759 38.8459C56.4101 39.2792 56.9943 39.5299 57.6083 39.5465L60.6333 39.5465L60.6333 34.4281L57.674 34.4281Z" fill="url(#paint7_linear_40_1339)"/>
<path style="mix-blend-mode:hard-light" d="M60.0415 35.7405C57.7727 35.7405 55.9642 35.5436 55.9314 35.2155C55.8985 34.8874 57.7398 34.5265 60.0086 34.4937C62.2774 34.4609 64.0858 34.4937 64.1187 35.0187C64.1516 35.5436 62.2774 35.6749 60.0415 35.7405Z" fill="url(#paint8_radial_40_1339)"/>
<path d="M24.9248 55.2626L23.7411 55.722C23.7411 57.0016 25.977 58.0515 27.2922 58.0515L32.6189 58.0515C32.9282 58.0559 33.2353 57.9988 33.5224 57.8837C33.8094 57.7686 34.0707 57.5977 34.291 57.3809C34.5112 57.1642 34.6862 56.9059 34.8055 56.6211C34.9249 56.3363 34.9864 56.0307 34.9863 55.722L34.9863 55.2626C34.9864 54.9539 34.9249 54.6483 34.8055 54.3635C34.6862 54.0787 34.5112 53.8204 34.291 53.6037C34.0707 53.3869 33.8094 53.216 33.5224 53.1009C33.2353 52.9858 32.9282 52.9287 32.6189 52.9331L27.2922 52.9331C26.9829 52.9287 26.6757 52.9858 26.3887 53.1009C26.1017 53.216 25.8404 53.3869 25.6201 53.6037C25.3998 53.8204 25.2249 54.0787 25.1056 54.3635C24.9862 54.6483 24.9247 54.9539 24.9248 55.2626Z" fill="url(#paint9_linear_40_1339)"/>
<path style="mix-blend-mode:multiply" d="M27.292 58.0187C25.9768 58.0187 23.7409 56.9688 23.7409 55.6891L24.9246 55.2298C24.9328 54.6202 25.177 54.0373 25.6059 53.6032C26.0349 53.169 26.6155 52.9171 27.2263 52.9003L30.2842 52.9003L30.2842 58.0187L27.292 58.0187Z" fill="url(#paint10_linear_40_1339)"/>
<path style="mix-blend-mode:hard-light" d="M29.4294 58.0186C27.1607 58.0186 25.3522 57.6249 25.3522 57.2968C25.3522 56.9687 27.1935 56.7062 29.4623 56.7718C31.7311 56.8375 33.5396 57.1656 33.5396 57.4937C33.5396 57.8218 31.6653 58.0186 29.4294 58.0186Z" fill="url(#paint11_radial_40_1339)"/>
<path style="mix-blend-mode:multiply" d="M34.2629 57.3954C34.6361 57.0627 34.8804 56.6099 34.9534 56.1158L24.1684 56.1158L24.1684 56.6736C24.4198 56.9642 24.7202 57.2085 25.0562 57.3954L34.2629 57.3954Z" fill="url(#paint12_linear_40_1339)"/>
<path d="M24.9248 37.2168L23.7411 36.7575C23.7411 35.4779 25.977 34.428 27.2922 34.428L32.6189 34.428C32.9282 34.4236 33.2353 34.4807 33.5224 34.5958C33.8094 34.7109 34.0707 34.8818 34.291 35.0986C34.5112 35.3153 34.6862 35.5736 34.8055 35.8584C34.9249 36.1432 34.9864 36.4488 34.9863 36.7575L34.9863 37.2168C34.9864 37.5255 34.9249 37.8312 34.8055 38.116C34.6862 38.4008 34.5112 38.659 34.291 38.8758C34.0707 39.0925 33.8094 39.2634 33.5224 39.3786C33.2353 39.4937 32.9282 39.5507 32.6189 39.5464L27.2922 39.5464C26.9829 39.5507 26.6757 39.4937 26.3887 39.3786C26.1017 39.2634 25.8404 39.0925 25.6201 38.8758C25.3998 38.659 25.2249 38.4008 25.1056 38.116C24.9862 37.8312 24.9247 37.5255 24.9248 37.2168Z" fill="url(#paint13_linear_40_1339)"/>
<path style="mix-blend-mode:multiply" d="M27.292 34.4281C25.9768 34.4281 23.7409 35.478 23.7409 36.7576L24.9246 37.217C24.9328 37.8266 25.177 38.4095 25.6059 38.8436C26.0349 39.2778 26.6155 39.5296 27.2263 39.5465L30.2842 39.5465L30.2842 34.4281L27.292 34.4281Z" fill="url(#paint14_linear_40_1339)"/>
<path style="mix-blend-mode:hard-light" d="M29.6596 35.7405C27.4237 35.7405 25.5823 35.5436 25.5823 35.2155C25.5823 34.8874 27.3908 34.5265 29.6267 34.4937C31.8626 34.4609 33.7368 34.4937 33.7368 35.0187C33.7368 35.5436 31.9284 35.6749 29.6596 35.7405Z" fill="url(#paint15_radial_40_1339)"/>
<path d="M72.6678 55.4594C73.369 54.3896 73.829 53.1805 74.0159 51.9159C74.9185 50.1616 75.3704 48.2112 75.3311 46.2397C75.3704 44.2682 74.9185 42.3177 74.0159 40.5635C73.829 39.2988 73.369 38.0898 72.6678 37.02C72.1303 36.2848 71.4127 35.6995 70.5837 35.3204C69.7546 34.9412 68.8419 34.7808 67.9329 34.8545L29.9226 34.8545C27.5517 34.9669 25.1905 35.23 22.8532 35.6419C21.0494 35.853 19.3293 36.5192 17.8553 37.5778C15.718 39.4479 16.0139 46.2397 16.0139 46.2397C16.0139 46.2397 15.718 53.0314 17.8553 54.9016C19.3293 55.9602 21.0494 56.6264 22.8532 56.8374C25.1905 57.2494 27.5517 57.5124 29.9226 57.6249L67.8014 57.6249C68.7317 57.722 69.6712 57.5731 70.5254 57.1929C71.3797 56.8128 72.1186 56.2149 72.6678 55.4594Z" fill="url(#paint16_linear_40_1339)"/>
<path d="M22.3599 46.2397C22.7915 43.1249 23.6316 40.0803 24.8589 37.1841L19.4664 38.0043C19.135 38.0567 18.8191 38.1808 18.5408 38.3678C18.2624 38.5548 18.0285 38.8003 17.8553 39.0871C16.7657 41.3079 16.2675 43.7711 16.4085 46.2397C16.2705 48.7223 16.7803 51.1981 17.8881 53.4252C18.0523 53.6995 18.2714 53.9372 18.5316 54.1235C18.7918 54.3098 19.0876 54.4406 19.4007 54.5079L24.8589 55.4923C23.6279 52.5291 22.7879 49.4189 22.3599 46.2397Z" fill="url(#paint17_linear_40_1339)"/>
<path style="mix-blend-mode:multiply" d="M23.6094 35.5107C23.3463 35.5107 23.1162 35.5107 22.9518 35.5107C21.148 35.7218 19.4279 36.388 17.9539 37.4466C15.8166 39.3167 16.1125 46.1085 16.1125 46.1085C16.1125 46.1085 15.8166 52.9002 17.9539 54.7704C19.4279 55.829 21.148 56.4952 22.9518 56.7062C23.1162 56.7062 23.3463 56.7062 23.6094 56.7062L23.6094 35.5107Z" fill="url(#paint18_linear_40_1339)"/>
<path style="mix-blend-mode:soft-light" d="M24.8589 37.1841L18.5786 38.1356C18.5786 38.1356 16.4085 40.0058 16.4085 46.2397C16.4085 47.0272 16.4085 47.749 16.4085 48.4052L22.4586 48.8974L22.4586 48.0771L22.0969 46.2397C22.6125 43.1127 23.5413 40.0676 24.8589 37.1841Z" fill="url(#paint19_linear_40_1339)"/>
<path style="mix-blend-mode:soft-light" d="M52.9393 46.1743C49.1534 45.1271 45.2231 44.695 41.2995 44.8947C37.5002 44.6293 33.6963 45.341 30.2515 46.9617C29.9753 44.0181 30.2997 41.0492 31.205 38.2342C33.2108 35.0516 52.0515 36.3968 52.1502 37.6764C52.7777 40.4635 53.043 43.3196 52.9393 46.1743Z" fill="url(#paint20_linear_40_1339)"/>
<path d="M73.8843 51.916C74.8626 50.1903 75.3194 48.2189 75.1995 46.2398C75.3194 44.2607 74.8626 42.2893 73.8843 40.5636C69.5077 38.7868 65.0277 37.2748 60.4689 36.0358C61.6852 37.4231 62.6043 39.0439 63.1697 40.7987C63.7352 42.5535 63.935 44.4051 63.7569 46.2398C63.935 48.0745 63.7352 49.9261 63.1697 51.6809C62.6043 53.4357 61.6852 55.0565 60.4688 56.4438C65.0277 55.2048 69.5077 53.6928 73.8843 51.916Z" fill="url(#paint21_linear_40_1339)"/>
<path d="M57.4768 35.7734L56.7205 34.5266L56.5233 34.5266C55.9132 33.6605 55.243 32.8382 54.5175 32.0658C54.386 32.1619 54.2928 32.3014 54.2545 32.4595C54.4617 33.3432 54.7365 34.2098 55.0765 35.0515L55.5697 35.0515C55.6974 35.1512 55.7896 35.2893 55.8328 35.4453C55.8719 35.6512 55.8719 35.8627 55.8328 36.0687L57.4768 35.7734Z" fill="url(#paint22_linear_40_1339)"/>
<path d="M56.8193 35.0514C56.5902 34.8076 56.3368 34.5877 56.063 34.3952C55.8568 34.2526 55.6365 34.1317 55.4054 34.0342L54.5834 32C55.0552 32.152 55.4913 32.3975 55.8657 32.7218C56.1705 33.0284 56.4116 33.392 56.5752 33.7918C56.7388 34.1915 56.8218 34.6196 56.8193 35.0514Z" fill="url(#paint23_linear_40_1339)"/>
<path d="M55.0766 35.0514C54.677 34.3299 54.3783 33.5571 54.1889 32.7547C54.1377 32.6284 54.1377 32.4872 54.1889 32.361C54.1889 32.361 54.1889 32.361 54.3533 32.361C54.8461 32.9162 55.1359 33.6217 55.1753 34.3624L55.0766 35.0514Z" fill="url(#paint24_linear_40_1339)"/>
<path d="M55.2738 34.1656L55.0766 34.7561C54.6886 34.0827 54.4111 33.3516 54.2545 32.5907C54.2371 32.5549 54.228 32.5156 54.228 32.4758C54.228 32.436 54.2371 32.3968 54.2545 32.361C54.2881 32.337 54.3283 32.324 54.3696 32.324C54.4109 32.324 54.4512 32.337 54.4847 32.361C55.0766 32.7875 55.2081 34.1984 55.2081 34.3296L55.2738 34.1656ZM55.2738 34.1656C55.2738 34.1656 55.2738 32.6235 54.5176 32.1641C54.4717 32.141 54.421 32.129 54.3696 32.129C54.3182 32.129 54.2675 32.141 54.2217 32.1641C54.2008 32.2106 54.19 32.2609 54.19 32.3118C54.19 32.3627 54.2008 32.413 54.2217 32.4594C54.3733 33.3617 54.6615 34.2357 55.0766 35.0514L55.3396 34.3296L55.2738 34.1656Z" fill="#090909"/>
<path d="M57.4768 56.7391L56.7205 58.0187L56.5233 58.0187C55.9221 58.8915 55.2513 59.7144 54.5175 60.4795C54.4511 60.4407 54.3935 60.3886 54.3482 60.3265C54.303 60.2644 54.2711 60.1936 54.2545 60.1186C54.4725 59.3129 54.7472 58.5234 55.0765 57.7563L55.5697 57.7563C55.6361 57.7174 55.6937 57.6653 55.739 57.6032C55.7842 57.5411 55.8162 57.4703 55.8328 57.3953C55.8719 57.1894 55.8719 56.9779 55.8328 56.7719L57.4768 56.7391Z" fill="url(#paint25_linear_40_1339)"/>
<path d="M56.8193 57.3624C56.5997 57.6253 56.3453 57.8571 56.063 58.0514L55.4054 58.4124L54.5834 60.4138C55.0552 60.2618 55.4913 60.0163 55.8657 59.692C56.1705 59.3854 56.4116 59.0218 56.5752 58.622C56.7388 58.2223 56.8218 57.7942 56.8193 57.3624Z" fill="url(#paint26_linear_40_1339)"/>
<path d="M55.0766 57.6578C54.677 58.3793 54.3783 59.1521 54.1889 59.9546C54.1409 60.0814 54.1409 60.2214 54.1889 60.3483C54.1889 60.3483 54.1889 60.3483 54.3533 60.3483C54.8461 59.793 55.1359 59.0875 55.1753 58.3469L55.0766 57.6578Z" fill="url(#paint27_linear_40_1339)"/>
<path d="M55.2738 58.3797C55.2738 58.3797 55.2738 59.9217 54.5505 60.3155C54.5169 60.3395 54.4767 60.3524 54.4354 60.3524C54.3941 60.3524 54.3538 60.3395 54.3203 60.3155C54.3049 60.2791 54.297 60.2401 54.297 60.2006C54.297 60.1612 54.3049 60.1221 54.3203 60.0858C54.4778 59.3148 54.7551 58.573 55.1423 57.8875L55.3396 58.5109L55.2738 58.3797ZM55.2738 58.3797L55.0108 57.6578C54.6111 58.3793 54.3124 59.1521 54.123 59.9546C54.1027 59.9954 54.0922 60.0403 54.0922 60.0858C54.0922 60.1313 54.1027 60.1763 54.123 60.217C54.1666 60.2467 54.2182 60.2625 54.271 60.2625C54.3237 60.2625 54.3753 60.2467 54.4189 60.217C55.0437 59.7577 55.1752 58.2156 55.1752 58.2156L55.2738 58.3797Z" fill="#1E1E1E"/>
<path d="M58.562 35.642C58.562 35.642 52.6763 37.1185 50.5062 37.3153C48.336 37.5122 43.2395 37.3153 43.2395 37.3153L44.8178 35.5436L58.562 35.642Z" fill="url(#paint28_linear_40_1339)"/>
<path d="M42.7461 35.6421L41.8254 37.381C41.8254 37.381 35.4794 37.381 33.1777 37.0857C31.8784 36.9803 30.6142 36.6119 29.4622 36.003L31.2049 35.6421L42.7461 35.6421Z" fill="url(#paint29_linear_40_1339)"/>
<path d="M44.8176 35.6749L42.7461 35.6421L41.8255 37.4138L43.2393 37.4467L44.8176 35.6749Z" fill="#272727"/>
<path d="M62.8034 46.2398C62.8034 46.2398 62.8034 38.5622 58.8249 36.1998L52.15 37.6763C52.6613 40.5026 52.9254 43.3679 52.9392 46.2398C52.9216 49.0898 52.6575 51.933 52.15 54.7377L58.9893 56.2141C63.0665 53.9174 62.8034 46.2398 62.8034 46.2398Z" fill="url(#paint30_linear_40_1339)"/>
<path d="M58.562 56.8375C58.562 56.8375 52.6763 55.361 50.5062 55.1642C48.336 54.9673 43.2395 55.1642 43.2395 55.1642L44.8178 56.9687L58.562 56.8375Z" fill="url(#paint31_linear_40_1339)"/>
<path d="M42.7461 56.8376L41.8254 55.0986C41.8254 55.0986 35.4794 55.0986 33.1777 55.3939C31.8784 55.4994 30.6142 55.8678 29.4622 56.4767L31.2049 56.8376L42.7461 56.8376Z" fill="url(#paint32_linear_40_1339)"/>
<path d="M44.7847 56.8702L42.7461 56.8702L41.8254 55.0985L43.2393 55.0657L44.7847 56.8702Z" fill="#272727"/>
<g style="mix-blend-mode:soft-light">
<path d="M75.1996 46.1742C75.3219 44.2158 74.8645 42.2647 73.8843 40.5636C69.5077 38.7868 65.0278 37.2748 60.4689 36.0358C61.6768 37.4152 62.5911 39.0252 63.1564 40.768C63.7216 42.5108 63.9259 44.3501 63.757 46.1742L75.1996 46.1742Z" fill="#868686"/>
</g>
<g style="mix-blend-mode:soft-light">
<path d="M75.1996 46.1742C75.3087 44.2337 74.8396 42.3043 73.8515 40.6293C69.5566 38.8825 65.1654 37.3817 60.6991 36.1343C61.9026 37.4967 62.8149 39.0898 63.3802 40.8161C63.9456 42.5424 64.1521 44.3656 63.9872 46.1742L75.1996 46.1742Z" fill="#8C8C8C"/>
</g>
<g style="mix-blend-mode:soft-light">
<path d="M75.1996 46.1742C75.308 44.2502 74.8263 42.3389 73.8186 40.6949C69.525 38.954 65.1335 37.4641 60.6663 36.2327C60.6663 36.2327 63.6913 38.8575 63.7242 46.0758L75.1996 46.1742Z" fill="#929292"/>
</g>
<g style="mix-blend-mode:soft-light">
<path d="M75.1996 46.1414C75.3033 44.2547 74.8086 42.3834 73.7857 40.7933C69.5651 39.0371 65.2382 37.5468 60.8307 36.3311C60.8307 36.3311 63.7899 38.8575 63.7899 46.1742L75.1996 46.1414Z" fill="#979797"/>
</g>
<g style="mix-blend-mode:soft-light">
<path d="M75.1997 46.1413C75.2956 44.2715 74.7885 42.4201 73.753 40.8588C69.5873 39.1147 65.3152 37.6352 60.9623 36.4294C60.9623 36.4294 63.8229 38.8574 63.8229 46.2725L75.1997 46.1413Z" fill="#9D9D9D"/>
</g>
<g style="mix-blend-mode:soft-light">
<path d="M75.1995 46.1414C75.288 44.2882 74.7685 42.4567 73.7199 40.9245C69.5926 39.2063 65.3652 37.7382 61.0607 36.528C61.0607 36.528 63.8227 38.8903 63.8556 46.1414L75.1995 46.1414Z" fill="#A3A3A3"/>
</g>
<g style="mix-blend-mode:soft-light">
<path d="M75.1998 46.1085C75.2764 44.2825 74.7445 42.4826 73.6873 40.9901C69.6149 39.2839 65.4423 37.8266 61.1925 36.6263C61.1925 36.6263 63.8559 38.8903 63.8559 46.1085L75.1998 46.1085Z" fill="#A9A9A9"/>
</g>
<g style="mix-blend-mode:soft-light">
<path d="M75.1995 46.1086C75.2791 44.3026 74.7462 42.5225 73.687 41.0558C69.6567 39.3661 65.5281 37.9198 61.3237 36.7249C61.3237 36.7249 63.8885 38.8903 63.8885 46.1086L75.1995 46.1086Z" fill="#AEAEAE"/>
</g>
<g style="mix-blend-mode:soft-light">
<path d="M75.1995 46.1084C75.2784 44.3177 74.7322 42.5551 73.6541 41.1213C69.6697 39.438 65.5847 38.0026 61.4224 36.8231C61.4224 36.8231 63.8885 38.8902 63.9214 46.1084L75.1995 46.1084Z" fill="#B4B4B4"/>
</g>
<g style="mix-blend-mode:soft-light">
<path d="M75.1996 46.0757C75.2719 44.3209 74.712 42.5983 73.6213 41.2198C69.692 39.539 65.6618 38.1035 61.554 36.9216C61.554 36.9216 63.9214 38.9231 63.9214 46.0757L75.1996 46.0757Z" fill="#BABABA"/>
</g>
<g style="mix-blend-mode:soft-light">
<path d="M75.1997 46.0757C75.2676 44.3361 74.6944 42.6319 73.5885 41.2854C69.7031 39.6162 65.7167 38.1916 61.6527 37.02C61.6527 37.02 63.9215 38.923 63.9544 46.0757L75.1997 46.0757Z" fill="#C0C0C0"/>
</g>
<g style="mix-blend-mode:soft-light">
<path d="M75.1995 46.0758C75.2512 44.3529 74.666 42.6712 73.5554 41.3511C69.725 39.6939 65.7934 38.2802 61.7841 37.1185C61.7841 37.1185 63.9542 38.9231 63.9871 46.0758L75.1995 46.0758Z" fill="#C5C5C5"/>
</g>
<g style="mix-blend-mode:soft-light">
<path d="M75.1998 46.0428C75.2398 44.3458 74.6416 42.6953 73.5228 41.4165C69.7364 39.7709 65.8485 38.3682 61.883 37.2168C61.883 37.2168 63.9874 38.9229 63.9874 46.0428L75.1998 46.0428Z" fill="#CBCBCB"/>
</g>
<g style="mix-blend-mode:soft-light">
<path d="M75.1997 46.0429C75.2036 44.4052 74.5937 42.8253 73.4899 41.6135C69.7556 39.9499 65.9234 38.5145 62.0144 37.3153C62.0144 37.3153 63.9873 38.923 64.0202 46.0429L75.1997 46.0429Z" fill="#D1D1D1"/>
</g>
<g style="mix-blend-mode:soft-light">
<path d="M75.1997 46.0429C75.2036 44.4053 74.5937 42.8254 73.4899 41.6135C69.7981 39.9838 66.0097 38.5812 62.146 37.4138C62.146 37.4138 64.0202 38.9559 64.0202 46.0429L75.1997 46.0429Z" fill="#D7D7D7"/>
</g>
<g style="mix-blend-mode:soft-light">
<path d="M75.1996 46.0101C75.2149 45.1987 75.0688 44.3923 74.7697 43.6376C74.4706 42.8829 74.0243 42.1949 73.4569 41.6135C69.8126 40.005 66.0672 38.635 62.2445 37.5122C62.2445 37.5122 64.053 38.9559 64.053 46.0101L75.1996 46.0101Z" fill="#DCDCDC"/>
</g>
<g style="mix-blend-mode:soft-light">
<path d="M75.1995 46.0102C75.22 45.1952 75.073 44.3847 74.7677 43.6285C74.4623 42.8724 74.005 42.1867 73.424 41.6136C69.833 40.0396 66.1424 38.7025 62.376 37.6107C62.376 37.6107 64.0529 38.9559 64.0858 46.0102L75.1995 46.0102Z" fill="#E2E2E2"/>
</g>
<g style="mix-blend-mode:soft-light">
<path d="M75.1996 46.01C75.211 45.2176 75.0559 44.4317 74.7444 43.7027C74.433 42.9737 73.972 42.3179 73.3912 41.7775C69.8407 40.1961 66.1948 38.8373 62.4747 37.709C62.4747 37.709 64.0859 38.9558 64.0859 46.01L75.1996 46.01Z" fill="#E8E8E8"/>
</g>
<g style="mix-blend-mode:soft-light">
<path d="M75.1996 45.9773C75.2033 45.1974 75.041 44.4257 74.7236 43.713C74.4062 43.0004 73.9408 42.3631 73.3583 41.8432C69.8627 40.2741 66.2716 38.9262 62.6063 37.8075C62.6063 37.8075 64.1188 38.9887 64.1188 45.9773L75.1996 45.9773Z" fill="#EEEEEE"/>
</g>
<g style="mix-blend-mode:soft-light">
<path d="M75.1997 45.9774C75.1984 45.2047 75.0303 44.4414 74.7069 43.7393C74.3834 43.0373 73.9123 42.413 73.3255 41.9089C69.9081 40.3501 66.3935 39.013 62.8036 37.906C62.8036 37.906 64.2175 38.9887 64.2504 45.9774L75.1997 45.9774Z" fill="#F3F3F3"/>
</g>
<g style="mix-blend-mode:soft-light">
<path d="M75.1997 45.9445C75.2 45.1872 75.0287 44.4396 74.6984 43.7578C74.3681 43.0759 73.8875 42.4775 73.2926 42.0073C69.8936 40.4318 66.3888 39.0943 62.8036 38.0044C62.8036 38.0044 64.1188 38.9887 64.1188 45.9445L75.1997 45.9445Z" fill="#F9F9F9"/>
</g>
<g style="mix-blend-mode:soft-light">
<path d="M75.1997 45.9445C75.1902 45.1982 75.0141 44.4635 74.6842 43.7938C74.3543 43.1241 73.8789 42.5361 73.2926 42.0728C69.8864 40.5237 66.3826 39.1975 62.8036 38.1028C62.8036 38.1028 63.9873 38.9887 64.0202 45.9445L75.1997 45.9445Z" fill="white"/>
</g>
<path style="mix-blend-mode:soft-light" d="M62.8035 46.2398C62.8035 46.2398 62.8035 38.5622 58.8249 36.1998L52.15 37.6763C52.4894 39.7501 52.698 41.8432 52.7748 43.9431L62.8035 46.2398Z" fill="url(#paint33_linear_40_1339)"/>
<path style="mix-blend-mode:hard-light" opacity="0.5" d="M66.0915 37.9715C62.8034 37.6763 59.9099 36.7904 59.9757 36.0029C60.0414 35.2155 62.8034 34.8218 66.3217 35.0514C69.8399 35.2811 72.5033 36.2326 72.4375 37.02C72.3718 37.8075 69.3796 38.3325 66.0915 37.9715Z" fill="url(#paint34_radial_40_1339)"/>
<path style="mix-blend-mode:hard-light" opacity="0.5" d="M65.7958 57.428C62.2447 57.6905 59.2196 57.428 59.2196 56.5093C59.2196 55.5906 62.0145 54.7375 65.5657 54.7375C69.1168 54.7375 72.1418 54.7375 72.1418 55.689C72.1418 56.6405 69.3798 57.1655 65.7958 57.428Z" fill="url(#paint35_radial_40_1339)"/>
<g style="mix-blend-mode:soft-light">
<path d="M16.7702 41.9745C16.6619 40.7878 16.9564 39.5993 17.6064 38.5996C18.2563 37.6 19.2241 36.8473 20.3542 36.4624C21.9654 35.7733 31.9283 34.8547 32.2571 35.6749C27.233 38.0985 22.0604 40.2025 16.7702 41.9745Z" fill="#808080"/>
<path d="M16.7701 41.9089C16.675 40.737 16.972 39.5667 17.6145 38.5812C18.2571 37.5956 19.209 36.8505 20.3213 36.4624C21.8995 35.8062 31.5994 34.8875 31.9282 35.675C27.0155 38.0769 21.9522 40.1592 16.7701 41.9089Z" fill="#868686"/>
<path d="M16.7703 41.8105C16.708 40.6652 17.0164 39.5302 17.6499 38.5731C18.2834 37.6161 19.2085 36.8876 20.2886 36.4952C21.8669 35.839 31.2708 34.9531 31.5996 35.7078C26.7941 38.0601 21.8406 40.0986 16.7703 41.8105Z" fill="#8C8C8C"/>
<path d="M16.77 41.6136C16.7221 40.4792 17.0372 39.359 17.6697 38.4152C18.3022 37.4714 19.2193 36.753 20.2883 36.3639C21.8337 35.7405 30.9417 34.8547 31.2705 35.6093C26.5693 37.9151 21.726 39.9206 16.77 41.6136Z" fill="#929292"/>
<path d="M16.9675 41.6136C16.9479 40.5017 17.2719 39.4108 17.8955 38.4892C18.5191 37.5675 19.412 36.8599 20.4529 36.4624C23.9445 35.5967 27.5601 35.3414 31.1392 35.7078C26.5575 38.0004 21.8223 39.9737 16.9675 41.6136Z" fill="#989898"/>
<path d="M17.0004 41.6136C16.9892 40.5202 17.3142 39.4497 17.9315 38.5462C18.5488 37.6428 19.4288 36.9498 20.4529 36.5608C23.8444 35.6981 27.3623 35.4426 30.8433 35.8062C26.3723 38.0661 21.7465 40.0068 17.0004 41.6136Z" fill="#9E9E9E"/>
<path d="M17.0659 41.6136C17.0572 40.555 17.3655 39.5178 17.9513 38.6351C18.5371 37.7524 19.3737 37.0644 20.354 36.6593C23.6402 35.8367 27.0451 35.5924 30.4155 35.9374C26.0967 38.1229 21.637 40.0191 17.0659 41.6136Z" fill="#A4A4A4"/>
<path d="M17.0988 41.4167C17.1053 40.3738 17.421 39.3561 18.0062 38.492C18.5913 37.6278 19.4197 36.9559 20.3869 36.5607C23.6025 35.7174 26.9444 35.4617 30.2512 35.8061C26.0077 37.9887 21.6122 39.8638 17.0988 41.4167Z" fill="#AAAAAA"/>
<path d="M17.1317 41.3183C17.1695 40.2954 17.4989 39.3044 18.0813 38.4617C18.6637 37.619 19.475 36.9596 20.4198 36.5608C23.52 35.7639 26.7369 35.5196 29.9224 35.839C25.7994 37.9764 21.5243 39.8078 17.1317 41.3183Z" fill="#B0B0B0"/>
<path d="M17.1645 41.2198C17.2317 40.217 17.5739 39.2519 18.1538 38.4302C18.7338 37.6085 19.529 36.9617 20.4526 36.5608C23.4367 35.8056 26.5276 35.5615 29.5935 35.8389C25.5985 37.9554 21.4427 39.7546 17.1645 41.2198Z" fill="#B6B6B6"/>
<path d="M17.1975 41.1543C17.2785 40.1677 17.6274 39.2218 18.2068 38.4182C18.7861 37.6147 19.5739 36.9839 20.4856 36.5936C23.3691 35.84 26.3626 35.5957 29.3306 35.8718C25.4291 37.9429 21.3726 39.709 17.1975 41.1543Z" fill="#BCBCBC"/>
<path d="M17.2304 41.0559C17.3384 40.0898 17.699 39.169 18.2761 38.3858C18.8532 37.6026 19.6265 36.9846 20.5185 36.5937C23.2943 35.8646 26.1774 35.6313 29.0347 35.9047C25.2501 37.9459 21.3017 39.669 17.2304 41.0559Z" fill="#C3C3C3"/>
<path d="M17.2961 40.9902C17.4053 40.0326 17.7673 39.121 18.3449 38.3486C18.9226 37.5762 19.6953 36.9706 20.5842 36.5936C23.2651 35.8994 26.045 35.6663 28.8044 35.9046C25.1125 37.9077 21.2638 39.6084 17.2961 40.9902Z" fill="#C9C9C9"/>
<path d="M17.3291 40.8917C17.4662 39.9596 17.8405 39.0782 18.4161 38.3315C18.9917 37.5848 19.7495 36.9977 20.6172 36.6264C23.2005 35.9505 25.88 35.7175 28.5415 35.9374C24.956 37.912 21.2042 39.5698 17.3291 40.8917Z" fill="#CFCFCF"/>
<path d="M17.362 40.8261C17.5125 39.9069 17.8926 39.0402 18.4673 38.3062C19.0419 37.5722 19.7927 36.9945 20.6501 36.6264C23.1226 35.958 25.6948 35.7358 28.2456 35.9702C24.7615 37.8923 21.1207 39.5168 17.362 40.8261Z" fill="#D5D5D5"/>
<path d="M17.3948 40.7277C17.5764 39.8324 17.9694 38.9932 18.5413 38.2799C19.1132 37.5666 19.8474 36.9998 20.6829 36.6264C23.0605 35.9925 25.5295 35.7705 27.9824 35.9702C24.6059 37.8748 21.0619 39.4672 17.3948 40.7277Z" fill="#DBDBDB"/>
<path d="M17.4278 40.6621C17.6235 39.7846 18.0231 38.9652 18.5942 38.27C19.1653 37.5747 19.892 37.023 20.7158 36.6592C22.9958 36.0437 25.3645 35.8217 27.7195 36.003C24.4401 37.8692 20.9949 39.4288 17.4278 40.6621Z" fill="#E1E1E1"/>
<path d="M17.4607 40.5636C17.6816 39.709 18.0916 38.9147 18.6606 38.239C19.2296 37.5633 19.9432 37.0235 20.7488 36.6592C22.8901 36.0841 25.1134 35.8733 27.325 36.0358C24.1945 37.866 20.8904 39.3827 17.4607 40.5636Z" fill="#E7E7E7"/>
<path d="M17.5264 40.498C17.7262 39.6745 18.1073 38.9057 18.6419 38.2474C19.1765 37.5891 19.8512 37.0578 20.6172 36.692C22.6873 36.0958 24.8476 35.8736 26.9961 36.0358C23.9864 37.8156 20.8159 39.3096 17.5264 40.498Z" fill="#EDEDED"/>
<path d="M17.5594 40.3997C17.7822 39.5986 18.173 38.8538 18.7058 38.2147C19.2386 37.5756 19.9014 37.0566 20.6502 36.6921C22.5948 36.1455 24.6187 35.9346 26.6345 36.0687C23.7637 37.8142 20.7231 39.2653 17.5594 40.3997Z" fill="#F3F3F3"/>
<path d="M17.5922 40.3012C18.0941 38.7425 19.1933 37.4451 20.6501 36.6921C22.5196 36.1647 24.4665 35.9649 26.4043 36.1015C23.6196 37.8003 20.6666 39.2077 17.5922 40.3012Z" fill="#F9F9F9"/>
<path d="M17.6249 40.2356C18.1471 38.7229 19.2294 37.4669 20.6499 36.7248C22.4168 36.1906 24.266 35.9794 26.1082 36.1015C23.4436 37.7907 20.5982 39.1773 17.6249 40.2356Z" fill="white"/>
</g>
<path style="mix-blend-mode:hard-light" d="M67.2752 41.0557C64.4474 40.1042 62.3431 38.8574 62.5732 38.234C62.8034 37.6106 65.2037 37.8731 68.0315 38.8246C70.8592 39.7761 72.9307 41.0229 72.6677 41.6135C72.4046 42.2041 70.0701 42.0072 67.2752 41.0557Z" fill="url(#paint36_radial_40_1339)"/>
<path style="mix-blend-mode:hard-light" d="M69.3795 46.2398C67.4564 46.3388 65.5282 46.2398 63.6254 45.9445C65.5322 45.6906 67.4575 45.6027 69.3795 45.682C71.2907 45.6033 73.205 45.6911 75.1008 45.9445C73.209 46.2389 71.2917 46.3379 69.3795 46.2398Z" fill="url(#paint37_radial_40_1339)"/>
<path style="mix-blend-mode:hard-light" d="M62.8035 36.4951C60.8067 36.6093 58.8069 36.3306 56.9178 35.6749C58.8295 35.1282 60.8359 34.994 62.8035 35.2811C64.8019 35.1241 66.8105 35.404 68.6892 36.1014C66.7711 36.6102 64.7725 36.7439 62.8035 36.4951Z" fill="url(#paint38_radial_40_1339)"/>
<g style="mix-blend-mode:soft-light">
<path d="M32.29 37.381C30.7551 36.6879 29.1266 36.2235 27.4565 36.0029C26.8646 36.0029 24.7274 36.856 24.826 37.1185C27.1508 37.5351 29.5021 37.7873 31.8625 37.8731C32.2571 37.8075 32.553 37.5778 32.29 37.381Z" fill="#808080"/>
</g>
<g style="mix-blend-mode:soft-light">
<path d="M32.2569 37.381C30.7356 36.6887 29.1163 36.235 27.4563 36.0358C26.8644 36.0358 24.76 36.856 24.8587 37.1185C27.1604 37.5364 29.4908 37.7777 31.8294 37.8403C32.2569 37.8075 32.5199 37.545 32.2569 37.381Z" fill="#868686"/>
</g>
<g style="mix-blend-mode:soft-light">
<path d="M32.2245 37.381C30.7049 36.7157 29.1005 36.263 27.4568 36.0358C26.8649 36.0358 24.8263 36.856 24.9249 37.1185C27.2042 37.5382 29.5129 37.7796 31.8299 37.8403C32.2245 37.8075 32.5204 37.545 32.2245 37.381Z" fill="#8C8C8C"/>
</g>
<g style="mix-blend-mode:soft-light">
<path d="M32.2242 37.4138C30.7156 36.7183 29.1067 36.2643 27.4565 36.0686C26.8646 36.0686 24.8917 36.8561 24.9575 37.1185C27.2283 37.5204 29.5247 37.7616 31.8296 37.8404C32.2242 37.7747 32.4872 37.5451 32.2242 37.4138Z" fill="#929292"/>
</g>
<g style="mix-blend-mode:soft-light">
<path d="M32.1912 37.4138C30.6844 36.7449 29.0903 36.292 27.4564 36.0686C26.8645 36.0686 24.9246 36.8561 25.0232 37.1185C27.2631 37.5044 29.5256 37.7455 31.7967 37.8404C32.1912 37.7747 32.4543 37.5451 32.1912 37.4138Z" fill="#989898"/>
</g>
<g style="mix-blend-mode:soft-light">
<path d="M32.1914 37.4137C30.6837 36.7536 29.0893 36.3117 27.4565 36.1013C26.8975 36.1013 24.9904 36.856 25.0562 37.1184C27.2836 37.509 29.5363 37.7393 31.7968 37.8075C32.1914 37.7746 32.4215 37.545 32.1914 37.4137Z" fill="#9E9E9E"/>
</g>
<g style="mix-blend-mode:soft-light">
<path d="M32.1585 37.4137C30.6542 36.7764 29.0739 36.3352 27.4565 36.1013C26.8976 36.1013 25.0233 36.856 25.122 37.1184C27.2945 37.5061 29.4923 37.7364 31.6982 37.8075C32.1914 37.7746 32.4216 37.545 32.1585 37.4137Z" fill="#A4A4A4"/>
</g>
<g style="mix-blend-mode:soft-light">
<path d="M32.1257 37.4139C30.6386 36.7668 29.0662 36.3359 27.4566 36.1343C26.8976 36.1343 25.0891 36.8561 25.1549 37.0858C27.3266 37.4848 29.5244 37.7261 31.7311 37.8076C32.1585 37.7748 32.3887 37.5451 32.1257 37.4139Z" fill="#AAAAAA"/>
</g>
<g style="mix-blend-mode:soft-light">
<path d="M32.1258 37.4139C30.6268 36.8011 29.059 36.3714 27.4567 36.1343C26.8977 36.1343 25.1221 36.8561 25.2208 37.0858C27.3917 37.4898 29.5899 37.7311 31.7969 37.8076C32.1586 37.742 32.3559 37.5451 32.1258 37.4139Z" fill="#B0B0B0"/>
</g>
<g style="mix-blend-mode:soft-light">
<path d="M32.0927 37.4139C30.6026 36.8086 29.0466 36.3791 27.4565 36.1343C26.8975 36.1343 25.1877 36.8561 25.2535 37.0858C27.4244 37.4896 29.6226 37.7309 31.8297 37.8076C32.1256 37.742 32.3229 37.5451 32.0927 37.4139Z" fill="#B6B6B6"/>
</g>
<g style="mix-blend-mode:soft-light">
<path d="M32.0927 37.4138C30.5967 36.8331 29.0423 36.4151 27.4565 36.167C26.9304 36.167 25.2206 36.856 25.3192 37.0857C27.4903 37.4834 29.6889 37.7138 31.8954 37.7747C32.1256 37.7419 32.3229 37.545 32.0927 37.4138Z" fill="#BCBCBC"/>
</g>
<g style="mix-blend-mode:soft-light">
<path d="M32.0598 37.4138C30.5728 36.8402 29.0301 36.4224 27.4565 36.167C26.9304 36.167 25.2864 36.856 25.3521 37.0857C27.4604 37.4589 29.5916 37.6891 31.731 37.7747C32.1256 37.7419 32.29 37.545 32.0598 37.4138Z" fill="#C3C3C3"/>
</g>
<g style="mix-blend-mode:soft-light">
<path d="M32.0271 37.4138C30.5517 36.8467 29.0194 36.4397 27.4566 36.1998C26.9305 36.1998 25.3194 36.856 25.418 37.0857C27.5039 37.4609 29.6133 37.6911 31.7311 37.7747C32.0928 37.7419 32.2572 37.5451 32.0271 37.4138Z" fill="#C9C9C9"/>
</g>
<g style="mix-blend-mode:soft-light">
<path d="M32.0268 37.4138C30.5452 36.8657 29.0149 36.4592 27.4563 36.1998C26.9302 36.1998 25.3848 36.856 25.4506 37.0857C27.5257 37.4586 29.6241 37.6888 31.7308 37.7747C32.0925 37.7091 32.2241 37.5451 32.0268 37.4138Z" fill="#CFCFCF"/>
</g>
<g style="mix-blend-mode:soft-light">
<path d="M31.994 37.4138C30.5206 36.8832 29.0018 36.4878 27.4564 36.2327C26.9303 36.2327 25.4507 36.8561 25.5164 37.0857C27.5676 37.4658 29.6455 37.6852 31.7309 37.7419C32.0597 37.7091 32.1913 37.5451 31.994 37.4138Z" fill="#D5D5D5"/>
</g>
<g style="mix-blend-mode:soft-light">
<path d="M31.9941 37.4466C30.5214 36.9061 29.0026 36.4997 27.4565 36.2327C26.9304 36.2327 25.4836 36.8561 25.5494 37.0857C27.5813 37.4462 29.6358 37.6655 31.6981 37.7419C32.0598 37.7091 32.1913 37.5451 31.9941 37.4466Z" fill="#DBDBDB"/>
</g>
<g style="mix-blend-mode:soft-light">
<path d="M31.961 37.4466C30.5013 36.9082 28.9927 36.5127 27.4563 36.2654C26.9631 36.2654 25.5492 36.856 25.615 37.0856C27.6268 37.4318 29.6585 37.651 31.698 37.7418C32.0268 37.709 32.1583 37.545 31.961 37.4466Z" fill="#E1E1E1"/>
</g>
<g style="mix-blend-mode:soft-light">
<path d="M31.9283 37.4466C30.4763 36.9197 28.9796 36.5244 27.4565 36.2654C26.9633 36.2654 25.5823 36.856 25.6481 37.0856C27.6488 37.4318 29.6696 37.651 31.6982 37.7418C32.027 37.6762 32.1256 37.545 31.9283 37.4466Z" fill="#E7E7E7"/>
</g>
<g style="mix-blend-mode:soft-light">
<path d="M31.9284 37.4466C30.4721 36.9414 28.9764 36.5573 27.4566 36.2982C26.9634 36.2982 25.6481 36.856 25.7139 37.0857C27.6815 37.432 29.6694 37.6512 31.6653 37.7419C32.027 37.6763 32.0928 37.545 31.9284 37.4466Z" fill="#EDEDED"/>
</g>
<g style="mix-blend-mode:soft-light">
<path d="M31.8954 37.4466C30.4456 36.9567 28.9621 36.5729 27.4564 36.2982C26.9632 36.2982 25.6809 36.856 25.7466 37.0529C27.6986 37.4298 29.6779 37.6493 31.6652 37.7091C31.994 37.6763 32.0926 37.545 31.8954 37.4466Z" fill="#F3F3F3"/>
</g>
<g style="mix-blend-mode:soft-light">
<path d="M31.8953 37.4466C30.4449 36.9673 28.9613 36.5944 27.4564 36.3311C26.9632 36.3311 25.7466 36.856 25.8123 37.0529C27.7443 37.4156 29.7006 37.6349 31.6651 37.7091C31.9939 37.6763 32.0597 37.545 31.8953 37.4466Z" fill="#F9F9F9"/>
</g>
<g style="mix-blend-mode:soft-light">
<path d="M31.8626 37.4466C30.4212 36.9749 28.949 36.6022 27.4566 36.3311C26.9634 36.3311 25.7796 36.856 25.8454 37.0529C27.7666 37.4138 29.7118 37.6331 31.6653 37.7091C31.9613 37.6763 32.027 37.545 31.8626 37.4466Z" fill="white"/>
</g>
<g style="mix-blend-mode:soft-light">
<path d="M32.2242 55.0985C30.6473 55.8786 28.963 56.4205 27.2263 56.7062C26.1936 56.4972 25.2382 56.0092 24.4644 55.2954C26.8107 54.8692 29.1838 54.6061 31.5666 54.5079C31.9941 54.5407 32.5202 54.9017 32.2242 55.0985Z" fill="#808080"/>
</g>
<g style="mix-blend-mode:soft-light">
<path d="M32.1914 55.0985C30.6328 55.8882 28.9559 56.4201 27.2264 56.6734C26.6346 56.6734 24.4644 55.5907 24.5302 55.2954C26.8564 54.8834 29.2068 54.6204 31.5667 54.5079C31.9613 54.5407 32.4545 54.9017 32.1914 55.0985Z" fill="#868686"/>
</g>
<g style="mix-blend-mode:soft-light">
<path d="M32.1585 55.0985C30.6029 55.8675 28.9403 56.3984 27.2263 56.6734C26.6345 56.6734 24.4972 55.5907 24.5959 55.3282C26.8868 54.9017 29.2053 54.6386 31.5337 54.5408C31.9283 54.7376 32.4215 54.9017 32.1585 55.0985Z" fill="#8C8C8C"/>
</g>
<g style="mix-blend-mode:soft-light">
<path d="M32.1258 55.0985C30.5806 55.8576 28.9286 56.3776 27.2265 56.6405C26.6346 56.6405 24.5631 55.5906 24.6289 55.3281C26.9136 54.9681 29.2211 54.7707 31.5339 54.7375C31.8956 54.7375 32.3888 54.9016 32.1258 55.0985Z" fill="#929292"/>
</g>
<g style="mix-blend-mode:soft-light">
<path d="M32.0928 55.0985C30.5591 55.8509 28.9173 56.3601 27.2264 56.6077C26.6674 56.6077 24.6288 55.5906 24.6946 55.3281C26.9572 54.968 29.2428 54.7706 31.5338 54.7375C31.8626 54.7375 32.3558 54.9344 32.0928 55.0985Z" fill="#989898"/>
</g>
<g style="mix-blend-mode:soft-light">
<path d="M32.0598 55.0985C30.5388 55.8471 28.9066 56.3457 27.2263 56.5749C26.6673 56.5749 24.6616 55.5906 24.7273 55.3281C26.9703 54.9881 29.2327 54.7908 31.5008 54.7375C31.8625 54.7375 32.2899 54.9344 32.0598 55.0985Z" fill="#9E9E9E"/>
</g>
<g style="mix-blend-mode:soft-light">
<path d="M32.027 55.0986C30.5123 55.8274 28.8924 56.3145 27.2264 56.5423C26.6674 56.5423 24.7275 55.5908 24.7932 55.3611C26.9666 54.9675 29.1633 54.7154 31.3694 54.6064C31.8297 54.7377 32.2572 54.9345 32.027 55.0986Z" fill="#A4A4A4"/>
</g>
<g style="mix-blend-mode:soft-light">
<path d="M31.9941 55.0986C30.4914 55.8221 28.8814 56.2985 27.2264 56.5095C26.6674 56.5095 24.7932 55.6236 24.8589 55.3611C27.0303 54.9603 29.2283 54.7191 31.4351 54.6393C31.7968 54.7377 32.2243 54.9346 31.9941 55.0986Z" fill="#AAAAAA"/>
</g>
<g style="mix-blend-mode:soft-light">
<path d="M31.9611 55.0985C30.4774 55.835 28.8741 56.3017 27.2263 56.4766C26.6673 56.4766 24.8259 55.6235 24.8917 55.361C27.066 54.9861 29.2629 54.7559 31.4679 54.672C31.7638 54.7376 32.1913 54.9345 31.9611 55.0985Z" fill="#B0B0B0"/>
</g>
<g style="mix-blend-mode:soft-light">
<path d="M31.9282 55.1313C30.4476 55.8339 28.8572 56.2778 27.2262 56.4438C26.7001 56.4438 24.8916 55.6235 24.9574 55.3938C27.1281 54.9881 29.3264 54.7468 31.5336 54.672C31.7309 54.7376 32.1255 54.9345 31.9282 55.1313Z" fill="#B6B6B6"/>
</g>
<g style="mix-blend-mode:soft-light">
<path d="M31.8955 55.1314C30.4167 55.8078 28.8415 56.2506 27.2264 56.4438C26.7003 56.4438 24.9576 55.6235 25.0234 55.3939C27.1944 54.9961 29.393 54.7658 31.5995 54.7048C31.7311 54.7376 32.0928 54.9345 31.8955 55.1314Z" fill="#BCBCBC"/>
</g>
<g style="mix-blend-mode:soft-light">
<path d="M31.8626 55.1314C30.3955 55.802 28.8303 56.234 27.2264 56.411C26.7003 56.411 24.9905 55.6235 25.0563 55.3939C27.2317 55.0268 29.4281 54.7967 31.6325 54.7048C31.6982 54.7376 32.0599 54.9673 31.8626 55.1314Z" fill="#C3C3C3"/>
</g>
<g style="mix-blend-mode:soft-light">
<path d="M31.8297 55.1313C30.3741 55.7959 28.8189 56.2171 27.2263 56.3781C26.7002 56.3781 25.0562 55.6562 25.1219 55.3938C27.2087 55.0303 29.3181 54.8111 31.4351 54.7375C31.6652 54.7375 32.0269 54.9672 31.8297 55.1313Z" fill="#C9C9C9"/>
</g>
<g style="mix-blend-mode:soft-light">
<path d="M31.797 55.1313C30.3474 55.7747 28.8048 56.1844 27.2265 56.3453C26.7004 56.3453 25.1221 55.6563 25.1879 55.4266C27.2499 55.0448 29.3388 54.8254 31.4353 54.7704C31.6326 54.7376 31.9614 54.9672 31.797 55.1313Z" fill="#CFCFCF"/>
</g>
<g style="mix-blend-mode:soft-light">
<path d="M31.7639 55.1313C30.3256 55.7681 28.793 56.167 27.2263 56.3124C26.7331 56.3124 25.1548 55.6562 25.2206 55.4266C27.2733 55.0517 29.3499 54.8215 31.4351 54.7375C31.6324 54.7375 31.9283 54.9672 31.7639 55.1313Z" fill="#D5D5D5"/>
</g>
<g style="mix-blend-mode:soft-light">
<path d="M31.7309 55.1313C30.3026 55.7578 28.7807 56.1457 27.2262 56.2796C26.733 56.2796 25.2205 55.6562 25.2863 55.4266C27.3061 55.0537 29.3498 54.8235 31.4021 54.7375C31.5994 54.7375 31.8953 54.9672 31.7309 55.1313Z" fill="#DBDBDB"/>
</g>
<g style="mix-blend-mode:soft-light">
<path d="M31.6982 55.1313C30.2811 55.7517 28.7693 56.1288 27.2264 56.2468C26.7331 56.2468 25.2864 55.6562 25.3193 55.4266C27.3304 55.0699 29.3621 54.8398 31.4022 54.7375C31.5666 54.7375 31.8626 54.9672 31.6982 55.1313Z" fill="#E1E1E1"/>
</g>
<g style="mix-blend-mode:soft-light">
<path d="M31.6653 55.1313C30.2603 55.7479 28.758 56.1143 27.2264 56.214C26.7332 56.214 25.3193 55.6562 25.385 55.4594C27.3706 55.0737 29.3816 54.8324 31.4022 54.7375C31.4022 54.7375 31.7968 54.9672 31.6653 55.1313Z" fill="#E7E7E7"/>
</g>
<g style="mix-blend-mode:soft-light">
<path d="M31.6323 55.1313C30.2351 55.7368 28.7455 56.1029 27.2263 56.214C26.7331 56.214 25.385 55.689 25.4507 55.4594C27.4034 55.0756 29.3815 54.8344 31.3693 54.7375C31.3693 54.7375 31.7639 54.9672 31.6323 55.1313Z" fill="#EDEDED"/>
</g>
<g style="mix-blend-mode:soft-light">
<path d="M31.5994 55.1313C30.208 55.7146 28.7312 56.0692 27.2262 56.1812C26.7659 56.1812 25.4506 55.689 25.4835 55.4594C27.4251 55.0756 29.3923 54.8344 31.3692 54.7375C31.3692 54.7375 31.7309 55 31.5994 55.1313Z" fill="#F3F3F3"/>
</g>
<g style="mix-blend-mode:soft-light">
<path d="M31.5665 55.1641C30.1795 55.7141 28.7153 56.0462 27.2263 56.1484C26.7659 56.1484 25.4836 55.6891 25.5493 55.4594C27.4751 55.1473 29.4192 54.9609 31.3693 54.9016C31.3693 54.9016 31.6652 55 31.5665 55.1641Z" fill="#F9F9F9"/>
</g>
<g style="mix-blend-mode:soft-light">
<path d="M31.5338 55.1641C30.1566 55.7037 28.7032 56.0247 27.2264 56.1156C26.7661 56.1156 25.5495 55.6891 25.6153 55.4922C27.5048 55.1522 29.4173 54.9548 31.3365 54.9016C31.3365 54.9016 31.6325 55 31.5338 55.1641Z" fill="white"/>
</g>
<mask id="mask0_40_1339" style="mask-type:luminance" maskUnits="userSpaceOnUse" x="52" y="36" width="11" height="21">
<path d="M62.8034 46.2398C62.8034 46.2398 62.8034 38.5622 58.8249 36.1998L52.15 37.6763C52.6613 40.5026 52.9254 43.3679 52.9392 46.2398C52.9216 49.0898 52.6575 51.933 52.15 54.7377L58.9893 56.2141C63.0665 53.9174 62.8034 46.2398 62.8034 46.2398Z" fill="white"/>
</mask>
<g mask="url(#mask0_40_1339)">
<path style="mix-blend-mode:hard-light" d="M55.5367 57.1328C50.5388 56.0501 46.5931 54.508 46.7904 53.6877C46.9877 52.8675 51.1636 53.0643 56.2272 54.1143C61.2909 55.1642 65.1708 56.7391 65.0064 57.3953C64.842 58.0515 60.5675 58.1828 55.5367 57.1328Z" fill="url(#paint39_radial_40_1339)"/>
<path style="mix-blend-mode:hard-light" d="M60.6331 45.0586C60.403 35.8717 62.0799 28.4894 64.3816 28.4894C66.6832 28.4894 68.7219 35.642 68.952 44.8946C69.1822 54.1471 67.5053 61.595 65.2036 61.6278C62.9019 61.6607 60.8633 54.2127 60.6331 45.0586Z" fill="url(#paint40_radial_40_1339)"/>
<path style="mix-blend-mode:hard-light" d="M54.4515 45.3211C53.4345 45.5268 52.3869 45.5304 51.3685 45.3317C50.3501 45.1329 49.3811 44.7357 48.5167 44.1627C47.6524 43.5898 46.9098 42.8524 46.3315 41.9927C45.7531 41.133 45.3503 40.168 45.1462 39.1528C44.9082 37.1242 45.4529 35.0814 46.6698 33.4391C47.8866 31.7969 49.6842 30.6784 51.6976 30.3108C53.7109 29.9433 55.789 30.3542 57.5097 31.4602C59.2304 32.5662 60.4647 34.2842 60.9619 36.2654C61.2858 38.3256 60.7846 40.4301 59.5664 42.1246C58.3482 43.819 56.511 44.9672 54.4515 45.3211Z" fill="url(#paint41_radial_40_1339)"/>
</g>
<path d="M31.468 54.7376C30.6727 52.0207 30.2849 49.2012 30.3172 46.371C30.2849 43.5407 30.6727 40.7212 31.468 38.0043L24.8918 37.3153C23.1395 40.0029 22.2663 43.1671 22.3929 46.371C22.2618 49.6371 23.1337 52.8653 24.8918 55.6235L31.468 54.7376Z" fill="url(#paint42_linear_40_1339)"/>
<path style="mix-blend-mode:soft-light" d="M30.3172 46.7647L30.3172 46.2397C30.2849 43.4095 30.6727 40.59 31.468 37.8731L24.8918 37.1841C23.1395 39.8717 22.2663 43.0358 22.3929 46.2397L22.3929 47.5193L30.3172 46.7647Z" fill="url(#paint43_linear_40_1339)"/>
<mask id="mask1_40_1339" style="mask-type:luminance" maskUnits="userSpaceOnUse" x="22" y="37" width="10" height="19">
<path d="M31.468 54.7376C30.6727 52.0207 30.2849 49.2012 30.3172 46.371C30.2849 43.5407 30.6727 40.7212 31.468 38.0043L24.8918 37.3153C23.1395 40.0029 22.2663 43.1671 22.3929 46.371C22.2618 49.6371 23.1337 52.8653 24.8918 55.6235L31.468 54.7376Z" fill="white"/>
</mask>
<g mask="url(#mask1_40_1339)">
<path style="mix-blend-mode:hard-light" d="M29.2979 56.8046C33.7369 56.4109 37.288 55.525 37.2222 54.7704C37.1565 54.0157 33.5067 53.7532 29.0678 54.147C24.6288 54.5407 21.0777 55.4594 21.1435 56.1812C21.2092 56.903 24.859 57.1983 29.2979 56.8046Z" fill="url(#paint44_radial_40_1339)"/>
<path style="mix-blend-mode:hard-light" d="M24.2342 44.4351C24.4644 36.4622 22.9847 29.933 20.9461 29.9001C18.9075 29.8673 17.1648 36.2654 16.9675 44.2383C16.7702 52.2112 18.217 58.7405 20.2556 58.7733C22.2942 58.8061 24.0369 52.4081 24.2342 44.4351Z" fill="url(#paint45_radial_40_1339)"/>
<path style="mix-blend-mode:hard-light" d="M32.1257 43.1555C33.9088 43.5136 35.7614 43.1518 37.2776 42.1493C38.7938 41.1469 39.8498 39.5855 40.2144 37.8074C40.4178 36.047 39.9434 34.2753 38.8873 32.8507C37.8311 31.4262 36.2721 30.4551 34.5256 30.1341C32.7792 29.8131 30.9757 30.166 29.4802 31.1216C27.9847 32.0771 26.9088 33.5639 26.4702 35.281C26.1756 37.0733 26.6056 38.9091 27.6659 40.3854C28.7262 41.8617 30.3301 42.8579 32.1257 43.1555Z" fill="url(#paint46_radial_40_1339)"/>
</g>
<path d="M74.6735 50.2754C75.0368 48.9725 75.2139 47.6249 75.1996 46.2725C75.2139 44.9202 75.0368 43.5726 74.6735 42.2697L73.8186 41.3838C74.2673 42.9632 74.4887 44.5982 74.4763 46.2397C74.4887 47.8813 74.2673 49.5163 73.8186 51.0957L74.6735 50.2754Z" fill="#0E0E0E"/>
<path d="M73.8844 41.3511C74.3979 42.9276 74.6207 44.584 74.542 46.2398C74.6241 47.885 74.4011 49.5313 73.8844 51.0958L74.0817 50.8661C74.4744 49.3559 74.6624 47.7999 74.6406 46.2398C74.6612 44.6818 74.4844 43.1274 74.1146 41.6136L73.8844 41.3511Z" fill="url(#paint47_linear_40_1339)"/>
<path d="M74.3447 41.876C74.7571 43.3376 74.9456 44.8531 74.9037 46.371C74.9444 47.8996 74.756 49.4257 74.3447 50.8988C74.7068 49.4727 74.8837 48.0061 74.8708 46.535C74.9099 44.9653 74.7329 43.3977 74.3447 41.876Z" fill="url(#paint48_linear_40_1339)"/>
<path d="M74.5749 42.1385C74.8992 43.4803 75.032 44.861 74.9695 46.2398C74.9952 47.6663 74.8293 49.0898 74.4763 50.4724C74.8321 49.1232 75.009 47.7333 75.0024 46.3383C75.0514 44.9255 74.9076 43.5126 74.5749 42.1385Z" fill="url(#paint49_linear_40_1339)"/>
<path d="M75.1996 46.2398C75.2105 47.5919 75.0334 48.9391 74.6735 50.2427L73.8515 51.1614C74.3087 49.5942 74.5411 47.9704 74.542 46.3382C74.5411 44.7061 74.3087 43.0823 73.8515 41.5151L74.6735 42.4338C75.0334 43.7374 75.2105 45.0845 75.1996 46.4367L75.1996 46.2398ZM75.1996 46.2398C75.2139 44.8875 75.0368 43.5399 74.6735 42.237L73.8186 41.3511C74.2709 42.9185 74.4924 44.5432 74.4763 46.1742C74.4924 47.8052 74.2709 49.4299 73.8186 50.9973L74.6735 50.1114C75.0368 48.8085 75.2139 47.4609 75.1996 46.1086L75.1996 46.2398Z" fill="#4D4D4D"/>
<path d="M57.74 35.7404C55.3555 36.3551 52.9411 36.8479 50.5062 37.2168C48.5991 37.2168 44.4561 37.2168 43.4697 37.2168L44.8507 35.6091L57.74 35.6091L57.74 35.7404ZM58.562 35.7404L44.8178 35.7404L43.2395 37.5121C43.2395 37.5121 48.336 37.5121 50.5062 37.5121C52.6763 37.5121 58.562 35.8388 58.562 35.8388L58.562 35.7404Z" fill="url(#paint50_linear_40_1339)"/>
<path d="M42.5815 35.7405L41.7595 37.2826C41.1019 37.2826 35.3477 37.2826 33.1776 36.9873C32.0384 36.8635 30.9275 36.5531 29.8895 36.0686L31.3691 35.7405L42.5815 35.7405ZM42.7459 35.7405L31.2047 35.7405L29.462 36.1014C30.6315 36.6804 31.9069 37.0153 33.2105 37.0857C35.5121 37.3154 41.8581 37.381 41.8581 37.381L42.7788 35.6421L42.7459 35.7405Z" fill="url(#paint51_linear_40_1339)"/>
<path d="M57.74 56.7391L44.8507 56.7391L43.4697 55.1314C44.4561 55.1314 48.5991 55.1314 50.5062 55.1314C52.9438 55.4846 55.3591 55.9776 57.74 56.6079L57.74 56.7391ZM58.562 56.7391C58.562 56.7391 52.6763 55.2626 50.5062 55.0658C48.336 54.8689 43.2395 55.0658 43.2395 55.0658L44.8178 56.8703L58.562 56.8703L58.562 56.7391Z" fill="url(#paint52_linear_40_1339)"/>
<path d="M42.7461 56.8376L41.8254 55.0986C41.8254 55.0986 35.4794 55.0986 33.1777 55.3939C31.8784 55.4994 30.6142 55.8678 29.4622 56.4767L31.2049 56.8376L42.7461 56.8376Z" fill="url(#paint53_linear_40_1339)"/>
<path d="M58.9893 36.1998L60.469 36.0358C60.469 36.0358 63.7571 38.6934 63.7571 46.2398C63.7571 53.7862 60.469 56.4438 60.469 56.4438L58.9893 56.4438C58.9893 56.4438 62.8035 54.1799 62.8035 46.2398C62.8035 38.2997 58.9893 36.1998 58.9893 36.1998Z" fill="#010101"/>
<path d="M42.5817 56.7064L31.2378 56.7064L29.7581 56.4111C30.7871 55.8972 31.9014 55.5748 33.0462 55.4596C35.2164 55.2299 40.9705 55.1643 41.6281 55.1643L42.4502 56.7064L42.5817 56.7064ZM42.7461 56.7064L41.8254 54.9674C41.8254 54.9674 35.4794 54.9674 33.1777 55.2627C31.8784 55.3682 30.6142 55.7366 29.4622 56.3454L31.2049 56.7064L42.7461 56.7064Z" fill="url(#paint54_linear_40_1339)"/>
<path d="M51.065 39.0215C50.769 39.0215 50.506 39.0215 50.506 38.6278C50.506 38.234 50.769 38.3325 51.065 38.3325C51.3609 38.3325 51.5911 38.3325 51.5911 38.7262C51.5911 39.1199 51.3609 39.0215 51.065 39.0215Z" fill="url(#paint55_linear_40_1339)"/>
<path d="M50.3417 38.6278C50.3228 38.5959 50.3132 38.5593 50.3142 38.5222C50.3152 38.4851 50.3267 38.4491 50.3473 38.4182C50.3679 38.3874 50.3968 38.3629 50.4307 38.3478C50.4647 38.3326 50.5022 38.3273 50.539 38.3325L51.0322 38.3325C51.0845 38.3325 51.1347 38.3532 51.1717 38.3902C51.2087 38.4271 51.2295 38.4771 51.2295 38.5294C51.2295 38.5816 51.2087 38.6316 51.1717 38.6686C51.1347 38.7055 51.0845 38.7262 51.0322 38.7262L50.539 38.7262C50.5 38.7313 50.4604 38.7246 50.4253 38.7071C50.3901 38.6896 50.361 38.6619 50.3417 38.6278Z" fill="url(#paint56_linear_40_1339)"/>
<path d="M50.3086 38.6606C50.3086 38.7693 50.4264 38.8575 50.5717 38.8575C50.7169 38.8575 50.8347 38.7693 50.8347 38.6606C50.8347 38.5519 50.7169 38.4637 50.5717 38.4637C50.4264 38.4637 50.3086 38.5519 50.3086 38.6606Z" fill="url(#paint57_linear_40_1339)"/>
<path style="mix-blend-mode:multiply" d="M58.2002 55.033L17.6251 37.906C16.4337 40.515 15.9139 43.3796 16.1126 46.2398C16.1126 46.2398 15.8167 53.0316 17.9539 54.9018C19.428 55.9603 21.1481 56.6266 22.9518 56.8376C25.2566 57.2454 27.5848 57.5084 29.9226 57.625L56.0629 57.625L58.2002 55.033Z" fill="url(#paint58_linear_40_1339)"/>
<path d="M73.5886 40.3667C73.4002 39.3686 73.0326 38.4127 72.5036 37.545C72.0756 36.8245 71.4474 36.2432 70.6951 35.8717C71.2135 36.6641 71.6856 37.4857 72.109 38.3325C72.3911 38.842 72.5803 39.3975 72.668 39.973L73.5886 40.3667Z" fill="url(#paint59_linear_40_1339)"/>
<path d="M72.6678 39.973L73.0952 40.1699C73.0292 39.4605 72.8283 38.7701 72.5034 38.1356C72.0901 37.257 71.4696 36.4915 70.6949 35.9045C71.2122 36.6863 71.6843 37.497 72.1088 38.3325C72.3909 38.8421 72.5801 39.3975 72.6678 39.973Z" fill="url(#paint60_linear_40_1339)"/>
<path d="M73.3582 40.137C73.3582 40.137 73.128 39.9401 73.0622 39.612C72.9965 39.2839 73.0622 39.0543 73.0622 39.0215C73.0622 38.9886 73.2595 39.2511 73.3582 39.5464C73.4568 39.8417 73.4239 40.137 73.3582 40.137Z" fill="url(#paint61_linear_40_1339)"/>
<path d="M72.9967 38.8574C72.9967 38.8574 72.7994 38.8574 72.7008 38.4965C72.6021 38.1355 72.6679 38.0371 72.6679 38.0043C72.6679 37.9715 72.8652 38.3324 72.9309 38.3324C72.9967 38.3324 73.0624 38.8246 72.9967 38.8574Z" fill="url(#paint62_linear_40_1339)"/>
<path style="mix-blend-mode:hard-light" d="M73.3256 40.1698C73.3256 40.1698 72.8981 39.7433 72.6679 39.0871C72.4378 38.4309 72.4049 37.8731 72.6679 37.8403C72.931 37.8075 73.0954 38.2668 73.3256 38.923C73.5557 39.5792 73.4571 40.137 73.3256 40.1698Z" fill="url(#paint63_radial_40_1339)"/>
<path d="M70.6949 35.8717C71.2907 36.6322 71.7981 37.4578 72.2074 38.3325C72.4316 38.8684 72.5863 39.4308 72.6677 40.0058C72.556 39.4215 72.3565 38.8573 72.0759 38.3325C71.6778 37.4789 71.2162 36.6564 70.6949 35.8717Z" fill="url(#paint64_linear_40_1339)"/>
<path d="M73.5886 52.1129C73.3948 53.1095 73.0275 54.0645 72.5036 54.9346C72.0756 55.6551 71.4474 56.2364 70.6951 56.6079C71.2124 55.8262 71.6844 55.0155 72.109 54.18C72.3948 53.6603 72.5841 53.0935 72.668 52.5066L73.5886 52.1129Z" fill="url(#paint65_linear_40_1339)"/>
<path d="M72.6678 52.5064L73.0952 52.3096C73.0292 53.019 72.8283 53.7094 72.5034 54.3438C72.0816 55.2171 71.4625 55.9808 70.6949 56.5749C71.2122 55.7931 71.6843 54.9825 72.1088 54.1469C72.3909 53.6374 72.5801 53.082 72.6678 52.5064Z" fill="url(#paint66_linear_40_1339)"/>
<path d="M73.3582 52.3425C73.3582 52.3425 73.128 52.5394 73.0622 52.8347C72.9965 53.13 73.0622 53.4253 73.0622 53.4581C73.0622 53.4909 73.2595 53.2284 73.3582 52.9331C73.4568 52.6378 73.4239 52.3425 73.3582 52.3425Z" fill="url(#paint67_linear_40_1339)"/>
<path d="M72.9966 53.6221C72.9966 53.6221 72.7993 53.6221 72.7007 53.983C72.6021 54.3439 72.7007 54.4423 72.7007 54.4751C72.7007 54.508 72.898 54.3111 72.9637 54.0814C73.0295 53.8517 73.0624 53.6221 72.9966 53.6221Z" fill="url(#paint68_linear_40_1339)"/>
<path style="mix-blend-mode:hard-light" d="M73.3256 52.3096C73.3256 52.3096 72.8981 52.7361 72.6679 53.3923C72.4378 54.0485 72.4049 54.7375 72.6679 54.7375C72.931 54.7375 73.0954 54.311 73.3256 53.6548C73.5557 52.9986 73.4571 52.3424 73.3256 52.3096Z" fill="url(#paint69_radial_40_1339)"/>
<path d="M70.6949 56.6079C71.2928 55.837 71.8003 55.0004 72.2074 54.1143C72.4289 53.5888 72.5836 53.0376 72.6677 52.4738C72.5706 53.0321 72.3934 53.5735 72.1416 54.0815C71.7254 54.9596 71.2417 55.8042 70.6949 56.6079Z" fill="url(#paint70_linear_40_1339)"/>
<g style="mix-blend-mode:soft-light">
<path d="M73.0625 40.7604C72.703 38.7611 71.6706 36.9439 70.1361 35.6092C66.0931 34.9415 61.9775 34.8311 57.9044 35.2811C62.8348 37.4284 67.8978 39.2586 73.0625 40.7604Z" fill="#808080"/>
<path d="M72.9966 40.6948C72.6796 38.7141 71.6653 36.9109 70.1359 35.6092C66.2004 34.9744 62.1977 34.864 58.233 35.2811C63.032 37.4016 67.9635 39.2099 72.9966 40.6948Z" fill="#868686"/>
<path d="M72.9639 40.5964C72.623 38.661 71.6103 36.907 70.1032 35.642C66.2795 34.9984 62.3857 34.877 58.5291 35.2811C63.2142 37.3778 68.0369 39.1537 72.9639 40.5964Z" fill="#8C8C8C"/>
<path d="M72.9309 40.5307C72.5716 38.6282 71.5744 36.9042 70.1031 35.642C66.3776 35.0073 62.5813 34.8969 58.825 35.3139C63.4056 37.3636 68.118 39.1064 72.9309 40.5307Z" fill="#929292"/>
<path d="M72.865 40.4652C72.5393 38.5764 71.5481 36.8659 70.0701 35.642C66.4646 35.024 62.7899 34.9135 59.1536 35.3139C63.5947 37.3561 68.1769 39.0776 72.865 40.4652Z" fill="#989898"/>
<path d="M72.668 40.3995C72.3291 38.5509 71.3518 36.8791 69.906 35.6748C66.4748 35.0859 62.9795 34.9645 59.5156 35.3139C63.7708 37.324 68.1665 39.0236 72.668 40.3995Z" fill="#9E9E9E"/>
<path d="M72.668 40.3338C72.3109 38.5181 71.3491 36.8762 69.9389 35.6748C66.5413 35.0821 63.078 34.9607 59.6471 35.3138C63.8519 37.318 68.205 38.9963 72.668 40.3338Z" fill="#A4A4A4"/>
<path d="M72.668 40.2683C72.3651 38.4834 71.432 36.8656 70.0375 35.7077C66.7842 35.1149 63.4635 34.9824 60.1732 35.314C64.2066 37.2782 68.3835 38.9344 72.668 40.2683Z" fill="#AAAAAA"/>
<path d="M72.668 40.2026C72.3398 38.4453 71.41 36.8564 70.0375 35.7076C66.859 35.1395 63.6177 35.007 60.4034 35.3139C64.3543 37.2674 68.4556 38.9022 72.668 40.2026Z" fill="#B0B0B0"/>
<path d="M72.668 40.137C72.336 38.3995 71.4054 36.8325 70.0375 35.7076C66.9574 35.1483 63.8135 35.0267 60.6993 35.3467C64.5564 37.2551 68.5584 38.8568 72.668 40.137Z" fill="#B6B6B6"/>
<path d="M72.668 40.0714C72.3498 38.3639 71.4281 36.8271 70.0704 35.7404C67.1025 35.1722 64.0673 35.0396 61.061 35.3467C64.7913 37.2415 68.6738 38.8219 72.668 40.0714Z" fill="#BCBCBC"/>
<path d="M72.668 40.0058C72.3548 38.3226 71.4443 36.8083 70.1033 35.7405C67.2442 35.1898 64.32 35.0572 61.4227 35.3467C65.0336 37.2116 68.7953 38.7702 72.668 40.0058Z" fill="#C3C3C3"/>
<path d="M72.668 39.9401C72.3381 38.2894 71.443 36.8046 70.1361 35.7404C67.3748 35.2069 64.5508 35.0743 61.7515 35.3467C65.256 37.1781 68.9075 38.7146 72.668 39.9401Z" fill="#C9C9C9"/>
<path d="M72.4707 39.8745C72.1573 38.2527 71.2704 36.7972 69.9718 35.7732C67.3339 35.231 64.6294 35.0872 61.9488 35.3467C65.3186 37.1562 68.839 38.6711 72.4707 39.8745Z" fill="#CFCFCF"/>
<path d="M72.4377 39.8089C72.121 38.2145 71.247 36.7843 69.9717 35.7732C67.4316 35.2483 64.8273 35.1045 62.2447 35.3466C65.5025 37.1337 68.9138 38.627 72.4377 39.8089Z" fill="#D5D5D5"/>
<path d="M72.4048 39.7433C72.0771 38.1794 71.2175 36.7768 69.9716 35.7732C67.5381 35.2834 65.0473 35.1398 62.5734 35.3467C65.7044 37.1181 68.9961 38.5902 72.4048 39.7433Z" fill="#DBDBDB"/>
<path d="M72.3391 39.6448C72.0204 38.1217 71.1697 36.7612 69.9388 35.806C67.5972 35.2939 65.1898 35.15 62.8036 35.3795C65.8331 37.1121 69.0272 38.5409 72.3391 39.6448Z" fill="#E1E1E1"/>
<path d="M72.3062 39.5792C71.9817 38.0846 71.1444 36.7501 69.9387 35.806C67.7165 35.3161 65.4316 35.1722 63.1653 35.3795C66.0608 37.0867 69.1237 38.494 72.3062 39.5792Z" fill="#E7E7E7"/>
<path d="M72.2735 39.5137C72.438 39.5137 71.1556 36.2326 69.9061 35.8389C67.7546 35.3237 65.5324 35.1685 63.3299 35.3796C66.1504 37.0804 69.1496 38.4667 72.2735 39.5137Z" fill="#EDEDED"/>
<path d="M72.2402 39.448C72.2402 39.448 71.1223 36.1669 69.9057 35.8388C67.9051 35.3586 65.8399 35.2035 63.7898 35.3795C66.4451 37.0471 69.2796 38.4118 72.2402 39.448Z" fill="#F3F3F3"/>
<path d="M72.1748 39.3824C72.1748 39.3824 71.0897 36.1014 69.906 35.8389C68.0142 35.3769 66.0602 35.2218 64.119 35.3796C66.6376 37.0245 69.3415 38.368 72.1748 39.3824Z" fill="#F9F9F9"/>
<path d="M72.1418 39.3168C72.1418 39.3168 71.0568 36.2654 69.8731 36.0358C68.1035 35.5129 66.2583 35.291 64.4148 35.3796C66.8274 36.9888 69.4208 38.3103 72.1418 39.3168Z" fill="white"/>
</g>
<g style="mix-blend-mode:soft-light">
<path d="M73.5886 51.4567C73.1937 53.5645 72.1061 55.481 70.4978 56.9032C66.5591 57.5988 62.5448 57.7643 58.562 57.3953C63.4329 55.0843 68.4529 53.1003 73.5886 51.4567Z" fill="#808080"/>
<path d="M73.5227 51.4567C73.1465 53.5283 72.0806 55.4127 70.4977 56.8048C66.6565 57.481 62.7425 57.6465 58.8578 57.2969C63.6155 55.0383 68.5139 53.0875 73.5227 51.4567Z" fill="#868686"/>
<path d="M73.49 51.4567C73.0979 53.4947 72.0329 55.3429 70.4649 56.7063C66.7347 57.3844 62.9291 57.55 59.1539 57.1985C63.7986 54.9669 68.588 53.0487 73.49 51.4567Z" fill="#8C8C8C"/>
<path d="M73.4241 51.4567C73.0455 53.4659 72.0037 55.2909 70.4648 56.6407C66.8599 57.3404 63.1767 57.5501 59.5154 57.2641C64.0127 55.0123 68.6599 53.0719 73.4241 51.4567Z" fill="#929292"/>
<path d="M73.3914 51.6863C72.9967 53.6449 71.9686 55.42 70.465 56.7391C66.9322 57.3999 63.3244 57.5655 59.7458 57.2312C64.158 55.0651 68.7179 53.2122 73.3914 51.6863Z" fill="#989898"/>
<path d="M73.3254 51.752C72.9497 53.6915 71.9304 55.4483 70.4319 56.7391C67.0081 57.3834 63.5111 57.549 60.0415 57.2313C64.3336 55.0926 68.7728 53.2615 73.3254 51.752Z" fill="#9E9E9E"/>
<path d="M73.2925 51.8503C72.8892 53.7439 71.8863 55.4579 70.4318 56.7391C67.1039 57.35 63.7092 57.5155 60.3374 57.2312C64.5123 55.1114 68.8432 53.3125 73.2925 51.8503Z" fill="#A4A4A4"/>
<path d="M73.2271 51.916C72.863 53.7814 71.8782 55.4695 70.4322 56.7063C67.1845 57.3399 63.8627 57.5056 60.5679 57.1985C64.6511 55.1282 68.8824 53.3626 73.2271 51.916Z" fill="#AAAAAA"/>
<path d="M73.1611 52.0144C72.7974 53.8445 71.8239 55.4981 70.3991 56.7063C67.2819 57.317 64.0934 57.4827 60.9294 57.1984C64.8628 55.1503 68.9529 53.4169 73.1611 52.0144Z" fill="#B0B0B0"/>
<path d="M73.1282 52.08C72.7671 53.8757 71.8047 55.4956 70.3991 56.6734C67.3815 57.283 64.2909 57.4488 61.2253 57.1656C65.0515 55.1581 69.0317 53.4575 73.1282 52.08Z" fill="#B6B6B6"/>
<path d="M73.0625 52.1785C72.7031 53.9317 71.7655 55.5143 70.3991 56.6735C67.4794 57.2659 64.4888 57.4317 61.5213 57.1656C65.2214 55.1833 69.0821 53.5151 73.0625 52.1785Z" fill="#BCBCBC"/>
<path d="M73.0295 52.2441C72.659 53.9746 71.722 55.5329 70.3662 56.6735C67.5539 57.2394 64.6741 57.3941 61.8171 57.1329C65.4195 55.2106 69.1686 53.5759 73.0295 52.2441Z" fill="#C3C3C3"/>
<path d="M72.9639 52.3425C72.6099 54.0271 71.6942 55.5422 70.3663 56.6407C67.6555 57.2165 64.8734 57.3824 62.1132 57.1328C65.5827 55.2224 69.2135 53.6195 72.9639 52.3425Z" fill="#C9C9C9"/>
<path d="M72.9309 52.4082C72.5817 54.0684 71.6773 55.5609 70.3662 56.6407C67.7532 57.1993 65.0712 57.3652 62.409 57.1329C65.77 55.2519 69.291 53.6709 72.9309 52.4082Z" fill="#CFCFCF"/>
<path d="M72.8652 52.5066C72.5163 54.1315 71.6234 55.5896 70.3334 56.6407C67.86 57.1638 65.3225 57.3186 62.8037 57.1C66.0077 55.2613 69.3761 53.7235 72.8652 52.5066Z" fill="#D5D5D5"/>
<path d="M72.668 52.5721C72.3269 54.1649 71.4439 55.5908 70.169 56.6078C67.765 57.1486 65.2915 57.3146 62.8366 57.1C65.9666 55.2911 69.2578 53.7754 72.668 52.5721Z" fill="#DBDBDB"/>
<path d="M72.668 52.6707C72.335 54.2314 71.4619 55.6253 70.2019 56.6079C67.9055 57.1237 65.5425 57.2786 63.1983 57.0672C66.1994 55.2892 69.3719 53.8163 72.668 52.6707Z" fill="#E1E1E1"/>
<path d="M72.6679 52.769C72.8652 52.769 71.5171 56.0501 70.2676 56.575C68.1152 57.0835 65.8958 57.2496 63.6914 57.0672C66.5306 55.336 69.5381 53.896 72.6679 52.769Z" fill="#E7E7E7"/>
<path d="M72.668 52.8347C72.668 52.8347 71.5171 56.1158 70.3005 56.5751C68.2009 57.0639 66.0387 57.2299 63.8888 57.0673C66.6537 55.3447 69.5972 53.9256 72.668 52.8347Z" fill="#EDEDED"/>
<path d="M72.668 52.9331C72.668 52.9331 71.55 56.2141 70.3334 56.5751C68.3228 57.0623 66.2457 57.2175 64.1847 57.0344C66.8515 55.358 69.6967 53.9824 72.668 52.9331Z" fill="#F3F3F3"/>
<path d="M72.668 52.9988C72.668 52.9988 71.55 56.2798 70.3663 56.5423C68.4471 57.0412 66.4563 57.2077 64.4806 57.0345C67.044 55.3776 69.7915 54.0233 72.668 52.9988Z" fill="#F9F9F9"/>
<path d="M72.5037 53.0972C72.5037 53.0972 71.4186 56.1485 70.2678 56.5423C68.4763 57.0025 66.6199 57.1578 64.7766 57.0016C67.1904 55.4029 69.7838 54.0925 72.5037 53.0972Z" fill="white"/>
</g>
<path d="M48.895 35.0514C48.6977 34.8545 48.1716 34.7889 47.251 34.7889C46.5589 34.7356 45.8655 34.8717 45.2452 35.1826L45.2452 35.0514L46.3632 35.0514C46.6469 35.0142 46.9343 35.0142 47.2181 35.0514C47.5243 35.0233 47.8325 35.0233 48.1388 35.0514L48.895 35.0514Z" fill="url(#paint71_linear_40_1339)"/>
<path d="M48.1714 35.0513C47.8756 34.9466 47.5646 34.8912 47.2507 34.8873C46.9456 34.8647 46.6398 34.9212 46.3629 35.0513C46.6355 35.0119 46.9124 35.0119 47.185 35.0513C47.5133 35.0267 47.843 35.0267 48.1714 35.0513Z" fill="#252125"/>
<path d="M48.895 57.3626C48.6977 57.5594 48.1716 57.625 47.251 57.625C46.5589 57.6784 45.8655 57.5422 45.2452 57.2313L46.3632 57.2313C46.6469 57.2684 46.9343 57.2684 47.2181 57.2313C47.5243 57.2594 47.8325 57.2594 48.1388 57.2313L48.895 57.3626Z" fill="url(#paint72_linear_40_1339)"/>
<path d="M48.1714 57.3952C47.8665 57.4448 47.5556 57.4448 47.2507 57.3952C46.9568 57.4595 46.6513 57.4483 46.3629 57.3624C46.6355 57.4019 46.9124 57.4019 47.185 57.3624C47.5125 57.398 47.8422 57.409 48.1714 57.3952Z" fill="#252125"/>
<path d="M35.6438 35.0514C35.4794 34.8545 34.9204 34.7889 33.9998 34.7889C33.3077 34.7356 32.6142 34.8717 31.994 35.1826L31.994 35.0514L33.2106 35.0514C33.5052 35.0113 33.8038 35.0113 34.0984 35.0514C34.3937 35.0247 34.6909 35.0247 34.9862 35.0514L35.6438 35.0514Z" fill="url(#paint73_linear_40_1339)"/>
<path d="M34.9207 35.0515C34.626 34.9424 34.3142 34.8868 34 34.8875C33.7278 34.881 33.4578 34.9372 33.2108 35.0515C33.4943 35.0102 33.7823 35.0102 34.0657 35.0515C34.3504 35.0319 34.636 35.0319 34.9207 35.0515Z" fill="#252125"/>
<path d="M35.6438 57.3626C35.4794 57.5594 34.9204 57.625 33.9998 57.625C33.3077 57.6784 32.6142 57.5422 31.994 57.2313L33.2106 57.2313C33.5052 57.2714 33.8038 57.2714 34.0984 57.2313C34.3937 57.258 34.6909 57.258 34.9862 57.2313L35.6438 57.3626Z" fill="url(#paint74_linear_40_1339)"/>
<path d="M34.9207 57.3952C34.6162 57.4492 34.3045 57.4492 34 57.3952C33.7378 57.4436 33.4681 57.4323 33.2108 57.3624C33.4943 57.4037 33.7823 57.4037 34.0657 57.3624C34.3496 57.3929 34.6353 57.4039 34.9207 57.3952Z" fill="#252125"/>
<path d="M63.0899 43.6784L62.9827 41.1871L62.8513 41.1928L62.9585 43.6841L63.0899 43.6784Z" fill="url(#paint75_linear_40_1339)"/>
<path d="M62.0144 40.1042C62.4626 41.2319 62.8146 42.3954 63.0666 43.5821C63.2066 44.7251 63.2725 45.8758 63.2639 47.0272C63.1854 45.8701 63.0316 44.7193 62.8036 43.5821C62.608 42.4672 62.3221 41.3699 61.9487 40.3011L62.0144 40.1042Z" fill="url(#paint76_linear_40_1339)"/>
<path d="M63.1119 43.9525L63.0403 43.2672L62.8441 43.2876L62.9156 43.9729L63.1119 43.9525Z" fill="url(#paint77_linear_40_1339)"/>
<path d="M62.5734 39.3496L62.8365 41.3182L62.968 41.3182L62.968 40.4324L62.5734 39.3496Z" fill="#231E22"/>
<path d="M63.2415 49.7501L63.1206 49.6985L62.137 51.9908L62.2579 52.0424L63.2415 49.7501Z" fill="url(#paint78_linear_40_1339)"/>
<path d="M60.7977 55.0986C61.2963 54.03 61.7354 52.9346 62.113 51.8176C62.4384 50.6235 62.6692 49.4058 62.8035 48.1757C62.6458 49.4181 62.393 50.6466 62.0472 51.8504C61.6932 52.9807 61.2421 54.0785 60.6991 55.1315L60.7977 55.0986Z" fill="url(#paint79_linear_40_1339)"/>
<path d="M62.1895 52.264L62.4221 51.6152L62.2364 51.5489L62.0037 52.1976L62.1895 52.264Z" fill="url(#paint80_linear_40_1339)"/>
<path d="M63.6914 47.8475L63.0667 49.8162L63.1982 49.8818L63.5599 49.0615L63.6914 47.8475Z" fill="#231E22"/>
</g>
<defs>
<filter id="filter0_d_40_1339" x="5" y="20" width="85.3335" height="54.4795" filterUnits="userSpaceOnUse" color-interpolation-filters="sRGB">
<feFlood flood-opacity="0" result="BackgroundImageFix"/>
<feColorMatrix in="SourceAlpha" type="matrix" values="0 0 0 0 0 0 0 0 0 0 0 0 0 0 0 0 0 0 127 0" result="hardAlpha"/>
<feOffset dx="2" dy="1"/>
<feGaussianBlur stdDeviation="6.5"/>
<feComposite in2="hardAlpha" operator="out"/>
<feColorMatrix type="matrix" values="0 0 0 0 0 0 0 0 0 0 0 0 0 0 0 0 0 0 0.27 0"/>
<feBlend mode="normal" in2="BackgroundImageFix" result="effect1_dropShadow_40_1339"/>
<feBlend mode="normal" in="SourceGraphic" in2="effect1_dropShadow_40_1339" result="shape"/>
</filter>
<linearGradient id="paint0_linear_40_1339" x1="17.4935" y1="37.3809" x2="17.4935" y2="42.0399" gradientUnits="userSpaceOnUse">
<stop stop-color="#E00000"/>
<stop offset="0.25" stop-color="#C10000"/>
<stop offset="0.56" stop-color="#9F0000"/>
<stop offset="0.83" stop-color="#8B0000"/>
<stop offset="1" stop-color="#830000"/>
</linearGradient>
<linearGradient id="paint1_linear_40_1339" x1="17.4938" y1="50.4722" x2="17.4938" y2="55.1641" gradientUnits="userSpaceOnUse">
<stop stop-color="#E00000"/>
<stop offset="0.25" stop-color="#C10000"/>
<stop offset="0.56" stop-color="#9F0000"/>
<stop offset="0.83" stop-color="#8B0000"/>
<stop offset="1" stop-color="#830000"/>
</linearGradient>
<linearGradient id="paint2_linear_40_1339" x1="59.7455" y1="58.0843" x2="59.7455" y2="52.9659" gradientUnits="userSpaceOnUse">
<stop offset="0.01" stop-color="#DADCDB"/>
<stop offset="0.02" stop-color="#E0E3E2"/>
<stop offset="0.03" stop-color="#E2E5E4"/>
<stop offset="0.17" stop-color="#DADBDA"/>
<stop offset="0.38" stop-color="#D4D4D3"/>
<stop offset="0.91" stop-color="#D2D2D1"/>
<stop offset="0.95" stop-color="#D0D0CF"/>
<stop offset="0.96" stop-color="#C9CAC8"/>
<stop offset="0.98" stop-color="#B4B7B3"/>
<stop offset="0.99" stop-color="#ADB1AD"/>
</linearGradient>
<linearGradient id="paint3_linear_40_1339" x1="54.6819" y1="55.4923" x2="60.5347" y2="55.4923" gradientUnits="userSpaceOnUse">
<stop stop-color="#808080"/>
<stop offset="0.54" stop-color="#C6C6C6"/>
<stop offset="1" stop-color="white"/>
</linearGradient>
<radialGradient id="paint4_radial_40_1339" cx="0" cy="0" r="1" gradientUnits="userSpaceOnUse" gradientTransform="translate(100.696 64.4455) rotate(92.6082) scale(0.621416 4.07289)">
<stop stop-color="#F2F4F3"/>
<stop offset="0.22" stop-color="#CACCCB"/>
<stop offset="0.43" stop-color="#AAABAA"/>
<stop offset="0.64" stop-color="#939393"/>
<stop offset="0.84" stop-color="#858585"/>
<stop offset="1" stop-color="#808080"/>
</radialGradient>
<linearGradient id="paint5_linear_40_1339" x1="59.943" y1="56.1158" x2="59.943" y2="57.3954" gradientUnits="userSpaceOnUse">
<stop offset="0.5" stop-color="#ACACAC"/>
<stop offset="0.52" stop-color="#B4B4B4"/>
<stop offset="0.65" stop-color="#D4D4D4"/>
<stop offset="0.78" stop-color="#ECECEC"/>
<stop offset="0.9" stop-color="#FAFAFA"/>
<stop offset="1" stop-color="white"/>
</linearGradient>
<linearGradient id="paint6_linear_40_1339" x1="59.7455" y1="34.4281" x2="59.7455" y2="39.5465" gradientUnits="userSpaceOnUse">
<stop offset="0.01" stop-color="#DADCDB"/>
<stop offset="0.02" stop-color="#E0E3E2"/>
<stop offset="0.03" stop-color="#E2E5E4"/>
<stop offset="0.17" stop-color="#DADBDA"/>
<stop offset="0.38" stop-color="#D4D4D3"/>
<stop offset="0.91" stop-color="#D2D2D1"/>
<stop offset="0.95" stop-color="#D0D0CF"/>
<stop offset="0.96" stop-color="#C9CAC8"/>
<stop offset="0.98" stop-color="#B4B7B3"/>
<stop offset="0.99" stop-color="#ADB1AD"/>
</linearGradient>
<linearGradient id="paint7_linear_40_1339" x1="54.6819" y1="36.9873" x2="60.5347" y2="36.9873" gradientUnits="userSpaceOnUse">
<stop stop-color="#808080"/>
<stop offset="0.54" stop-color="#C6C6C6"/>
<stop offset="1" stop-color="white"/>
</linearGradient>
<radialGradient id="paint8_radial_40_1339" cx="0" cy="0" r="1" gradientUnits="userSpaceOnUse" gradientTransform="translate(12.2254 48.2412) rotate(87.3919) scale(0.621416 4.07289)">
<stop stop-color="#F2F4F3"/>
<stop offset="0.22" stop-color="#CACCCB"/>
<stop offset="0.43" stop-color="#AAABAA"/>
<stop offset="0.64" stop-color="#939393"/>
<stop offset="0.84" stop-color="#858585"/>
<stop offset="1" stop-color="#808080"/>
</radialGradient>
<linearGradient id="paint9_linear_40_1339" x1="29.3637" y1="58.0843" x2="29.3637" y2="52.9659" gradientUnits="userSpaceOnUse">
<stop offset="0.01" stop-color="#DADCDB"/>
<stop offset="0.02" stop-color="#E0E3E2"/>
<stop offset="0.03" stop-color="#E2E5E4"/>
<stop offset="0.17" stop-color="#DADBDA"/>
<stop offset="0.38" stop-color="#D4D4D3"/>
<stop offset="0.91" stop-color="#D2D2D1"/>
<stop offset="0.95" stop-color="#D0D0CF"/>
<stop offset="0.96" stop-color="#C9CAC8"/>
<stop offset="0.98" stop-color="#B4B7B3"/>
<stop offset="0.99" stop-color="#ADB1AD"/>
</linearGradient>
<linearGradient id="paint10_linear_40_1339" x1="24.2999" y1="55.4923" x2="30.1855" y2="55.4923" gradientUnits="userSpaceOnUse">
<stop stop-color="#808080"/>
<stop offset="0.54" stop-color="#C6C6C6"/>
<stop offset="1" stop-color="white"/>
</linearGradient>
<radialGradient id="paint11_radial_40_1339" cx="0" cy="0" r="1" gradientUnits="userSpaceOnUse" gradientTransform="translate(70.2616 64.4114) rotate(92.6082) scale(0.621416 4.07289)">
<stop stop-color="#F2F4F3"/>
<stop offset="0.22" stop-color="#CACCCB"/>
<stop offset="0.43" stop-color="#AAABAA"/>
<stop offset="0.64" stop-color="#939393"/>
<stop offset="0.84" stop-color="#858585"/>
<stop offset="1" stop-color="#808080"/>
</radialGradient>
<linearGradient id="paint12_linear_40_1339" x1="29.5609" y1="56.1158" x2="29.5609" y2="57.3954" gradientUnits="userSpaceOnUse">
<stop offset="0.5" stop-color="#ACACAC"/>
<stop offset="0.52" stop-color="#B4B4B4"/>
<stop offset="0.65" stop-color="#D4D4D4"/>
<stop offset="0.78" stop-color="#ECECEC"/>
<stop offset="0.9" stop-color="#FAFAFA"/>
<stop offset="1" stop-color="white"/>
</linearGradient>
<linearGradient id="paint13_linear_40_1339" x1="29.3637" y1="34.428" x2="29.3637" y2="39.5464" gradientUnits="userSpaceOnUse">
<stop offset="0.01" stop-color="#DADCDB"/>
<stop offset="0.02" stop-color="#E0E3E2"/>
<stop offset="0.03" stop-color="#E2E5E4"/>
<stop offset="0.17" stop-color="#DADBDA"/>
<stop offset="0.38" stop-color="#D4D4D3"/>
<stop offset="0.91" stop-color="#D2D2D1"/>
<stop offset="0.95" stop-color="#D0D0CF"/>
<stop offset="0.96" stop-color="#C9CAC8"/>
<stop offset="0.98" stop-color="#B4B7B3"/>
<stop offset="0.99" stop-color="#ADB1AD"/>
</linearGradient>
<linearGradient id="paint14_linear_40_1339" x1="24.2999" y1="36.9873" x2="30.1855" y2="36.9873" gradientUnits="userSpaceOnUse">
<stop stop-color="#808080"/>
<stop offset="0.54" stop-color="#C6C6C6"/>
<stop offset="1" stop-color="white"/>
</linearGradient>
<radialGradient id="paint15_radial_40_1339" cx="0" cy="0" r="1" gradientUnits="userSpaceOnUse" gradientTransform="translate(-18.2058 48.3476) rotate(87.3919) scale(0.621416 4.07289)">
<stop stop-color="#F2F4F3"/>
<stop offset="0.22" stop-color="#CACCCB"/>
<stop offset="0.43" stop-color="#AAABAA"/>
<stop offset="0.64" stop-color="#939393"/>
<stop offset="0.84" stop-color="#858585"/>
<stop offset="1" stop-color="#808080"/>
</radialGradient>
<linearGradient id="paint16_linear_40_1339" x1="45.6397" y1="34.8545" x2="45.6397" y2="57.6249" gradientUnits="userSpaceOnUse">
<stop offset="0.01" stop-color="#DADCDB"/>
<stop offset="0.02" stop-color="#E0E3E2"/>
<stop offset="0.03" stop-color="#E2E5E4"/>
<stop offset="0.17" stop-color="#DADBDA"/>
<stop offset="0.38" stop-color="#D4D4D3"/>
<stop offset="0.91" stop-color="#D2D2D1"/>
<stop offset="0.95" stop-color="#D0D0CF"/>
<stop offset="0.96" stop-color="#C9CAC8"/>
<stop offset="0.98" stop-color="#B4B7B3"/>
<stop offset="0.99" stop-color="#ADB1AD"/>
</linearGradient>
<linearGradient id="paint17_linear_40_1339" x1="20.6501" y1="37.1841" x2="20.6501" y2="55.4923" gradientUnits="userSpaceOnUse">
<stop offset="0.01" stop-color="#E9EBEA"/>
<stop offset="0.02" stop-color="#F0F2F1"/>
<stop offset="0.03" stop-color="#F2F4F3"/>
<stop offset="0.42" stop-color="#EFF1F0"/>
<stop offset="0.71" stop-color="#E7E8E7"/>
<stop offset="0.9" stop-color="#DCDCDB"/>
<stop offset="0.93" stop-color="#D7D8D6"/>
<stop offset="0.97" stop-color="#C9CBC9"/>
<stop offset="1" stop-color="#B7BBB7"/>
</linearGradient>
<linearGradient id="paint18_linear_40_1339" x1="15.9152" y1="46.2397" x2="23.708" y2="46.2397" gradientUnits="userSpaceOnUse">
<stop stop-color="#C9C9C9"/>
<stop offset="0.03" stop-color="#D2D2D2"/>
<stop offset="0.11" stop-color="#E6E6E6"/>
<stop offset="0.2" stop-color="#F4F4F4"/>
<stop offset="0.32" stop-color="#FCFCFC"/>
<stop offset="0.51" stop-color="white"/>
</linearGradient>
<linearGradient id="paint19_linear_40_1339" x1="20.6501" y1="37.1841" x2="20.6501" y2="48.8974" gradientUnits="userSpaceOnUse">
<stop offset="0.17" stop-color="white"/>
<stop offset="0.31" stop-color="#FCFCFC"/>
<stop offset="0.41" stop-color="#F3F3F3"/>
<stop offset="0.51" stop-color="#E3E3E3"/>
<stop offset="0.54" stop-color="#DCDCDB"/>
<stop offset="0.59" stop-color="#D7D8D6"/>
<stop offset="0.66" stop-color="#C9CBC8"/>
<stop offset="0.72" stop-color="#B2B5B2"/>
<stop offset="0.79" stop-color="#929892"/>
<stop offset="0.83" stop-color="#808780"/>
</linearGradient>
<linearGradient id="paint20_linear_40_1339" x1="41.6283" y1="36.1999" x2="41.6283" y2="46.7977" gradientUnits="userSpaceOnUse">
<stop offset="0.17" stop-color="white"/>
<stop offset="0.31" stop-color="#FCFCFC"/>
<stop offset="0.41" stop-color="#F3F3F3"/>
<stop offset="0.51" stop-color="#E3E3E3"/>
<stop offset="0.54" stop-color="#DCDCDB"/>
<stop offset="0.59" stop-color="#D7D8D6"/>
<stop offset="0.66" stop-color="#C9CBC8"/>
<stop offset="0.72" stop-color="#B2B5B2"/>
<stop offset="0.79" stop-color="#929892"/>
<stop offset="0.83" stop-color="#808780"/>
</linearGradient>
<linearGradient id="paint21_linear_40_1339" x1="69.0508" y1="36.2326" x2="64.5318" y2="57.7273" gradientUnits="userSpaceOnUse">
<stop offset="0.01" stop-color="#CECECD"/>
<stop offset="0.06" stop-color="#DEDFDE"/>
<stop offset="0.11" stop-color="#E9EBEA"/>
<stop offset="0.19" stop-color="#F0F2F1"/>
<stop offset="0.39" stop-color="#F2F4F3"/>
<stop offset="0.62" stop-color="#EFF1F0"/>
<stop offset="0.78" stop-color="#E7E8E7"/>
<stop offset="0.9" stop-color="#DCDCDB"/>
<stop offset="0.93" stop-color="#D7D8D6"/>
<stop offset="0.97" stop-color="#C9CBC9"/>
<stop offset="1" stop-color="#B7BBB7"/>
</linearGradient>
<linearGradient id="paint22_linear_40_1339" x1="55.767" y1="34.2641" x2="55.3737" y2="34.9538" gradientUnits="userSpaceOnUse">
<stop stop-color="#242424"/>
<stop offset="0.29" stop-color="#151515"/>
<stop offset="0.67" stop-color="#060606"/>
<stop offset="1" stop-color="#010101"/>
</linearGradient>
<linearGradient id="paint23_linear_40_1339" x1="56.0959" y1="33.0499" x2="55.4402" y2="34.0355" gradientUnits="userSpaceOnUse">
<stop offset="0.01" stop-color="#C0C0BF"/>
<stop offset="0.02" stop-color="#C8C9C8"/>
<stop offset="0.05" stop-color="#D9DAD9"/>
<stop offset="0.09" stop-color="#E4E6E5"/>
<stop offset="0.15" stop-color="#EBEDEC"/>
<stop offset="0.29" stop-color="#EDEFEE"/>
<stop offset="0.53" stop-color="#EAECEB"/>
<stop offset="0.68" stop-color="#E2E4E3"/>
<stop offset="0.81" stop-color="#D3D6D4"/>
<stop offset="0.93" stop-color="#BFC2BF"/>
<stop offset="1" stop-color="#ADB1AD"/>
</linearGradient>
<linearGradient id="paint24_linear_40_1339" x1="54.7478" y1="32.1313" x2="54.7478" y2="34.8874" gradientUnits="userSpaceOnUse">
<stop stop-color="#5A5A57"/>
<stop offset="0.14" stop-color="#636360"/>
<stop offset="0.37" stop-color="#7C7C7A"/>
<stop offset="0.67" stop-color="#A4A4A3"/>
<stop offset="0.99" stop-color="#D9D9D8"/>
</linearGradient>
<linearGradient id="paint25_linear_40_1339" x1="55.767" y1="58.2484" x2="55.3737" y2="57.5915" gradientUnits="userSpaceOnUse">
<stop stop-color="#242424"/>
<stop offset="0.29" stop-color="#151515"/>
<stop offset="0.67" stop-color="#060606"/>
<stop offset="1" stop-color="#010101"/>
</linearGradient>
<linearGradient id="paint26_linear_40_1339" x1="56.0959" y1="59.4951" x2="55.4402" y2="58.5095" gradientUnits="userSpaceOnUse">
<stop offset="0.01" stop-color="#C0C0BF"/>
<stop offset="0.02" stop-color="#C8C9C8"/>
<stop offset="0.05" stop-color="#D9DAD9"/>
<stop offset="0.09" stop-color="#E4E6E5"/>
<stop offset="0.15" stop-color="#EBEDEC"/>
<stop offset="0.29" stop-color="#EDEFEE"/>
<stop offset="0.53" stop-color="#EAECEB"/>
<stop offset="0.68" stop-color="#E2E4E3"/>
<stop offset="0.81" stop-color="#D3D6D4"/>
<stop offset="0.93" stop-color="#BFC2BF"/>
<stop offset="1" stop-color="#ADB1AD"/>
</linearGradient>
<linearGradient id="paint27_linear_40_1339" x1="54.7478" y1="60.3811" x2="54.7478" y2="57.6578" gradientUnits="userSpaceOnUse">
<stop stop-color="#5A5A57"/>
<stop offset="0.14" stop-color="#636360"/>
<stop offset="0.37" stop-color="#7C7C7A"/>
<stop offset="0.67" stop-color="#A4A4A3"/>
<stop offset="0.99" stop-color="#D9D9D8"/>
</linearGradient>
<linearGradient id="paint28_linear_40_1339" x1="50.9008" y1="35.642" x2="50.9008" y2="37.4466" gradientUnits="userSpaceOnUse">
<stop stop-color="#404040"/>
<stop offset="0.04" stop-color="#3C3C3C"/>
<stop offset="0.44" stop-color="#1C1C1C"/>
<stop offset="0.77" stop-color="#080808"/>
<stop offset="1" stop-color="#010101"/>
</linearGradient>
<linearGradient id="paint29_linear_40_1339" x1="36.1041" y1="35.6421" x2="36.1041" y2="37.381" gradientUnits="userSpaceOnUse">
<stop stop-color="#404040"/>
<stop offset="0.04" stop-color="#3C3C3C"/>
<stop offset="0.44" stop-color="#1C1C1C"/>
<stop offset="0.77" stop-color="#080808"/>
<stop offset="1" stop-color="#010101"/>
</linearGradient>
<linearGradient id="paint30_linear_40_1339" x1="57.5425" y1="36.1998" x2="57.5425" y2="56.2798" gradientUnits="userSpaceOnUse">
<stop stop-color="#242424"/>
<stop offset="0.29" stop-color="#141414"/>
<stop offset="0.67" stop-color="#060606"/>
<stop offset="1" stop-color="#010101"/>
</linearGradient>
<linearGradient id="paint31_linear_40_1339" x1="50.9008" y1="55.0329" x2="50.9008" y2="56.8375" gradientUnits="userSpaceOnUse">
<stop stop-color="#010101"/>
<stop offset="0.23" stop-color="#080808"/>
<stop offset="0.56" stop-color="#1C1C1C"/>
<stop offset="0.96" stop-color="#3C3C3C"/>
<stop offset="1" stop-color="#404040"/>
</linearGradient>
<linearGradient id="paint32_linear_40_1339" x1="36.1041" y1="55.0986" x2="36.1041" y2="56.8376" gradientUnits="userSpaceOnUse">
<stop stop-color="#242424"/>
<stop offset="0.29" stop-color="#141414"/>
<stop offset="0.67" stop-color="#060606"/>
<stop offset="1" stop-color="#010101"/>
</linearGradient>
<linearGradient id="paint33_linear_40_1339" x1="62.2116" y1="38.0372" x2="53.7434" y2="45.175" gradientUnits="userSpaceOnUse">
<stop stop-color="#F2F4F3"/>
<stop offset="0.38" stop-color="#EFF1F0"/>
<stop offset="0.66" stop-color="#E7E8E7"/>
<stop offset="0.85" stop-color="#DCDCDB"/>
<stop offset="0.88" stop-color="#D7D7D6"/>
<stop offset="0.91" stop-color="#C9C9C8"/>
<stop offset="0.95" stop-color="#B2B2B2"/>
<stop offset="0.98" stop-color="#929292"/>
<stop offset="1" stop-color="#808080"/>
</linearGradient>
<radialGradient id="paint34_radial_40_1339" cx="0" cy="0" r="1" gradientUnits="userSpaceOnUse" gradientTransform="translate(85.6202 61.595) rotate(95.452) scale(1.41198 6.22744)">
<stop stop-color="#F2F4F3"/>
<stop offset="0.22" stop-color="#CACCCB"/>
<stop offset="0.43" stop-color="#AAABAA"/>
<stop offset="0.64" stop-color="#939393"/>
<stop offset="0.84" stop-color="#858585"/>
<stop offset="1" stop-color="#808080"/>
</radialGradient>
<radialGradient id="paint35_radial_40_1339" cx="0" cy="0" r="1" gradientUnits="userSpaceOnUse" gradientTransform="translate(78.2909 77.439) rotate(85.9056) scale(1.40919 6.42297)">
<stop stop-color="#F2F4F3"/>
<stop offset="0.22" stop-color="#CACCCB"/>
<stop offset="0.43" stop-color="#AAABAA"/>
<stop offset="0.64" stop-color="#939393"/>
<stop offset="0.84" stop-color="#858585"/>
<stop offset="1" stop-color="#808080"/>
</radialGradient>
<radialGradient id="paint36_radial_40_1339" cx="0" cy="0" r="1" gradientUnits="userSpaceOnUse" gradientTransform="translate(98.3411 67.3821) rotate(109.328) scale(1.18218 5.36305)">
<stop stop-color="#F2F4F3"/>
<stop offset="0.22" stop-color="#CACCCB"/>
<stop offset="0.43" stop-color="#AAABAA"/>
<stop offset="0.64" stop-color="#939393"/>
<stop offset="0.84" stop-color="#858585"/>
<stop offset="1" stop-color="#808080"/>
</radialGradient>
<radialGradient id="paint37_radial_40_1339" cx="0" cy="0" r="1" gradientUnits="userSpaceOnUse" gradientTransform="translate(74.9397 63.3603) rotate(90) scale(0.278888 5.7295)">
<stop stop-color="#F2F4F3"/>
<stop offset="0.22" stop-color="#CACCCB"/>
<stop offset="0.43" stop-color="#AAABAA"/>
<stop offset="0.64" stop-color="#939393"/>
<stop offset="0.84" stop-color="#858585"/>
<stop offset="1" stop-color="#808080"/>
</radialGradient>
<radialGradient id="paint38_radial_40_1339" cx="0" cy="0" r="1" gradientUnits="userSpaceOnUse" gradientTransform="translate(90.1157 76.0119) rotate(92.7322) scale(0.593229 5.88581)">
<stop stop-color="#F2F4F3"/>
<stop offset="0.22" stop-color="#CACCCB"/>
<stop offset="0.43" stop-color="#AAABAA"/>
<stop offset="0.64" stop-color="#939393"/>
<stop offset="0.84" stop-color="#858585"/>
<stop offset="1" stop-color="#808080"/>
</radialGradient>
<radialGradient id="paint39_radial_40_1339" cx="0" cy="0" r="1" gradientUnits="userSpaceOnUse" gradientTransform="translate(56.1191 53.6881) rotate(102.407) scale(1.54268 9.33817)">
<stop stop-color="#F2F4F3"/>
<stop offset="0.22" stop-color="#CACCCB"/>
<stop offset="0.43" stop-color="#AAABAA"/>
<stop offset="0.64" stop-color="#939393"/>
<stop offset="0.84" stop-color="#858585"/>
<stop offset="1" stop-color="#808080"/>
</radialGradient>
<radialGradient id="paint40_radial_40_1339" cx="0" cy="0" r="1" gradientUnits="userSpaceOnUse" gradientTransform="translate(58.6369 36.0873) rotate(178.845) scale(4.16752 16.678)">
<stop stop-color="#F2F4F3"/>
<stop offset="0.22" stop-color="#CACCCB"/>
<stop offset="0.43" stop-color="#AAABAA"/>
<stop offset="0.64" stop-color="#939393"/>
<stop offset="0.84" stop-color="#858585"/>
<stop offset="1" stop-color="#808080"/>
</radialGradient>
<radialGradient id="paint41_radial_40_1339" cx="0" cy="0" r="1" gradientUnits="userSpaceOnUse" gradientTransform="translate(66.5227 41.9049) rotate(79.4469) scale(7.70559 8.01699)">
<stop stop-color="#F2F4F3"/>
<stop offset="0.22" stop-color="#CACCCB"/>
<stop offset="0.43" stop-color="#AAABAA"/>
<stop offset="0.64" stop-color="#939393"/>
<stop offset="0.84" stop-color="#858585"/>
<stop offset="1" stop-color="#808080"/>
</radialGradient>
<linearGradient id="paint42_linear_40_1339" x1="26.9304" y1="37.1841" x2="26.9304" y2="55.4922" gradientUnits="userSpaceOnUse">
<stop stop-color="#242424"/>
<stop offset="0.29" stop-color="#141414"/>
<stop offset="0.67" stop-color="#060606"/>
<stop offset="1" stop-color="#010101"/>
</linearGradient>
<linearGradient id="paint43_linear_40_1339" x1="26.9304" y1="37.1841" x2="26.9304" y2="47.5193" gradientUnits="userSpaceOnUse">
<stop stop-color="#F2F4F3"/>
<stop offset="0.38" stop-color="#EFF1F0"/>
<stop offset="0.66" stop-color="#E7E8E7"/>
<stop offset="0.85" stop-color="#DCDCDB"/>
<stop offset="0.88" stop-color="#D7D7D6"/>
<stop offset="0.91" stop-color="#C9C9C8"/>
<stop offset="0.95" stop-color="#B2B2B2"/>
<stop offset="0.98" stop-color="#929292"/>
<stop offset="1" stop-color="#808080"/>
</linearGradient>
<radialGradient id="paint44_radial_40_1339" cx="0" cy="0" r="1" gradientUnits="userSpaceOnUse" gradientTransform="translate(13.1889 68.2981) rotate(84.548) scale(1.34277 8.06758)">
<stop stop-color="#F2F4F3"/>
<stop offset="0.22" stop-color="#CACCCB"/>
<stop offset="0.43" stop-color="#AAABAA"/>
<stop offset="0.64" stop-color="#939393"/>
<stop offset="0.84" stop-color="#858585"/>
<stop offset="1" stop-color="#808080"/>
</radialGradient>
<radialGradient id="paint45_radial_40_1339" cx="0" cy="0" r="1" gradientUnits="userSpaceOnUse" gradientTransform="translate(35.0182 6.98769) rotate(1.15485) scale(3.61402 14.463)">
<stop stop-color="#F2F4F3"/>
<stop offset="0.22" stop-color="#CACCCB"/>
<stop offset="0.43" stop-color="#AAABAA"/>
<stop offset="0.64" stop-color="#939393"/>
<stop offset="0.84" stop-color="#858585"/>
<stop offset="1" stop-color="#808080"/>
</radialGradient>
<radialGradient id="paint46_radial_40_1339" cx="0" cy="0" r="1" gradientUnits="userSpaceOnUse" gradientTransform="translate(20.3928 51.9441) rotate(100.553) scale(6.71636 6.98778)">
<stop stop-color="#F2F4F3"/>
<stop offset="0.22" stop-color="#CACCCB"/>
<stop offset="0.43" stop-color="#AAABAA"/>
<stop offset="0.64" stop-color="#939393"/>
<stop offset="0.84" stop-color="#858585"/>
<stop offset="1" stop-color="#808080"/>
</radialGradient>
<linearGradient id="paint47_linear_40_1339" x1="74.279" y1="41.3511" x2="74.279" y2="51.0957" gradientUnits="userSpaceOnUse">
<stop offset="0.01" stop-color="#CECECD"/>
<stop offset="0.06" stop-color="#DEDFDE"/>
<stop offset="0.11" stop-color="#E9EBEA"/>
<stop offset="0.19" stop-color="#F0F2F1"/>
<stop offset="0.39" stop-color="#F2F4F3"/>
<stop offset="0.62" stop-color="#EFF1F0"/>
<stop offset="0.78" stop-color="#E7E8E7"/>
<stop offset="0.9" stop-color="#DCDCDB"/>
<stop offset="0.93" stop-color="#D7D8D6"/>
<stop offset="0.97" stop-color="#C9CBC9"/>
<stop offset="1" stop-color="#B7BBB7"/>
</linearGradient>
<linearGradient id="paint48_linear_40_1339" x1="74.542" y1="41.7447" x2="74.542" y2="50.7676" gradientUnits="userSpaceOnUse">
<stop offset="0.01" stop-color="#CECECD"/>
<stop offset="0.06" stop-color="#DEDFDE"/>
<stop offset="0.11" stop-color="#E9EBEA"/>
<stop offset="0.19" stop-color="#F0F2F1"/>
<stop offset="0.39" stop-color="#F2F4F3"/>
<stop offset="0.62" stop-color="#EFF1F0"/>
<stop offset="0.78" stop-color="#E7E8E7"/>
<stop offset="0.9" stop-color="#DCDCDB"/>
<stop offset="0.93" stop-color="#D7D8D6"/>
<stop offset="0.97" stop-color="#C9CBC9"/>
<stop offset="1" stop-color="#B7BBB7"/>
</linearGradient>
<linearGradient id="paint49_linear_40_1339" x1="74.7722" y1="42.0073" x2="74.7722" y2="50.4724" gradientUnits="userSpaceOnUse">
<stop offset="0.01" stop-color="#CECECD"/>
<stop offset="0.06" stop-color="#DEDFDE"/>
<stop offset="0.11" stop-color="#E9EBEA"/>
<stop offset="0.19" stop-color="#F0F2F1"/>
<stop offset="0.39" stop-color="#F2F4F3"/>
<stop offset="0.62" stop-color="#EFF1F0"/>
<stop offset="0.78" stop-color="#E7E8E7"/>
<stop offset="0.9" stop-color="#DCDCDB"/>
<stop offset="0.93" stop-color="#D7D8D6"/>
<stop offset="0.97" stop-color="#C9CBC9"/>
<stop offset="1" stop-color="#B7BBB7"/>
</linearGradient>
<linearGradient id="paint50_linear_40_1339" x1="50.9008" y1="35.6419" x2="50.9008" y2="37.4465" gradientUnits="userSpaceOnUse">
<stop stop-color="#2D2721"/>
<stop offset="0.4" stop-color="#8A8A83"/>
<stop offset="0.66" stop-color="#8D8D86"/>
<stop offset="0.88" stop-color="#959591"/>
<stop offset="0.99" stop-color="#9C9C9A"/>
</linearGradient>
<linearGradient id="paint51_linear_40_1339" x1="36.104" y1="35.6421" x2="36.104" y2="37.381" gradientUnits="userSpaceOnUse">
<stop stop-color="#2D2721"/>
<stop offset="0.4" stop-color="#8A8A83"/>
<stop offset="0.66" stop-color="#8D8D86"/>
<stop offset="0.88" stop-color="#959591"/>
<stop offset="0.99" stop-color="#9C9C9A"/>
</linearGradient>
<linearGradient id="paint52_linear_40_1339" x1="50.9008" y1="55.033" x2="50.9008" y2="56.8375" gradientUnits="userSpaceOnUse">
<stop offset="0.01" stop-color="#9C9C9A"/>
<stop offset="0.12" stop-color="#959591"/>
<stop offset="0.34" stop-color="#8D8D86"/>
<stop offset="0.6" stop-color="#8A8A83"/>
<stop offset="1" stop-color="#2D2721"/>
</linearGradient>
<linearGradient id="paint53_linear_40_1339" x1="36.1041" y1="55.0986" x2="36.1041" y2="56.8376" gradientUnits="userSpaceOnUse">
<stop stop-color="#010101"/>
<stop offset="0.23" stop-color="#080808"/>
<stop offset="0.56" stop-color="#1C1C1C"/>
<stop offset="0.96" stop-color="#3C3C3C"/>
<stop offset="1" stop-color="#404040"/>
</linearGradient>
<linearGradient id="paint54_linear_40_1339" x1="36.1041" y1="56.8048" x2="36.1041" y2="55.0658" gradientUnits="userSpaceOnUse">
<stop stop-color="#2D2721"/>
<stop offset="0.4" stop-color="#8A8A83"/>
<stop offset="0.66" stop-color="#8D8D86"/>
<stop offset="0.88" stop-color="#959591"/>
<stop offset="0.99" stop-color="#9C9C9A"/>
</linearGradient>
<linearGradient id="paint55_linear_40_1339" x1="51.065" y1="38.234" x2="51.065" y2="39.0215" gradientUnits="userSpaceOnUse">
<stop stop-color="#010101"/>
<stop offset="0.33" stop-color="#060606"/>
<stop offset="0.71" stop-color="#141414"/>
<stop offset="1" stop-color="#242424"/>
</linearGradient>
<linearGradient id="paint56_linear_40_1339" x1="50.802" y1="38.4309" x2="50.802" y2="38.8247" gradientUnits="userSpaceOnUse">
<stop stop-color="#242424"/>
<stop offset="0.29" stop-color="#141414"/>
<stop offset="0.67" stop-color="#060606"/>
<stop offset="1" stop-color="#010101"/>
</linearGradient>
<linearGradient id="paint57_linear_40_1339" x1="50.5717" y1="38.4637" x2="50.5717" y2="38.8247" gradientUnits="userSpaceOnUse">
<stop stop-color="#010101"/>
<stop offset="0.33" stop-color="#060606"/>
<stop offset="0.71" stop-color="#141414"/>
<stop offset="1" stop-color="#242424"/>
</linearGradient>
<linearGradient id="paint58_linear_40_1339" x1="31.731" y1="60.6436" x2="37.8247" y2="46.4272" gradientUnits="userSpaceOnUse">
<stop stop-color="#A2A2A2"/>
<stop offset="0.04" stop-color="#B8B8B8"/>
<stop offset="0.11" stop-color="#D2D2D2"/>
<stop offset="0.17" stop-color="#E6E6E6"/>
<stop offset="0.25" stop-color="#F4F4F4"/>
<stop offset="0.35" stop-color="#FCFCFC"/>
<stop offset="0.51" stop-color="white"/>
</linearGradient>
<linearGradient id="paint59_linear_40_1339" x1="72.1419" y1="35.8717" x2="72.1419" y2="40.3667" gradientUnits="userSpaceOnUse">
<stop stop-color="#535350"/>
<stop offset="0.26" stop-color="#5C5C59"/>
<stop offset="0.68" stop-color="#757572"/>
<stop offset="0.99" stop-color="#8C8C89"/>
</linearGradient>
<linearGradient id="paint60_linear_40_1339" x1="71.9115" y1="35.8717" x2="71.9115" y2="40.1699" gradientUnits="userSpaceOnUse">
<stop stop-color="#5A5A57"/>
<stop offset="0.14" stop-color="#636360"/>
<stop offset="0.37" stop-color="#7C7C7A"/>
<stop offset="0.67" stop-color="#A4A4A3"/>
<stop offset="0.99" stop-color="#D9D9D8"/>
</linearGradient>
<linearGradient id="paint61_linear_40_1339" x1="72.8686" y1="36.2165" x2="73.1322" y2="37.3307" gradientUnits="userSpaceOnUse">
<stop stop-color="#535350"/>
<stop offset="0.26" stop-color="#5C5C59"/>
<stop offset="0.68" stop-color="#757572"/>
<stop offset="0.99" stop-color="#8C8C89"/>
</linearGradient>
<linearGradient id="paint62_linear_40_1339" x1="72.7022" y1="37.9954" x2="73.0359" y2="38.8517" gradientUnits="userSpaceOnUse">
<stop stop-color="#535350"/>
<stop offset="0.26" stop-color="#5C5C59"/>
<stop offset="0.68" stop-color="#757572"/>
<stop offset="0.99" stop-color="#8C8C89"/>
</linearGradient>
<radialGradient id="paint63_radial_40_1339" cx="0" cy="0" r="1" gradientUnits="userSpaceOnUse" gradientTransform="translate(52.1581 11.6665) rotate(71.347) scale(1.25012 0.264683)">
<stop stop-color="#F2F4F3"/>
<stop offset="0.22" stop-color="#CACCCB"/>
<stop offset="0.43" stop-color="#AAABAA"/>
<stop offset="0.64" stop-color="#939393"/>
<stop offset="0.84" stop-color="#858585"/>
<stop offset="1" stop-color="#808080"/>
</radialGradient>
<linearGradient id="paint64_linear_40_1339" x1="71.7142" y1="35.8717" x2="71.7142" y2="40.0058" gradientUnits="userSpaceOnUse">
<stop stop-color="#535350"/>
<stop offset="0.26" stop-color="#5C5C59"/>
<stop offset="0.68" stop-color="#757572"/>
<stop offset="0.99" stop-color="#8C8C89"/>
</linearGradient>
<linearGradient id="paint65_linear_40_1339" x1="72.1419" y1="56.6079" x2="72.1419" y2="52.0801" gradientUnits="userSpaceOnUse">
<stop stop-color="#535350"/>
<stop offset="0.26" stop-color="#5C5C59"/>
<stop offset="0.68" stop-color="#757572"/>
<stop offset="0.99" stop-color="#8C8C89"/>
</linearGradient>
<linearGradient id="paint66_linear_40_1339" x1="71.9115" y1="56.6077" x2="71.9115" y2="52.3096" gradientUnits="userSpaceOnUse">
<stop stop-color="#5A5A57"/>
<stop offset="0.14" stop-color="#636360"/>
<stop offset="0.37" stop-color="#7C7C7A"/>
<stop offset="0.67" stop-color="#A4A4A3"/>
<stop offset="0.99" stop-color="#D9D9D8"/>
</linearGradient>
<linearGradient id="paint67_linear_40_1339" x1="82.5744" y1="67.9172" x2="82.838" y2="66.8031" gradientUnits="userSpaceOnUse">
<stop stop-color="#535350"/>
<stop offset="0.26" stop-color="#5C5C59"/>
<stop offset="0.68" stop-color="#757572"/>
<stop offset="0.99" stop-color="#8C8C89"/>
</linearGradient>
<linearGradient id="paint68_linear_40_1339" x1="57.2388" y1="64.3534" x2="57.569" y2="63.4985" gradientUnits="userSpaceOnUse">
<stop stop-color="#535350"/>
<stop offset="0.26" stop-color="#5C5C59"/>
<stop offset="0.68" stop-color="#757572"/>
<stop offset="0.99" stop-color="#8C8C89"/>
</linearGradient>
<radialGradient id="paint69_radial_40_1339" cx="0" cy="0" r="1" gradientUnits="userSpaceOnUse" gradientTransform="translate(78.4076 61.649) rotate(-71.347) scale(1.25012 0.264683)">
<stop stop-color="#F2F4F3"/>
<stop offset="0.22" stop-color="#CACCCB"/>
<stop offset="0.43" stop-color="#AAABAA"/>
<stop offset="0.64" stop-color="#939393"/>
<stop offset="0.84" stop-color="#858585"/>
<stop offset="1" stop-color="#808080"/>
</radialGradient>
<linearGradient id="paint70_linear_40_1339" x1="71.7142" y1="56.6079" x2="71.7142" y2="52.4738" gradientUnits="userSpaceOnUse">
<stop stop-color="#535350"/>
<stop offset="0.26" stop-color="#5C5C59"/>
<stop offset="0.68" stop-color="#757572"/>
<stop offset="0.99" stop-color="#8C8C89"/>
</linearGradient>
<linearGradient id="paint71_linear_40_1339" x1="47.0537" y1="34.6576" x2="47.0537" y2="35.0842" gradientUnits="userSpaceOnUse">
<stop offset="0.01" stop-color="#C0C0BF"/>
<stop offset="0.07" stop-color="#EDEDEC"/>
<stop offset="0.11" stop-color="white"/>
<stop offset="0.13" stop-color="#F6F7F6"/>
<stop offset="0.18" stop-color="#EFF1F0"/>
<stop offset="0.29" stop-color="#EDEFEE"/>
<stop offset="0.48" stop-color="#EAECEB"/>
<stop offset="0.6" stop-color="#E2E4E3"/>
<stop offset="0.7" stop-color="#D3D6D4"/>
<stop offset="0.79" stop-color="#BFC2BF"/>
<stop offset="0.85" stop-color="#ADB1AD"/>
<stop offset="0.92" stop-color="#B0B4B0"/>
<stop offset="0.97" stop-color="#B8BDB9"/>
<stop offset="1" stop-color="#BFC5C1"/>
</linearGradient>
<linearGradient id="paint72_linear_40_1339" x1="47.0537" y1="57.7235" x2="47.0537" y2="57.2969" gradientUnits="userSpaceOnUse">
<stop offset="0.01" stop-color="#C0C0BF"/>
<stop offset="0.07" stop-color="#EDEDEC"/>
<stop offset="0.11" stop-color="white"/>
<stop offset="0.13" stop-color="#F6F7F6"/>
<stop offset="0.18" stop-color="#EFF1F0"/>
<stop offset="0.29" stop-color="#EDEFEE"/>
<stop offset="0.48" stop-color="#EAECEB"/>
<stop offset="0.6" stop-color="#E2E4E3"/>
<stop offset="0.7" stop-color="#D3D6D4"/>
<stop offset="0.79" stop-color="#BFC2BF"/>
<stop offset="0.85" stop-color="#ADB1AD"/>
<stop offset="0.92" stop-color="#B0B4B0"/>
<stop offset="0.97" stop-color="#B8BDB9"/>
<stop offset="1" stop-color="#BFC5C1"/>
</linearGradient>
<linearGradient id="paint73_linear_40_1339" x1="33.8025" y1="34.6576" x2="33.8025" y2="35.0842" gradientUnits="userSpaceOnUse">
<stop offset="0.01" stop-color="#C0C0BF"/>
<stop offset="0.07" stop-color="#EDEDEC"/>
<stop offset="0.11" stop-color="white"/>
<stop offset="0.13" stop-color="#F6F7F6"/>
<stop offset="0.18" stop-color="#EFF1F0"/>
<stop offset="0.29" stop-color="#EDEFEE"/>
<stop offset="0.48" stop-color="#EAECEB"/>
<stop offset="0.6" stop-color="#E2E4E3"/>
<stop offset="0.7" stop-color="#D3D6D4"/>
<stop offset="0.79" stop-color="#BFC2BF"/>
<stop offset="0.85" stop-color="#ADB1AD"/>
<stop offset="0.92" stop-color="#B0B4B0"/>
<stop offset="0.97" stop-color="#B8BDB9"/>
<stop offset="1" stop-color="#BFC5C1"/>
</linearGradient>
<linearGradient id="paint74_linear_40_1339" x1="33.8025" y1="57.7235" x2="33.8025" y2="57.2969" gradientUnits="userSpaceOnUse">
<stop offset="0.01" stop-color="#C0C0BF"/>
<stop offset="0.07" stop-color="#EDEDEC"/>
<stop offset="0.11" stop-color="white"/>
<stop offset="0.13" stop-color="#F6F7F6"/>
<stop offset="0.18" stop-color="#EFF1F0"/>
<stop offset="0.29" stop-color="#EDEFEE"/>
<stop offset="0.48" stop-color="#EAECEB"/>
<stop offset="0.6" stop-color="#E2E4E3"/>
<stop offset="0.7" stop-color="#D3D6D4"/>
<stop offset="0.79" stop-color="#BFC2BF"/>
<stop offset="0.85" stop-color="#ADB1AD"/>
<stop offset="0.92" stop-color="#B0B4B0"/>
<stop offset="0.97" stop-color="#B8BDB9"/>
<stop offset="1" stop-color="#BFC5C1"/>
</linearGradient>
<linearGradient id="paint75_linear_40_1339" x1="62.4519" y1="41.1577" x2="62.6323" y2="43.6331" gradientUnits="userSpaceOnUse">
<stop/>
<stop offset="0.36" stop-color="#222222"/>
<stop offset="0.7" stop-color="#3C3C3C"/>
<stop offset="0.9" stop-color="#454545"/>
</linearGradient>
<linearGradient id="paint76_linear_40_1339" x1="61.4867" y1="40.7017" x2="62.2037" y2="47.815" gradientUnits="userSpaceOnUse">
<stop stop-color="#262626"/>
<stop offset="0.54" stop-color="#3C3C3C"/>
<stop offset="0.9" stop-color="#454545"/>
</linearGradient>
<linearGradient id="paint77_linear_40_1339" x1="63.0361" y1="43.5434" x2="62.8726" y2="43.5605" gradientUnits="userSpaceOnUse">
<stop stop-color="#9C9C9A"/>
<stop offset="0.01" stop-color="#82827E"/>
<stop offset="0.02" stop-color="#6D6D66"/>
<stop offset="0.03" stop-color="#5D5D55"/>
<stop offset="0.05" stop-color="#54544B"/>
<stop offset="0.06" stop-color="#515148"/>
<stop offset="0.07" stop-color="#55554C"/>
<stop offset="0.12" stop-color="#7F817A"/>
<stop offset="0.16" stop-color="#9EA19B"/>
<stop offset="0.2" stop-color="#B0B4B0"/>
<stop offset="0.23" stop-color="#B7BBB7"/>
<stop offset="0.33" stop-color="#B0B3B0"/>
<stop offset="0.72" stop-color="#9C9C9A"/>
<stop offset="0.74" stop-color="#A3A3A1"/>
<stop offset="0.78" stop-color="#B6B6B5"/>
<stop offset="0.82" stop-color="#D6D6D5"/>
<stop offset="0.84" stop-color="#E5E5E4"/>
<stop offset="0.87" stop-color="#DFDFDE"/>
<stop offset="0.91" stop-color="#CFCFCE"/>
<stop offset="0.96" stop-color="#B4B4B2"/>
<stop offset="0.99" stop-color="#9C9C9A"/>
</linearGradient>
<linearGradient id="paint78_linear_40_1339" x1="59.2727" y1="45.0013" x2="58.366" y2="47.3126" gradientUnits="userSpaceOnUse">
<stop/>
<stop offset="0.36" stop-color="#222222"/>
<stop offset="0.7" stop-color="#3C3C3C"/>
<stop offset="0.9" stop-color="#454545"/>
</linearGradient>
<linearGradient id="paint79_linear_40_1339" x1="61.1943" y1="45.5676" x2="58.701" y2="52.4756" gradientUnits="userSpaceOnUse">
<stop stop-color="#262626"/>
<stop offset="0.54" stop-color="#3C3C3C"/>
<stop offset="0.9" stop-color="#454545"/>
</linearGradient>
<linearGradient id="paint80_linear_40_1339" x1="62.4146" y1="50.9546" x2="62.2289" y2="50.888" gradientUnits="userSpaceOnUse">
<stop stop-color="#9C9C9A"/>
<stop offset="0.01" stop-color="#82827E"/>
<stop offset="0.02" stop-color="#6D6D66"/>
<stop offset="0.03" stop-color="#5D5D55"/>
<stop offset="0.05" stop-color="#54544B"/>
<stop offset="0.06" stop-color="#515148"/>
<stop offset="0.07" stop-color="#55554C"/>
<stop offset="0.12" stop-color="#7F817A"/>
<stop offset="0.16" stop-color="#9EA19B"/>
<stop offset="0.2" stop-color="#B0B4B0"/>
<stop offset="0.23" stop-color="#B7BBB7"/>
<stop offset="0.33" stop-color="#B0B3B0"/>
<stop offset="0.72" stop-color="#9C9C9A"/>
<stop offset="0.74" stop-color="#A3A3A1"/>
<stop offset="0.78" stop-color="#B6B6B5"/>
<stop offset="0.82" stop-color="#D6D6D5"/>
<stop offset="0.84" stop-color="#E5E5E4"/>
<stop offset="0.87" stop-color="#DFDFDE"/>
<stop offset="0.91" stop-color="#CFCFCE"/>
<stop offset="0.96" stop-color="#B4B4B2"/>
<stop offset="0.99" stop-color="#9C9C9A"/>
</linearGradient>
</defs>
</svg>
