<svg width="20" height="20" viewBox="0 0 20 20" fill="none" xmlns="http://www.w3.org/2000/svg">
<path d="M10 16.2324C13.4518 16.2324 16.25 13.4372 16.25 9.98924C16.25 6.54125 13.4518 3.74609 10 3.74609C6.54822 3.74609 3.75 6.54125 3.75 9.98924C3.75 13.4372 6.54822 16.2324 10 16.2324Z" stroke="#797D83" stroke-width="1.2" stroke-linecap="round" stroke-linejoin="round"/>
<path d="M10 12.4862C11.3807 12.4862 12.5 11.3682 12.5 9.98896C12.5 8.60976 11.3807 7.4917 10 7.4917C8.61929 7.4917 7.5 8.60976 7.5 9.98896C7.5 11.3682 8.61929 12.4862 10 12.4862Z" stroke="#797D83" stroke-width="1.2" stroke-linecap="round" stroke-linejoin="round"/>
<path d="M10 3.32939V1.66455" stroke="#797D83" stroke-width="1.2" stroke-linecap="round" stroke-linejoin="round"/>
<path d="M3.33464 9.98926H1.66797" stroke="#797D83" stroke-width="1.2" stroke-linecap="round" stroke-linejoin="round"/>
<path d="M10 16.6479V18.3128" stroke="#797D83" stroke-width="1.2" stroke-linecap="round" stroke-linejoin="round"/>
<path d="M16.668 9.98926H18.3346" stroke="#797D83" stroke-width="1.2" stroke-linecap="round" stroke-linejoin="round"/>
</svg>
