<svg width="30" height="30" viewBox="0 0 30 30" fill="none" xmlns="http://www.w3.org/2000/svg">
<circle cx="15" cy="15" r="15" fill="#171C26" fill-opacity="0.15"/>
<path d="M20.3872 12.7812C19.7309 9.89375 17.2122 8.59375 14.9997 8.59375C14.9997 8.59375 14.9997 8.59375 14.9934 8.59375C12.7872 8.59375 10.2622 9.8875 9.60594 12.775C8.87469 16 10.8497 18.7312 12.6372 20.45C13.2997 21.0875 14.1497 21.4062 14.9997 21.4062C15.8497 21.4062 16.6997 21.0875 17.3559 20.45C19.1434 18.7312 21.1184 16.0062 20.3872 12.7812ZM14.9997 15.9125C13.9122 15.9125 13.0309 15.0312 13.0309 13.9437C13.0309 12.8562 13.9122 11.975 14.9997 11.975C16.0872 11.975 16.9684 12.8562 16.9684 13.9437C16.9684 15.0312 16.0872 15.9125 14.9997 15.9125Z" fill="#171C26"/>
</svg>
