<svg width="631" height="153" viewBox="0 0 631 153" fill="none" xmlns="http://www.w3.org/2000/svg">
<path d="M41.5745 28.9785C42.4609 30.4493 43.0486 32.0749 43.0486 33.7828C43.0486 33.9463 43.0415 34.1143 43.0295 34.2849C43.0747 34.2751 43.1205 34.2691 43.1652 34.2576C45.9601 32.5426 46.562 26.2599 47.6751 24.2854C47.776 24.1066 47.8305 23.9055 47.855 23.6929C45.391 24.8933 43.0377 26.2861 40.825 27.8686C41.0948 28.2349 41.3488 28.6045 41.5745 28.9785Z" fill="#FFB400"/>
<path d="M96.98 24.2836C98.0926 26.2581 98.695 32.5408 101.49 34.2558C101.535 34.2678 101.58 34.2733 101.626 34.2831C101.614 34.113 101.607 33.9451 101.607 33.781C101.607 32.0736 102.194 30.448 103.081 28.9767C103.416 28.4201 103.808 27.8734 104.237 27.3353C101.896 25.7299 99.4036 24.3354 96.7979 23.1465C96.7559 23.5597 96.7962 23.9571 96.98 24.2836Z" fill="#FFB400"/>
<path d="M139.898 52.0657C134.786 55.7155 134.709 55.7678 130.85 57.7862C129.88 58.2931 128.659 58.9324 127.04 59.7953C127.314 64.2059 125.478 67.279 120.1 67.2953C121.089 69.5219 121.564 71.5882 121.414 73.7096C121.202 76.6867 119.771 79.4529 117.628 82.6159C118.582 83.0585 119.528 83.5714 120.462 84.1813C123.427 86.1147 123.944 90.5689 122.717 94.3369C118.508 107.261 107.77 115.998 94.1055 123.311C89.817 125.603 83.8638 125.231 81.7909 121.464C81.1303 120.262 80.6261 119.013 80.2424 117.736C77.7553 119.478 75.2011 120.049 72.9097 119.984C70.6188 120.049 68.0641 119.478 65.577 117.736C65.1932 119.013 64.6891 120.262 64.0284 121.464C61.9556 125.231 56.0024 125.603 51.7139 123.311C38.0497 115.998 27.3103 107.262 23.1019 94.3369C21.8744 90.5694 22.3922 86.1152 25.3574 84.1813C26.2916 83.5719 27.2378 83.0585 28.1917 82.6159C26.0485 79.4535 24.6172 76.6867 24.4057 73.7096C24.2547 71.5882 24.73 69.5219 25.7198 67.2953C20.5892 67.2795 18.6825 64.4822 18.755 60.3959C18.6853 60.3637 18.6144 60.3365 18.5452 60.2994C9.56693 55.486 11.4866 56.8797 4.74476 52.0663C4.30871 51.755 3.83233 51.4149 3.3167 51.047C1.13536 58.0254 0 65.3701 0 72.8904C0 92.3654 7.58399 110.675 21.355 124.446C35.126 138.217 53.4352 145.801 72.9102 145.801C92.3853 145.801 110.694 138.217 124.465 124.446C138.236 110.675 145.82 92.3654 145.82 72.8904C145.82 65.1172 144.609 57.5311 142.281 50.3439C142.203 50.4087 142.128 50.4763 142.044 50.5357C141.239 51.1086 140.529 51.615 139.898 52.0657Z" fill="#171C26"/>
<path d="M36.8883 23.8846L39.1405 21.8761C39.2958 21.7376 39.4724 21.6259 39.6643 21.5458L46.1086 18.8406C46.9518 18.4869 47.928 18.791 48.4207 19.5612C48.4207 19.5612 48.8589 20.2229 49.2301 21.1506C56.5934 17.9603 64.7508 16.3633 72.9082 16.3633C80.6987 16.3633 88.4833 17.8322 95.5822 20.7423C95.9038 20.0338 96.2188 19.5606 96.2188 19.5606C96.7116 18.7899 97.6872 18.4858 98.531 18.8401L104.975 21.5452C105.167 21.6253 105.344 21.7371 105.499 21.8755L107.751 23.8841C109.723 22.274 111.987 20.8301 114.261 19.6282C116.083 18.6651 117.997 17.8121 119.868 17.1357C106.741 6.04583 90.2907 0 72.9087 0C55.3664 0 38.772 6.15593 25.5864 17.4414C27.1954 18.0623 28.8208 18.8046 30.3792 19.6282C32.6521 20.8306 34.9168 22.2745 36.8883 23.8846Z" fill="#797D83"/>
<path d="M40.3877 23.3066L46.8328 20.6011C46.8328 20.6011 47.2172 21.2029 47.5148 21.9683C48.0823 21.6984 48.6492 21.4281 49.2271 21.1778C48.8558 20.2495 48.4175 19.5882 48.4175 19.5882C47.9247 18.8174 46.9489 18.5132 46.1051 18.8676L39.6599 21.5731C39.468 21.6532 39.2914 21.765 39.1361 21.9034L36.8835 23.9122C37.3796 24.3173 37.8566 24.7332 38.3113 25.1584L40.3877 23.3066Z" fill="#797D83"/>
<path d="M39.7107 26.5519C42.1649 24.7878 44.7865 23.2571 47.5307 21.952C47.233 21.1867 46.8487 20.5848 46.8487 20.5848L40.4036 23.2904L38.3271 25.1422C38.8183 25.6012 39.2795 26.0722 39.7107 26.5519Z" fill="#797D83"/>
<path d="M97.803 20.6008L104.248 23.3063L106.325 25.1581C106.779 24.7329 107.256 24.317 107.752 23.9119L105.5 21.9031C105.344 21.7646 105.168 21.6529 104.976 21.5727L98.5307 18.8672C97.6874 18.5134 96.7111 18.8176 96.2183 19.5879C96.2183 19.5879 95.9037 20.0611 95.5815 20.7697C96.1643 21.0085 96.7416 21.256 97.3145 21.5144C97.5626 20.9785 97.803 20.6008 97.803 20.6008Z" fill="#797D83"/>
<path d="M106.328 25.1422L104.251 23.2904L97.806 20.5848C97.806 20.5848 97.5656 20.9626 97.3181 21.4979C100.154 22.7768 102.867 24.2918 105.409 26.0509C105.704 25.7446 106.009 25.4409 106.328 25.1422Z" fill="#797D83"/>
<path d="M45.991 58.8248C46.3284 58.5686 46.668 58.3102 47.0093 58.0513C46.668 58.3108 46.3284 58.5686 45.991 58.8248Z" fill="#171C26"/>
<path d="M78.8438 47.6838C79.5797 47.8359 80.2933 48.0126 80.9851 48.2088C80.2938 48.0126 79.5797 47.8354 78.8438 47.6838Z" fill="#171C26"/>
<path d="M65.0571 48.1792C65.6164 48.0249 66.1894 47.8837 66.777 47.7578C66.1894 47.8837 65.6159 48.0249 65.0571 48.1792Z" fill="#171C26"/>
<path d="M93.8713 54.3967C95.3868 55.421 96.814 56.4775 98.1986 57.5242C96.814 56.4781 95.3868 55.4216 93.8713 54.3967Z" fill="#171C26"/>
<path d="M93.8712 54.4314C92.3552 53.4071 90.7509 52.4144 89.0102 51.4959C90.7503 52.4144 92.3552 53.4071 93.8712 54.4314Z" fill="#171C26"/>
<path d="M98.1938 57.6285C99.0246 58.2565 99.8402 58.8807 100.651 59.4918C99.8396 58.8802 99.0241 58.256 98.1938 57.6285Z" fill="#171C26"/>
<path d="M103.879 61.8041C104.422 62.178 104.969 62.5411 105.523 62.8905C104.969 62.5411 104.422 62.178 103.879 61.8041Z" fill="#171C26"/>
<path d="M29.9536 81.8977C34.3425 80.316 38.8474 80.3503 43.1283 81.562C44.5553 81.9659 45.9577 82.5006 47.3226 83.1498C47.5957 83.2795 47.8671 83.4141 48.1369 83.5531C48.6765 83.8311 49.2101 84.1265 49.7361 84.4388C49.9994 84.5947 50.2605 84.7555 50.5199 84.9196C51.0388 85.2482 51.5495 85.5933 52.0526 85.9536C52.8065 86.4937 53.5417 87.0682 54.2552 87.6738C55.2064 88.4805 56.1193 89.3422 56.9871 90.2497C57.4209 90.7038 57.8439 91.1687 58.2543 91.6446C61.3339 95.2136 63.7366 99.373 65.1221 103.684C65.3069 104.259 65.4737 104.837 65.6209 105.416C65.6944 105.706 65.7637 105.995 65.828 106.286C66.2139 108.027 66.4259 109.779 66.4428 111.513C66.457 112.958 66.3354 114.391 66.0651 115.794C68.399 117.646 70.788 118.192 72.9029 118.122C75.0177 118.192 77.4067 117.647 79.7407 115.794C79.4709 114.391 79.3488 112.958 79.363 111.513C79.3799 109.779 79.5919 108.027 79.9778 106.286C80.0421 105.995 80.1113 105.706 80.1849 105.416C80.3326 104.837 80.4994 104.259 80.6842 103.684C82.0692 99.3735 84.4718 95.2136 87.5514 91.6446C87.9619 91.1687 88.3848 90.7032 88.8187 90.2497C89.0356 90.023 89.2553 89.799 89.4777 89.5777C90.1448 88.9149 90.8371 88.2788 91.5506 87.6738C92.264 87.0688 92.9993 86.4943 93.7531 85.9536C95.0095 85.0531 96.3188 84.2475 97.6683 83.5531C98.2079 83.2751 98.7541 83.0157 99.3057 82.7742C104.546 80.4839 110.293 79.8941 115.852 81.8977C119.815 76.1288 120.711 72.7467 117.981 67.2383C117.597 67.21 117.221 67.174 116.85 67.1304C116.109 67.0432 115.393 66.926 114.698 66.7815C114.003 66.6371 113.33 66.4654 112.674 66.2697C110.711 65.6816 108.914 64.8722 107.205 63.9151C106.635 63.5962 106.075 63.2604 105.522 62.9111C104.968 62.5617 104.422 62.1987 103.878 61.8247C102.792 61.0764 101.721 60.2844 100.641 59.469C99.83 58.858 99.0146 58.2339 98.184 57.606C96.7995 56.56 95.3731 55.5037 93.8573 54.4789C92.3414 53.4548 90.7373 52.4622 88.9969 51.5438C86.76 50.3626 84.0936 49.0866 80.9807 48.2036C80.289 48.0074 79.5755 47.8308 78.8397 47.6788C78.1039 47.5267 77.3457 47.3991 76.5657 47.3021C75.3955 47.1566 74.1745 47.0781 72.9029 47.0863C70.7052 47.0732 68.6618 47.3185 66.7649 47.7245C66.1774 47.8504 65.604 47.9916 65.0453 48.1459C64.6245 48.262 64.2086 48.383 63.8036 48.5127C61.1246 49.3695 58.7967 50.4945 56.8083 51.5443C55.299 52.3407 53.8944 53.1942 52.5584 54.0745C52.2287 54.292 51.9033 54.5106 51.5817 54.7313C50.4283 55.5222 49.3241 56.3283 48.2497 57.1339C47.8273 57.4506 47.4098 57.7668 46.995 58.0813C46.6538 58.3402 46.3142 58.5985 45.9768 58.8547C44.8905 59.6799 43.8189 60.4872 42.7392 61.2562C42.199 61.6405 41.6567 62.0155 41.1094 62.378C40.288 62.9214 39.4552 63.437 38.6005 63.9156C38.0309 64.2345 37.4515 64.5375 36.859 64.821C36.5631 64.9627 36.2638 65.0995 35.9608 65.2314C35.3552 65.4952 34.7355 65.7383 34.0988 65.958C33.7805 66.0681 33.4578 66.1722 33.1303 66.2703C32.4756 66.4665 31.8025 66.6382 31.107 66.7821C30.412 66.9265 29.6953 67.0437 28.9545 67.1309C28.5839 67.1745 28.2073 67.2105 27.8241 67.2388C25.0944 72.7472 25.9899 76.1288 29.9536 81.8977ZM82.0894 85.6445C81.3781 86.6213 80.138 87.1887 79.0485 87.5402C77.3909 88.0749 75.2183 88.3753 72.9029 88.3753C72.8904 88.3753 72.8778 88.3753 72.8707 88.3753C72.8582 88.3753 72.8457 88.3753 72.8331 88.3753C70.5177 88.3753 68.3451 88.0749 66.6875 87.5402C65.598 87.1887 64.358 86.6207 63.6466 85.6445C63.3272 85.2057 63.0776 84.6312 63.0776 83.9548C63.0776 83.0249 63.5393 82.3125 64.0069 81.8443C65.6252 80.226 69.3393 79.5338 72.8326 79.5338C72.8451 79.5338 72.8577 79.5338 72.8647 79.5338C72.8773 79.5338 72.8898 79.5338 72.9023 79.5338C75.2178 79.5338 77.3904 79.8341 79.0479 80.3689C80.1375 80.7204 81.3775 81.2878 82.0888 82.2646C82.4082 82.7034 82.6579 83.2778 82.6579 83.9548C82.6584 84.6318 82.4088 85.2057 82.0894 85.6445ZM64.0713 54.8845C66.3294 52.6263 69.4543 51.2266 72.9029 51.2266C76.3515 51.2266 79.4763 52.6268 81.7345 54.8845C83.9927 57.1427 85.393 60.2675 85.393 63.7161C85.393 67.1647 83.9927 70.2896 81.7345 72.5478C79.4763 74.8059 76.3515 76.2062 72.9029 76.2062C69.4543 76.2062 66.3294 74.8059 64.0713 72.5478C61.8131 70.2896 60.4128 67.1647 60.4128 63.7161C60.4128 60.2681 61.8131 57.1427 64.0713 54.8845Z" fill="#171C26"/>
<path d="M72.9006 79.2674C81.6532 79.2674 88.7485 72.8816 88.7485 65.0043C88.7485 57.127 81.6532 50.7412 72.9006 50.7412C64.1481 50.7412 57.0527 57.127 57.0527 65.0043C57.0527 72.8816 64.1481 79.2674 72.9006 79.2674Z" fill="#171C26"/>
<path d="M72.9705 79.2322C72.9476 79.2322 72.9236 79.2322 72.9006 79.2322C72.8777 79.2322 72.8537 79.2322 72.8307 79.2322C64.1161 79.2322 57.0527 81.361 57.0527 83.9865C57.0527 86.6121 64.1172 88.7409 72.8307 88.7409C72.8537 88.7409 72.8777 88.7409 72.9006 88.7409C72.9236 88.7409 72.9476 88.7409 72.9705 88.7409C81.6851 88.7409 88.7485 86.6121 88.7485 83.9865C88.7485 81.361 81.684 79.2322 72.9705 79.2322Z" fill="#171C26"/>
<path d="M120.879 54.5198C120.942 55.4389 121.117 56.9909 121.585 57.6315C121.894 58.0496 122.447 58.3777 122.968 58.6165C123.663 58.93 124.482 58.9741 125.161 58.635C124.93 57.0716 124.446 55.2846 123.72 53.3271C123.607 53.0229 123.482 52.7143 123.359 52.4069L120.828 54.281C120.855 54.3574 120.872 54.4364 120.879 54.5198Z" fill="#FFB400"/>
<path d="M115.536 47.6992C115.579 48.9067 115.771 51.0992 116.577 52.081C117.38 53.0563 119.155 53.5338 120.143 53.7328C120.242 53.7524 120.336 53.7856 120.418 53.8358L123.178 51.9932C122.969 51.4841 122.748 50.9711 122.516 50.4565C121.565 48.3512 120.431 46.2159 119.208 44.1531L115.442 47.3307C115.499 47.4402 115.529 47.5667 115.536 47.6992Z" fill="#FFB400"/>
<path d="M140.565 41.2881C141.091 40.0023 142.109 37.2481 141.021 35.711C140.397 34.8318 138.641 33.7548 137.632 33.552C137.085 33.4392 136.757 32.8756 136.939 32.348C137.437 30.8954 138.146 28.2655 137.403 26.6935C136.578 24.9389 133.775 23.8575 132.561 23.4596C132.223 23.3501 131.981 23.0514 131.938 22.6966C131.791 21.5258 131.344 18.9623 130.137 18.057C128.942 17.1593 126.466 17.2334 123.489 17.9867C130.591 24.5312 136.42 32.4363 140.565 41.2881Z" fill="#FFB400"/>
<path d="M104.607 35.8397C104.434 35.9035 104.255 35.9597 104.073 36.0114C104.679 37.0052 105.833 37.8431 107.893 38.2056C108.043 38.2323 108.178 38.2917 108.291 38.3746L112.847 35.0689C112.468 34.6181 112.095 34.1896 111.728 33.7862C111.359 33.3795 110.993 32.9892 110.642 32.637C110.396 32.3912 110.135 32.1617 109.884 31.9224C108.572 33.3566 106.687 35.07 104.607 35.8397Z" fill="#FFB400"/>
<path d="M108.657 39.2456C108.481 40.6919 108.325 43.4813 109.453 44.8812C110.594 46.2975 113.304 46.6922 114.684 46.805C114.78 46.8116 114.87 46.835 114.953 46.8715L118.985 43.7817C118.695 43.2976 118.4 42.8195 118.101 42.3463C116.466 39.7575 114.728 37.3496 113.073 35.3528L108.633 38.9076C108.663 39.0134 108.67 39.1295 108.657 39.2456Z" fill="#FFB400"/>
<path d="M103.498 34.2244C103.547 34.8349 103.715 35.4526 104.061 36.0195C104.242 35.9677 104.421 35.9116 104.594 35.8478C106.675 35.0781 108.56 33.3647 109.872 31.931C109.416 31.4971 108.958 31.0664 108.485 30.6532C107.214 32.0438 105.378 33.7043 103.498 34.2244Z" fill="#FFB400"/>
<path d="M103.481 33.8354C103.481 33.9738 103.489 34.1139 103.501 34.254C105.381 33.734 107.217 32.0735 108.487 30.6823C107.61 29.9142 106.697 29.1886 105.763 28.4908C104.349 30.2391 103.481 32.0566 103.481 33.8354Z" fill="#FFB400"/>
<path d="M118.987 43.7915L120.394 42.7127C120.096 42.2177 119.792 41.7282 119.484 41.2446L118.103 42.3562C118.402 42.8299 118.696 43.308 118.987 43.7915Z" fill="#FFB400"/>
<path d="M123.162 52.039L124.653 51.0441C124.434 50.5229 124.204 49.9991 123.962 49.473L122.499 50.5022C122.732 51.0174 122.953 51.5298 123.162 52.039Z" fill="#FFB400"/>
<path d="M118.103 42.3522L119.485 41.2407C117.849 38.6644 116.112 36.2663 114.45 34.2581L113.075 35.3587C114.73 37.3555 116.468 39.7639 118.103 42.3522Z" fill="#FFB400"/>
<path d="M110.637 32.6591C110.989 33.0113 111.354 33.4016 111.723 33.8083L113.13 32.7354C112.704 32.2634 112.286 31.8207 111.881 31.4157C111.602 31.1365 111.307 30.876 111.021 30.6045C110.721 30.9839 110.336 31.4446 109.879 31.9444C110.13 32.1843 110.391 32.4133 110.637 32.6591Z" fill="#FFB400"/>
<path d="M112.84 35.0727L114.27 34.0348C113.884 33.5736 113.502 33.1326 113.128 32.7172L111.721 33.79C112.088 34.1928 112.461 34.6219 112.84 35.0727Z" fill="#FFB400"/>
<path d="M122.506 50.4654L123.969 49.4361C122.981 47.2834 121.818 45.1061 120.564 43.0095L119.198 44.1619C120.421 46.2247 121.555 48.36 122.506 50.4654Z" fill="#FFB400"/>
<path d="M141.574 48.3228C141.835 47.8943 141.986 47.3956 141.99 46.8832C141.994 46.1005 141.957 45.175 141.771 44.661C141.536 44.0108 140.912 43.2913 140.501 42.8634C140.269 42.6214 140.189 42.2698 140.292 41.9483C140.322 41.8518 140.424 41.6196 140.555 41.2996C136.411 32.4478 130.582 24.5433 123.479 17.9988C122.84 18.1607 122.18 18.3531 121.501 18.5755C122.507 19.4764 123.493 20.4052 124.455 21.3667C132.203 29.1153 137.993 38.3007 141.574 48.3228Z" fill="#FFB400"/>
<path d="M123.343 52.4475C123.465 52.7549 123.591 53.0635 123.703 53.3677C124.43 55.3253 124.913 57.1122 125.144 58.6757C125.163 58.6664 125.182 58.6604 125.2 58.6506C125.772 58.3437 126.296 58.0646 126.785 57.8051C126.425 55.8066 125.732 53.6174 124.808 51.3627L123.343 52.4475Z" fill="#FFB400"/>
<path d="M108.485 30.6272C108.958 31.041 109.416 31.4711 109.872 31.905C110.328 31.4051 110.714 30.9445 111.014 30.5651C110.556 30.1312 110.096 29.6999 109.622 29.2856C109.335 29.652 108.949 30.1202 108.485 30.6272Z" fill="#FFB400"/>
<path d="M105.76 28.4416C106.695 29.1393 107.607 29.8655 108.485 30.633C108.948 30.126 109.334 29.6572 109.622 29.2914C108.755 28.5331 107.855 27.8152 106.935 27.1234C106.509 27.5573 106.119 27.9973 105.76 28.4416Z" fill="#FFB400"/>
<path d="M111.453 27.1561C112.162 27.7883 112.288 28.8496 111.747 29.6306C111.747 29.6306 111.485 30.0138 111.032 30.5867C111.317 30.8581 111.613 31.1187 111.891 31.3977C112.296 31.8033 112.714 32.2453 113.14 32.7173C113.514 33.1327 113.896 33.5736 114.282 34.0347L119.006 30.6069L119.005 30.6074L114.458 34.2468C116.12 36.2548 117.857 38.6525 119.493 41.2285C119.8 41.7119 120.103 42.202 120.402 42.6963L126.012 38.3985L126.014 38.3969L120.577 42.9852C121.831 45.0815 122.995 47.259 123.982 49.411C124.223 49.9364 124.453 50.4607 124.672 50.9818L131.413 46.4823L131.411 46.4834L124.829 51.3574C125.753 53.6117 126.446 55.8007 126.806 57.7989C134.728 53.591 132.242 55.2191 140.965 49.0065C141.231 48.8174 141.432 48.5667 141.598 48.2936C138.015 38.2721 132.226 29.0861 124.477 21.3375C123.515 20.3755 122.529 19.4473 121.524 18.5463C117.421 19.8909 112.753 22.2892 109.191 25.1382L111.453 27.1561Z" fill="#FFB400"/>
<path d="M110.184 28.5557C110.184 28.5557 109.98 28.85 109.623 29.3036C110.097 29.7179 110.556 30.1491 111.014 30.583C111.467 30.0101 111.73 29.6269 111.73 29.6269C112.271 28.8462 112.144 27.7843 111.436 27.152L109.173 25.1344C108.669 25.5378 108.185 25.9483 107.731 26.3675L110.184 28.5557Z" fill="#FFB400"/>
<path d="M106.936 27.1449C107.856 27.8367 108.755 28.5546 109.623 29.3129C109.98 28.8599 110.185 28.565 110.185 28.565L107.732 26.3773C107.456 26.6308 107.19 26.8865 106.936 27.1449Z" fill="#FFB400"/>
<path d="M36.7587 38.2151C38.8188 37.8526 39.9728 37.0147 40.5785 36.0209C40.3969 35.9691 40.2187 35.913 40.0453 35.8492C38.2431 35.1825 36.5881 33.8066 35.3234 32.5184C35.2787 32.5626 35.2307 32.6029 35.1865 32.6476C34.6834 33.1508 34.1584 33.7183 33.622 34.3299C33.2649 34.7366 32.9035 35.1623 32.5366 35.6104L36.3602 38.3846C36.4736 38.3012 36.6093 38.2413 36.7587 38.2151Z" fill="#FFB400"/>
<path d="M29.9642 46.8051C31.344 46.6922 34.0539 46.2975 35.1954 44.8813C36.3233 43.4814 36.1674 40.6919 35.9913 39.2456C35.9782 39.1295 35.9847 39.0134 36.0147 38.9071L32.2876 35.9236C30.6391 37.97 28.9258 40.3915 27.329 42.9755C27.0385 43.4459 26.7523 43.9207 26.4705 44.4005L29.6955 46.8716C29.7789 46.835 29.8683 46.8121 29.9642 46.8051Z" fill="#FFB400"/>
<path d="M22.0667 18.2346C18.6873 17.2568 15.822 17.0698 14.5073 18.0575C13.3 18.9628 12.8525 21.5268 12.7064 22.6971C12.6633 23.0519 12.4213 23.3506 12.0828 23.4601C10.869 23.858 8.06627 24.9394 7.2405 26.694C6.49758 28.266 7.20725 30.8959 7.70489 32.3485C7.88749 32.8755 7.55881 33.4397 7.01157 33.5525C6.00321 33.7547 4.24647 34.8323 3.62292 35.7115C2.26463 37.6307 4.19033 41.4532 4.34186 41.9372C4.44433 42.2588 4.3653 42.6103 4.1331 42.8524C3.72158 43.2802 3.09857 43.9997 2.8631 44.65C2.67724 45.164 2.64072 46.0895 2.64399 46.8722C2.64563 47.0591 2.6707 47.245 2.70722 47.4271C6.78592 36.1928 13.4864 26.2176 22.0667 18.2346Z" fill="#FFB400"/>
<path d="M24.5181 53.7398C25.5065 53.5408 27.2814 53.0633 28.0839 52.088C28.8901 51.1063 29.0825 48.9137 29.1256 47.7062C29.1322 47.5738 29.1621 47.4473 29.2183 47.3383L26.2391 44.8241C25.0442 46.8891 23.9545 49.014 23.0473 51.0986C22.8244 51.6105 22.6145 52.1186 22.4155 52.6239L24.2428 53.8434C24.3257 53.7932 24.4189 53.76 24.5181 53.7398Z" fill="#FFB400"/>
<path d="M23.0822 57.6767C23.5499 57.0367 23.7254 55.4842 23.7887 54.5651C23.7952 54.4822 23.8116 54.4026 23.8383 54.3263L22.2192 53.1276C22.1887 53.2088 22.1533 53.2911 22.1233 53.3718C21.3601 55.4291 20.8711 57.2929 20.6558 58.9115C21.0128 58.8951 21.3699 58.8095 21.6986 58.6612C22.2198 58.423 22.7736 58.0948 23.0822 57.6767Z" fill="#FFB400"/>
<path d="M40.0398 35.8737C40.2126 35.9374 40.3914 35.9936 40.5729 36.0454C40.9186 35.4779 41.0859 34.8608 41.1361 34.2502C39.5083 33.8 37.9132 32.4949 36.6894 31.2493C36.2249 31.6717 35.7648 32.0997 35.3184 32.5423C36.5825 33.8316 38.2376 35.207 40.0398 35.8737Z" fill="#FFB400"/>
<path d="M41.1356 34.2168C41.1471 34.0767 41.1547 33.9366 41.1547 33.7981C41.1547 32.208 40.458 30.5873 39.3029 29.0129C38.404 29.7134 37.5328 30.4488 36.689 31.2158C37.9128 32.462 39.5079 33.7665 41.1356 34.2168Z" fill="#FFB400"/>
<path d="M35.1968 32.677C35.2409 32.6328 35.2889 32.5919 35.3336 32.5478C34.8866 32.0926 34.4843 31.6472 34.1474 31.2493C34.0836 31.312 34.016 31.3697 33.9528 31.433C33.3978 31.9879 32.82 32.6105 32.2285 33.2886L33.6317 34.3593C34.1687 33.7471 34.6936 33.1796 35.1968 32.677Z" fill="#FFB400"/>
<path d="M33.6137 34.3352L32.2106 33.2645C31.8459 33.6821 31.4757 34.1231 31.1023 34.581L32.5284 35.6157C32.8953 35.1676 33.2567 34.7418 33.6137 34.3352Z" fill="#FFB400"/>
<path d="M26.2354 44.8103L24.8693 43.6573C23.6443 45.7539 22.517 47.9192 21.5723 50.0496L23.0441 51.0848C23.9507 49.0008 25.0404 46.8753 26.2354 44.8103Z" fill="#FFB400"/>
<path d="M32.2924 35.9573L30.9165 34.8561C29.262 36.9102 27.5508 39.3257 25.9514 41.8976L27.3333 43.0091C28.9306 40.4252 30.644 38.0037 32.2924 35.9573Z" fill="#FFB400"/>
<path d="M27.3174 43.0029L25.9355 41.8914C25.6362 42.3722 25.3413 42.8584 25.0513 43.3491L26.4588 44.4279C26.7406 43.9482 27.0268 43.4733 27.3174 43.0029Z" fill="#FFB400"/>
<path d="M23.0393 51.081L21.5674 50.0458C21.3357 50.568 21.1155 51.0881 20.9072 51.6049L22.4074 52.6063C22.6064 52.1009 22.8168 51.5929 23.0393 51.081Z" fill="#FFB400"/>
<path d="M20.6461 58.957C20.8614 57.338 21.3504 55.4747 22.1136 53.4173C22.1436 53.3366 22.179 53.2538 22.2095 53.1731L20.7393 52.0845C19.8643 54.319 19.2287 56.4766 18.9365 58.4315C19.1033 58.5209 19.2652 58.607 19.4402 58.7008C19.8115 58.8998 20.2285 58.9761 20.6461 58.957Z" fill="#FFB400"/>
<path d="M23.9858 18.8414C23.3323 18.6087 22.6929 18.4037 22.0688 18.2228C13.4884 26.2058 6.78798 36.1804 2.70874 47.4152C2.83519 48.0502 3.16387 48.6351 3.69367 49.0122C3.77761 49.0717 3.85283 49.1256 3.93404 49.1834C7.48785 38.8185 13.3827 29.3186 21.3586 21.3433C22.2171 20.4853 23.093 19.6514 23.9858 18.8414Z" fill="#FFB400"/>
<path d="M36.691 31.211C36.2407 30.7525 35.8422 30.3039 35.5097 29.9081C35.0436 30.3317 34.5829 30.7618 34.1343 31.2055C34.4712 31.6035 34.8735 32.0488 35.3205 32.504C35.7664 32.0608 36.2265 31.6334 36.691 31.211Z" fill="#FFB400"/>
<path d="M38.1911 27.6455C37.2709 28.364 36.379 29.1185 35.5139 29.9057C35.847 30.3014 36.2449 30.7501 36.6952 31.2085C37.5391 30.441 38.4097 29.7056 39.3092 29.0056C38.9734 28.5472 38.601 28.0936 38.1911 27.6455Z" fill="#FFB400"/>
<path d="M20.73 52.0389L13.2403 46.4935L13.2387 46.4924L20.9028 51.6083C21.111 51.0916 21.3312 50.5716 21.5628 50.0495C22.508 47.9194 23.6346 45.7544 24.8594 43.6581L18.6375 38.4069L18.6391 38.4086L25.0561 43.325C25.3461 42.8345 25.641 42.3483 25.9402 41.8675C27.5394 39.2959 29.2504 36.8808 30.9047 34.827L25.6464 30.6175L25.6454 30.6169L31.1058 34.579C31.4792 34.1211 31.8493 33.6802 32.2139 33.2627C32.8053 32.5851 33.3831 31.9627 33.9379 31.4073C34.0012 31.344 34.0693 31.2863 34.1325 31.2236C33.3596 30.31 32.905 29.6402 32.905 29.6402C32.3638 28.8596 32.4902 27.7979 33.1988 27.1656L35.4608 25.1483C32.143 22.4949 27.8659 20.2302 23.978 18.8452C23.0852 19.6552 22.2093 20.4891 21.3508 21.3476C13.3755 29.3229 7.48007 38.8228 3.92627 49.1877C12.7192 55.4527 9.77969 53.4953 18.9264 58.3851C19.2196 56.43 19.8552 54.2732 20.73 52.0389Z" fill="#FFB400"/>
<path d="M34.4496 28.5551L36.9032 26.3675C36.4486 25.9483 35.9645 25.5378 35.4603 25.1344L33.198 27.1519C32.4893 27.7843 32.3628 28.8457 32.9041 29.6269C32.9041 29.6269 33.3582 30.2968 34.1318 31.2105C34.581 30.7668 35.0416 30.3366 35.5071 29.9131C34.8475 29.1275 34.4496 28.5551 34.4496 28.5551Z" fill="#FFB400"/>
<path d="M36.9043 26.3773L34.4507 28.565C34.4507 28.565 34.8481 29.1373 35.5083 29.9218C36.3734 29.1352 37.2652 28.3802 38.1854 27.6617C37.788 27.2277 37.3612 26.7987 36.9043 26.3773Z" fill="#FFB400"/>
<path d="M83.3201 62.4695C80.9446 59.0036 77.1538 57.0446 72.9082 57.0446C68.6626 57.0446 64.8718 59.0036 62.4963 62.4695C60.1208 65.8852 59.5648 70.2051 61.0305 74.0226C61.4349 75.0273 62.0414 76.0821 62.8501 77.0365L71.6477 88.6597C72.2796 89.4946 73.5348 89.4931 74.1647 88.6567L82.9158 77.0365C83.7245 76.0821 84.3815 75.0775 84.7353 74.0226C86.2516 70.2051 85.6956 65.8852 83.3201 62.4695ZM72.9082 73.6208C70.0778 73.6208 67.7528 71.3604 67.7528 68.5977C67.7528 65.835 70.0778 63.5746 72.9082 63.5746C75.7386 63.5746 78.0636 65.835 78.0636 68.5977C78.0636 71.3604 75.7386 73.6208 72.9082 73.6208Z" fill="white"/>
<path d="M216.752 121.327V48.5883H187.602V25.0753H274.091V48.5883H243.978V121.327H216.752Z" fill="#171C26"/>
<path d="M300.876 122.565C294.826 122.565 289.372 120.961 284.513 117.752C279.747 114.452 275.942 109.96 273.101 104.277C270.351 98.5018 268.976 91.9475 268.976 84.614C268.976 77.0972 270.351 70.4971 273.101 64.8136C275.851 59.1302 279.655 54.6842 284.513 51.4758C289.372 48.1758 294.964 46.5257 301.289 46.5257C304.681 46.5257 307.797 46.9841 310.639 47.9008C313.481 48.8174 315.956 50.1466 318.064 51.8884C320.173 53.6301 322.006 55.6009 323.564 57.801C325.123 60.001 326.406 62.3844 327.414 64.9511L322.189 64.6761V48.0383H347.352V121.327H321.639V103.452L327.277 103.727C326.452 106.385 325.214 108.86 323.564 111.152C322.006 113.444 320.081 115.461 317.789 117.202C315.497 118.852 312.931 120.181 310.089 121.19C307.339 122.106 304.268 122.565 300.876 122.565ZM308.164 101.527C311.097 101.527 313.618 100.885 315.727 99.6019C317.835 98.2268 319.439 96.256 320.539 93.6892C321.731 91.1225 322.327 88.0975 322.327 84.614C322.327 81.039 321.731 77.9681 320.539 75.4013C319.439 72.8346 317.835 70.9096 315.727 69.6262C313.618 68.2512 311.097 67.5637 308.164 67.5637C305.231 67.5637 302.71 68.2512 300.601 69.6262C298.585 70.9096 297.026 72.8346 295.926 75.4013C294.826 77.9681 294.276 81.039 294.276 84.614C294.276 88.0975 294.826 91.1225 295.926 93.6892C297.026 96.256 298.585 98.2268 300.601 99.6019C302.71 100.885 305.231 101.527 308.164 101.527Z" fill="#171C26"/>
<path d="M410.315 121.327L398.214 100.839L360.676 48.0383H390.927L402.202 67.0137L412.515 81.1765L440.428 121.327H410.315ZM359.576 121.327L389.414 78.5639L402.889 94.5143L389.689 121.327H359.576ZM409.765 90.9392L396.427 74.9888L409.352 48.0383H439.465L409.765 90.9392Z" fill="#171C26"/>
<path d="M453.487 121.327V48.0383H479.063V121.327H453.487ZM466.275 34.1505C461.6 34.1505 457.979 33.0963 455.412 30.9879C452.846 28.7879 451.562 25.717 451.562 21.7752C451.562 18.1085 452.846 15.1292 455.412 12.8375C458.071 10.4541 461.692 9.26245 466.275 9.26245C470.858 9.26245 474.434 10.3625 477 12.5625C479.659 14.6709 480.988 17.7418 480.988 21.7752C480.988 25.442 479.659 28.4212 477 30.7129C474.342 33.0046 470.767 34.1505 466.275 34.1505Z" fill="#171C26"/>
<path d="M502.286 121.327V46.3882C502.286 41.3465 503.386 36.763 505.586 32.6379C507.786 28.5129 510.857 25.2128 514.799 22.7377C518.74 20.2627 523.324 19.0252 528.549 19.0252C532.216 19.0252 535.561 19.5293 538.587 20.5377C541.703 21.546 544.591 22.9669 547.249 24.8003L540.374 43.0882C539.182 42.7215 538.082 42.4465 537.074 42.2631C536.066 41.9881 535.195 41.8506 534.461 41.8506C532.903 41.8506 531.62 42.1256 530.611 42.6757C529.695 43.2257 529.007 44.0507 528.549 45.1507C528.182 46.2507 527.999 47.5799 527.999 49.1383V121.327H515.211C512.094 121.327 509.436 121.327 507.236 121.327C505.127 121.327 503.477 121.327 502.286 121.327ZM491.973 70.8638V50.3758H542.024V70.8638H491.973Z" fill="#171C26"/>
<path d="M561.079 152.953L578.679 111.427L578.954 122.702L544.166 48.0383H572.767L585.005 77.1889C586.013 79.4806 586.884 81.7723 587.617 84.064C588.442 86.2641 589.038 88.3725 589.405 90.3892L586.517 92.5892C586.884 91.3975 587.434 89.7475 588.167 87.6391C588.9 85.5307 589.725 83.1015 590.642 80.3514L601.78 48.0383H630.518L598.755 121.327L585.967 152.953H561.079Z" fill="#171C26"/>
</svg>
