<svg width="20" height="20" viewBox="0 0 20 20" fill="none" xmlns="http://www.w3.org/2000/svg">
<path d="M18.3337 7.49174V12.4863C18.3337 14.5673 17.917 16.024 16.9837 16.9647L11.667 11.6538L18.1087 5.21924C18.2587 5.87685 18.3337 6.62602 18.3337 7.49174Z" stroke="#797D83" stroke-width="1.2" stroke-linecap="round" stroke-linejoin="round"/>
<path d="M18.1087 5.21899L5.22532 18.0882C2.71698 17.5138 1.66699 15.7824 1.66699 12.486V7.49149C1.66699 3.32939 3.33366 1.66455 7.50033 1.66455H12.5003C15.8003 1.66455 17.5337 2.7134 18.1087 5.21899Z" stroke="#797D83" stroke-width="1.2" stroke-linecap="round" stroke-linejoin="round"/>
<path d="M16.983 16.9646C16.0413 17.897 14.583 18.3132 12.4996 18.3132H7.49962C6.63295 18.3132 5.88294 18.2382 5.22461 18.0884L11.6663 11.6538L16.983 16.9646Z" stroke="#797D83" stroke-width="1.2" stroke-linecap="round" stroke-linejoin="round"/>
<path d="M5.19973 6.64272C5.7664 4.20373 9.43307 4.20373 9.99974 6.64272C10.3247 8.07448 9.42473 9.28981 8.63306 10.039C8.05806 10.5884 7.14974 10.5884 6.56641 10.039C5.77474 9.28981 4.8664 8.07448 5.19973 6.64272Z" stroke="#797D83" stroke-width="1.2"/>
<path d="M7.57811 7.24284H7.58559" stroke="#797D83" stroke-width="1.5" stroke-linecap="round" stroke-linejoin="round"/>
</svg>
